<svg width="642" height="687" viewBox="0 0 642 687" fill="none" xmlns="http://www.w3.org/2000/svg">
<circle cx="351.663" cy="393.89" r="163.694" transform="rotate(-0.453025 351.663 393.89)" fill="#084B92"/>
<circle cx="351.664" cy="393.89" r="200.206" stroke="#D7D8D8"/>
<circle cx="351.762" cy="396.49" r="289.047" stroke="#D7D8D8"/>
<g filter="url(#filter0_d_37_756)">
<ellipse cx="183.491" cy="490.238" rx="31.0318" ry="30.7815" fill="#03A9F4"/>
<path d="M183.491 463.457C198.451 463.457 210.522 475.478 210.522 490.238C210.522 504.998 198.451 517.02 183.491 517.02C168.531 517.02 156.459 504.998 156.459 490.238C156.459 475.477 168.531 463.457 183.491 463.457Z" stroke="white" stroke-width="8"/>
</g>
<ellipse cx="183.491" cy="490.2" rx="4.86213" ry="4.88975" fill="white"/>
<path fill-rule="evenodd" clip-rule="evenodd" d="M174.983 490.2C174.983 487.381 176.392 484.912 178.501 483.55L176.743 481.677C176.268 482.03 175.818 482.429 175.4 482.874C173.563 484.831 172.552 487.433 172.552 490.2C172.552 492.967 173.563 495.569 175.4 497.526C175.818 497.971 176.268 498.37 176.743 498.722L178.501 496.849C176.392 495.488 174.983 493.019 174.983 490.2Z" fill="white"/>
<path fill-rule="evenodd" clip-rule="evenodd" d="M192 490.2C192 493.019 190.591 495.487 188.482 496.849L190.24 498.722C190.715 498.37 191.165 497.971 191.583 497.525C193.42 495.569 194.431 492.967 194.431 490.2C194.431 487.433 193.42 484.831 191.583 482.874C191.165 482.429 190.715 482.03 190.239 481.677L188.481 483.55C190.591 484.912 192 487.381 192 490.2Z" fill="white"/>
<path fill-rule="evenodd" clip-rule="evenodd" d="M168.905 490.2C168.905 485.954 170.823 482.185 173.787 479.823L172.052 477.976C171.597 478.358 171.161 478.77 170.746 479.212C169.407 480.638 168.356 482.3 167.621 484.15C166.86 486.068 166.474 488.103 166.474 490.2C166.474 492.297 166.86 494.332 167.621 496.25C168.356 498.1 169.407 499.762 170.746 501.188C171.161 501.63 171.597 502.042 172.052 502.424L173.787 500.577C170.823 498.215 168.905 494.446 168.905 490.2Z" fill="white"/>
<path fill-rule="evenodd" clip-rule="evenodd" d="M198.077 490.2C198.077 494.446 196.159 498.215 193.195 500.577L194.93 502.399C195.385 502.017 195.822 501.63 196.236 501.188C197.575 499.762 198.626 498.1 199.361 496.249C200.122 494.332 200.508 492.297 200.508 490.2C200.508 488.103 200.122 486.068 199.361 484.15C198.626 482.299 197.575 480.638 196.236 479.212C195.822 478.77 195.385 478.358 194.93 477.976L193.195 479.823C196.159 482.185 198.077 485.954 198.077 490.2Z" fill="white"/>
<g filter="url(#filter1_d_37_756)">
<circle cx="348.41" cy="101.34" r="45.7969" fill="#F8B195"/>
<circle cx="348.41" cy="101.34" r="41.7969" stroke="white" stroke-width="8"/>
</g>
<g clip-path="url(#clip0_37_756)">
<path d="M369.096 94.2174L348.753 81.7486C348.65 81.6855 348.531 81.6521 348.41 81.6521C348.289 81.6521 348.171 81.6855 348.068 81.7486L327.724 94.2174C327.576 94.3077 327.47 94.4528 327.429 94.621C327.388 94.7891 327.415 94.9667 327.504 95.1151L329.473 98.3963C329.517 98.4705 329.576 98.5351 329.646 98.5864C329.715 98.6377 329.794 98.6748 329.878 98.6955C329.962 98.7161 330.049 98.72 330.135 98.7069C330.22 98.6937 330.302 98.6638 330.376 98.6188L332.004 97.6312V116.433C332.005 117.651 332.49 118.819 333.351 119.68C334.212 120.541 335.38 121.026 336.598 121.027H345.785C345.959 121.027 346.126 120.958 346.249 120.835C346.372 120.712 346.441 120.545 346.441 120.371C346.441 120.197 346.372 120.03 346.249 119.907C346.126 119.784 345.959 119.715 345.785 119.715H336.598C335.728 119.714 334.894 119.368 334.279 118.752C333.663 118.137 333.317 117.303 333.316 116.433V96.8338L348.41 87.6699L363.504 96.8338V116.433C363.503 117.303 363.157 118.137 362.542 118.752C361.926 119.368 361.093 119.714 360.223 119.715H351.035C350.861 119.715 350.694 119.784 350.571 119.907C350.448 120.03 350.379 120.197 350.379 120.371C350.379 120.545 350.448 120.712 350.571 120.835C350.694 120.958 350.861 121.027 351.035 121.027H360.223C361.44 121.026 362.608 120.541 363.469 119.68C364.33 118.819 364.815 117.651 364.816 116.433V97.6312L366.444 98.6155C366.546 98.6793 366.664 98.7136 366.785 98.7146C366.838 98.7145 366.891 98.7081 366.943 98.6956C367.026 98.6748 367.105 98.6377 367.175 98.5863C367.244 98.535 367.303 98.4704 367.347 98.3963L369.316 95.1151C369.405 94.9667 369.432 94.7891 369.391 94.621C369.35 94.4528 369.244 94.3077 369.096 94.2174ZM366.562 97.1547L348.751 86.3417C348.648 86.2794 348.53 86.2464 348.41 86.2464C348.29 86.2464 348.172 86.2794 348.069 86.3417L332.319 95.9033L330.258 97.1547L328.963 94.997L348.41 83.0782L367.857 94.997L366.562 97.1547Z" fill="white"/>
<path d="M359.719 107.271C360.484 105.551 360.88 103.689 360.879 101.806C360.887 99.9749 360.201 98.2093 358.958 96.8646C358.373 96.2125 357.658 95.69 356.858 95.3305C356.059 94.971 355.193 94.7825 354.317 94.7771C353.453 94.795 352.601 94.9885 351.814 95.3461C351.027 95.7036 350.321 96.2176 349.739 96.8568L348.411 97.8844L347.082 96.8561C346.495 96.229 345.796 95.7182 345.02 95.3507C344.234 94.9764 343.375 94.7806 342.504 94.7771C341.628 94.7825 340.762 94.971 339.963 95.3305C339.164 95.69 338.448 96.2125 337.863 96.8646C336.62 98.2093 335.934 99.9749 335.942 101.806C335.927 103.671 336.314 105.518 337.079 107.22C337.843 108.922 338.965 110.439 340.37 111.667L347.982 118.243C348.101 118.345 348.253 118.402 348.411 118.402C348.568 118.402 348.72 118.345 348.839 118.243L356.452 111.668C357.846 110.456 358.961 108.956 359.719 107.271ZM348.411 116.879L341.227 110.673C339.965 109.568 338.958 108.204 338.272 106.673C337.587 105.143 337.239 103.482 337.254 101.806C337.247 100.306 337.808 98.8588 338.825 97.7565C339.289 97.2378 339.855 96.8216 340.489 96.5345C341.122 96.2475 341.809 96.0959 342.504 96.0896C343.183 96.0932 343.852 96.2472 344.465 96.5404C345.104 96.8433 345.679 97.2666 346.158 97.7873C346.183 97.8136 348.009 99.2311 348.009 99.2311C348.124 99.32 348.265 99.3683 348.411 99.3683C348.556 99.3683 348.697 99.32 348.812 99.2311C348.812 99.2311 350.639 97.8136 350.664 97.7873C351.124 97.2695 351.686 96.8517 352.314 96.5596C352.943 96.2676 353.624 96.1076 354.317 96.0896C355.012 96.0959 355.699 96.2475 356.332 96.5345C356.966 96.8216 357.532 97.2378 357.996 97.7565C359.013 98.8588 359.574 100.306 359.567 101.806C359.567 103.503 359.212 105.181 358.523 106.732C357.842 108.242 356.843 109.587 355.594 110.674L348.411 116.879Z" fill="white"/>
<path d="M353.66 103.965H351.035V101.333C351.035 101.159 350.966 100.992 350.843 100.869C350.72 100.746 350.553 100.677 350.379 100.677H346.441C346.267 100.677 346.1 100.746 345.977 100.869C345.854 100.992 345.785 101.159 345.785 101.333V103.965H343.16C342.986 103.965 342.819 104.034 342.696 104.157C342.573 104.28 342.504 104.447 342.504 104.621V108.558C342.504 108.732 342.573 108.899 342.696 109.022C342.819 109.145 342.986 109.215 343.16 109.215H345.785V111.84C345.785 112.014 345.854 112.181 345.977 112.304C346.1 112.427 346.267 112.496 346.441 112.496H350.379C350.553 112.496 350.72 112.427 350.843 112.304C350.966 112.181 351.035 112.014 351.035 111.84V109.215H353.66C353.834 109.215 354.001 109.145 354.124 109.022C354.247 108.899 354.316 108.732 354.316 108.558V104.621C354.316 104.447 354.247 104.28 354.124 104.157C354.001 104.034 353.834 103.965 353.66 103.965ZM353.004 107.902H350.379C350.205 107.902 350.038 107.971 349.915 108.094C349.792 108.217 349.723 108.384 349.723 108.558V111.183H347.098V108.558C347.098 108.384 347.029 108.217 346.905 108.094C346.782 107.971 346.615 107.902 346.441 107.902H343.816V105.277H346.441C346.615 105.277 346.782 105.208 346.905 105.085C347.029 104.962 347.098 104.795 347.098 104.621V101.989H349.723V104.621C349.723 104.795 349.792 104.962 349.915 105.085C350.038 105.208 350.205 105.277 350.379 105.277H353.004V107.902Z" fill="white"/>
</g>
<g filter="url(#filter2_d_37_756)">
<ellipse cx="124.337" cy="569.167" rx="28.4356" ry="28.1265" fill="#F8B195"/>
<path d="M124.337 543.04C138.958 543.04 150.772 554.759 150.772 569.167C150.772 583.576 138.957 595.293 124.337 595.293C109.716 595.293 97.9016 583.576 97.9014 569.167C97.9014 554.759 109.716 543.04 124.337 543.04Z" stroke="white" stroke-width="4"/>
</g>
<path fill-rule="evenodd" clip-rule="evenodd" d="M123.426 574.375C122.362 574.976 121.131 575.32 119.82 575.32C118.509 575.32 117.278 574.976 116.214 574.375C113.392 575.232 111.662 578.071 111.025 580.572H128.615C127.978 578.071 126.249 575.231 123.426 574.375Z" fill="white"/>
<path fill-rule="evenodd" clip-rule="evenodd" d="M119.82 561.04C116.321 561.04 113.483 563.863 113.483 567.344C113.483 570.826 116.321 573.648 119.82 573.648C123.32 573.648 126.157 570.826 126.157 567.344C126.157 563.863 123.32 561.04 119.82 561.04ZM119.82 572.146C117.805 572.146 116.083 570.805 115.392 569.137H124.249C123.557 570.805 121.835 572.146 119.82 572.146Z" fill="white"/>
<path fill-rule="evenodd" clip-rule="evenodd" d="M128.312 576.729H137.649C137.018 574.239 135.304 571.887 132.506 571.034C131.451 571.633 130.231 571.975 128.931 571.975C128.052 571.975 127.21 571.818 126.43 571.531C125.988 572.27 125.426 573.048 124.771 573.6C126.333 574.201 127.514 575.544 128.312 576.729Z" fill="white"/>
<path fill-rule="evenodd" clip-rule="evenodd" d="M127.36 565.822H133.321C132.636 567.482 130.929 568.803 128.932 568.803C128.405 568.803 127.899 568.703 127.426 568.536C127.347 569.052 127.216 569.548 127.04 570.025C127.637 570.213 128.272 570.313 128.932 570.313C132.401 570.313 135.213 567.503 135.213 564.037C135.213 560.572 132.401 557.762 128.932 557.762C126.708 557.762 124.754 558.93 123.638 560.672C125.525 561.755 126.91 563.629 127.36 565.822Z" fill="white"/>
<g filter="url(#filter3_d_37_756)">
<ellipse cx="487.803" cy="249.492" rx="16.0164" ry="15.7662" fill="#F8B195"/>
<path d="M487.803 235.225C495.842 235.225 502.319 241.635 502.319 249.492C502.319 257.348 495.842 263.757 487.803 263.758C479.763 263.758 473.286 257.349 473.286 249.492C473.286 241.635 479.763 235.225 487.803 235.225Z" stroke="white" stroke-width="3"/>
</g>
<path fill-rule="evenodd" clip-rule="evenodd" d="M493.659 243.885C492.298 242.413 490.089 242.413 488.729 243.885L487.802 244.881L486.876 243.881C485.512 242.41 483.307 242.41 481.946 243.881C480.414 245.535 480.414 248.22 481.946 249.874L487.802 256.205L493.659 249.877C495.191 248.224 495.191 245.539 493.659 243.885Z" fill="white"/>
<g filter="url(#filter4_d_37_756)">
<ellipse cx="471.787" cy="572.823" rx="52.0533" ry="51.8031" fill="#03A9F4"/>
<path d="M471.787 525.02C498.344 525.02 519.84 546.44 519.84 572.823C519.84 599.205 498.344 620.626 471.787 620.626C445.23 620.626 423.733 599.205 423.733 572.823C423.734 546.44 445.23 525.02 471.787 525.02Z" stroke="white" stroke-width="8"/>
</g>
<path fill-rule="evenodd" clip-rule="evenodd" d="M496.81 575.738C494.216 575.738 492.016 577.439 491.248 579.748H486.507L483.047 569.368C482.782 568.572 482.034 568.037 481.195 568.037C481.181 568.037 481.167 568.037 481.154 568.037C480.298 568.055 479.554 568.626 479.318 569.445L473.891 588.313L467.504 550.143C467.352 549.234 466.595 548.396 465.578 548.396C464.562 548.396 463.908 549.098 463.684 549.992L456.245 579.748H444.106V583.636H457.77C458.667 583.636 459.448 583.028 459.664 582.162L465.199 560.024L471.461 597.444C471.611 598.341 472.363 598.893 473.274 598.944C473.312 598.947 473.349 598.948 473.386 598.948C474.252 598.948 475.022 598.498 475.263 597.66L481.332 576.563L483.246 582.305C483.511 583.1 484.257 583.636 485.098 583.636H491.334C492.171 585.824 494.307 587.404 496.81 587.404C500.045 587.404 502.666 584.67 502.666 581.449C502.666 578.228 500.045 575.738 496.81 575.738Z" fill="white"/>
<g filter="url(#filter5_d_37_756)">
<ellipse cx="547.864" cy="352.097" rx="23.0236" ry="22.7733" fill="#084B92"/>
<path d="M547.864 331.323C559.496 331.323 568.888 340.644 568.888 352.097C568.888 363.549 559.496 372.87 547.864 372.87C536.233 372.87 526.841 363.549 526.841 352.097C526.841 340.644 536.233 331.323 547.864 331.323Z" stroke="white" stroke-width="4"/>
</g>
<g clip-path="url(#clip1_37_756)">
<path d="M554.739 353.503C553.286 353.503 552.061 354.5 551.713 355.846H549.583C548.291 355.846 547.239 356.898 547.239 358.19V359.753C547.239 360.183 546.889 360.534 546.458 360.534C546.027 360.534 545.677 360.183 545.677 359.753V354.553C549.187 354.163 551.927 351.178 551.927 347.565V346.003C551.927 343.849 550.174 342.096 548.021 342.096C547.589 342.096 547.239 342.446 547.239 342.878C547.239 343.309 547.589 343.659 548.021 343.659C549.313 343.659 550.364 344.71 550.364 346.003V347.565C550.364 350.581 547.911 353.034 544.896 353.034C541.88 353.034 539.427 350.581 539.427 347.565V346.003C539.427 344.71 540.478 343.659 541.771 343.659C542.202 343.659 542.552 343.309 542.552 342.878C542.552 342.446 542.202 342.096 541.771 342.096C539.617 342.096 537.864 343.849 537.864 346.003V347.565C537.864 351.178 540.604 354.163 544.114 354.553V359.753C544.114 361.045 545.166 362.096 546.458 362.096C547.75 362.096 548.802 361.045 548.802 359.753V358.19C548.802 357.759 549.152 357.409 549.583 357.409H551.713C552.061 358.755 553.286 359.753 554.739 359.753C556.462 359.753 557.864 358.351 557.864 356.628C557.864 354.905 556.462 353.503 554.739 353.503ZM554.739 358.19C553.878 358.19 553.177 357.489 553.177 356.628C553.177 355.766 553.878 355.065 554.739 355.065C555.601 355.065 556.302 355.766 556.302 356.628C556.302 357.489 555.601 358.19 554.739 358.19Z" fill="white"/>
<path d="M543.238 350.785C543.681 351.228 544.269 351.471 544.895 351.471C545.521 351.471 546.11 351.228 546.552 350.785L548.115 349.222C549.029 348.309 549.029 346.822 548.115 345.908C547.232 345.025 545.814 344.995 544.895 345.818C543.978 344.996 542.564 345.02 541.676 345.908C540.762 346.822 540.762 348.309 541.676 349.222L543.238 350.785ZM542.78 347.013C543.086 346.707 543.58 346.707 543.885 347.013L544.343 347.471C544.648 347.776 545.143 347.776 545.448 347.471L545.905 347.013C546.21 346.708 546.705 346.708 547.01 347.013C547.315 347.318 547.315 347.812 547.01 348.117L545.448 349.68C545.3 349.828 545.104 349.909 544.895 349.909C544.687 349.909 544.491 349.828 544.343 349.68L542.78 348.117C542.475 347.812 542.475 347.318 542.78 347.013Z" fill="white"/>
</g>
<g filter="url(#filter6_d_37_756)">
<ellipse cx="110.917" cy="233.475" rx="52.0533" ry="51.8031" fill="#084B92"/>
<path d="M110.917 185.672C137.474 185.672 158.97 207.092 158.97 233.475C158.97 259.857 137.474 281.278 110.917 281.278C84.3597 281.278 62.8633 259.857 62.8633 233.475C62.8635 207.092 84.3598 185.672 110.917 185.672Z" stroke="white" stroke-width="8"/>
</g>
<path fill-rule="evenodd" clip-rule="evenodd" d="M127.508 248.424L117.207 231.02V217.923C117.207 217.25 116.639 216.7 115.94 216.7C115.241 216.7 114.673 217.241 114.673 217.923V231.343C114.673 231.5 114.726 231.658 114.787 231.806C114.123 230.836 112.987 230.199 111.694 230.199C109.641 230.199 107.981 231.798 107.981 233.781C107.981 235.249 108.898 236.533 110.2 237.057H103.909L106.967 231.946C107.072 231.763 107.151 231.553 107.151 231.343V228.687C107.5 228.967 108.024 229.133 108.557 229.133C109.894 229.133 110.96 228.093 110.96 226.809C110.96 225.524 109.894 224.485 108.557 224.485C108.024 224.485 107.5 224.651 107.151 224.93V217.923C107.151 217.25 106.583 216.7 105.884 216.7C105.185 216.7 104.617 217.241 104.617 217.923V231.02L94.3243 248.424C94.1059 248.8 94.0972 249.263 94.3243 249.639C94.5515 250.015 94.9534 250.25 95.4078 250.25H110.916H126.425C126.87 250.25 127.281 250.023 127.508 249.639C127.735 249.272 127.727 248.8 127.508 248.424ZM113.205 237.057C114.507 236.533 115.425 235.24 115.425 233.781C115.425 233.283 115.32 232.802 115.128 232.374L117.836 237.057H113.205Z" fill="white"/>
<path fill-rule="evenodd" clip-rule="evenodd" d="M111.711 222.344C112.76 222.344 113.607 221.522 113.607 220.518C113.607 219.504 112.76 218.692 111.711 218.692C110.663 218.692 109.815 219.513 109.815 220.518C109.807 221.522 110.663 222.344 111.711 222.344Z" fill="white"/>
<defs>
<filter id="filter0_d_37_756" x="94.459" y="404.457" width="178.063" height="177.563" filterUnits="userSpaceOnUse" color-interpolation-filters="sRGB">
<feFlood flood-opacity="0" result="BackgroundImageFix"/>
<feColorMatrix in="SourceAlpha" type="matrix" values="0 0 0 0 0 0 0 0 0 0 0 0 0 0 0 0 0 0 127 0" result="hardAlpha"/>
<feMorphology radius="9" operator="dilate" in="SourceAlpha" result="effect1_dropShadow_37_756"/>
<feOffset dy="3"/>
<feGaussianBlur stdDeviation="24.5"/>
<feColorMatrix type="matrix" values="0 0 0 0 0 0 0 0 0 0 0 0 0 0 0 0 0 0 0.06 0"/>
<feBlend mode="normal" in2="BackgroundImageFix" result="effect1_dropShadow_37_756"/>
<feBlend mode="normal" in="SourceGraphic" in2="effect1_dropShadow_37_756" result="shape"/>
</filter>
<filter id="filter1_d_37_756" x="244.613" y="0.542725" width="207.594" height="207.594" filterUnits="userSpaceOnUse" color-interpolation-filters="sRGB">
<feFlood flood-opacity="0" result="BackgroundImageFix"/>
<feColorMatrix in="SourceAlpha" type="matrix" values="0 0 0 0 0 0 0 0 0 0 0 0 0 0 0 0 0 0 127 0" result="hardAlpha"/>
<feMorphology radius="9" operator="dilate" in="SourceAlpha" result="effect1_dropShadow_37_756"/>
<feOffset dy="3"/>
<feGaussianBlur stdDeviation="24.5"/>
<feColorMatrix type="matrix" values="0 0 0 0 0 0 0 0 0 0 0 0 0 0 0 0 0 0 0.06 0"/>
<feBlend mode="normal" in2="BackgroundImageFix" result="effect1_dropShadow_37_756"/>
<feBlend mode="normal" in="SourceGraphic" in2="effect1_dropShadow_37_756" result="shape"/>
</filter>
<filter id="filter2_d_37_756" x="37.9014" y="486.04" width="172.871" height="172.253" filterUnits="userSpaceOnUse" color-interpolation-filters="sRGB">
<feFlood flood-opacity="0" result="BackgroundImageFix"/>
<feColorMatrix in="SourceAlpha" type="matrix" values="0 0 0 0 0 0 0 0 0 0 0 0 0 0 0 0 0 0 127 0" result="hardAlpha"/>
<feMorphology radius="9" operator="dilate" in="SourceAlpha" result="effect1_dropShadow_37_756"/>
<feOffset dy="3"/>
<feGaussianBlur stdDeviation="24.5"/>
<feColorMatrix type="matrix" values="0 0 0 0 0 0 0 0 0 0 0 0 0 0 0 0 0 0 0.06 0"/>
<feBlend mode="normal" in2="BackgroundImageFix" result="effect1_dropShadow_37_756"/>
<feBlend mode="normal" in="SourceGraphic" in2="effect1_dropShadow_37_756" result="shape"/>
</filter>
<filter id="filter3_d_37_756" x="413.786" y="178.725" width="148.033" height="147.532" filterUnits="userSpaceOnUse" color-interpolation-filters="sRGB">
<feFlood flood-opacity="0" result="BackgroundImageFix"/>
<feColorMatrix in="SourceAlpha" type="matrix" values="0 0 0 0 0 0 0 0 0 0 0 0 0 0 0 0 0 0 127 0" result="hardAlpha"/>
<feMorphology radius="9" operator="dilate" in="SourceAlpha" result="effect1_dropShadow_37_756"/>
<feOffset dy="3"/>
<feGaussianBlur stdDeviation="24.5"/>
<feColorMatrix type="matrix" values="0 0 0 0 0 0 0 0 0 0 0 0 0 0 0 0 0 0 0.06 0"/>
<feBlend mode="normal" in2="BackgroundImageFix" result="effect1_dropShadow_37_756"/>
<feBlend mode="normal" in="SourceGraphic" in2="effect1_dropShadow_37_756" result="shape"/>
</filter>
<filter id="filter4_d_37_756" x="361.733" y="466.02" width="220.106" height="219.606" filterUnits="userSpaceOnUse" color-interpolation-filters="sRGB">
<feFlood flood-opacity="0" result="BackgroundImageFix"/>
<feColorMatrix in="SourceAlpha" type="matrix" values="0 0 0 0 0 0 0 0 0 0 0 0 0 0 0 0 0 0 127 0" result="hardAlpha"/>
<feMorphology radius="9" operator="dilate" in="SourceAlpha" result="effect1_dropShadow_37_756"/>
<feOffset dy="3"/>
<feGaussianBlur stdDeviation="24.5"/>
<feColorMatrix type="matrix" values="0 0 0 0 0 0 0 0 0 0 0 0 0 0 0 0 0 0 0.06 0"/>
<feBlend mode="normal" in2="BackgroundImageFix" result="effect1_dropShadow_37_756"/>
<feBlend mode="normal" in="SourceGraphic" in2="effect1_dropShadow_37_756" result="shape"/>
</filter>
<filter id="filter5_d_37_756" x="466.841" y="274.323" width="162.047" height="161.547" filterUnits="userSpaceOnUse" color-interpolation-filters="sRGB">
<feFlood flood-opacity="0" result="BackgroundImageFix"/>
<feColorMatrix in="SourceAlpha" type="matrix" values="0 0 0 0 0 0 0 0 0 0 0 0 0 0 0 0 0 0 127 0" result="hardAlpha"/>
<feMorphology radius="9" operator="dilate" in="SourceAlpha" result="effect1_dropShadow_37_756"/>
<feOffset dy="3"/>
<feGaussianBlur stdDeviation="24.5"/>
<feColorMatrix type="matrix" values="0 0 0 0 0 0 0 0 0 0 0 0 0 0 0 0 0 0 0.06 0"/>
<feBlend mode="normal" in2="BackgroundImageFix" result="effect1_dropShadow_37_756"/>
<feBlend mode="normal" in="SourceGraphic" in2="effect1_dropShadow_37_756" result="shape"/>
</filter>
<filter id="filter6_d_37_756" x="0.863281" y="126.672" width="220.106" height="219.606" filterUnits="userSpaceOnUse" color-interpolation-filters="sRGB">
<feFlood flood-opacity="0" result="BackgroundImageFix"/>
<feColorMatrix in="SourceAlpha" type="matrix" values="0 0 0 0 0 0 0 0 0 0 0 0 0 0 0 0 0 0 127 0" result="hardAlpha"/>
<feMorphology radius="9" operator="dilate" in="SourceAlpha" result="effect1_dropShadow_37_756"/>
<feOffset dy="3"/>
<feGaussianBlur stdDeviation="24.5"/>
<feColorMatrix type="matrix" values="0 0 0 0 0 0 0 0 0 0 0 0 0 0 0 0 0 0 0.06 0"/>
<feBlend mode="normal" in2="BackgroundImageFix" result="effect1_dropShadow_37_756"/>
<feBlend mode="normal" in="SourceGraphic" in2="effect1_dropShadow_37_756" result="shape"/>
</filter>
<clipPath id="clip0_37_756">
<rect width="42" height="42" fill="white" transform="translate(327.41 80.3396)"/>
</clipPath>
<clipPath id="clip1_37_756">
<rect width="20" height="20" fill="white" transform="translate(537.864 342.096)"/>
</clipPath>
</defs>
</svg>
