<svg width="41" height="40" viewBox="0 0 41 40" fill="none" xmlns="http://www.w3.org/2000/svg">
<g clip-path="url(#clip0_37_1340)">
<path d="M10.9505 22.7301H14.2333V26.0144C14.2333 26.6167 14.7189 27.0996 15.3185 27.0996H20.7876C21.3868 27.0996 21.8728 26.6167 21.8728 26.0144V22.7301H25.1579C25.7563 22.7301 26.2432 22.2475 26.2432 21.6448V16.1842C26.2432 15.5824 25.7563 15.099 25.1579 15.099H21.8728V11.8127C21.8728 11.2159 21.3868 10.7279 20.7876 10.7279H15.3185C14.7193 10.7279 14.2333 11.2163 14.2333 11.8127V15.0986H10.9505C10.3509 15.0986 9.86523 15.582 9.86523 16.1839V21.6445C9.86523 22.2471 10.3509 22.7301 10.9505 22.7301ZM12.0353 17.2695H15.3185C15.918 17.2695 16.4037 16.7807 16.4037 16.1839V12.898H19.7024V16.1839C19.7024 16.7807 20.1884 17.2695 20.788 17.2695H24.0716V20.5585H20.788C20.1884 20.5585 19.7024 21.0469 19.7024 21.6448V24.9292H16.4037V21.6448C16.4037 21.0469 15.9184 20.5585 15.3185 20.5585H12.0353V17.2695Z" fill="#A8D5BA"/>
<path d="M39.1925 1.67627H9.06566C8.46689 1.67627 7.98044 2.16272 7.98044 2.7615V6.767H1.36218C0.762636 6.767 0.277344 7.25771 0.277344 7.85183V29.4859C0.277344 30.0831 0.762636 30.5711 1.36218 30.5711H8.27479V37.2385C8.27479 37.6495 8.5064 38.0267 8.87356 38.2095C9.02732 38.2854 9.1927 38.3238 9.36001 38.3238C9.58969 38.3238 9.81974 38.2568 10.0103 38.1073L20.0647 30.5668H34.7435C35.3388 30.5668 35.8288 30.0812 35.8288 29.4816V22.5706H39.1925C39.7928 22.5706 40.2777 22.086 40.2777 21.4857V2.75956C40.2773 2.1573 39.7924 1.67627 39.1925 1.67627ZM33.6583 28.3968H19.7018C19.4679 28.3968 19.2398 28.4707 19.0508 28.6129L10.441 35.0685V29.482C10.441 28.8883 9.95607 28.3968 9.35575 28.3968H2.44547V8.93512H33.6572L33.6583 28.3968ZM38.1073 20.4028H35.8288V7.85183C35.8288 7.25732 35.3388 6.76661 34.7435 6.76661H10.1509V3.84633H38.1073V20.4028Z" fill="#A8D5BA"/>
</g>
<defs>
<clipPath id="clip0_37_1340">
<rect width="40" height="40" fill="white" transform="translate(0.138672)"/>
</clipPath>
</defs>
</svg>
