<svg width="41" height="37" viewBox="0 0 41 37" fill="none" xmlns="http://www.w3.org/2000/svg">
<path d="M39.4178 22.8633C39.0496 22.8633 38.7512 23.1618 38.7512 23.5299V30.3766C38.7512 31.113 38.1542 31.7099 37.4178 31.7099H26.6178C26.2496 31.7099 25.9512 32.0084 25.9512 32.3766C25.9512 32.7448 26.2496 33.0433 26.6178 33.0433H37.4178C38.8906 33.0433 40.0845 31.8494 40.0845 30.3766V23.5299C40.0845 23.1618 39.786 22.8633 39.4178 22.8633Z" fill="#A8D5BA"/>
<path d="M36.0846 27.0431V29.0431H34.0846C33.7164 29.0431 33.418 29.3416 33.418 29.7098C33.418 30.078 33.7164 30.3765 34.0846 30.3765H36.7513C37.1195 30.3765 37.418 30.078 37.418 29.7098V27.0431C37.418 26.6749 37.1195 26.3765 36.7513 26.3765C36.3831 26.3765 36.0846 26.6749 36.0846 27.0431Z" fill="#A8D5BA"/>
<path d="M37.4183 0.376465H2.75163C1.27887 0.376465 0.0849609 1.57037 0.0849609 3.04313V30.3765C0.0849609 31.8492 1.27887 33.0431 2.75163 33.0431H9.52496C9.89315 33.0431 10.1916 32.7447 10.1916 32.3765C10.1916 32.0083 9.89315 31.7098 9.52496 31.7098H2.75163C2.01525 31.7098 1.41829 31.1128 1.41829 30.3765V9.7098H38.7516V13.9831C38.7516 14.3513 39.0501 14.6498 39.4183 14.6498C39.7865 14.6498 40.085 14.3513 40.085 13.9831V3.04313C40.085 1.57037 38.8911 0.376465 37.4183 0.376465ZM1.41829 8.37646V3.04313C1.41829 2.30675 2.01525 1.7098 2.75163 1.7098H37.4183C38.1547 1.7098 38.7516 2.30675 38.7516 3.04313V8.37646H1.41829Z" fill="#A8D5BA"/>
<path d="M4.75195 3.04297C3.64738 3.04297 2.75195 3.9384 2.75195 5.04297C2.75195 6.14754 3.64738 7.04297 4.75195 7.04297C5.85652 7.04297 6.75195 6.14754 6.75195 5.04297C6.75195 3.9384 5.85652 3.04297 4.75195 3.04297ZM4.75195 5.70964C4.38376 5.70964 4.08529 5.41116 4.08529 5.04297C4.08529 4.67478 4.38376 4.3763 4.75195 4.3763C5.12014 4.3763 5.41862 4.67478 5.41862 5.04297C5.41862 5.41116 5.12014 5.70964 4.75195 5.70964Z" fill="#A8D5BA"/>
<path d="M10.085 3.04297C8.98039 3.04297 8.08496 3.9384 8.08496 5.04297C8.08496 6.14754 8.98039 7.04297 10.085 7.04297C11.1895 7.04297 12.085 6.14754 12.085 5.04297C12.085 3.9384 11.1895 3.04297 10.085 3.04297ZM10.085 5.70964C9.71677 5.70964 9.41829 5.41116 9.41829 5.04297C9.41829 4.67478 9.71677 4.3763 10.085 4.3763C10.4532 4.3763 10.7516 4.67478 10.7516 5.04297C10.7516 5.41116 10.4532 5.70964 10.085 5.70964Z" fill="#A8D5BA"/>
<path d="M15.418 3.04297C14.3134 3.04297 13.418 3.9384 13.418 5.04297C13.418 6.14754 14.3134 7.04297 15.418 7.04297C16.5225 7.04297 17.418 6.14754 17.418 5.04297C17.418 3.9384 16.5225 3.04297 15.418 3.04297ZM15.418 5.70964C15.0498 5.70964 14.7513 5.41116 14.7513 5.04297C14.7513 4.67478 15.0498 4.3763 15.418 4.3763C15.7862 4.3763 16.0846 4.67478 16.0846 5.04297C16.0846 5.41116 15.7862 5.70964 15.418 5.70964Z" fill="#A8D5BA"/>
<path d="M4.08464 13.0433H18.0846C18.4528 13.0433 18.7513 12.7448 18.7513 12.3766C18.7513 12.0084 18.4528 11.71 18.0846 11.71H4.08464C3.71645 11.71 3.41797 12.0084 3.41797 12.3766C3.41797 12.7448 3.71645 13.0433 4.08464 13.0433Z" fill="#A8D5BA"/>
<path d="M4.08464 16.3763H18.0846C18.4528 16.3763 18.7513 16.0778 18.7513 15.7096C18.7513 15.3414 18.4528 15.043 18.0846 15.043H4.08464C3.71645 15.043 3.41797 15.3414 3.41797 15.7096C3.41797 16.0778 3.71645 16.3763 4.08464 16.3763Z" fill="#A8D5BA"/>
<path d="M4.08464 19.7098H18.0846C18.4528 19.7098 18.7513 19.4113 18.7513 19.0431C18.7513 18.6749 18.4528 18.3765 18.0846 18.3765H4.08464C3.71645 18.3765 3.41797 18.6749 3.41797 19.0431C3.41797 19.4113 3.71645 19.7098 4.08464 19.7098Z" fill="#A8D5BA"/>
<path d="M4.08464 23.0433H18.0846C18.4528 23.0433 18.7513 22.7448 18.7513 22.3766C18.7513 22.0084 18.4528 21.71 18.0846 21.71H4.08464C3.71645 21.71 3.41797 22.0084 3.41797 22.3766C3.41797 22.7448 3.71645 23.0433 4.08464 23.0433Z" fill="#A8D5BA"/>
<path d="M4.08464 26.3763H15.1646C15.5328 26.3763 15.8313 26.0778 15.8313 25.7096C15.8313 25.3414 15.5328 25.043 15.1646 25.043H4.08464C3.71645 25.043 3.41797 25.3414 3.41797 25.7096C3.41797 26.0778 3.71645 26.3763 4.08464 26.3763Z" fill="#A8D5BA"/>
<path d="M4.08464 29.7098H10.7513C11.1195 29.7098 11.418 29.4113 11.418 29.0431C11.418 28.6749 11.1195 28.3765 10.7513 28.3765H4.08464C3.71645 28.3765 3.41797 28.6749 3.41797 29.0431C3.41797 29.4113 3.71645 29.7098 4.08464 29.7098Z" fill="#A8D5BA"/>
<path d="M22.0846 13.0433H36.0846C36.4528 13.0433 36.7513 12.7448 36.7513 12.3766C36.7513 12.0084 36.4528 11.71 36.0846 11.71H22.0846C21.7164 11.71 21.418 12.0084 21.418 12.3766C21.418 12.7448 21.7164 13.0433 22.0846 13.0433Z" fill="#A8D5BA"/>
<path d="M22.0846 16.3763H29.418C29.7862 16.3763 30.0846 16.0778 30.0846 15.7096C30.0846 15.3414 29.7862 15.043 29.418 15.043H22.0846C21.7164 15.043 21.418 15.3414 21.418 15.7096C21.418 16.0778 21.7164 16.3763 22.0846 16.3763Z" fill="#A8D5BA"/>
<path d="M22.0846 19.7098H24.7513C25.1195 19.7098 25.418 19.4113 25.418 19.0431C25.418 18.6749 25.1195 18.3765 24.7513 18.3765H22.0846C21.7164 18.3765 21.418 18.6749 21.418 19.0431C21.418 19.4113 21.7164 19.7098 22.0846 19.7098Z" fill="#A8D5BA"/>
<path d="M10.2233 36.4232C10.4698 36.7835 10.8781 36.999 11.3147 36.9992C11.4223 36.9991 11.5295 36.9861 11.634 36.9605L18.8513 35.2098C19.0112 35.1716 19.1624 35.1037 19.2973 35.0098L32.3513 25.9805L35.0927 24.0852L38.9307 21.4305C40.1403 20.5918 40.443 18.9323 39.6073 17.7205L38.09 15.5272C37.2524 14.3158 35.5913 14.0129 34.38 14.8505L30.542 17.5052L27.8047 19.4005L14.7473 28.4312C14.6123 28.5238 14.4959 28.641 14.404 28.7765L10.218 34.9138C9.90456 35.3687 9.90669 35.9705 10.2233 36.4232ZM28.018 20.8765L31.0513 25.2632L18.9853 33.6052L15.9513 29.2192L28.018 20.8765ZM30.7593 18.9805L33.7933 23.3672L32.1447 24.5045L29.1113 20.1178L30.7593 18.9805ZM35.146 15.9465C35.4369 15.7453 35.7959 15.668 36.1438 15.7315C36.4918 15.795 36.8003 15.9942 37.0013 16.2852L38.518 18.4778C38.7194 18.7688 38.7969 19.1279 38.7334 19.476C38.6698 19.8242 38.4705 20.1327 38.1793 20.3338L34.8847 22.6085L31.8507 18.2218L35.146 15.9465ZM15.028 30.2272L17.716 34.1138L14.9387 34.7872L13.418 32.5878L15.028 30.2272ZM12.6133 33.7678L13.5513 35.1238L11.32 35.6645L12.6133 33.7678Z" fill="#A8D5BA"/>
</svg>
