<svg width="41" height="41" viewBox="0 0 41 41" fill="none" xmlns="http://www.w3.org/2000/svg">
<path d="M24.1133 8.42773H22.2383V6.55273C22.2383 6.38697 22.1724 6.228 22.0552 6.11079C21.938 5.99358 21.779 5.92773 21.6133 5.92773H19.1133C18.9475 5.92773 18.7885 5.99358 18.6713 6.11079C18.5541 6.228 18.4883 6.38697 18.4883 6.55273V8.42773H16.6133C16.4475 8.42773 16.2885 8.49358 16.1713 8.61079C16.0541 8.728 15.9883 8.88697 15.9883 9.05273V11.5527C15.9883 11.7185 16.0541 11.8775 16.1713 11.9947C16.2885 12.1119 16.4475 12.1777 16.6133 12.1777H18.4883V14.0527C18.4883 14.2185 18.5541 14.3775 18.6713 14.4947C18.7885 14.6119 18.9475 14.6777 19.1133 14.6777H21.6133C21.779 14.6777 21.938 14.6119 22.0552 14.4947C22.1724 14.3775 22.2383 14.2185 22.2383 14.0527V12.1777H24.1133C24.279 12.1777 24.438 12.1119 24.5552 11.9947C24.6724 11.8775 24.7383 11.7185 24.7383 11.5527V9.05273C24.7383 8.88697 24.6724 8.728 24.5552 8.61079C24.438 8.49358 24.279 8.42773 24.1133 8.42773ZM23.4883 10.9277H21.6133C21.4475 10.9277 21.2885 10.9936 21.1713 11.1108C21.0541 11.228 20.9883 11.387 20.9883 11.5527V13.4277H19.7383V11.5527C19.7383 11.387 19.6724 11.228 19.5552 11.1108C19.438 10.9936 19.279 10.9277 19.1133 10.9277H17.2383V9.67773H19.1133C19.279 9.67773 19.438 9.61189 19.5552 9.49468C19.6724 9.37747 19.7383 9.21849 19.7383 9.05273V7.17773H20.9883V9.05273C20.9883 9.21849 21.0541 9.37747 21.1713 9.49468C21.2885 9.61189 21.4475 9.67773 21.6133 9.67773H23.4883V10.9277Z" fill="#A8D5BA"/>
<path d="M37.6945 11.7778C37.7072 11.6678 37.7134 11.5572 37.7133 11.4465C37.7102 10.8736 37.5115 10.319 37.15 9.87452C36.7886 9.43005 36.286 9.12248 35.7258 9.00277C35.0921 8.88214 34.4362 9.00674 33.8908 9.35135C33.3455 9.69597 32.9514 10.2349 32.7883 10.859L30.0383 18.7715C29.9975 18.7877 29.9579 18.8065 29.9195 18.8278L24.3945 22.0653C23.5491 22.5619 22.8478 23.2705 22.3601 24.1211C21.8723 24.9716 21.6149 25.9348 21.6133 26.9153V32.8028C21.4475 32.8028 21.2885 32.8686 21.1713 32.9858C21.0541 33.103 20.9883 33.262 20.9883 33.4278V38.4278C20.9883 38.5935 21.0541 38.7525 21.1713 38.8697C21.2885 38.9869 21.4475 39.0528 21.6133 39.0528H30.3633C30.529 39.0528 30.688 38.9869 30.8052 38.8697C30.9224 38.7525 30.9883 38.5935 30.9883 38.4278V33.4278C30.9883 33.262 30.9224 33.103 30.8052 32.9858C30.688 32.8686 30.529 32.8028 30.3633 32.8028V31.4278C30.3645 31.1638 30.4206 30.903 30.5282 30.6619C30.6359 30.4209 30.7925 30.2049 30.9883 30.0278L35.2133 26.2715C35.6754 25.8672 36.0062 25.3339 36.1633 24.7403L38.8758 14.5965C38.9337 14.3847 38.9631 14.1661 38.9633 13.9465C38.9608 13.5055 38.8423 13.0728 38.6196 12.6921C38.3968 12.3114 38.0778 11.9961 37.6945 11.7778ZM33.982 11.2278C34.0588 10.9046 34.2545 10.6221 34.5302 10.4368C34.8059 10.2514 35.1413 10.1768 35.4695 10.2278C35.7497 10.2864 36.0012 10.4395 36.1821 10.6613C36.3629 10.8831 36.4622 11.1603 36.4633 11.4465V11.459C35.905 11.4694 35.3654 11.6618 34.9265 12.007C34.4877 12.3523 34.1736 12.8314 34.032 13.3715L32.2883 18.7528C32.0243 18.6275 31.7412 18.5473 31.4508 18.5153L33.982 11.2278ZM29.7383 37.8028H22.2383V34.0528H29.7383V37.8028ZM37.6695 14.2715L34.9508 24.4215C34.8567 24.7742 34.6611 25.0915 34.3883 25.334L30.157 29.0903C29.8296 29.3855 29.5676 29.746 29.3879 30.1486C29.2081 30.5512 29.1146 30.9869 29.1133 31.4278V32.8028H22.8633V26.9153C22.8664 26.1527 23.0673 25.404 23.4463 24.7424C23.8253 24.0807 24.3696 23.5287 25.0258 23.1403L30.5445 19.909C30.6868 19.8261 30.8441 19.7721 31.0073 19.7502C31.1705 19.7283 31.3365 19.7388 31.4956 19.7812C31.6547 19.8236 31.8039 19.897 31.9346 19.9973C32.0653 20.0975 32.1748 20.2226 32.257 20.3653C32.4194 20.6541 32.4641 20.9943 32.382 21.3153C32.3386 21.4738 32.2644 21.6221 32.1636 21.7519C32.0628 21.8817 31.9374 21.9903 31.7945 22.0715L28.2133 24.1403C28.0772 24.2268 27.9799 24.3625 27.9415 24.519C27.9032 24.6756 27.9268 24.8409 28.0075 24.9805C28.0881 25.1201 28.2196 25.2231 28.3744 25.268C28.5293 25.3129 28.6954 25.2962 28.8383 25.2215L32.4195 23.1528C32.7058 22.9904 32.9567 22.7723 33.1574 22.5115C33.3581 22.2507 33.5046 21.9523 33.5883 21.634C33.7584 20.9945 33.6685 20.3137 33.3383 19.7403L33.3008 19.684L35.232 13.7278C35.3088 13.4046 35.5045 13.1221 35.7802 12.9368C36.0559 12.7514 36.3913 12.6768 36.7195 12.7278C36.9997 12.7864 37.2512 12.9395 37.4321 13.1613C37.6129 13.3831 37.7122 13.6603 37.7133 13.9465C37.7154 14.0565 37.7006 14.1661 37.6695 14.2715Z" fill="#A8D5BA"/>
<path d="M19.1137 32.8027V26.9152C19.1121 25.9347 18.8546 24.9716 18.3669 24.121C17.8791 23.2704 17.1779 22.5618 16.3324 22.0652L10.8074 18.8214C10.7699 18.8027 10.7262 18.7902 10.6887 18.7714L7.95742 10.9027C7.79868 10.2694 7.40461 9.72047 6.85541 9.3675C6.30621 9.01452 5.64315 8.88407 5.00117 9.0027C4.44092 9.1224 3.93839 9.42998 3.57691 9.87444C3.21543 10.3189 3.0167 10.8736 3.01367 11.4464C3.01351 11.5571 3.01977 11.6677 3.03242 11.7777C2.64915 11.996 2.33011 12.3113 2.10739 12.692C1.88467 13.0727 1.76612 13.5054 1.76367 13.9464C1.76489 14.1656 1.79216 14.3838 1.84492 14.5964L4.56367 24.7339C4.71904 25.3301 5.05003 25.8658 5.51367 26.2715L9.73242 30.0277C9.93013 30.2036 10.0885 30.4192 10.1973 30.6604C10.3061 30.9016 10.3628 31.1631 10.3637 31.4277V32.8027C10.1979 32.8027 10.0389 32.8685 9.92173 32.9858C9.80452 33.103 9.73867 33.2619 9.73867 33.4277V38.4277C9.73867 38.5935 9.80452 38.7524 9.92173 38.8696C10.0389 38.9869 10.1979 39.0527 10.3637 39.0527H19.1137C19.2794 39.0527 19.4384 38.9869 19.5556 38.8696C19.6728 38.7524 19.7387 38.5935 19.7387 38.4277V33.4277C19.7387 33.2619 19.6728 33.103 19.5556 32.9858C19.4384 32.8685 19.2794 32.8027 19.1137 32.8027ZM4.26367 11.4464C4.26444 11.1611 4.36282 10.8846 4.54246 10.6629C4.7221 10.4412 4.97219 10.2876 5.25117 10.2277C5.58846 10.1787 5.93179 10.2591 6.2123 10.4527C6.49281 10.6463 6.68977 10.9387 6.76367 11.2714L9.27617 18.5152C8.98573 18.5472 8.70267 18.6275 8.43867 18.7527L6.70742 13.4027C6.56653 12.8572 6.25182 12.3725 5.81091 12.0218C5.36999 11.6711 4.82686 11.4735 4.26367 11.4589V11.4464ZM10.5637 29.0902L6.33867 25.334C6.06433 25.0902 5.86856 24.7704 5.77617 24.4152L3.05117 14.2714C3.0253 14.1651 3.0127 14.0559 3.01367 13.9464C3.01444 13.6611 3.11282 13.3846 3.29246 13.1629C3.4721 12.9412 3.72219 12.7876 4.00117 12.7277C4.33609 12.6774 4.67761 12.7558 4.95706 12.9472C5.2365 13.1385 5.43314 13.4285 5.50742 13.7589L7.42617 19.684L7.38867 19.7402C7.05842 20.3136 6.96854 20.9945 7.13867 21.634C7.22235 21.9523 7.36886 22.2506 7.56958 22.5114C7.7703 22.7723 8.02117 22.9903 8.30742 23.1527L11.8887 25.2214C12.0315 25.2962 12.1977 25.3128 12.3525 25.2679C12.5073 25.223 12.6388 25.12 12.7195 24.9804C12.8002 24.8409 12.8238 24.6755 12.7854 24.519C12.7471 24.3624 12.6497 24.2267 12.5137 24.1402L8.93242 22.0715C8.78959 21.9902 8.66419 21.8816 8.56338 21.7518C8.46257 21.6221 8.38834 21.4737 8.34492 21.3152C8.26281 20.9942 8.30758 20.654 8.46992 20.3652C8.55158 20.2228 8.6605 20.0979 8.79044 19.9976C8.92038 19.8972 9.06881 19.8235 9.22726 19.7806C9.3857 19.7376 9.55105 19.7263 9.71386 19.7472C9.87668 19.7682 10.0338 19.821 10.1762 19.9027L15.7012 23.1402C16.3574 23.5286 16.9016 24.0806 17.2807 24.7423C17.6597 25.404 17.8606 26.1527 17.8637 26.9152V32.8027H11.6137V31.4277C11.6126 30.9862 11.5186 30.5499 11.3376 30.1471C11.1567 29.7444 10.893 29.3842 10.5637 29.0902ZM18.4887 37.8027H10.9887V34.0527H18.4887V37.8027Z" fill="#A8D5BA"/>
<path d="M29.2052 3.51023C28.625 2.929 27.9358 2.4679 27.1772 2.15331C26.4186 1.83872 25.6054 1.67682 24.7841 1.67688C23.9629 1.67694 23.1497 1.83895 22.3911 2.15365C21.6325 2.46834 20.9434 2.92954 20.3633 3.51085C19.7832 2.92953 19.0942 2.46832 18.3356 2.15364C17.5771 1.83896 16.7639 1.67699 15.9427 1.67699C15.1215 1.67699 14.3083 1.83896 13.5497 2.15364C12.7912 2.46832 12.1021 2.92953 11.5221 3.51085C10.3523 4.68315 9.69531 6.27162 9.69531 7.92773C9.69531 9.58383 10.3523 11.1723 11.5221 12.3446L19.9221 20.7446C20.0393 20.8618 20.1982 20.9276 20.3639 20.9276C20.5297 20.9276 20.6886 20.8618 20.8058 20.7446L29.2058 12.3446C30.3756 11.1721 31.0324 9.58349 31.0323 7.92729C31.0322 6.27108 30.3751 4.68255 29.2052 3.51023ZM20.3633 19.419L12.4052 11.4609C11.7065 10.7612 11.231 9.87017 11.0386 8.90032C10.8463 7.93047 10.9458 6.92537 11.3247 6.01207C11.7035 5.09878 12.3446 4.31831 13.1669 3.76931C13.9892 3.22031 14.9558 2.92744 15.9446 2.92773C16.6014 2.92547 17.252 3.05402 17.8586 3.30586C18.4652 3.55771 19.0156 3.92782 19.4777 4.3946L19.9214 4.83835C20.0386 4.95552 20.1976 5.02134 20.3633 5.02134C20.529 5.02134 20.688 4.95552 20.8052 4.83835L21.2502 4.39335C21.7142 3.92851 22.2653 3.55973 22.872 3.30811C23.4787 3.05649 24.129 2.92698 24.7858 2.92698C25.4426 2.92698 26.093 3.05649 26.6996 3.30811C27.3063 3.55973 27.8574 3.92851 28.3214 4.39335C29.2576 5.33084 29.7835 6.60158 29.7835 7.92648C29.7835 9.25138 29.2576 10.5221 28.3214 11.4596L20.3633 19.419Z" fill="#A8D5BA"/>
</svg>
