<svg width="38" height="39" viewBox="0 0 38 39" fill="none" xmlns="http://www.w3.org/2000/svg">
<path d="M22.75 7.52734H20.875V5.65234C20.875 5.48658 20.8092 5.32761 20.6919 5.2104C20.5747 5.09319 20.4158 5.02734 20.25 5.02734H17.75C17.5842 5.02734 17.4253 5.09319 17.3081 5.2104C17.1908 5.32761 17.125 5.48658 17.125 5.65234V7.52734H15.25C15.0842 7.52734 14.9253 7.59319 14.8081 7.7104C14.6908 7.82761 14.625 7.98658 14.625 8.15234V10.6523C14.625 10.8181 14.6908 10.9771 14.8081 11.0943C14.9253 11.2115 15.0842 11.2773 15.25 11.2773H17.125V13.1523C17.125 13.3181 17.1908 13.4771 17.3081 13.5943C17.4253 13.7115 17.5842 13.7773 17.75 13.7773H20.25C20.4158 13.7773 20.5747 13.7115 20.6919 13.5943C20.8092 13.4771 20.875 13.3181 20.875 13.1523V11.2773H22.75C22.9158 11.2773 23.0747 11.2115 23.1919 11.0943C23.3092 10.9771 23.375 10.8181 23.375 10.6523V8.15234C23.375 7.98658 23.3092 7.82761 23.1919 7.7104C23.0747 7.59319 22.9158 7.52734 22.75 7.52734ZM22.125 10.0273H20.25C20.0842 10.0273 19.9253 10.0932 19.8081 10.2104C19.6908 10.3276 19.625 10.4866 19.625 10.6523V12.5273H18.375V10.6523C18.375 10.4866 18.3092 10.3276 18.1919 10.2104C18.0747 10.0932 17.9158 10.0273 17.75 10.0273H15.875V8.77734H17.75C17.9158 8.77734 18.0747 8.7115 18.1919 8.59429C18.3092 8.47708 18.375 8.3181 18.375 8.15234V6.27734H19.625V8.15234C19.625 8.3181 19.6908 8.47708 19.8081 8.59429C19.9253 8.7115 20.0842 8.77734 20.25 8.77734H22.125V10.0273Z" fill="#5AA678"/>
<path d="M36.3312 10.8785C36.3439 10.7685 36.3502 10.6579 36.35 10.5472C36.347 9.97434 36.1482 9.41969 35.7868 8.97522C35.4253 8.53076 34.9228 8.22318 34.3625 8.10348C33.7288 7.98285 33.0729 8.10745 32.5275 8.45206C31.9822 8.79668 31.5881 9.33558 31.425 9.95973L28.675 17.8722C28.6342 17.8884 28.5946 17.9072 28.5563 17.9285L23.0313 21.166C22.1858 21.6626 21.4846 22.3712 20.9968 23.2218C20.509 24.0724 20.2516 25.0355 20.25 26.016V31.9035C20.0842 31.9035 19.9253 31.9693 19.8081 32.0865C19.6908 32.2037 19.625 32.3627 19.625 32.5285V37.5285C19.625 37.6942 19.6908 37.8532 19.8081 37.9704C19.9253 38.0876 20.0842 38.1535 20.25 38.1535H29C29.1658 38.1535 29.3247 38.0876 29.4419 37.9704C29.5592 37.8532 29.625 37.6942 29.625 37.5285V32.5285C29.625 32.3627 29.5592 32.2037 29.4419 32.0865C29.3247 31.9693 29.1658 31.9035 29 31.9035V30.5285C29.0012 30.2645 29.0574 30.0037 29.165 29.7626C29.2726 29.5216 29.4293 29.3056 29.625 29.1285L33.85 25.3722C34.3121 24.9679 34.643 24.4346 34.8 23.841L37.5125 13.6972C37.5704 13.4854 37.5998 13.2668 37.6 13.0472C37.5975 12.6062 37.479 12.1735 37.2563 11.7928C37.0336 11.4121 36.7145 11.0968 36.3312 10.8785ZM32.6188 10.3285C32.6955 10.0053 32.8912 9.72283 33.1669 9.53749C33.4426 9.35215 33.778 9.27752 34.1062 9.32848C34.3864 9.38715 34.6379 9.54019 34.8188 9.76201C34.9997 9.98384 35.0989 10.261 35.1 10.5472V10.5597C34.5417 10.5701 34.0021 10.7625 33.5632 11.1077C33.1244 11.453 32.8103 11.9321 32.6687 12.4722L30.925 17.8535C30.661 17.7283 30.3779 17.648 30.0875 17.616L32.6188 10.3285ZM28.375 36.9035H20.875V33.1535H28.375V36.9035ZM36.3062 13.3722L33.5875 23.5222C33.4934 23.8749 33.2978 24.1922 33.025 24.4347L28.7937 28.191C28.4663 28.4862 28.2043 28.8467 28.0246 29.2493C27.8448 29.6519 27.7513 30.0876 27.75 30.5285V31.9035H21.5V26.016C21.5031 25.2534 21.704 24.5047 22.083 23.8431C22.4621 23.1814 23.0063 22.6294 23.6625 22.241L29.1813 19.0097C29.3235 18.9268 29.4808 18.8729 29.644 18.8509C29.8073 18.829 29.9732 18.8395 30.1323 18.8819C30.2915 18.9243 30.4407 18.9977 30.5713 19.098C30.702 19.1982 30.8116 19.3233 30.8937 19.466C31.0561 19.7548 31.1009 20.095 31.0187 20.416C30.9753 20.5745 30.9011 20.7228 30.8003 20.8526C30.6995 20.9824 30.5741 21.091 30.4313 21.1722L26.85 23.241C26.714 23.3275 26.6166 23.4632 26.5782 23.6197C26.5399 23.7763 26.5635 23.9416 26.6442 24.0812C26.7249 24.2208 26.8563 24.3238 27.0112 24.3687C27.166 24.4136 27.3322 24.397 27.475 24.3222L31.0563 22.2535C31.3425 22.0911 31.5934 21.873 31.7941 21.6122C31.9948 21.3514 32.1413 21.053 32.225 20.7347C32.3951 20.0952 32.3053 19.4144 31.975 18.841L31.9375 18.7847L33.8688 12.8285C33.9455 12.5053 34.1412 12.2228 34.4169 12.0375C34.6926 11.8522 35.028 11.7775 35.3562 11.8285C35.6364 11.8872 35.8879 12.0402 36.0688 12.262C36.2497 12.4838 36.3489 12.761 36.35 13.0472C36.3521 13.1572 36.3373 13.2668 36.3062 13.3722Z" fill="#5AA678"/>
<path d="M17.7504 31.9033V26.0158C17.7488 25.0353 17.4914 24.0722 17.0036 23.2216C16.5158 22.371 15.8146 21.6624 14.9691 21.1658L9.44414 17.922C9.40664 17.9033 9.36289 17.8908 9.32539 17.872L6.59414 10.0033C6.4354 9.37003 6.04133 8.82106 5.49213 8.46808C4.94293 8.11511 4.27987 7.98466 3.63789 8.10329C3.07764 8.22299 2.57511 8.53057 2.21363 8.97503C1.85215 9.41949 1.65342 9.97414 1.65039 10.547C1.65023 10.6577 1.65649 10.7683 1.66914 10.8783C1.28587 11.0966 0.96683 11.4119 0.74411 11.7926C0.521391 12.1733 0.402843 12.606 0.400391 13.047C0.401605 13.2662 0.428879 13.4844 0.481641 13.697L3.20039 23.8345C3.35575 24.4307 3.68674 24.9664 4.15039 25.372L8.36914 29.1283C8.56685 29.3042 8.72525 29.5198 8.83402 29.761C8.94279 30.0022 8.99948 30.2637 9.00039 30.5283V31.9033C8.83463 31.9033 8.67566 31.9691 8.55845 32.0863C8.44124 32.2036 8.37539 32.3625 8.37539 32.5283V37.5283C8.37539 37.694 8.44124 37.853 8.55845 37.9702C8.67566 38.0874 8.83463 38.1533 9.00039 38.1533H17.7504C17.9162 38.1533 18.0751 38.0874 18.1923 37.9702C18.3095 37.853 18.3754 37.694 18.3754 37.5283V32.5283C18.3754 32.3625 18.3095 32.2036 18.1923 32.0863C18.0751 31.9691 17.9162 31.9033 17.7504 31.9033ZM2.90039 10.547C2.90116 10.2617 2.99954 9.98519 3.17918 9.76349C3.35882 9.54178 3.6089 9.38821 3.88789 9.32829C4.22518 9.27933 4.5685 9.3597 4.84902 9.55327C5.12953 9.74685 5.32649 10.0393 5.40039 10.372L7.91289 17.6158C7.62245 17.6478 7.33939 17.7281 7.07539 17.8533L5.34414 12.5033C5.20325 11.9578 4.88854 11.4731 4.44763 11.1224C4.00671 10.7717 3.46358 10.5741 2.90039 10.5595V10.547ZM9.20039 28.1908L4.97539 24.4345C4.70105 24.1907 4.50527 23.871 4.41289 23.5158L1.68789 13.372C1.66202 13.2657 1.64942 13.1565 1.65039 13.047C1.65116 12.7617 1.74954 12.4852 1.92918 12.2635C2.10882 12.0418 2.3589 11.8882 2.63789 11.8283C2.97281 11.778 3.31433 11.8564 3.59378 12.0478C3.87322 12.2391 4.06986 12.5291 4.14414 12.8595L6.06289 18.7845L6.02539 18.8408C5.69514 19.4142 5.60526 20.095 5.77539 20.7345C5.85907 21.0528 6.00558 21.3512 6.2063 21.612C6.40702 21.8728 6.65789 22.0909 6.94414 22.2533L10.5254 24.322C10.6682 24.3968 10.8344 24.4134 10.9892 24.3685C11.144 24.3236 11.2755 24.2206 11.3562 24.081C11.4369 23.9414 11.4605 23.7761 11.4221 23.6195C11.3838 23.463 11.2864 23.3273 11.1504 23.2408L7.56914 21.172C7.42631 21.0908 7.30091 20.9822 7.2001 20.8524C7.09929 20.7226 7.02505 20.5743 6.98164 20.4158C6.89953 20.0948 6.9443 19.7546 7.10664 19.4658C7.1883 19.3234 7.29721 19.1985 7.42716 19.0981C7.5571 18.9978 7.70553 18.9241 7.86397 18.8811C8.02242 18.8382 8.18777 18.8269 8.35058 18.8478C8.5134 18.8688 8.67049 18.9216 8.81289 19.0033L14.3379 22.2408C14.9941 22.6292 15.5383 23.1812 15.9174 23.8429C16.2964 24.5046 16.4973 25.2532 16.5004 26.0158V31.9033H10.2504V30.5283C10.2493 30.0868 10.1553 29.6504 9.97436 29.2477C9.79345 28.845 9.52974 28.4848 9.20039 28.1908ZM17.1254 36.9033H9.62539V33.1533H17.1254V36.9033Z" fill="#5AA678"/>
<path d="M27.8419 2.61069C27.2617 2.02946 26.5726 1.56836 25.8139 1.25377C25.0553 0.939184 24.2421 0.777286 23.4208 0.777344C22.5996 0.777402 21.7864 0.939415 21.0278 1.25411C20.2692 1.56881 19.5802 2.03001 19 2.61132C18.42 2.02999 17.7309 1.56879 16.9724 1.25411C16.2138 0.939427 15.4006 0.77745 14.5794 0.77745C13.7582 0.77745 12.945 0.939427 12.1864 1.25411C11.4279 1.56879 10.7389 2.02999 10.1588 2.61132C8.989 3.78362 8.33203 5.37209 8.33203 7.02819C8.33203 8.6843 8.989 10.2728 10.1588 11.4451L18.5588 19.8451C18.676 19.9622 18.8349 20.0281 19.0007 20.0281C19.1664 20.0281 19.3253 19.9622 19.4425 19.8451L27.8425 11.4451C29.0123 10.2726 29.6691 8.68396 29.669 7.02775C29.6689 5.37154 29.0118 3.78302 27.8419 2.61069ZM19 18.5194L11.0419 10.5613C10.3432 9.8617 9.86768 8.97064 9.67535 8.00079C9.48303 7.03093 9.58256 6.02583 9.96138 5.11254C10.3402 4.19925 10.9813 3.41877 11.8036 2.86977C12.6259 2.32078 13.5925 2.02791 14.5813 2.02819C15.2381 2.02594 15.8888 2.15448 16.4954 2.40633C17.102 2.65817 17.6523 3.02828 18.1144 3.49507L18.5582 3.93882C18.6754 4.05599 18.8343 4.12181 19 4.12181C19.1658 4.12181 19.3247 4.05599 19.4419 3.93882L19.8869 3.49382C20.3509 3.02898 20.902 2.66019 21.5087 2.40858C22.1154 2.15696 22.7657 2.02744 23.4225 2.02744C24.0793 2.02744 24.7297 2.15696 25.3364 2.40858C25.943 2.66019 26.4942 3.02898 26.9582 3.49382C27.8944 4.4313 28.4202 5.70204 28.4202 7.02694C28.4202 8.35184 27.8944 9.62258 26.9582 10.5601L19 18.5194Z" fill="#5AA678"/>
</svg>
