<svg width="40" height="40" viewBox="0 0 40 40" fill="none" xmlns="http://www.w3.org/2000/svg">
<g clip-path="url(#clip0_37_2633)">
<path d="M10.8118 22.7302H14.0946V26.0145C14.0946 26.6168 14.5803 27.0998 15.1798 27.0998H20.6489C21.2481 27.0998 21.7342 26.6168 21.7342 26.0145V22.7302H25.0193C25.6177 22.7302 26.1045 22.2476 26.1045 21.645V16.1844C26.1045 15.5825 25.6177 15.0991 25.0193 15.0991H21.7342V11.8129C21.7342 11.216 21.2481 10.728 20.6489 10.728H15.1798C14.5806 10.728 14.0946 11.2164 14.0946 11.8129V15.0988H10.8118C10.2122 15.0988 9.72656 15.5821 9.72656 16.184V21.6446C9.72656 22.2472 10.2122 22.7302 10.8118 22.7302ZM11.8966 17.2696H15.1798C15.7794 17.2696 16.265 16.7808 16.265 16.184V12.8981H19.5637V16.184C19.5637 16.7808 20.0498 17.2696 20.6493 17.2696H23.9329V20.5586H20.6493C20.0498 20.5586 19.5637 21.047 19.5637 21.645V24.9293H16.265V21.645C16.265 21.047 15.7797 20.5586 15.1798 20.5586H11.8966V17.2696Z" fill="#A8D5BA"/>
<path d="M39.0538 1.67627H8.92699C8.32822 1.67627 7.84176 2.16272 7.84176 2.7615V6.767H1.22351C0.623964 6.767 0.138672 7.25771 0.138672 7.85183V29.4859C0.138672 30.0831 0.623964 30.5711 1.22351 30.5711H8.13612V37.2385C8.13612 37.6495 8.36772 38.0267 8.73489 38.2095C8.88865 38.2854 9.05403 38.3238 9.22134 38.3238C9.45101 38.3238 9.68107 38.2568 9.87162 38.1073L19.926 30.5668H34.6049C35.2002 30.5668 35.6901 30.0812 35.6901 29.4816V22.5706H39.0538C39.6542 22.5706 40.1391 22.086 40.1391 21.4857V2.75956C40.1387 2.1573 39.6538 1.67627 39.0538 1.67627ZM33.5196 28.3968H19.5631C19.3292 28.3968 19.1011 28.4707 18.9121 28.6129L10.3023 35.0685V29.482C10.3023 28.8883 9.8174 28.3968 9.21708 28.3968H2.3068V8.93512H33.5185L33.5196 28.3968ZM37.9686 20.4028H35.6901V7.85183C35.6901 7.25732 35.2002 6.76661 34.6049 6.76661H10.0122V3.84633H37.9686V20.4028Z" fill="#A8D5BA"/>
</g>
<defs>
<clipPath id="clip0_37_2633">
<rect width="40" height="40" fill="white"/>
</clipPath>
</defs>
</svg>
