<svg width="41" height="41" viewBox="0 0 41 41" fill="none" xmlns="http://www.w3.org/2000/svg">
<path d="M7.05078 6.79541C7.74114 6.79541 8.30078 6.23577 8.30078 5.54541C8.30078 4.85505 7.74114 4.29541 7.05078 4.29541C6.36043 4.29541 5.80078 4.85505 5.80078 5.54541C5.80078 6.23577 6.36043 6.79541 7.05078 6.79541Z" fill="#A8D5BA"/>
<path d="M12.0508 6.79541C12.7411 6.79541 13.3008 6.23577 13.3008 5.54541C13.3008 4.85505 12.7411 4.29541 12.0508 4.29541C11.3604 4.29541 10.8008 4.85505 10.8008 5.54541C10.8008 6.23577 11.3604 6.79541 12.0508 6.79541Z" fill="#A8D5BA"/>
<path d="M17.0508 6.79541C17.7411 6.79541 18.3008 6.23577 18.3008 5.54541C18.3008 4.85505 17.7411 4.29541 17.0508 4.29541C16.3604 4.29541 15.8008 4.85505 15.8008 5.54541C15.8008 6.23577 16.3604 6.79541 17.0508 6.79541Z" fill="#A8D5BA"/>
<path d="M9.55078 20.1362C10.3274 20.1362 10.957 19.5066 10.957 18.73C10.957 17.9533 10.3274 17.3237 9.55078 17.3237C8.77413 17.3237 8.14453 17.9533 8.14453 18.73C8.14453 19.5066 8.77413 20.1362 9.55078 20.1362Z" fill="#A8D5BA"/>
<path d="M36.8945 0.378418H4.70703C2.55313 0.378418 0.800781 2.13076 0.800781 4.28467V36.4722C0.800781 38.6261 2.55313 40.3784 4.70703 40.3784H36.8945C39.0484 40.3784 40.8008 38.6261 40.8008 36.4722V4.28467C40.8008 2.13076 39.0484 0.378418 36.8945 0.378418ZM4.70703 1.94092H36.8945C38.1869 1.94092 39.2383 2.99232 39.2383 4.28467V9.12842H2.36328V4.28467C2.36328 2.99232 3.41469 1.94092 4.70703 1.94092ZM36.8945 38.8159H4.70703C3.41469 38.8159 2.36328 37.7645 2.36328 36.4722V10.6909H39.2383V36.4722C39.2383 37.7645 38.1869 38.8159 36.8945 38.8159Z" fill="#A8D5BA"/>
<path d="M9.55078 14.1987C7.05227 14.1987 5.01953 16.2315 5.01953 18.73C5.01953 21.2285 7.05227 23.2612 9.55078 23.2612C12.0493 23.2612 14.082 21.2285 14.082 18.73C14.082 16.2315 12.0493 14.1987 9.55078 14.1987ZM9.55078 21.6987C7.91383 21.6987 6.58203 20.3669 6.58203 18.73C6.58203 17.093 7.91383 15.7612 9.55078 15.7612C11.1877 15.7612 12.5195 17.093 12.5195 18.73C12.5195 20.3669 11.1877 21.6987 9.55078 21.6987Z" fill="#A8D5BA"/>
<path d="M35.8008 15.8394H17.0508C16.6194 15.8394 16.2695 16.1891 16.2695 16.6206C16.2695 17.0521 16.6194 17.4019 17.0508 17.4019H23.224C23.2256 17.4072 23.2268 17.4128 23.2284 17.4182L24.0468 20.0581H17.0508C16.6194 20.0581 16.2695 20.4079 16.2695 20.8394C16.2695 21.2708 16.6194 21.6206 17.0508 21.6206H24.5312L25.3545 24.2767C25.483 24.6908 25.8109 25.0002 26.2318 25.1043C26.6525 25.2083 27.0869 25.0875 27.3936 24.7808L27.9413 24.2332L29.9403 26.2322C30.1795 26.4713 30.4935 26.5908 30.8077 26.5908C31.1218 26.5908 31.4359 26.4713 31.6751 26.2322L33.5775 24.3299C33.8092 24.0982 33.9368 23.7901 33.9368 23.4625C33.9368 23.1348 33.8091 22.8267 33.5775 22.5951L31.5784 20.5961L32.1262 20.0484C32.4327 19.7419 32.5537 19.3076 32.4496 18.8866C32.3455 18.4657 32.0362 18.1378 31.6221 18.0094C31.622 18.0094 31.622 18.0094 31.622 18.0094L29.6622 17.4019H35.8008C36.2322 17.4019 36.582 17.0521 36.582 16.6206C36.582 16.1891 36.2322 15.8394 35.8008 15.8394ZM29.9209 21.1486L32.2348 23.4625L30.8074 24.8899L28.4935 22.5759C28.3409 22.4233 28.141 22.3471 27.9411 22.3471C27.7412 22.3471 27.5413 22.4233 27.3887 22.5759L26.6821 23.2825L24.9096 17.5646L30.6275 19.3371L29.9209 20.0437C29.6159 20.3488 29.6159 20.8435 29.9209 21.1486Z" fill="#A8D5BA"/>
<path d="M9.55078 27.0867C7.05227 27.0867 5.01953 29.1194 5.01953 31.6179C5.01953 34.1164 7.05227 36.1492 9.55078 36.1492C12.0493 36.1492 14.082 34.1164 14.082 31.6179C14.082 29.1194 12.0493 27.0867 9.55078 27.0867ZM9.55078 34.5867C7.91383 34.5867 6.58203 33.2549 6.58203 31.6179C6.58203 29.981 7.91383 28.6492 9.55078 28.6492C11.1877 28.6492 12.5195 29.981 12.5195 31.6179C12.5195 33.2549 11.1877 34.5867 9.55078 34.5867Z" fill="#A8D5BA"/>
<path d="M35.8008 28.7273H17.0508C16.6194 28.7273 16.2695 29.0771 16.2695 29.5085C16.2695 29.94 16.6194 30.2898 17.0508 30.2898H35.8008C36.2322 30.2898 36.582 29.94 36.582 29.5085C36.582 29.0771 36.2322 28.7273 35.8008 28.7273Z" fill="#A8D5BA"/>
<path d="M27.8362 32.946H17.0508C16.6194 32.946 16.2695 33.2958 16.2695 33.7273C16.2695 34.1588 16.6194 34.5085 17.0508 34.5085H27.8362C28.2677 34.5085 28.6175 34.1588 28.6175 33.7273C28.6175 33.2958 28.2677 32.946 27.8362 32.946Z" fill="#A8D5BA"/>
</svg>
