<svg width="47" height="46" viewBox="0 0 47 46" fill="none" xmlns="http://www.w3.org/2000/svg">
<rect x="0.390625" width="46" height="46" rx="23" fill="#FAFAFA"/>
<g clip-path="url(#clip0_37_2801)">
<path d="M30.2045 10.9741H10.0799C9.14842 10.9741 8.39062 11.7319 8.39062 12.6634V24.737C8.39062 25.6685 9.14842 26.4263 10.0799 26.4263H11.3849V30.9211C11.3849 31.2072 11.5573 31.4653 11.8218 31.5749C11.9093 31.6112 12.0013 31.6288 12.0925 31.6288C12.2767 31.6288 12.4576 31.5569 12.593 31.4215L17.5882 26.4264H18.5904C18.9813 26.4264 19.2981 26.1096 19.2981 25.7187C19.2981 25.3277 18.9812 25.0109 18.5904 25.0109C18.5904 25.0109 17.2609 25.0119 17.247 25.0133C17.0823 25.0245 16.9205 25.0923 16.7946 25.2182L12.8003 29.2125C12.8003 29.2125 12.7991 25.6739 12.7968 25.6556C12.7648 25.2943 12.4618 25.0109 12.0922 25.0109H10.0799C9.92889 25.0109 9.80608 24.8881 9.80608 24.7371V12.6634C9.80608 12.5123 9.92895 12.3895 10.0799 12.3895H30.2045C30.3556 12.3895 30.4784 12.5124 30.4784 12.6634V17.2955C30.4784 17.6864 30.7953 18.0032 31.1861 18.0032C31.5769 18.0032 31.8938 17.6864 31.8938 17.2955V12.6634C31.8938 11.7319 31.136 10.9741 30.2045 10.9741Z" fill="#084B92"/>
<path d="M36.7019 19.6304H22.6151C21.6836 19.6304 20.9258 20.3882 20.9258 21.3197V29.5562C20.9258 30.4877 21.6836 31.2455 22.6151 31.2455H31.4343L35.0074 34.8186C35.1428 34.954 35.3238 35.0259 35.5079 35.0259C35.5991 35.0259 35.6911 35.0083 35.7786 34.972C36.043 34.8624 36.2155 34.6044 36.2155 34.3182V31.2455H36.7019C37.6334 31.2455 38.3912 30.4877 38.3912 29.5562V21.3196C38.3913 20.3882 37.6335 19.6304 36.7019 19.6304ZM36.9759 29.5562C36.9759 29.7072 36.853 29.8301 36.702 29.8301H35.5081C35.1357 29.8301 34.8311 30.1179 34.8032 30.4832C34.8013 30.4987 34.8002 32.6096 34.8002 32.6096L32.2306 30.04C32.2279 30.0373 32.2251 30.0348 32.2224 30.0321C32.2123 30.0222 32.2028 30.0137 32.1937 30.006C32.0692 29.8968 31.9065 29.83 31.7279 29.83H22.6151C22.464 29.83 22.3412 29.7072 22.3412 29.5562V21.3196C22.3412 21.1686 22.4641 21.0458 22.6151 21.0458H36.702C36.853 21.0458 36.9759 21.1686 36.9759 21.3196V29.5562Z" fill="#084B92"/>
<path d="M29.6589 24.7305C29.2682 24.7305 28.9512 25.0475 28.9512 25.4382C28.9512 25.8288 29.2682 26.1459 29.6589 26.1459C30.0496 26.1459 30.3666 25.8288 30.3666 25.4382C30.3666 25.0475 30.0495 24.7305 29.6589 24.7305Z" fill="#084B92"/>
<path d="M26.5821 15.6533H13.7018C13.311 15.6533 12.9941 15.9701 12.9941 16.361C12.9941 16.7519 13.3111 17.0687 13.7018 17.0687H26.5821C26.9729 17.0687 27.2898 16.7519 27.2898 16.361C27.2898 15.9701 26.9729 15.6533 26.5821 15.6533Z" fill="#084B92"/>
<path d="M18.59 20.332H13.7018C13.311 20.332 12.9941 20.6488 12.9941 21.0397C12.9941 21.4306 13.3111 21.7474 13.7018 21.7474H18.59C18.9809 21.7474 19.2977 21.4306 19.2977 21.0397C19.2977 20.6488 18.9809 20.332 18.59 20.332Z" fill="#084B92"/>
<path d="M26.3698 24.7305C25.9792 24.7305 25.6621 25.0475 25.6621 25.4382C25.6621 25.8288 25.9792 26.1459 26.3698 26.1459C26.7605 26.1459 27.0775 25.8288 27.0775 25.4382C27.0775 25.0475 26.7605 24.7305 26.3698 24.7305Z" fill="#084B92"/>
<path d="M32.946 24.7305C32.5553 24.7305 32.2383 25.0475 32.2383 25.4382C32.2383 25.8288 32.5553 26.1459 32.946 26.1459C33.3367 26.1459 33.6537 25.8288 33.6537 25.4382C33.6537 25.0475 33.3366 24.7305 32.946 24.7305Z" fill="#084B92"/>
</g>
<defs>
<clipPath id="clip0_37_2801">
<rect width="30" height="30" fill="white" transform="translate(8.39062 8)"/>
</clipPath>
</defs>
</svg>
