<svg width="71" height="71" viewBox="0 0 71 71" fill="none" xmlns="http://www.w3.org/2000/svg">
<g clip-path="url(#clip0_37_1078)">
<path d="M24.8279 26.759H26.2344V28.1656C26.2344 29.1126 27.0049 29.883 27.952 29.883H31.6796C32.6267 29.883 33.3972 29.1125 33.3972 28.1656V26.759H34.8036C35.7507 26.759 36.5212 25.9885 36.5212 25.0416V21.3138C36.5212 20.3666 35.7507 19.5962 34.8036 19.5962H33.3972V18.1898C33.3972 17.2426 32.6267 16.4722 31.6796 16.4722H27.952C27.0049 16.4722 26.2344 17.2427 26.2344 18.1898V19.5962H24.8279C23.8809 19.5962 23.1104 20.3667 23.1104 21.3138V25.0416C23.1104 25.9885 23.8809 26.759 24.8279 26.759ZM25.1611 21.647H26.5676C27.5146 21.647 28.2852 20.8764 28.2852 19.9295V18.5229H31.3464V19.9295C31.3464 20.8766 32.117 21.647 33.064 21.647H34.4704V24.7084H33.064C32.1168 24.7084 31.3464 25.4789 31.3464 26.426V27.8324H28.2852V26.426C28.2852 25.4788 27.5146 24.7084 26.5676 24.7084H25.1611V21.647Z" fill="#03A9F4"/>
<path d="M68.843 47.3802L64.355 46.5006C64.3546 46.5004 64.354 46.5004 64.3536 46.5004C64.3533 46.5004 64.3531 46.5003 64.3528 46.5003L57.365 45.1472C55.9394 42.8504 54.0301 41.372 51.6842 40.7499C47.0323 39.5161 42.2968 42.1064 41.3946 42.638C40.8548 42.9561 40.2011 42.9969 39.6465 42.7476L31.6838 39.1671C29.3012 38.0954 26.4898 39.1558 25.4161 41.53C24.3209 43.8252 25.4511 46.7792 27.7931 47.7688L35.1048 51.0391C33.2249 52.0669 31.6777 53.0281 30.7548 53.6231L15.2457 41.4928C13.7157 40.2963 11.708 40.1084 10.037 40.8312L7.85568 39.6969C5.35578 38.3971 2.25773 39.3675 0.94947 41.8606C0.315368 43.0692 0.191091 44.4511 0.599196 45.7522C1.00785 47.0545 1.90103 48.1192 3.11427 48.7503L17.5043 56.2338L29.416 65.5503C30.5085 66.408 31.9495 66.7913 33.3247 66.5844L48.6761 64.3292C49.2365 64.2469 49.6238 63.726 49.5415 63.1658C49.4592 62.6053 48.9372 62.2179 48.378 62.3003L33.0268 64.5551C32.2013 64.6768 31.336 64.448 30.6794 63.9345L18.7088 54.572C18.7083 54.5716 18.7077 54.5712 18.7072 54.5707L10.1854 47.9055C8.86959 46.9196 8.62322 44.8927 9.66816 43.6232C10.7146 42.2974 12.6501 42.0664 13.9823 43.108L29.7195 55.4167C30.2735 55.8498 31.041 55.8832 31.6303 55.4992C33.2914 54.416 41.8803 48.9892 47.847 48.5296C51.5967 48.2419 54.7502 49.3115 56.7284 51.5436C57.1041 51.9674 57.752 52.0065 58.176 51.6309C58.5998 51.2552 58.6389 50.6072 58.2633 50.1833C55.849 47.4592 52.0943 46.1451 47.6895 46.485C44.4642 46.7334 40.6791 48.2224 37.4251 49.8301L28.6301 45.8963C27.9749 45.6031 27.4745 45.0742 27.2212 44.4066C26.9694 43.7432 26.9919 43.0216 27.2845 42.3747C27.893 41.0284 29.4894 40.4289 30.8426 41.0371L38.8052 44.6178C39.9663 45.1397 41.3233 45.06 42.4354 44.4047C42.9128 44.1232 47.2129 41.686 51.1582 42.732C53.0911 43.2446 54.6627 44.5378 55.8292 46.5758C55.9774 46.8348 56.231 47.0164 56.5241 47.0731L63.1322 48.3527V62.3647L56.5891 61.1493C56.4781 61.1288 56.3643 61.1265 56.2528 61.143L53.0898 61.6076C52.5294 61.6899 52.142 62.2108 52.2243 62.771C52.3066 63.3315 52.8289 63.7195 53.3878 63.6365L56.3822 63.1966L63.9704 64.6062C63.9709 64.6064 63.9713 64.6064 63.9719 64.6064C63.9723 64.6065 63.9728 64.6066 63.9733 64.6066L68.1424 65.369C68.6876 65.4697 69.2561 65.323 69.6862 64.9632C70.1164 64.6044 70.3632 64.0774 70.3632 63.5174V49.2274C70.3634 48.3297 69.7239 47.5529 68.843 47.3802ZM2.55592 45.1379C2.31215 44.361 2.38666 43.5354 2.76551 42.8131C3.55027 41.3177 5.40924 40.7359 6.90959 41.5162L8.1972 42.1858C8.15017 42.2405 8.10355 42.2956 8.05843 42.3526C7.21297 43.4242 6.83672 44.7596 6.99927 46.1131C7.15144 47.3803 7.75875 48.5207 8.71783 49.3525L4.06064 46.9305C3.33453 46.5529 2.80023 45.9162 2.55592 45.1379ZM68.3126 63.3156L65.1831 62.7433V48.7527L68.3126 49.366V63.3156Z" fill="#03A9F4"/>
<path d="M10.2656 13.3186H10.4707V34.0315C10.4707 35.2754 11.4827 36.2874 12.7266 36.2874H46.9056C48.1493 36.2874 49.1614 35.2754 49.1614 34.0315V13.3186H49.3665C50.3842 13.3186 51.2122 12.4906 51.2122 11.4729V6.82446C51.2122 5.80673 50.3842 4.97876 49.3665 4.97876H18.3938C17.0361 5.02579 17.0372 6.98292 18.3938 7.02954H49.1613V11.2678H10.4707V7.02954H13.5703C14.928 6.98251 14.9269 5.02538 13.5703 4.97876H10.2656C9.24789 4.97876 8.41992 5.80673 8.41992 6.82446V11.4729C8.41992 12.4906 9.24789 13.3186 10.2656 13.3186ZM12.5215 20.3161H17.0362V26.0391H12.5215V20.3161ZM47.1105 26.0392H42.5958V20.3163H47.1105V26.0392ZM47.1105 13.3186V18.2655H42.4223C41.3872 18.2655 40.5451 19.1075 40.5451 20.1426V26.2125C40.5451 27.2476 41.3872 28.0898 42.4223 28.0898H47.1105V34.0314C47.1105 34.1444 47.0185 34.2364 46.9054 34.2364H12.7266C12.6135 34.2364 12.5215 34.1444 12.5215 34.0314V28.0898H17.2097C18.2448 28.0898 19.0869 27.2476 19.0869 26.2125V20.1426C19.0869 19.1075 18.2447 18.2655 17.2097 18.2655H12.5215V13.3186H47.1105Z" fill="#03A9F4"/>
</g>
<defs>
<clipPath id="clip0_37_1078">
<rect width="70" height="70" fill="white" transform="translate(0.363281 0.809082)"/>
</clipPath>
</defs>
</svg>
