<svg width="31" height="31" viewBox="0 0 31 31" fill="none" xmlns="http://www.w3.org/2000/svg">
<path d="M26.4608 19.7525C26.1156 19.4253 25.6621 19.2364 25.1866 19.222C24.7112 19.2075 24.2471 19.3685 23.8827 19.6742L19.9208 22.7113C19.6958 22.8832 19.447 23.0213 19.182 23.1212C19.3276 22.8377 19.3978 22.5216 19.3859 22.2032C19.374 21.8848 19.2804 21.5748 19.1142 21.303C18.9479 21.0312 18.7145 20.8067 18.4365 20.6511C18.1584 20.4954 17.845 20.414 17.5264 20.4144H12.8192C12.4526 19.9654 12.0004 19.5936 11.489 19.3207C10.9775 19.0478 10.417 18.8792 9.83984 18.8246C9.11767 18.7612 8.39226 18.903 7.74711 19.2336V17.7039C7.74714 17.65 7.73655 17.5966 7.71595 17.5469C7.69535 17.4971 7.66514 17.4519 7.62705 17.4138C7.58895 17.3757 7.54373 17.3455 7.49395 17.3249C7.44417 17.3043 7.39082 17.2937 7.33695 17.2937H4.0625C4.00863 17.2937 3.95528 17.3043 3.9055 17.3249C3.85573 17.3455 3.8105 17.3757 3.77241 17.4138C3.73431 17.4519 3.7041 17.4971 3.6835 17.5469C3.6629 17.5966 3.65231 17.65 3.65234 17.7039V28.3785C3.65231 28.4323 3.6629 28.4857 3.6835 28.5355C3.7041 28.5852 3.73431 28.6305 3.77241 28.6686C3.8105 28.7067 3.85573 28.7369 3.9055 28.7575C3.95528 28.7781 4.00863 28.7887 4.0625 28.7886H7.33695C7.39082 28.7887 7.44417 28.7781 7.49395 28.7575C7.54373 28.7369 7.58895 28.7067 7.62705 28.6686C7.66514 28.6305 7.69535 28.5852 7.71595 28.5355C7.73655 28.4857 7.74714 28.4323 7.74711 28.3785V27.5275L14.4284 28.8463C15.6295 29.0867 16.8697 29.0498 18.0543 28.7384C19.239 28.4269 20.3369 27.8491 21.2645 27.0491L26.3956 22.6494C26.6031 22.4714 26.7707 22.2518 26.8877 22.0047C27.0046 21.7577 27.0682 21.4888 27.0744 21.2155C27.0805 20.9422 27.0291 20.6707 26.9233 20.4187C26.8176 20.1666 26.66 19.9396 26.4608 19.7525ZM6.9268 27.9683H4.47266V18.114H6.9268V27.9683ZM25.861 22.0274L20.7303 26.4266C19.8967 27.1455 18.9101 27.6647 17.8455 27.9445C16.7809 28.2244 15.6665 28.2576 14.5871 28.0417L7.74711 26.6912V20.2011C8.3314 19.7745 9.05123 19.5757 9.77164 19.6419C10.4415 19.6977 11.4259 19.9935 12.3095 21.0826C12.3479 21.13 12.3964 21.1683 12.4515 21.1946C12.5066 21.2208 12.5669 21.2345 12.628 21.2345H17.5264C17.8018 21.2345 18.0659 21.3439 18.2606 21.5386C18.4553 21.7333 18.5647 21.9974 18.5647 22.2728C18.5647 22.5481 18.4553 22.8122 18.2606 23.0069C18.0659 23.2017 17.8018 23.311 17.5264 23.311C17.5224 23.311 17.5189 23.311 17.5149 23.311H12.6261C12.5173 23.311 12.413 23.3543 12.3361 23.4312C12.2592 23.5081 12.2159 23.6124 12.2159 23.7212C12.2159 23.83 12.2592 23.9343 12.3361 24.0112C12.413 24.0881 12.5173 24.1314 12.6261 24.1314H18.1452C18.9666 24.1302 19.7651 23.8601 20.4186 23.3624L24.3957 20.3117C24.6232 20.1176 24.9185 20.0218 25.2166 20.0453C25.5147 20.0689 25.7913 20.2099 25.9855 20.4374C26.1796 20.6648 26.2755 20.9601 26.2519 21.2583C26.2283 21.5564 26.0873 21.833 25.8598 22.0271L25.861 22.0274Z" fill="#084B92"/>
<path d="M13.521 16.2812H15.3491C15.3615 16.2812 15.3735 16.2861 15.3822 16.2949C15.391 16.3037 15.396 16.3156 15.396 16.328V18.1562C15.396 18.3861 15.4873 18.6067 15.65 18.7693C15.8126 18.932 16.0332 19.0233 16.2632 19.0233H17.2264C17.3403 19.0233 17.4531 19.0009 17.5583 18.9573C17.6635 18.9137 17.7591 18.8499 17.8396 18.7693C17.9202 18.6888 17.984 18.5932 18.0276 18.488C18.0712 18.3828 18.0936 18.27 18.0936 18.1562V16.328C18.0936 16.3156 18.0986 16.3037 18.1074 16.2949C18.1162 16.2861 18.1281 16.2812 18.1405 16.2812H19.9686C20.1986 16.2812 20.4192 16.1898 20.5818 16.0272C20.7445 15.8645 20.8358 15.644 20.8358 15.414V14.4507C20.8358 14.2207 20.7445 14.0001 20.5818 13.8375C20.4192 13.6749 20.1986 13.5835 19.9686 13.5835H18.1405C18.1281 13.5835 18.1162 13.5786 18.1074 13.5698C18.0986 13.561 18.0936 13.5491 18.0936 13.5366V11.7085C18.0936 11.5946 18.0712 11.4818 18.0276 11.3766C17.984 11.2714 17.9202 11.1758 17.8396 11.0953C17.7591 11.0148 17.6635 10.9509 17.5583 10.9073C17.4531 10.8637 17.3403 10.8413 17.2264 10.8413H16.2627C16.0327 10.8413 15.8121 10.9327 15.6495 11.0953C15.4869 11.2579 15.3955 11.4785 15.3955 11.7085V13.5366C15.3955 13.5491 15.3906 13.561 15.3818 13.5698C15.373 13.5786 15.3611 13.5835 15.3486 13.5835H13.5205C13.2905 13.5835 13.0699 13.6749 12.9073 13.8375C12.7447 14.0001 12.6533 14.2207 12.6533 14.4507V15.414C12.6533 15.5279 12.6758 15.6407 12.7194 15.7459C12.763 15.8512 12.8269 15.9468 12.9075 16.0273C12.9881 16.1079 13.0837 16.1717 13.189 16.2153C13.2942 16.2588 13.4071 16.2812 13.521 16.2812ZM13.4741 14.4509C13.4741 14.4385 13.479 14.4266 13.4878 14.4178C13.4966 14.409 13.5085 14.404 13.521 14.404H15.3491C15.5791 14.404 15.7997 14.3127 15.9623 14.15C16.1249 13.9874 16.2163 13.7668 16.2163 13.5369V11.7087C16.2163 11.6963 16.2212 11.6844 16.23 11.6756C16.2388 11.6668 16.2507 11.6619 16.2632 11.6619H17.2264C17.2389 11.6619 17.2508 11.6668 17.2596 11.6756C17.2684 11.6844 17.2733 11.6963 17.2733 11.7087V13.5369C17.2733 13.7668 17.3647 13.9874 17.5273 14.15C17.6899 14.3127 17.9105 14.404 18.1405 14.404H19.9686C19.9811 14.404 19.993 14.409 20.0018 14.4178C20.0106 14.4266 20.0155 14.4385 20.0155 14.4509V15.4142C20.0155 15.4266 20.0106 15.4386 20.0018 15.4473C19.993 15.4561 19.9811 15.4611 19.9686 15.4611H18.1405C17.9105 15.4611 17.6899 15.5524 17.5273 15.7151C17.3647 15.8777 17.2733 16.0983 17.2733 16.3283V18.1564C17.2733 18.1688 17.2684 18.1807 17.2596 18.1895C17.2508 18.1983 17.2389 18.2033 17.2264 18.2033H16.2627C16.2503 18.2033 16.2383 18.1983 16.2295 18.1895C16.2208 18.1807 16.2158 18.1688 16.2158 18.1564V16.3283C16.2158 16.0983 16.1245 15.8777 15.9618 15.7151C15.7992 15.5524 15.5786 15.4611 15.3486 15.4611H13.5205C13.5081 15.4611 13.4962 15.4561 13.4874 15.4473C13.4786 15.4386 13.4736 15.4266 13.4736 15.4142L13.4741 14.4509Z" fill="#084B92"/>
<path d="M5.05957 11.0137H6.8877C6.90013 11.0137 6.91205 11.0186 6.92084 11.0274C6.92963 11.0362 6.93457 11.0481 6.93457 11.0605V12.8887C6.93457 13.1187 7.02593 13.3392 7.18856 13.5019C7.35119 13.6645 7.57177 13.7559 7.80176 13.7559H8.76504C8.87892 13.7559 8.99169 13.7334 9.0969 13.6898C9.20211 13.6463 9.29771 13.5824 9.37823 13.5019C9.45876 13.4213 9.52264 13.3257 9.56622 13.2205C9.6098 13.1153 9.63223 13.0026 9.63223 12.8887V11.0605C9.63223 11.0481 9.63717 11.0362 9.64596 11.0274C9.65475 11.0186 9.66667 11.0137 9.6791 11.0137H11.5072C11.6211 11.0137 11.7339 10.9912 11.8391 10.9477C11.9443 10.9041 12.0399 10.8402 12.1204 10.7597C12.2009 10.6792 12.2648 10.5836 12.3084 10.4783C12.352 10.3731 12.3744 10.2604 12.3744 10.1465V9.1832C12.3744 8.95321 12.2831 8.73264 12.1204 8.57001C11.9578 8.40738 11.7372 8.31602 11.5072 8.31602H9.6791C9.66667 8.31602 9.65475 8.31108 9.64596 8.30229C9.63717 8.29349 9.63223 8.28157 9.63223 8.26914V6.44336C9.63223 6.32948 9.6098 6.21671 9.56622 6.1115C9.52264 6.00629 9.45876 5.91069 9.37823 5.83016C9.29771 5.74964 9.20211 5.68576 9.0969 5.64218C8.99169 5.5986 8.87892 5.57617 8.76504 5.57617H7.80176C7.57177 5.57617 7.35119 5.66754 7.18856 5.83016C7.02593 5.99279 6.93457 6.21337 6.93457 6.44336V8.27148C6.93457 8.27764 6.93336 8.28373 6.931 8.28942C6.92865 8.29511 6.92519 8.30028 6.92084 8.30463C6.91649 8.30898 6.91132 8.31244 6.90563 8.31479C6.89995 8.31715 6.89385 8.31836 6.8877 8.31836H5.05957C4.94569 8.31836 4.83292 8.34079 4.72771 8.38437C4.6225 8.42795 4.5269 8.49183 4.44638 8.57235C4.36585 8.65288 4.30197 8.74848 4.25839 8.85369C4.21481 8.9589 4.19238 9.07167 4.19238 9.18555V10.1465C4.19238 10.3765 4.28375 10.597 4.44638 10.7597C4.60901 10.9223 4.82958 11.0137 5.05957 11.0137ZM5.0127 9.18367C5.0127 9.17124 5.01763 9.15932 5.02642 9.15053C5.03522 9.14173 5.04714 9.1368 5.05957 9.1368H6.8877C7.11769 9.1368 7.33826 9.04543 7.50089 8.8828C7.66352 8.72017 7.75488 8.4996 7.75488 8.26961V6.44336C7.75488 6.43093 7.75982 6.419 7.76861 6.41021C7.7774 6.40142 7.78933 6.39648 7.80176 6.39648H8.76504C8.77747 6.39648 8.78939 6.40142 8.79818 6.41021C8.80698 6.419 8.81191 6.43093 8.81191 6.44336V8.27148C8.81191 8.38536 8.83434 8.49813 8.87792 8.60334C8.92151 8.70855 8.98538 8.80415 9.06591 8.88468C9.14643 8.9652 9.24203 9.02908 9.34724 9.07266C9.45246 9.11624 9.56522 9.13867 9.6791 9.13867H11.5072C11.5197 9.13867 11.5316 9.14361 11.5404 9.1524C11.5492 9.16119 11.5541 9.17311 11.5541 9.18555V10.1465C11.5541 10.1589 11.5492 10.1708 11.5404 10.1796C11.5316 10.1884 11.5197 10.1934 11.5072 10.1934H9.6791C9.56522 10.1934 9.45246 10.2158 9.34724 10.2594C9.24203 10.3029 9.14643 10.3668 9.06591 10.4474C8.98538 10.5279 8.92151 10.6235 8.87792 10.7287C8.83434 10.8339 8.81191 10.9467 8.81191 11.0605V12.8887C8.81191 12.9011 8.80698 12.913 8.79818 12.9218C8.78939 12.9306 8.77747 12.9355 8.76504 12.9355H7.80176C7.78933 12.9355 7.7774 12.9306 7.76861 12.9218C7.75982 12.913 7.75488 12.9011 7.75488 12.8887V11.0605C7.75488 10.8306 7.66352 10.61 7.50089 10.4474C7.33826 10.2847 7.11769 10.1934 6.8877 10.1934H5.05957C5.05341 10.1934 5.04732 10.1921 5.04163 10.1898C5.03594 10.1874 5.03078 10.184 5.02642 10.1796C5.02207 10.1753 5.01862 10.1701 5.01626 10.1644C5.01391 10.1587 5.0127 10.1526 5.0127 10.1465V9.18367Z" fill="#084B92"/>
<path d="M19.2197 7.88784H21.0479C21.0603 7.88784 21.0722 7.89278 21.081 7.90157C21.0898 7.91036 21.0947 7.92229 21.0947 7.93472V9.76284C21.0947 9.99283 21.1861 10.2134 21.3487 10.376C21.5113 10.5387 21.7319 10.63 21.9619 10.63H22.9252C23.1552 10.63 23.3758 10.5387 23.5384 10.376C23.701 10.2134 23.7924 9.99283 23.7924 9.76284V7.93472C23.7924 7.92229 23.7973 7.91036 23.8061 7.90157C23.8149 7.89278 23.8268 7.88784 23.8393 7.88784H25.6674C25.7813 7.88784 25.894 7.86541 25.9992 7.82183C26.1045 7.77825 26.2001 7.71437 26.2806 7.63385C26.3611 7.55332 26.425 7.45772 26.4686 7.35251C26.5121 7.2473 26.5346 7.13454 26.5346 7.02065V6.05737C26.5346 5.82738 26.4432 5.60681 26.2806 5.44418C26.1179 5.28155 25.8974 5.19019 25.6674 5.19019H23.8393C23.8268 5.19019 23.8149 5.18525 23.8061 5.17646C23.7973 5.16767 23.7924 5.15574 23.7924 5.14331V3.31519C23.7924 3.08519 23.701 2.86462 23.5384 2.70199C23.3758 2.53936 23.1552 2.448 22.9252 2.448H21.9619C21.7319 2.448 21.5113 2.53936 21.3487 2.70199C21.1861 2.86462 21.0947 3.08519 21.0947 3.31519V5.14331C21.0947 5.15574 21.0898 5.16767 21.081 5.17646C21.0722 5.18525 21.0603 5.19019 21.0479 5.19019H19.2197C19.1058 5.19019 18.9931 5.21262 18.8879 5.2562C18.7827 5.29978 18.6871 5.36365 18.6065 5.44418C18.526 5.5247 18.4621 5.6203 18.4186 5.72551C18.375 5.83073 18.3525 5.94349 18.3525 6.05737V7.02065C18.3525 7.13454 18.375 7.2473 18.4186 7.35251C18.4621 7.45772 18.526 7.55332 18.6065 7.63385C18.6871 7.71437 18.7827 7.77825 18.8879 7.82183C18.9931 7.86541 19.1058 7.88784 19.2197 7.88784ZM19.1729 6.05761C19.1729 6.04518 19.1778 6.03325 19.1866 6.02446C19.1954 6.01567 19.2073 6.01073 19.2197 6.01073H21.0479C21.2778 6.01073 21.4984 5.91937 21.661 5.75674C21.8237 5.59411 21.915 5.37354 21.915 5.14354V3.31542C21.915 3.30299 21.92 3.29107 21.9288 3.28227C21.9376 3.27348 21.9495 3.26854 21.9619 3.26854H22.9252C22.9376 3.26854 22.9495 3.27348 22.9583 3.28227C22.9671 3.29107 22.9721 3.30299 22.9721 3.31542V5.14354C22.9721 5.37354 23.0634 5.59411 23.2261 5.75674C23.3887 5.91937 23.6093 6.01073 23.8393 6.01073H25.6674C25.6798 6.01073 25.6917 6.01567 25.7005 6.02446C25.7093 6.03325 25.7143 6.04518 25.7143 6.05761V7.02089C25.7143 7.03332 25.7093 7.04524 25.7005 7.05403C25.6917 7.06283 25.6798 7.06776 25.6674 7.06776H23.8393C23.6093 7.06776 23.3887 7.15913 23.2261 7.32176C23.0634 7.48439 22.9721 7.70496 22.9721 7.93495V9.76308C22.9721 9.76923 22.9709 9.77533 22.9685 9.78101C22.9661 9.7867 22.9627 9.79187 22.9583 9.79622C22.954 9.80057 22.9488 9.80403 22.9431 9.80638C22.9374 9.80874 22.9314 9.80995 22.9252 9.80995H21.9619C21.9558 9.80995 21.9497 9.80874 21.944 9.80638C21.9383 9.80403 21.9331 9.80057 21.9288 9.79622C21.9244 9.79187 21.921 9.7867 21.9186 9.78101C21.9163 9.77533 21.915 9.76923 21.915 9.76308V7.93495C21.915 7.70496 21.8237 7.48439 21.661 7.32176C21.4984 7.15913 21.2778 7.06776 21.0479 7.06776H19.2197C19.2073 7.06776 19.1954 7.06283 19.1866 7.05403C19.1778 7.04524 19.1729 7.03332 19.1729 7.02089V6.05761Z" fill="#084B92"/>
</svg>
