<svg width="31" height="31" viewBox="0 0 31 31" fill="none" xmlns="http://www.w3.org/2000/svg">
<g clip-path="url(#clip0_37_663)">
<path d="M26.5553 23.0325C26.7242 22.7468 26.7935 22.4132 26.7526 22.0838C26.7116 21.7545 26.5625 21.4481 26.3287 21.2125C26.0429 20.9398 25.6631 20.7876 25.268 20.7876C24.8729 20.7876 24.4931 20.9398 24.2072 21.2125L23.2703 20.275C25.2077 17.754 26.1135 14.5904 25.8036 11.426C25.4938 8.26169 23.9917 5.33377 21.602 3.23649C19.2124 1.1392 16.1143 0.0296773 12.9365 0.133096C9.75872 0.236514 6.73932 1.54513 4.4911 3.79335C2.24288 6.04157 0.934268 9.06097 0.83085 12.2388C0.727431 15.4165 1.83695 18.5146 3.93424 20.9043C6.03153 23.2939 8.95945 24.7961 12.1238 25.1059C15.2881 25.4157 18.4518 24.51 20.9727 22.5725L21.9097 23.5095C21.6483 23.7663 21.4902 24.1102 21.4654 24.4759C21.4406 24.8416 21.5509 25.2036 21.7753 25.4934C21.9997 25.7831 22.3227 25.9805 22.6829 26.048C23.0432 26.1155 23.4157 26.0484 23.7297 25.8595L27.4482 29.577C27.6314 29.7726 27.852 29.9294 28.097 30.0381C28.342 30.1468 28.6063 30.2051 28.8742 30.2097C29.1422 30.2142 29.4083 30.1648 29.6568 30.0645C29.9053 29.9642 30.1311 29.8149 30.3208 29.6257C30.5105 29.4364 30.6602 29.2109 30.7611 28.9626C30.8619 28.7143 30.9118 28.4483 30.9079 28.1803C30.9039 27.9124 30.8461 27.6479 30.738 27.4027C30.6298 27.1575 30.4735 26.9366 30.2782 26.753L26.5553 23.0325ZM25.8853 23.7765L26.6558 24.5465L25.2422 25.959L24.4722 25.1895L25.8853 23.7765ZM1.86225 12.6665C1.86225 10.392 2.53671 8.1686 3.80035 6.27744C5.06398 4.38627 6.86004 2.91229 8.96139 2.04188C11.0627 1.17147 13.375 0.943734 15.6058 1.38746C17.8366 1.83119 19.8857 2.92646 21.494 4.53477C23.1023 6.14307 24.1975 8.19217 24.6413 10.423C25.085 12.6537 24.8573 14.966 23.9869 17.0674C23.1165 19.1687 21.6425 20.9648 19.7513 22.2284C17.8601 23.492 15.6367 24.1665 13.3622 24.1665C10.3133 24.1632 7.39013 22.9505 5.23418 20.7946C3.07822 18.6386 1.86556 15.7155 1.86225 12.6665ZM21.7437 21.9315C22.0528 21.6519 22.3477 21.3571 22.6272 21.048L23.4992 21.9205L22.6157 22.8035L21.7437 21.9315ZM22.6152 24.926C22.5688 24.8796 22.5319 24.8244 22.5067 24.7637C22.4816 24.703 22.4686 24.638 22.4686 24.5722C22.4686 24.5065 22.4816 24.4415 22.5067 24.3808C22.5319 24.3201 22.5688 24.2649 22.6152 24.2185L24.9152 21.9185C25.009 21.8248 25.1362 21.7721 25.2687 21.7721C25.4013 21.7721 25.5285 21.8248 25.6222 21.9185C25.716 22.0123 25.7686 22.1394 25.7686 22.272C25.7686 22.4046 25.716 22.5317 25.6222 22.6255L23.3222 24.9255C23.2286 25.0193 23.1014 25.072 22.9689 25.0721C22.8363 25.0722 22.7091 25.0197 22.6152 24.926ZM29.5652 28.876C29.3752 29.0575 29.1224 29.1585 28.8596 29.1579C28.5969 29.1574 28.3445 29.0553 28.1552 28.873L25.9492 26.6665L27.3622 25.2535L29.5693 27.46C29.6622 27.5531 29.7358 27.6636 29.786 27.7852C29.8361 27.9068 29.8618 28.0371 29.8615 28.1686C29.8613 28.3002 29.835 28.4303 29.7844 28.5517C29.7337 28.6731 29.6596 28.7833 29.5662 28.876H29.5652Z" fill="#084B92"/>
<path d="M13.3619 2.1665C13.2293 2.1665 13.1021 2.21918 13.0084 2.31295C12.9146 2.40672 12.8619 2.5339 12.8619 2.6665C12.8619 2.79911 12.9146 2.92629 13.0084 3.02006C13.1021 3.11383 13.2293 3.1665 13.3619 3.1665C15.0249 3.16396 16.6594 3.59798 18.102 4.42518C19.5446 5.25238 20.7448 6.44377 21.5827 7.88025C22.4205 9.31673 22.8666 10.948 22.8763 12.6109C22.886 14.2738 22.4591 15.9102 21.6381 17.3564C20.8172 18.8026 19.631 20.0079 18.1981 20.8519C16.7653 21.696 15.136 22.1491 13.4731 22.166C11.8102 22.1829 10.1721 21.763 8.72234 20.9484C7.27262 20.1337 6.06214 18.9527 5.21193 17.5235L7.36193 15.3735L9.65343 17.6665C9.84154 17.854 10.0963 17.9593 10.3619 17.9593C10.6275 17.9593 10.8823 17.854 11.0704 17.6665L12.8619 15.875L15.1534 18.1665C15.3415 18.3542 15.5963 18.4595 15.8619 18.4595C16.1276 18.4595 16.3824 18.3542 16.5704 18.1665L20.3619 14.3735V14.6665C20.3619 14.7991 20.4146 14.9263 20.5084 15.0201C20.6021 15.1138 20.7293 15.1665 20.8619 15.1665C20.9945 15.1665 21.1217 15.1138 21.2155 15.0201C21.3093 14.9263 21.3619 14.7991 21.3619 14.6665V13.1665C21.3619 13.0339 21.3093 12.9067 21.2155 12.813C21.1217 12.7192 20.9945 12.6665 20.8619 12.6665H19.3619C19.2293 12.6665 19.1021 12.7192 19.0084 12.813C18.9146 12.9067 18.8619 13.0339 18.8619 13.1665C18.8619 13.2991 18.9146 13.4263 19.0084 13.5201C19.1021 13.6138 19.2293 13.6665 19.3619 13.6665H19.6544L15.8619 17.458L13.5704 15.1665C13.3823 14.979 13.1276 14.8737 12.8619 14.8737C12.5963 14.8737 12.3415 14.979 12.1534 15.1665L10.3619 16.958L8.07043 14.6665C7.88233 14.479 7.62755 14.3737 7.36193 14.3737C7.09632 14.3737 6.84154 14.479 6.65343 14.6665L4.72393 16.5975C4.15694 15.3645 3.8629 14.0236 3.86193 12.6665C3.87089 10.4966 4.61855 8.39442 5.98179 6.70618C7.34504 5.01793 9.24258 3.84428 11.3619 3.3785C11.4272 3.36583 11.4893 3.34026 11.5446 3.3033C11.5999 3.26633 11.6472 3.21871 11.6838 3.16323C11.7205 3.10774 11.7457 3.0455 11.758 2.98016C11.7703 2.91481 11.7694 2.84766 11.7555 2.78265C11.7415 2.71764 11.7147 2.65606 11.6767 2.60153C11.6386 2.547 11.5901 2.50061 11.5339 2.46507C11.4777 2.42953 11.4149 2.40556 11.3494 2.39456C11.2838 2.38356 11.2167 2.38575 11.1519 2.401C8.5226 2.96612 6.21019 4.51827 4.69123 6.73762C3.17226 8.95698 2.56247 11.6744 2.98751 14.33C3.41255 16.9856 4.84004 19.377 6.97581 21.0114C9.11159 22.6458 11.7929 23.3986 14.4673 23.1149C17.1417 22.8311 19.6053 21.5323 21.3505 19.4861C23.0958 17.4399 23.9896 14.8022 23.8479 12.1165C23.7062 9.4309 22.5397 6.90192 20.5888 5.05075C18.638 3.19958 16.0513 2.16725 13.3619 2.1665Z" fill="#084B92"/>
<path d="M9.3623 8.1665C9.3623 8.46318 9.45028 8.75319 9.6151 8.99986C9.77992 9.24653 10.0142 9.43879 10.2883 9.55232C10.5624 9.66586 10.864 9.69556 11.1549 9.63768C11.4459 9.5798 11.7132 9.43694 11.923 9.22716C12.1327 9.01739 12.2756 8.75011 12.3335 8.45914C12.3914 8.16817 12.3617 7.86657 12.2481 7.59248C12.1346 7.31839 11.9423 7.08412 11.6957 6.9193C11.449 6.75448 11.159 6.6665 10.8623 6.6665C10.4645 6.6665 10.0829 6.82454 9.80164 7.10584C9.52034 7.38715 9.3623 7.76868 9.3623 8.1665ZM11.3623 8.1665C11.3623 8.26539 11.333 8.36206 11.278 8.44429C11.2231 8.52651 11.145 8.5906 11.0536 8.62844C10.9623 8.66629 10.8617 8.67619 10.7648 8.6569C10.6678 8.6376 10.5787 8.58998 10.5088 8.52006C10.4388 8.45013 10.3912 8.36104 10.3719 8.26405C10.3526 8.16706 10.3625 8.06653 10.4004 7.97516C10.4382 7.8838 10.5023 7.80571 10.5845 7.75077C10.6667 7.69583 10.7634 7.6665 10.8623 7.6665C10.9949 7.6665 11.1221 7.71918 11.2159 7.81295C11.3096 7.90672 11.3623 8.0339 11.3623 8.1665Z" fill="#084B92"/>
<path d="M14.3623 11.6665C14.3623 11.9632 14.4503 12.2532 14.6151 12.4999C14.7799 12.7465 15.0142 12.9388 15.2883 13.0523C15.5624 13.1659 15.864 13.1956 16.1549 13.1377C16.4459 13.0798 16.7132 12.9369 16.923 12.7272C17.1327 12.5174 17.2756 12.2501 17.3335 11.9591C17.3914 11.6682 17.3617 11.3666 17.2481 11.0925C17.1346 10.8184 16.9423 10.5841 16.6957 10.4193C16.449 10.2545 16.159 10.1665 15.8623 10.1665C15.4645 10.1665 15.0829 10.3245 14.8016 10.6058C14.5203 10.8871 14.3623 11.2687 14.3623 11.6665ZM15.8623 11.1665C15.9612 11.1665 16.0579 11.1958 16.1401 11.2508C16.2223 11.3057 16.2864 11.3838 16.3242 11.4752C16.3621 11.5665 16.372 11.6671 16.3527 11.764C16.3334 11.861 16.2858 11.9501 16.2159 12.0201C16.1459 12.09 16.0568 12.1376 15.9599 12.1569C15.8629 12.1762 15.7623 12.1663 15.671 12.1284C15.5796 12.0906 15.5015 12.0265 15.4466 11.9443C15.3916 11.8621 15.3623 11.7654 15.3623 11.6665C15.3623 11.5339 15.415 11.4067 15.5088 11.313C15.6025 11.2192 15.7297 11.1665 15.8623 11.1665Z" fill="#084B92"/>
<path d="M15.1019 6.7275C15.0442 6.69606 14.9809 6.67629 14.9156 6.66932C14.8503 6.66236 14.7842 6.66833 14.7212 6.68691C14.6582 6.70548 14.5994 6.73629 14.5484 6.77757C14.4973 6.81885 14.4548 6.8698 14.4234 6.9275L11.4234 12.4275C11.3599 12.5439 11.3452 12.6808 11.3826 12.8081C11.42 12.9353 11.5065 13.0425 11.6229 13.106C11.7393 13.1695 11.8762 13.1842 12.0035 13.1468C12.1307 13.1094 12.2379 13.0229 12.3014 12.9065L15.3014 7.4065C15.3329 7.34883 15.3528 7.28551 15.3598 7.22015C15.3669 7.1548 15.361 7.0887 15.3424 7.02563C15.3239 6.96257 15.2931 6.90377 15.2518 6.85262C15.2106 6.80146 15.1596 6.75894 15.1019 6.7275Z" fill="#084B92"/>
</g>
<defs>
<clipPath id="clip0_37_663">
<rect width="30" height="30" fill="white" transform="translate(0.862305 0.166504)"/>
</clipPath>
</defs>
</svg>
