<svg width="31" height="31" viewBox="0 0 31 31" fill="none" xmlns="http://www.w3.org/2000/svg">
<g clip-path="url(#clip0_37_676)">
<path d="M29.483 22.4177C29.708 22.1684 29.8486 21.8416 29.8486 21.4802C29.8486 20.7049 29.2177 20.074 28.4424 20.074H27.9736V16.7927C27.9736 16.0174 27.3427 15.3865 26.5674 15.3865H25.1611V4.60522C25.1611 3.82991 24.5302 3.19897 23.7549 3.19897H23.2861V2.26147C23.2861 1.74444 22.8657 1.32397 22.3486 1.32397H21.4111C20.8941 1.32397 20.4736 1.74444 20.4736 2.26147V3.19897H19.5361V2.26147C19.5361 1.74444 19.1157 1.32397 18.5986 1.32397H17.6611C17.1441 1.32397 16.7236 1.74444 16.7236 2.26147V3.19897H13.9111V2.26147C13.9111 1.74444 13.4907 1.32397 12.9736 1.32397H12.0361C11.5191 1.32397 11.0986 1.74444 11.0986 2.26147V3.19897H10.1611V2.26147C10.1611 1.74444 9.74066 1.32397 9.22363 1.32397H8.28613C7.7691 1.32397 7.34863 1.74444 7.34863 2.26147V3.19897H6.87988C6.10457 3.19897 5.47363 3.82991 5.47363 4.60522V12.1329C3.36754 12.3673 1.72363 14.1565 1.72363 16.324C1.72363 17.6487 2.33863 18.8313 3.29676 19.6052H0.786133V27.1052H12.5049C12.8583 27.1052 13.1775 26.9698 13.425 26.7537L14.723 27.7919C15.3024 28.256 16.0304 28.5115 16.7724 28.5115H17.6611V28.9802C17.6611 29.7555 18.2921 30.3865 19.0674 30.3865H26.5674C27.3427 30.3865 27.9736 29.7555 27.9736 28.9802V28.5115H28.4424C29.2177 28.5115 29.8486 27.8805 29.8486 27.1052C29.8486 26.7438 29.7075 26.4171 29.483 26.1677C29.708 25.9184 29.8486 25.5916 29.8486 25.2302C29.8486 24.8688 29.7075 24.5421 29.483 24.2927C29.708 24.0434 29.8486 23.7166 29.8486 23.3552C29.8486 22.9938 29.7075 22.6671 29.483 22.4177ZM21.4111 2.26147H22.3486L22.3491 5.07397H21.4111V2.26147ZM17.6611 2.26147H18.5986L18.5991 5.07397H17.6611V2.26147ZM12.0361 2.26147H12.9736L12.9741 5.07397H12.0361V2.26147ZM8.28613 2.26147H9.22363L9.2241 5.07397H8.28613V2.26147ZM6.41113 4.60522C6.41113 4.34694 6.6216 4.13647 6.87988 4.13647H7.34863V5.07397C7.34863 5.59101 7.7691 6.01147 8.28613 6.01147H9.22363C9.74066 6.01147 10.1611 5.59101 10.1611 5.07397V4.13647H11.0986V5.07397C11.0986 5.59101 11.5191 6.01147 12.0361 6.01147H12.9736C13.4907 6.01147 13.9111 5.59101 13.9111 5.07397V4.13647H16.7236V5.07397C16.7236 5.59101 17.1441 6.01147 17.6611 6.01147H18.5986C19.1157 6.01147 19.5361 5.59101 19.5361 5.07397V4.13647H20.4736V5.07397C20.4736 5.59101 20.8941 6.01147 21.4111 6.01147H22.3486C22.8657 6.01147 23.2861 5.59101 23.2861 5.07397V4.13647H23.7549C24.0132 4.13647 24.2236 4.34694 24.2236 4.60522V6.94897H6.41113V4.60522ZM6.41113 7.88647H24.2236V15.3865H23.2861V8.82397H7.34863V12.3513C7.04957 12.2449 6.73645 12.169 6.41113 12.1329V7.88647ZM19.5361 15.3865V9.76147H22.3486V15.3865H19.5361ZM21.4111 16.324V18.199H20.4736V16.324H21.4111ZM18.5986 16.7927C18.5986 16.5344 18.8091 16.324 19.0674 16.324H19.5361V18.199H18.5986V16.7927ZM17.6611 16.7927V18.199H16.7724C16.4358 18.199 16.1039 18.258 15.7861 18.3588V9.76147H18.5986V15.4727C18.0544 15.6668 17.6611 16.1824 17.6611 16.7927ZM2.66113 16.324C2.66113 14.5146 4.13301 13.0427 5.94238 13.0427C7.75176 13.0427 9.22363 14.5146 9.22363 16.324C9.22363 18.1334 7.75176 19.6052 5.94238 19.6052C4.13301 19.6052 2.66113 18.1334 2.66113 16.324ZM8.28613 26.1677H1.72363V20.5427H8.28613V26.1677ZM10.1611 16.324C10.1611 14.8648 9.41582 13.5766 8.28613 12.8187V9.76147H11.0986V19.6052H8.58801C9.54613 18.8313 10.1611 17.6487 10.1611 16.324ZM10.1611 26.1677H9.22363V20.5427H10.1611V26.1677ZM12.9736 25.699C12.9736 25.9573 12.7632 26.1677 12.5049 26.1677H11.0986V20.5427H12.5049C12.7632 20.5427 12.9736 20.7532 12.9736 21.0115V25.699ZM12.5049 19.6052H12.0361V9.76147H14.8486V18.8341C14.8079 18.8637 14.7624 18.8866 14.723 18.918L13.425 19.9563C13.1775 19.7407 12.8583 19.6052 12.5049 19.6052ZM19.5361 29.449H19.0674C18.8091 29.449 18.5986 29.2385 18.5986 28.9802V28.5115V27.574V21.2055L18.7927 21.0115H19.5361V29.449ZM21.4111 29.449H20.4736V21.0115H20.9424C21.105 21.0115 21.2602 20.9843 21.4111 20.9449V29.449ZM20.9424 20.074H18.4046L17.6846 20.794C17.2421 21.2365 16.6533 21.4802 16.0275 21.4802H15.7861V22.4177H16.0275C16.6107 22.4177 17.1694 22.2635 17.6611 21.9799V27.574H16.7724C16.2422 27.574 15.7224 27.3916 15.308 27.0602L13.8877 25.924C13.9004 25.8504 13.9111 25.7763 13.9111 25.699V21.0115C13.9111 20.9341 13.9004 20.8601 13.8882 20.786L15.3085 19.6498C15.7229 19.3188 16.2427 19.1365 16.7724 19.1365H21.8799C21.8799 19.6535 21.4594 20.074 20.9424 20.074ZM27.0361 28.9802C27.0361 29.2385 26.8257 29.449 26.5674 29.449H22.3486V20.3637C22.6369 20.0341 22.8174 19.608 22.8174 19.1365C22.8174 18.791 22.6275 18.4919 22.3486 18.3293V16.324H26.5674C26.8257 16.324 27.0361 16.5344 27.0361 16.7927V28.9802ZM28.4424 27.574H27.9736V26.6365H28.4424C28.7007 26.6365 28.9111 26.8469 28.9111 27.1052C28.9111 27.3635 28.7007 27.574 28.4424 27.574ZM28.4424 25.699H27.9736V24.7615H28.4424C28.7007 24.7615 28.9111 24.9719 28.9111 25.2302C28.9111 25.4885 28.7007 25.699 28.4424 25.699ZM28.4424 23.824H27.9736V22.8865H28.4424C28.7007 22.8865 28.9111 23.0969 28.9111 23.3552C28.9111 23.6135 28.7007 23.824 28.4424 23.824ZM28.4424 21.949H27.9736V21.0115H28.4424C28.7007 21.0115 28.9111 21.2219 28.9111 21.4802C28.9111 21.7385 28.7007 21.949 28.4424 21.949Z" fill="#084B92"/>
<path d="M24.6924 17.2615C23.9171 17.2615 23.2861 17.8924 23.2861 18.6677C23.2861 19.443 23.9171 20.074 24.6924 20.074C25.4677 20.074 26.0986 19.443 26.0986 18.6677C26.0986 17.8924 25.4677 17.2615 24.6924 17.2615ZM24.6924 19.1365C24.4341 19.1365 24.2236 18.926 24.2236 18.6677C24.2236 18.4094 24.4341 18.199 24.6924 18.199C24.9507 18.199 25.1611 18.4094 25.1611 18.6677C25.1611 18.926 24.9507 19.1365 24.6924 19.1365Z" fill="#084B92"/>
<path d="M25.1611 25.699H26.0986V28.5115H25.1611V25.699Z" fill="#084B92"/>
<path d="M23.2861 25.699H24.2236V28.5115H23.2861V25.699Z" fill="#084B92"/>
<path d="M8.14914 15.2492L7.48633 14.5864L5.00523 17.0675L4.39914 16.4614L3.73633 17.1242L5.00523 18.3931L8.14914 15.2492Z" fill="#084B92"/>
</g>
<defs>
<clipPath id="clip0_37_676">
<rect width="30" height="30" fill="white" transform="translate(0.317383 0.855225)"/>
</clipPath>
</defs>
</svg>
