<svg width="22" height="24" viewBox="0 0 22 24" fill="none" xmlns="http://www.w3.org/2000/svg">
<path d="M19.8611 16.6575H18.102V16.123C18.3772 16.0731 18.6367 15.9646 18.8658 15.804C19.1081 16.0063 19.4159 16.1211 19.7406 16.1211C20.4943 16.1211 21.1075 15.5081 21.1075 14.7546C21.1075 14.4367 20.9981 14.1351 20.8039 13.8954C20.9103 13.7331 20.9724 13.5393 20.9724 13.3311C20.9724 12.8849 20.6879 12.5039 20.2909 12.3597V11.1818C20.2909 10.0727 19.3885 9.17032 18.2794 9.17032C18.0852 9.17032 17.9278 9.32769 17.9278 9.52191C17.9278 9.71612 18.0852 9.87349 18.2794 9.87349C19.0008 9.87349 19.5877 10.4604 19.5877 11.1818V11.7777C19.3704 11.2644 18.8615 10.9033 18.27 10.9033H15.4755C14.8841 10.9033 14.3753 11.2642 14.1579 11.7774V11.1818C14.1579 10.4604 14.7448 9.87349 15.4662 9.87349H16.6331C16.8274 9.87349 16.9847 9.71612 16.9847 9.52191C16.9847 9.32769 16.8274 9.17032 16.6331 9.17032H15.4662C14.3571 9.17032 13.4547 10.0727 13.4547 11.1818V12.3597C13.0577 12.5039 12.7732 12.8849 12.7732 13.3311C12.7732 13.5404 12.836 13.7352 12.9434 13.8981C12.7505 14.1377 12.6418 14.4383 12.6418 14.7546C12.6418 15.5081 13.255 16.121 14.0088 16.121C14.3326 16.121 14.6402 16.0065 14.8827 15.8047C15.1067 15.9609 15.3647 16.0715 15.6434 16.1225V16.6574H14.2764C14.2758 16.6574 14.2752 16.6573 14.2746 16.6573H13.8841C13.4297 16.6573 12.9976 16.8116 12.6512 17.0855L12.5972 16.942C12.4397 16.4912 11.8442 16.227 11.4233 16.4745L10.1152 17.2026L7.56537 17.879V17.2733C7.56537 16.1677 6.74346 15.2508 5.67862 15.1005V14.4699C6.70445 14.3008 7.55356 13.4656 7.56523 12.446V9.3066V8.83646C7.56523 8.29215 7.20361 7.83087 6.70802 7.67993V6.94173C6.70802 6.44966 6.30768 6.04932 5.8156 6.04932H4.47812C4.04932 6.04932 3.65489 6.3003 3.47328 6.68883L3.02954 7.63834C1.80499 7.74954 0.82167 8.74373 0.746853 9.99322L0.627829 11.9804C0.588264 12.6407 0.816279 13.2695 1.26978 13.751C1.74639 14.2585 2.4114 14.528 3.10698 14.4948V15.0949C2.08475 15.2188 1.0412 16.06 1.0292 17.1604L0.431926 22.9271C0.403564 23.2005 0.492867 23.4745 0.677004 23.6786C0.861095 23.8828 1.12427 23.9999 1.39902 23.9999H6.38029C7.03373 23.9999 7.56537 23.4683 7.56537 22.8149V22.3084C7.56537 22.1142 7.408 21.9568 7.21378 21.9568C7.01957 21.9568 6.8622 22.1142 6.8622 22.3084V22.8149C6.8622 23.0806 6.64604 23.2968 6.38029 23.2968H1.39902C1.32186 23.2968 1.25098 23.2652 1.19923 23.2078C1.14747 23.1504 1.12338 23.0765 1.13135 22.9997L1.7304 17.2159C1.73162 17.2038 1.73228 17.1917 1.73228 17.1797C1.73228 16.5332 2.44492 15.7818 3.36368 15.7818H5.37054C6.19306 15.7818 6.8622 16.451 6.8622 17.2734V17.6899L5.50381 16.5385C5.22887 16.3051 4.87874 16.1764 4.51787 16.1764C4.13891 16.1764 3.77546 16.3166 3.49471 16.571C3.17898 16.8566 2.99611 17.2647 2.99306 17.6904C2.99002 18.1163 3.16708 18.5271 3.47891 18.8175C3.48529 18.8205 5.29581 20.5181 5.22971 20.437C5.74439 20.8582 6.25358 21.0701 6.74908 21.0701C6.9177 21.2123 10.9085 19.5887 11.166 19.5172L11.895 19.1465V20.3302C11.895 20.3321 11.895 20.3341 11.895 20.336V23.1036C11.8923 23.5972 12.2974 24.001 12.7886 24C14.7795 23.9999 18.9817 23.9999 20.9702 24C21.4555 24 21.8503 23.6052 21.8503 23.1199V21.1527V18.6462C21.8503 17.5497 20.9579 16.6575 19.8611 16.6575ZM20.2692 13.3311C20.2692 13.513 20.1212 13.661 19.9393 13.661H19.7001V13.0012H19.9393C20.1212 13.0012 20.2692 13.1492 20.2692 13.3311ZM19.7406 15.418C19.6034 15.418 19.4726 15.3757 19.3635 15.3002C19.5526 15.0229 19.6659 14.7023 19.6932 14.3642C19.8605 14.364 20.0842 14.3747 20.2407 14.3192C20.3448 14.4383 20.4044 14.5918 20.4044 14.7546C20.4044 15.1204 20.1065 15.418 19.7406 15.418ZM13.4764 13.3311C13.4764 13.1492 13.6244 13.0012 13.8063 13.0012H14.0454V13.661H13.8063C13.6244 13.661 13.4764 13.513 13.4764 13.3311ZM13.345 14.7546C13.345 14.5926 13.4043 14.4394 13.508 14.3201C13.6629 14.3746 13.8867 14.364 14.0521 14.3642C14.0803 14.7097 14.1989 15.0299 14.3843 15.3013C14.2752 15.376 14.1449 15.4179 14.0088 15.4179C13.6428 15.418 13.345 15.1204 13.345 14.7546ZM14.7485 14.2047C14.7486 13.8452 14.7486 12.6865 14.7485 12.3335C14.7485 11.9326 15.0746 11.6065 15.4755 11.6065H18.2699C18.6708 11.6065 18.9969 11.9326 18.9969 12.3335V14.2047C18.9969 14.5288 18.8737 14.8339 18.6498 15.067C18.646 15.0708 18.6424 15.0748 18.6387 15.0787C18.6363 15.0811 18.6341 15.0837 18.6317 15.0861C18.3963 15.3215 18.0833 15.4512 17.7503 15.4512C17.5561 15.4512 17.3988 15.6086 17.3988 15.8028V16.6574H16.3465V15.8028C16.3465 15.6086 16.1892 15.4512 15.9949 15.4512C15.3077 15.4512 14.7485 14.892 14.7485 14.2047ZM4.11031 6.98664C4.17678 6.84446 4.32117 6.75258 4.47812 6.75258H5.8156C5.91995 6.75258 6.00484 6.83752 6.00484 6.94183V7.6277H3.81071L4.11031 6.98664ZM1.78164 13.269C1.46235 12.93 1.30189 12.4873 1.32969 12.0225L1.44871 10.0353C1.50595 9.07952 2.30082 8.33088 3.25835 8.33088H6.35643C6.63521 8.33088 6.86206 8.55772 6.86206 8.83655V9.24814C6.77125 9.49373 6.27641 10.6287 4.83017 10.8105C4.639 10.8306 4.49373 11.0227 4.52645 11.2121L4.63033 11.897C4.70252 12.3728 4.5639 12.8552 4.2501 13.2202C3.9363 13.5853 3.48022 13.7946 2.99888 13.7946C2.53319 13.7946 2.10093 13.6079 1.78164 13.269ZM4.78325 13.6787C5.23084 13.1582 5.42848 12.4703 5.32549 11.7916L5.27308 11.4458C6.00016 11.2796 6.51089 10.9155 6.86206 10.5402V12.4461C6.86206 12.5131 6.85531 12.5787 6.84312 12.6428H6.26103C6.06682 12.6428 5.90945 12.8001 5.90945 12.9944C5.90945 13.1886 6.06682 13.3459 6.26103 13.3459H6.42853C6.12612 13.623 5.70993 13.7946 5.32703 13.7946C5.13282 13.7946 4.97545 13.9519 4.97545 14.1462V15.0786H3.81015V14.3528C4.18241 14.2161 4.51848 13.9866 4.78325 13.6787ZM20.9702 23.2967H19.7001V21.5042H21.147V23.1198C21.1471 23.2174 21.0677 23.2967 20.9702 23.2967ZM21.1471 18.6462V20.801H19.7002V19.5429C19.7002 19.3486 19.5428 19.1913 19.3486 19.1913C19.1544 19.1913 18.997 19.3486 18.997 19.5429V21.149C18.997 21.1502 18.9968 21.1513 18.9968 21.1526V23.2966H14.6262V17.3607H19.8611C20.5702 17.3607 21.1471 17.9374 21.1471 18.6462ZM13.8829 17.3606C13.8833 17.3606 13.8836 17.3607 13.884 17.3607H13.923V23.2967H12.7884C12.6835 23.2967 12.5982 23.2114 12.5982 23.1064V20.5121L13.1945 20.0968C13.3538 19.9859 13.393 19.7667 13.2821 19.6074C13.1712 19.4482 12.952 19.4088 12.7927 19.5198L12.5982 19.6553V18.7841C12.9194 18.5804 13.0597 18.1714 12.9243 17.8113L12.9189 17.7971C13.1613 17.5216 13.5105 17.361 13.8829 17.3606ZM3.84498 18.1737C3.74696 18.0351 3.69497 17.8701 3.69624 17.6954C3.69774 17.4918 3.77138 17.3024 3.9055 17.1535C3.92467 17.1322 3.94507 17.1118 3.96668 17.0922C4.11805 16.955 4.31381 16.8796 4.51792 16.8796C4.71223 16.8796 4.90072 16.9488 5.04895 17.0747L6.60535 18.3939L5.42679 19.6703L3.9581 18.3028C3.91544 18.2632 3.87766 18.2199 3.84498 18.1737ZM10.8646 18.8816L7.00452 20.3347C6.68453 20.4154 6.34621 20.342 5.97709 20.1109L7.30154 18.6765L10.3379 17.8711C10.3662 17.8636 10.3933 17.8526 10.4188 17.8385L11.7656 17.0888C11.8377 17.064 11.9148 17.1312 11.9392 17.1901L12.2662 18.059C12.2848 18.1087 12.2651 18.1652 12.2201 18.1922L10.8646 18.8816Z" fill="#084B92"/>
<path d="M16.8633 13.5243C17.0575 13.5243 17.2149 13.367 17.2149 13.1728V12.9856C17.2149 12.7914 17.0575 12.634 16.8633 12.634C16.6691 12.634 16.5117 12.7914 16.5117 12.9856V13.1728C16.5117 13.367 16.6691 13.5243 16.8633 13.5243Z" fill="#084B92"/>
<path d="M16.5568 14.6874C16.7694 14.6363 16.9762 14.6363 17.1889 14.6874C17.2165 14.694 17.244 14.6972 17.2712 14.6972C17.4301 14.6971 17.5741 14.5888 17.6128 14.4276C17.6582 14.2388 17.5418 14.049 17.353 14.0036C17.0344 13.9272 16.7114 13.9272 16.3926 14.0036C16.2039 14.049 16.0875 14.2388 16.1328 14.4276C16.1782 14.6164 16.3677 14.7325 16.5568 14.6874Z" fill="#084B92"/>
<path d="M11.205 5.52722H12.0342V6.3564C12.0342 6.89859 12.4753 7.33972 13.0175 7.33972C13.5598 7.33972 14.0009 6.89864 14.0009 6.3564V5.52722H14.8301C15.3723 5.52722 15.8134 5.0861 15.8134 4.54386C15.8134 4.00162 15.3723 3.56054 14.8301 3.56054H14.0009V2.73136C14.0009 2.18917 13.5598 1.74805 13.0175 1.74805C12.4753 1.74805 12.0342 2.18912 12.0342 2.73136V3.56054H11.205C10.6628 3.56054 10.2217 4.00162 10.2217 4.54386C10.2217 5.0861 10.6628 5.52722 11.205 5.52722ZM11.205 4.26371H12.3858C12.58 4.26371 12.7374 4.10634 12.7374 3.91213V2.73136C12.7374 2.5769 12.8631 2.45122 13.0175 2.45122C13.172 2.45122 13.2977 2.5769 13.2977 2.73136V3.91213C13.2977 4.10634 13.4551 4.26371 13.6493 4.26371H14.8301C14.9845 4.26371 15.1102 4.38939 15.1102 4.54386C15.1102 4.69837 14.9845 4.82405 14.8301 4.82405H13.6493C13.4551 4.82405 13.2977 4.98142 13.2977 5.17563V6.3564C13.2977 6.51086 13.172 6.63654 13.0175 6.63654C12.8631 6.63654 12.7374 6.51086 12.7374 6.3564V5.17563C12.7374 4.98142 12.58 4.82405 12.3858 4.82405H11.205C11.0505 4.82405 10.9249 4.69837 10.9249 4.54386C10.9249 4.38939 11.0506 4.26371 11.205 4.26371Z" fill="#084B92"/>
<path d="M8.54137 8.10723C8.41714 8.36469 8.46673 8.66241 8.6677 8.86572C8.86871 9.06903 9.16597 9.12191 9.42469 9.00064L10.6431 8.42952C11.3664 8.86713 12.1785 9.08131 12.9871 9.08131C14.1624 9.08131 15.3303 8.62875 16.2071 7.75204C17.074 6.88507 17.5468 5.73234 17.5383 4.5062C17.5297 3.28029 17.0406 2.13402 16.1609 1.27859C14.3901 -0.44357 11.5275 -0.423459 9.77984 1.32341C8.2885 2.81427 8.02397 5.13413 9.11731 6.91358L8.54137 8.10723ZM10.277 1.82074C11.7543 0.344076 14.1739 0.32706 15.6708 1.78267C16.4145 2.50586 16.828 3.47483 16.8352 4.51103C16.8424 5.5475 16.4428 6.52191 15.71 7.25471C14.4186 8.54611 12.3806 8.74885 10.8639 7.73676C10.7614 7.66827 10.6306 7.65875 10.5196 7.71083L9.21936 8.32025L9.83647 7.04146C9.89094 6.92848 9.88119 6.79507 9.81078 6.69128C8.77904 5.17046 8.97518 3.12212 10.277 1.82074Z" fill="#084B92"/>
<path d="M10.8604 13.8471C10.6733 13.8989 10.5636 14.0926 10.6154 14.2797L10.8398 15.0902C10.8829 15.246 11.0243 15.3481 11.1784 15.3481C11.2095 15.3481 11.2411 15.3439 11.2724 15.3352C11.4596 15.2835 11.5692 15.0897 11.5174 14.9026L11.293 14.0921C11.2412 13.905 11.0475 13.7952 10.8604 13.8471Z" fill="#084B92"/>
<path d="M9.22772 15.2626C9.06777 15.1526 8.8489 15.1931 8.73873 15.353C8.62866 15.5129 8.66912 15.7318 8.82907 15.842L9.52178 16.3187C9.67981 16.428 9.89995 16.3895 10.0108 16.2284C10.1208 16.0684 10.0804 15.8495 9.92044 15.7394L9.22772 15.2626Z" fill="#084B92"/>
</svg>
