<svg width="31" height="31" viewBox="0 0 31 31" fill="none" xmlns="http://www.w3.org/2000/svg">
<g clip-path="url(#clip0_37_690)">
<path fill-rule="evenodd" clip-rule="evenodd" d="M7.05723 22.0083H9.55746C10.0522 22.0083 10.5267 22.2049 10.8765 22.5549C11.2262 22.9048 11.4228 23.3794 11.4228 23.8742V28.4871C11.4228 28.7145 11.2384 28.8989 11.011 28.8989H9.86687V29.9078C9.86687 30.1352 9.68252 30.3196 9.45511 30.3196H3.37487C3.14746 30.3196 2.96311 30.1352 2.96311 29.9078V28.8989H1.81899C1.59158 28.8989 1.40723 28.7145 1.40723 28.4871V23.8742C1.40723 23.3794 1.6037 22.9048 1.95346 22.5549C2.30329 22.2049 2.77776 22.0083 3.27246 22.0083H5.7727C4.60729 21.7203 3.74205 20.6666 3.74205 19.4122C3.74205 17.9363 4.93982 16.7382 6.41499 16.7382C7.89017 16.7382 9.08793 17.9363 9.08793 19.4122C9.08793 20.6666 8.2227 21.7203 7.05723 22.0083ZM6.41499 17.5617C5.39423 17.5617 4.56558 18.3909 4.56558 19.4122C4.56558 20.4334 5.39423 21.2626 6.41499 21.2626C7.43576 21.2626 8.2644 20.4334 8.2644 19.4122C8.2644 18.3909 7.43576 17.5617 6.41499 17.5617ZM6.40799 25.972L6.28529 27.8787L6.41499 28.1035L6.54393 27.8801L6.40799 25.972ZM5.1364 22.8319H3.27246C2.99623 22.8319 2.73129 22.9417 2.53593 23.1371C2.34052 23.3326 2.23076 23.5977 2.23076 23.8742V28.0753H2.96311V24.8563C2.96311 24.6291 3.14758 24.4446 3.37487 24.4446C3.60211 24.4446 3.78664 24.6291 3.78664 24.8563V29.496H9.04334V24.8563C9.04334 24.6291 9.22781 24.4446 9.45511 24.4446C9.68234 24.4446 9.86687 24.6291 9.86687 24.8563V28.0753H10.5992V23.8742C10.5992 23.5977 10.4895 23.3326 10.2941 23.1371C10.0987 22.9417 9.83376 22.8319 9.55746 22.8319H7.69358L7.11123 23.6033C7.08334 23.6403 7.0504 23.6712 7.01411 23.6959C7.05476 23.7544 7.08064 23.8244 7.08605 23.9006L7.37434 27.9474C7.38017 28.0294 7.36134 28.1113 7.32023 28.1824L6.77164 29.1332C6.69805 29.2606 6.56211 29.3391 6.41499 29.3391C6.26782 29.3391 6.13187 29.2606 6.05834 29.1332L5.5097 28.1824C5.46911 28.1121 5.45023 28.0313 5.4554 27.9502L5.71729 23.8819C5.72223 23.8052 5.74793 23.7347 5.78852 23.6756C5.76293 23.6549 5.73946 23.6307 5.71876 23.6033L5.1364 22.8319ZM6.42499 23.151C6.43358 23.136 6.44323 23.1213 6.45393 23.1072L6.66176 22.8319H6.16823L6.37605 23.1072C6.38676 23.1213 6.3964 23.136 6.40499 23.151C6.40829 23.1509 6.41164 23.1509 6.41499 23.1509C6.41834 23.1509 6.42164 23.1509 6.42499 23.151ZM19.1339 18.336H14.3309L12.1276 21.3093C12.0218 21.452 11.8363 21.5108 11.6676 21.4552C11.4989 21.3994 11.3849 21.2418 11.3849 21.0641V18.336H10.3939C9.27334 18.336 8.31181 17.2459 8.31181 15.8632V3.73362C8.31181 2.35086 9.27334 1.26074 10.3939 1.26074H28.2368C29.3573 1.26074 30.3188 2.35086 30.3188 3.73362V15.8632C30.3188 17.2459 29.3573 18.336 28.2368 18.336H27.0795C27.2286 18.7671 27.3097 19.2299 27.3097 19.7117C27.3097 22.033 25.4282 23.9146 23.1068 23.9146C20.7855 23.9146 18.9035 22.033 18.9035 19.7117C18.9035 19.2299 18.9846 18.7671 19.1339 18.336ZM26.6892 17.5125H28.2368C28.9559 17.5125 29.4952 16.7506 29.4952 15.8632V3.73362C29.4952 2.84621 28.9559 2.08427 28.2368 2.08427H10.3939C9.67476 2.08427 9.13534 2.84621 9.13534 3.73362V15.8632C9.13534 16.7506 9.67476 17.5125 10.3939 17.5125H11.7967C12.0241 17.5125 12.2085 17.6969 12.2085 17.9243V19.8169L13.7926 17.6791C13.8703 17.5743 13.9931 17.5125 14.1235 17.5125H19.5241C20.2638 16.3102 21.5918 15.5084 23.1068 15.5084C24.622 15.5084 25.9497 16.3102 26.6892 17.5125ZM12.9088 12.091H11.67C11.3164 12.091 10.9772 11.9506 10.7272 11.7005C10.4771 11.4504 10.3366 11.1113 10.3366 10.7577V6.45027C10.3366 5.03733 11.482 3.89186 12.8951 3.89186H25.5922C25.9955 3.89186 26.3423 4.08086 26.561 4.41868L28.1091 6.80827L28.1097 6.80921C28.236 7.00533 28.294 7.20439 28.294 7.43615V11.6793C28.294 11.9067 28.1096 12.091 27.8822 12.091H27.4585C27.4262 12.4561 27.1153 12.7487 26.7357 12.7487H26.3034C25.9396 13.3556 25.2754 13.7617 24.5161 13.7617C23.7568 13.7617 23.0926 13.3556 22.7288 12.7487H17.7138C17.3499 13.3556 16.6858 13.7617 15.9265 13.7617C15.1672 13.7617 14.503 13.3556 14.1392 12.7487H13.6324C13.2513 12.7487 12.9411 12.4559 12.9088 12.091ZM26.5841 11.9252H26.6378V11.6551H26.5983C26.5984 11.6632 26.5985 11.6712 26.5985 11.6793C26.5985 11.7625 26.5936 11.8446 26.5841 11.9252ZM22.448 11.9252C22.4386 11.8446 22.4337 11.7625 22.4337 11.6793C22.4337 11.6712 22.4338 11.6632 22.4338 11.6551H18.0088C18.0088 11.6632 18.0089 11.6712 18.0089 11.6793C18.0089 11.7625 18.004 11.8446 17.9945 11.9252H22.448ZM13.8585 11.9252C13.8489 11.8446 13.8441 11.7625 13.8441 11.6793C13.8441 11.6712 13.8441 11.6632 13.8442 11.6551H13.7295V11.9252H13.8585ZM24.5161 10.4204C23.8206 10.4204 23.2572 10.9839 23.2572 11.6793C23.2572 12.3747 23.8206 12.9382 24.5161 12.9382C25.2115 12.9382 25.7749 12.3747 25.7749 11.6793C25.7749 10.9839 25.2115 10.4204 24.5161 10.4204ZM24.5161 11.1317C24.8186 11.1317 25.0637 11.3767 25.0637 11.6793C25.0637 11.9818 24.8186 12.2269 24.5161 12.2269C24.2135 12.2269 23.9685 11.9818 23.9685 11.6793C23.9685 11.3767 24.2135 11.1317 24.5161 11.1317ZM15.9265 10.4204C15.2311 10.4204 14.6676 10.9839 14.6676 11.6793C14.6676 12.3747 15.2311 12.9382 15.9265 12.9382C16.6219 12.9382 17.1853 12.3747 17.1853 11.6793C17.1853 10.9839 16.6219 10.4204 15.9265 10.4204ZM15.9265 11.1317C16.229 11.1317 16.4741 11.3767 16.4741 11.6793C16.4741 11.9818 16.229 12.2269 15.9265 12.2269C15.6239 12.2269 15.3789 11.9818 15.3789 11.6793C15.3789 11.3767 15.6239 11.1317 15.9265 11.1317ZM27.4021 11.2675H27.4705V7.43615C27.4705 7.36933 27.4538 7.31186 27.4175 7.25527L25.8698 4.86639C25.8071 4.76957 25.7078 4.71539 25.5922 4.71539H12.8951C11.9369 4.71539 11.1602 5.49215 11.1602 6.45027V10.7577C11.1602 10.8929 11.2139 11.0226 11.3095 11.1182C11.4051 11.2138 11.5348 11.2675 11.67 11.2675H12.9652C13.0763 11.012 13.3324 10.8316 13.6324 10.8316H14.0238C14.3483 10.1039 15.078 9.59686 15.9265 9.59686C16.7749 9.59686 17.5046 10.1039 17.8292 10.8316H22.6134C22.9379 10.1039 23.6676 9.59686 24.5161 9.59686C25.3645 9.59686 26.0942 10.1039 26.4188 10.8316H26.7357C27.0345 10.8316 27.2908 11.0119 27.4021 11.2675ZM18.434 5.77733V7.67157C18.434 7.89898 18.2496 8.08333 18.0222 8.08333H12.2022C11.9748 8.08333 11.7905 7.89898 11.7905 7.67157V6.57015C11.7905 5.90486 12.3298 5.36557 12.995 5.36557H18.0222C18.2496 5.36557 18.434 5.54992 18.434 5.77733ZM17.6105 6.18909H12.995C12.7846 6.18909 12.614 6.35968 12.614 6.57015V7.2598H17.6105V6.18909ZM23.7764 5.36557H25.166C25.3036 5.36557 25.4322 5.43439 25.5086 5.54898L26.771 7.44321C26.8552 7.56957 26.863 7.73198 26.7914 7.86586C26.7198 7.99974 26.5802 8.08333 26.4283 8.08333H23.7764C23.549 8.08333 23.3646 7.89898 23.3646 7.67157V5.77733C23.3646 5.54992 23.549 5.36557 23.7764 5.36557ZM24.1882 6.18909V7.2598H25.6591L24.9456 6.18909H24.1882ZM22.7474 5.77733V7.67157C22.7474 7.89898 22.563 8.08333 22.3356 8.08333H19.3153C19.0879 8.08333 18.9035 7.89898 18.9035 7.67157V5.77733C18.9035 5.54992 19.0879 5.36557 19.3153 5.36557H22.3356C22.563 5.36557 22.7474 5.54992 22.7474 5.77733ZM21.9239 6.18909H19.727V7.2598H21.9239V6.18909ZM23.1068 16.3319C21.2403 16.3319 19.727 17.8452 19.727 19.7117C19.727 21.5782 21.2403 23.091 23.1068 23.091C24.9733 23.091 26.4862 21.5782 26.4862 19.7117C26.4862 17.8452 24.9733 16.3319 23.1068 16.3319ZM24.619 22.1126C24.049 22.1126 23.5302 21.5626 23.5302 20.8281C23.5302 20.0936 24.049 19.5436 24.619 19.5436C25.189 19.5436 25.7079 20.0936 25.7079 20.8281C25.7079 21.5626 25.189 22.1126 24.619 22.1126ZM24.619 21.2891C24.6815 21.2891 24.7316 21.2455 24.7725 21.1927C24.8446 21.0998 24.8843 20.9699 24.8843 20.8281C24.8843 20.6863 24.8446 20.5563 24.7725 20.4634C24.7316 20.4107 24.6815 20.3671 24.619 20.3671C24.5567 20.3671 24.5066 20.4107 24.4656 20.4634C24.3935 20.5563 24.3538 20.6863 24.3538 20.8281C24.3538 20.9699 24.3935 21.0998 24.4656 21.1927C24.5066 21.2455 24.5567 21.2891 24.619 21.2891ZM21.5942 19.8794C21.0242 19.8794 20.5053 19.3301 20.5053 18.5949C20.5053 17.8603 21.0241 17.3108 21.5942 17.3108C22.1642 17.3108 22.683 17.8603 22.683 18.5949C22.683 19.3301 22.1642 19.8794 21.5942 19.8794ZM21.5942 19.0559C21.6566 19.0559 21.7067 19.0124 21.7476 18.9597C21.8197 18.8667 21.8595 18.7368 21.8595 18.5949C21.8595 18.4532 21.8198 18.3234 21.7476 18.2305C21.7068 18.1779 21.6566 18.1343 21.5942 18.1343C21.5318 18.1343 21.4816 18.1779 21.4407 18.2305C21.3686 18.3234 21.3289 18.4532 21.3289 18.5949C21.3289 18.7368 21.3686 18.8667 21.4407 18.9597C21.4816 19.0124 21.5318 19.0559 21.5942 19.0559ZM24.0825 17.1979C24.1961 17.001 24.4481 16.9335 24.6449 17.0472C24.8418 17.1608 24.9093 17.4128 24.7956 17.6096L22.1308 22.2251C22.0172 22.4219 21.7651 22.4894 21.5683 22.3758C21.3715 22.2622 21.3039 22.0102 21.4176 21.8133L24.0825 17.1979Z" fill="#084B92"/>
</g>
<defs>
<clipPath id="clip0_37_690">
<rect width="30" height="30" fill="white" transform="translate(0.863281 0.790039)"/>
</clipPath>
</defs>
</svg>
