<svg width="31" height="31" viewBox="0 0 31 31" fill="none" xmlns="http://www.w3.org/2000/svg">
<g clip-path="url(#clip0_37_721)">
<path d="M28.3633 2.03613H27.3633V1.53613C27.3633 1.13831 27.2052 0.756777 26.9239 0.475473C26.6426 0.194168 26.2611 0.0361329 25.8633 0.0361329C25.4655 0.0361329 25.0839 0.194168 24.8026 0.475473C24.5213 0.756777 24.3633 1.13831 24.3633 1.53613V2.03613H22.3633V1.53613C22.3633 1.13831 22.2052 0.756777 21.9239 0.475473C21.6426 0.194168 21.2611 0.0361328 20.8633 0.0361328C20.4655 0.0361328 20.0839 0.194168 19.8026 0.475473C19.5213 0.756777 19.3633 1.13831 19.3633 1.53613V2.03613H17.3633V1.53613C17.3633 1.13831 17.2052 0.756777 16.9239 0.475473C16.6426 0.194168 16.2611 0.0361328 15.8633 0.0361328C15.4655 0.0361328 15.0839 0.194168 14.8026 0.475473C14.5213 0.756777 14.3633 1.13831 14.3633 1.53613V2.03613H12.3633V1.53613C12.3633 1.13831 12.2052 0.756777 11.9239 0.475473C11.6426 0.194168 11.2611 0.0361328 10.8633 0.0361328C10.4655 0.0361328 10.0839 0.194168 9.80262 0.475473C9.52132 0.756777 9.36328 1.13831 9.36328 1.53613V2.03613H7.36328V1.53613C7.36328 1.13831 7.20525 0.756777 6.92394 0.475473C6.64264 0.194168 6.26111 0.0361328 5.86328 0.0361328C5.46546 0.0361328 5.08393 0.194168 4.80262 0.475473C4.52132 0.756777 4.36328 1.13831 4.36328 1.53613V2.03613H3.36328C2.70048 2.03693 2.06506 2.30057 1.59639 2.76924C1.12772 3.23791 0.864075 3.87334 0.863281 4.53613L0.863281 23.5361C0.864075 24.1989 1.12772 24.8344 1.59639 25.303C2.06506 25.7717 2.70048 26.0353 3.36328 26.0361H6.03828C5.87647 26.4889 5.82585 26.9739 5.89068 27.4503C5.95552 27.9267 6.13392 28.3806 6.41084 28.7736C6.68777 29.1667 7.0551 29.4874 7.48191 29.7088C7.90871 29.9302 8.38247 30.0458 8.86328 30.0458C9.34409 30.0458 9.81785 29.9302 10.2447 29.7088C10.6715 29.4874 11.0388 29.1667 11.3157 28.7736C11.5926 28.3806 11.771 27.9267 11.8359 27.4503C11.9007 26.9739 11.8501 26.4889 11.6883 26.0361H28.3633C29.0261 26.0353 29.6615 25.7717 30.1302 25.303C30.5988 24.8344 30.8625 24.1989 30.8633 23.5361V4.53613C30.8625 3.87334 30.5988 3.23791 30.1302 2.76924C29.6615 2.30057 29.0261 2.03693 28.3633 2.03613ZM25.3633 1.53613C25.3633 1.40352 25.416 1.27635 25.5097 1.18258C25.6035 1.08881 25.7307 1.03613 25.8633 1.03613C25.9959 1.03613 26.1231 1.08881 26.2168 1.18258C26.3106 1.27635 26.3633 1.40352 26.3633 1.53613V3.53613C26.3633 3.66874 26.3106 3.79592 26.2168 3.88969C26.1231 3.98345 25.9959 4.03613 25.8633 4.03613C25.7307 4.03613 25.6035 3.98345 25.5097 3.88969C25.416 3.79592 25.3633 3.66874 25.3633 3.53613V1.53613ZM20.3633 1.53613C20.3633 1.40352 20.416 1.27635 20.5097 1.18258C20.6035 1.08881 20.7307 1.03613 20.8633 1.03613C20.9959 1.03613 21.1231 1.08881 21.2168 1.18258C21.3106 1.27635 21.3633 1.40352 21.3633 1.53613V3.53613C21.3633 3.66874 21.3106 3.79592 21.2168 3.88969C21.1231 3.98345 20.9959 4.03613 20.8633 4.03613C20.7307 4.03613 20.6035 3.98345 20.5097 3.88969C20.416 3.79592 20.3633 3.66874 20.3633 3.53613V1.53613ZM15.3633 1.53613C15.3633 1.40352 15.416 1.27635 15.5097 1.18258C15.6035 1.08881 15.7307 1.03613 15.8633 1.03613C15.9959 1.03613 16.1231 1.08881 16.2168 1.18258C16.3106 1.27635 16.3633 1.40352 16.3633 1.53613V3.53613C16.3633 3.66874 16.3106 3.79592 16.2168 3.88969C16.1231 3.98345 15.9959 4.03613 15.8633 4.03613C15.7307 4.03613 15.6035 3.98345 15.5097 3.88969C15.416 3.79592 15.3633 3.66874 15.3633 3.53613V1.53613ZM10.3633 1.53613C10.3633 1.40352 10.416 1.27635 10.5097 1.18258C10.6035 1.08881 10.7307 1.03613 10.8633 1.03613C10.9959 1.03613 11.1231 1.08881 11.2168 1.18258C11.3106 1.27635 11.3633 1.40352 11.3633 1.53613V3.53613C11.3633 3.66874 11.3106 3.79592 11.2168 3.88969C11.1231 3.98345 10.9959 4.03613 10.8633 4.03613C10.7307 4.03613 10.6035 3.98345 10.5097 3.88969C10.416 3.79592 10.3633 3.66874 10.3633 3.53613V1.53613ZM5.36328 1.53613C5.36328 1.40352 5.41596 1.27635 5.50973 1.18258C5.6035 1.08881 5.73067 1.03613 5.86328 1.03613C5.99589 1.03613 6.12307 1.08881 6.21683 1.18258C6.3106 1.27635 6.36328 1.40352 6.36328 1.53613V3.53613C6.36328 3.66874 6.3106 3.79592 6.21683 3.88969C6.12307 3.98345 5.99589 4.03613 5.86328 4.03613C5.73067 4.03613 5.6035 3.98345 5.50973 3.88969C5.41596 3.79592 5.36328 3.66874 5.36328 3.53613V1.53613ZM3.36328 3.03613H4.36328V3.53613C4.36328 3.93396 4.52132 4.31549 4.80262 4.59679C5.08393 4.8781 5.46546 5.03613 5.86328 5.03613C6.26111 5.03613 6.64264 4.8781 6.92394 4.59679C7.20525 4.31549 7.36328 3.93396 7.36328 3.53613V3.03613H9.36328V3.53613C9.36328 3.93396 9.52132 4.31549 9.80262 4.59679C10.0839 4.8781 10.4655 5.03613 10.8633 5.03613C11.2611 5.03613 11.6426 4.8781 11.9239 4.59679C12.2052 4.31549 12.3633 3.93396 12.3633 3.53613V3.03613H14.3633V3.53613C14.3633 3.93396 14.5213 4.31549 14.8026 4.59679C15.0839 4.8781 15.4655 5.03613 15.8633 5.03613C16.2611 5.03613 16.6426 4.8781 16.9239 4.59679C17.2052 4.31549 17.3633 3.93396 17.3633 3.53613V3.03613H19.3633V3.53613C19.3633 3.93396 19.5213 4.31549 19.8026 4.59679C20.0839 4.8781 20.4655 5.03613 20.8633 5.03613C21.2611 5.03613 21.6426 4.8781 21.9239 4.59679C22.2052 4.31549 22.3633 3.93396 22.3633 3.53613V3.03613H24.3633V3.53613C24.3633 3.93396 24.5213 4.31549 24.8026 4.59679C25.0839 4.8781 25.4655 5.03613 25.8633 5.03613C26.2611 5.03613 26.6426 4.8781 26.9239 4.59679C27.2052 4.31549 27.3633 3.93396 27.3633 3.53613V3.03613H28.3633C28.7611 3.03613 29.1426 3.19417 29.4239 3.47547C29.7052 3.75678 29.8633 4.13831 29.8633 4.53613V6.03613H1.86328V4.53613C1.86328 4.13831 2.02132 3.75678 2.30262 3.47547C2.58393 3.19417 2.96546 3.03613 3.36328 3.03613ZM8.86328 29.0361C8.46772 29.0361 8.08104 28.9188 7.75214 28.6991C7.42324 28.4793 7.1669 28.167 7.01552 27.8015C6.86415 27.436 6.82454 27.0339 6.90171 26.646C6.97888 26.258 7.16936 25.9016 7.44907 25.6219C7.72877 25.3422 8.08514 25.1517 8.4731 25.0746C8.86106 24.9974 9.2632 25.037 9.62865 25.1884C9.9941 25.3397 10.3065 25.5961 10.5262 25.925C10.746 26.2539 10.8633 26.6406 10.8633 27.0361C10.8633 27.5666 10.6526 28.0753 10.2775 28.4503C9.90242 28.8254 9.39371 29.0361 8.86328 29.0361ZM28.3633 25.0361H11.0933C10.641 24.5316 10.0313 24.195 9.36328 24.0811V19.0361C9.36328 18.6383 9.20525 18.2568 8.92394 17.9755C8.64264 17.6942 8.26111 17.5361 7.86328 17.5361H7.11328C6.91437 17.5361 6.7236 17.4571 6.58295 17.3165C6.4423 17.1758 6.36328 16.985 6.36328 16.7861C6.36328 16.5872 6.4423 16.3965 6.58295 16.2558C6.7236 16.1152 6.91437 16.0361 7.11328 16.0361H9.88878C10.0116 17.5364 10.6944 18.9355 11.8013 19.9555C12.9083 20.9756 14.3585 21.5418 15.8638 21.5418C17.3691 21.5418 18.8192 20.9756 19.9262 19.9555C21.0332 18.9355 21.7159 17.5364 21.8388 16.0361H22.3633C22.4959 16.0361 22.6231 16.0888 22.7168 16.1826C22.8106 16.2763 22.8633 16.4035 22.8633 16.5361V19.7861C22.8633 20.2503 23.0477 20.6954 23.3758 21.0236C23.704 21.3518 24.1492 21.5361 24.6133 21.5361C25.0774 21.5361 25.5225 21.3518 25.8507 21.0236C26.1789 20.6954 26.3633 20.2503 26.3633 19.7861V14.9911C27.0616 14.8725 27.6954 14.5109 28.1529 13.9701C28.6103 13.4294 28.862 12.7444 28.8633 12.0361V9.03613C28.8633 8.77092 28.7579 8.51656 28.5704 8.32903C28.3829 8.14149 28.1285 8.03613 27.8633 8.03613H27.3633C27.2307 8.03613 27.1035 8.08881 27.0097 8.18258C26.916 8.27635 26.8633 8.40352 26.8633 8.53613C26.8633 8.66874 26.916 8.79592 27.0097 8.88969C27.1035 8.98345 27.2307 9.03613 27.3633 9.03613H27.8633V12.0361C27.8633 12.5666 27.6526 13.0753 27.2775 13.4503C26.9024 13.8254 26.3937 14.0361 25.8633 14.0361C25.3328 14.0361 24.8241 13.8254 24.4491 13.4503C24.074 13.0753 23.8633 12.5666 23.8633 12.0361V9.03613H24.3633C24.4959 9.03613 24.6231 8.98345 24.7168 8.88969C24.8106 8.79592 24.8633 8.66874 24.8633 8.53613C24.8633 8.40352 24.8106 8.27635 24.7168 8.18258C24.6231 8.08881 24.4959 8.03613 24.3633 8.03613H23.8633C23.5981 8.03613 23.3437 8.14149 23.1562 8.32903C22.9686 8.51656 22.8633 8.77092 22.8633 9.03613V12.0361C22.8646 12.7444 23.1162 13.4294 23.5737 13.9701C24.0311 14.5109 24.665 14.8725 25.3633 14.9911V19.7861C25.3633 19.985 25.2843 20.1758 25.1436 20.3165C25.003 20.4571 24.8122 20.5361 24.6133 20.5361C24.4144 20.5361 24.2236 20.4571 24.083 20.3165C23.9423 20.1758 23.8633 19.985 23.8633 19.7861V16.5361C23.8633 16.1383 23.7052 15.7568 23.4239 15.4755C23.1426 15.1942 22.7611 15.0361 22.3633 15.0361H21.8378C21.7149 13.5359 21.0322 12.1367 19.9252 11.1167C18.8182 10.0967 17.3681 9.53042 15.8628 9.53042C14.3575 9.53042 12.9073 10.0967 11.8003 11.1167C10.6934 12.1367 10.0106 13.5359 9.88778 15.0361H7.11328C6.64915 15.0361 6.20403 15.2205 5.87584 15.5487C5.54766 15.8769 5.36328 16.322 5.36328 16.7861C5.36328 17.2503 5.54766 17.6954 5.87584 18.0236C6.20403 18.3518 6.64915 18.5361 7.11328 18.5361H7.86328C7.99589 18.5361 8.12307 18.5888 8.21683 18.6826C8.3106 18.7763 8.36328 18.9035 8.36328 19.0361V24.0811C7.69531 24.195 7.08555 24.5316 6.63328 25.0361H3.36328C2.96546 25.0361 2.58393 24.8781 2.30262 24.5968C2.02132 24.3155 1.86328 23.934 1.86328 23.5361V7.03613H29.8633V23.5361C29.8633 23.934 29.7052 24.3155 29.4239 24.5968C29.1426 24.8781 28.7611 25.0361 28.3633 25.0361ZM10.8633 15.5361C10.8633 14.5472 11.1565 13.5805 11.7059 12.7583C12.2553 11.936 13.0362 11.2952 13.9499 10.9167C14.8635 10.5383 15.8688 10.4393 16.8387 10.6322C17.8086 10.8251 18.6996 11.3013 19.3988 12.0006C20.0981 12.6999 20.5743 13.5908 20.7672 14.5607C20.9601 15.5306 20.8611 16.5359 20.4827 17.4496C20.1042 18.3632 19.4634 19.1441 18.6411 19.6935C17.8189 20.2429 16.8522 20.5361 15.8633 20.5361C14.5376 20.5347 13.2667 20.0074 12.3294 19.0701C11.392 18.1327 10.8647 16.8618 10.8633 15.5361Z" fill="#084B92"/>
<path d="M14.3633 17.0361V18.5361C14.3633 18.8013 14.4686 19.0557 14.6562 19.2432C14.8437 19.4308 15.0981 19.5361 15.3633 19.5361H16.3633C16.6285 19.5361 16.8829 19.4308 17.0704 19.2432C17.2579 19.0557 17.3633 18.8013 17.3633 18.5361V17.0361H18.8633C19.1285 17.0361 19.3829 16.9308 19.5704 16.7432C19.7579 16.5557 19.8633 16.3013 19.8633 16.0361V15.0361C19.8633 14.7709 19.7579 14.5166 19.5704 14.329C19.3829 14.1415 19.1285 14.0361 18.8633 14.0361H17.3633V12.5361C17.3633 12.2709 17.2579 12.0166 17.0704 11.829C16.8829 11.6415 16.6285 11.5361 16.3633 11.5361H15.3633C15.0981 11.5361 14.8437 11.6415 14.6562 11.829C14.4686 12.0166 14.3633 12.2709 14.3633 12.5361V14.0361H12.8633C12.5981 14.0361 12.3437 14.1415 12.1562 14.329C11.9686 14.5166 11.8633 14.7709 11.8633 15.0361V16.0361C11.8633 16.3013 11.9686 16.5557 12.1562 16.7432C12.3437 16.9308 12.5981 17.0361 12.8633 17.0361H14.3633ZM12.8633 15.0361H14.8633C14.9959 15.0361 15.1231 14.9835 15.2168 14.8897C15.3106 14.7959 15.3633 14.6687 15.3633 14.5361V12.5361H16.3633V14.5361C16.3633 14.6687 16.416 14.7959 16.5097 14.8897C16.6035 14.9835 16.7307 15.0361 16.8633 15.0361H18.8633V16.0361H16.8633C16.7307 16.0361 16.6035 16.0888 16.5097 16.1826C16.416 16.2763 16.3633 16.4035 16.3633 16.5361V18.5361H15.3633V16.5361C15.3633 16.4035 15.3106 16.2763 15.2168 16.1826C15.1231 16.0888 14.9959 16.0361 14.8633 16.0361H12.8633V15.0361Z" fill="#084B92"/>
</g>
<defs>
<clipPath id="clip0_37_721">
<rect width="30" height="30" fill="white" transform="translate(0.863281 0.0361328)"/>
</clipPath>
</defs>
</svg>
