<svg width="41" height="41" viewBox="0 0 41 41" fill="none" xmlns="http://www.w3.org/2000/svg">
<path d="M22.2383 12.2227H9.73828C9.05078 12.2227 8.48828 11.6602 8.48828 10.9727V5.97266C8.48828 5.28516 9.05078 4.72266 9.73828 4.72266H12.2883C12.5883 2.95391 14.132 1.59766 15.9883 1.59766C17.8445 1.59766 19.3883 2.95391 19.6883 4.72266H22.2383C22.9258 4.72266 23.4883 5.28516 23.4883 5.97266V10.9727C23.4883 11.6602 22.9258 12.2227 22.2383 12.2227ZM9.73828 5.97266V10.9727H22.2383V5.97266H19.1133C18.7695 5.97266 18.4883 5.69141 18.4883 5.34766C18.4883 3.96641 17.3695 2.84766 15.9883 2.84766C14.607 2.84766 13.4883 3.96641 13.4883 5.34766C13.4883 5.69141 13.207 5.97266 12.8633 5.97266H9.73828Z" fill="#084B92"/>
<path d="M24.0508 37.8477H4.73828C3.01328 37.8477 1.61328 36.4477 1.61328 34.7227V9.72266C1.61328 7.99766 3.01328 6.59766 4.73828 6.59766H6.61328C6.95703 6.59766 7.23828 6.87891 7.23828 7.22266C7.23828 7.56641 6.95703 7.84766 6.61328 7.84766H4.73828C3.70703 7.84766 2.86328 8.69141 2.86328 9.72266V34.7227C2.86328 35.7539 3.70703 36.5977 4.73828 36.5977H24.0508C24.3945 36.5977 24.6758 36.8789 24.6758 37.2227C24.6758 37.5664 24.3945 37.8477 24.0508 37.8477Z" fill="#084B92"/>
<path d="M29.7383 21.8289C29.3945 21.8289 29.1133 21.5477 29.1133 21.2039V9.72266C29.1133 8.69141 28.2695 7.84766 27.2383 7.84766H25.3633C25.0195 7.84766 24.7383 7.56641 24.7383 7.22266C24.7383 6.87891 25.0195 6.59766 25.3633 6.59766H27.2383C28.9633 6.59766 30.3633 7.99766 30.3633 9.72266V21.2039C30.3633 21.5477 30.082 21.8289 29.7383 21.8289Z" fill="#084B92"/>
<path d="M21.6945 35.3477H5.36328C4.67578 35.3477 4.11328 34.7852 4.11328 34.0977V10.3477C4.11328 9.66016 4.67578 9.09766 5.36328 9.09766H6.61328C6.95703 9.09766 7.23828 9.37891 7.23828 9.72266C7.23828 10.0664 6.95703 10.3477 6.61328 10.3477H5.36328V34.0977H21.6945C22.0383 34.0977 22.3195 34.3789 22.3195 34.7227C22.3195 35.0664 22.0383 35.3477 21.6945 35.3477Z" fill="#084B92"/>
<path d="M27.2383 20.5539C26.8945 20.5539 26.6133 20.2727 26.6133 19.9289V10.3477H25.3633C25.0195 10.3477 24.7383 10.0664 24.7383 9.72266C24.7383 9.37891 25.0195 9.09766 25.3633 9.09766H26.6133C27.3008 9.09766 27.8633 9.66016 27.8633 10.3477V19.9289C27.8633 20.2727 27.582 20.5539 27.2383 20.5539Z" fill="#084B92"/>
<path d="M13.4883 21.5977H8.48828C8.14453 21.5977 7.86328 21.3164 7.86328 20.9727V15.9727C7.86328 15.6289 8.14453 15.3477 8.48828 15.3477H10.9633C11.307 15.3477 11.5883 15.6289 11.5883 15.9727C11.5883 16.3164 11.307 16.5977 10.9633 16.5977H9.11328V20.3477H13.0133C13.1258 20.2164 13.3008 20.1289 13.4883 20.1289C13.832 20.1289 14.1133 20.4102 14.1133 20.7539V20.9727C14.1133 21.3164 13.832 21.5977 13.4883 21.5977Z" fill="#084B92"/>
<path d="M11.6129 19.7226C11.4504 19.7226 11.2879 19.6601 11.1691 19.5413L9.91914 18.2913C9.67539 18.0476 9.67539 17.6538 9.91914 17.4101C10.1629 17.1663 10.5566 17.1663 10.8004 17.4101L11.5691 18.1788L14.2566 14.9538C14.4754 14.6913 14.8691 14.6538 15.1379 14.8726C15.4004 15.0913 15.4379 15.4851 15.2191 15.7538L12.0941 19.5038C11.9816 19.6413 11.8191 19.7226 11.6441 19.7288C11.6316 19.7288 11.6254 19.7288 11.6129 19.7288V19.7226Z" fill="#084B92"/>
<path d="M13.4883 30.9727H8.48828C8.14453 30.9727 7.86328 30.6914 7.86328 30.3477V25.3477C7.86328 25.0039 8.14453 24.7227 8.48828 24.7227H10.9633C11.307 24.7227 11.5883 25.0039 11.5883 25.3477C11.5883 25.6914 11.307 25.9727 10.9633 25.9727H9.11328V29.7227H13.0133C13.1258 29.5914 13.3008 29.5039 13.4883 29.5039C13.832 29.5039 14.1133 29.7852 14.1133 30.1289V30.3477C14.1133 30.6914 13.832 30.9727 13.4883 30.9727Z" fill="#084B92"/>
<path d="M11.6129 29.0976C11.4504 29.0976 11.2879 29.0351 11.1691 28.9163L9.91914 27.6663C9.67539 27.4226 9.67539 27.0288 9.91914 26.7851C10.1629 26.5413 10.5566 26.5413 10.8004 26.7851L11.5691 27.5538L14.2566 24.3288C14.4754 24.0663 14.8691 24.0288 15.1379 24.2476C15.4004 24.4663 15.4379 24.8601 15.2191 25.1288L12.0941 28.8788C11.9816 29.0163 11.8191 29.0976 11.6441 29.1038C11.6316 29.1038 11.6254 29.1038 11.6129 29.1038V29.0976Z" fill="#084B92"/>
<path d="M23.4883 17.8477H16.6133C16.2695 17.8477 15.9883 17.5664 15.9883 17.2227C15.9883 16.8789 16.2695 16.5977 16.6133 16.5977H23.4883C23.832 16.5977 24.1133 16.8789 24.1133 17.2227C24.1133 17.5664 23.832 17.8477 23.4883 17.8477Z" fill="#084B92"/>
<path d="M19.1133 20.3477H16.6133C16.2695 20.3477 15.9883 20.0664 15.9883 19.7227C15.9883 19.3789 16.2695 19.0977 16.6133 19.0977H19.1133C19.457 19.0977 19.7383 19.3789 19.7383 19.7227C19.7383 20.0664 19.457 20.3477 19.1133 20.3477Z" fill="#084B92"/>
<path d="M18.4883 27.2227H16.6133C16.2695 27.2227 15.9883 26.9414 15.9883 26.5977C15.9883 26.2539 16.2695 25.9727 16.6133 25.9727H18.4883C18.832 25.9727 19.1133 26.2539 19.1133 26.5977C19.1133 26.9414 18.832 27.2227 18.4883 27.2227Z" fill="#084B92"/>
<path d="M18.4883 29.7227H16.6133C16.2695 29.7227 15.9883 29.4414 15.9883 29.0977C15.9883 28.7539 16.2695 28.4727 16.6133 28.4727H18.4883C18.832 28.4727 19.1133 28.7539 19.1133 29.0977C19.1133 29.4414 18.832 29.7227 18.4883 29.7227Z" fill="#084B92"/>
<path d="M29.7383 39.0977C29.6258 39.0977 29.507 39.0664 29.407 39.0039C29.0383 38.7727 20.3633 33.3289 20.3633 26.9602C20.3633 24.0039 22.757 21.5977 25.7008 21.5977C27.382 21.5977 28.8008 22.6477 29.7383 23.8352C30.6758 22.6539 32.0945 21.5977 33.7758 21.5977C36.7195 21.5977 39.1133 24.0039 39.1133 26.9602C39.1133 33.3289 30.4383 38.7727 30.0695 39.0039C29.9695 39.0664 29.857 39.0977 29.7383 39.0977ZM25.7008 22.8477C23.4445 22.8477 21.6133 24.6914 21.6133 26.9602C21.6133 31.9852 28.1758 36.6789 29.7383 37.7227C31.3008 36.6789 37.8633 31.9852 37.8633 26.9602C37.8633 24.6914 36.032 22.8477 33.7758 22.8477C32.2508 22.8477 30.9383 24.1414 30.2758 25.2539C30.0508 25.6289 29.432 25.6289 29.207 25.2539C28.5445 24.1477 27.2258 22.8477 25.707 22.8477H25.7008Z" fill="#084B92"/>
<path d="M31.1193 33.6789C31.1193 33.6789 31.1068 33.6789 31.0943 33.6789C30.8506 33.6726 30.6381 33.5226 30.5443 33.2976L28.7631 29.1101L27.9881 30.6289C27.8818 30.8351 27.6693 30.9726 27.4318 30.9726H25.1318C24.7881 30.9726 24.5068 30.6914 24.5068 30.3476C24.5068 30.0039 24.7881 29.7226 25.1318 29.7226H27.0506L28.2568 27.3539C28.3693 27.1351 28.6006 26.9976 28.8381 27.0164C29.0818 27.0226 29.2943 27.1726 29.3881 27.3976L31.1693 31.5851L31.9443 30.0726C32.0506 29.8664 32.2631 29.7289 32.5006 29.7289H34.3443C34.6881 29.7289 34.9693 30.0101 34.9693 30.3539C34.9693 30.6976 34.6881 30.9789 34.3443 30.9789H32.8881L31.6818 33.3476C31.5756 33.5601 31.3568 33.6914 31.1256 33.6914L31.1193 33.6789Z" fill="#084B92"/>
</svg>
