<svg width="31" height="31" viewBox="0 0 31 31" fill="none" xmlns="http://www.w3.org/2000/svg">
<g clip-path="url(#clip0_37_698)">
<path d="M30.0946 2.35938H10.8189C10.4103 2.35938 10.0779 2.69107 10.0779 3.09871V4.25746C10.0779 4.66603 10.4104 4.99844 10.8189 4.99844H11.1902V15.0979L11.1216 15.0331C10.3205 14.2766 9.36547 13.8709 8.28008 13.8252C8.81 13.3056 9.13965 12.5824 9.13965 11.7834C9.13965 10.2057 7.85609 8.92211 6.2784 8.92211C4.70164 8.92211 3.41885 10.2057 3.41885 11.7834C3.41885 12.5801 3.74627 13.3014 4.27314 13.8207H3.43215C2.03187 13.8207 0.892578 14.9607 0.892578 16.3619V21.7693C0.892578 22.6971 1.64738 23.452 2.57516 23.452C2.89139 23.452 3.1874 23.3643 3.44047 23.2122V28.8112C3.44047 29.0374 3.62381 29.2207 3.84992 29.2207H8.94734C9.17352 29.2207 9.3568 29.0373 9.3568 28.8112V21.2953V17.9976L9.69553 18.3173C10.1187 18.7172 10.6452 18.9484 11.1902 19.0019V24.9919C11.1902 25.2181 11.3735 25.4014 11.5996 25.4014H13.5332C13.5133 25.5362 13.5027 25.6739 13.5027 25.8142V28.8112C13.5027 29.0374 13.6861 29.2207 13.9122 29.2207H20.4567H26.9997C27.2259 29.2207 27.4092 29.0373 27.4092 28.8112V25.8142C27.4092 25.6739 27.3985 25.5362 27.3787 25.4014H29.3122C29.5384 25.4014 29.7216 25.218 29.7216 24.9919V4.99844H30.0946C30.5023 4.99844 30.834 4.66598 30.834 4.25746V3.09871C30.834 2.69107 30.5023 2.35938 30.0946 2.35938ZM4.23787 11.7834C4.23787 10.6572 5.15328 9.74107 6.27846 9.74107C7.40457 9.74107 8.32074 10.6572 8.32074 11.7834C8.32074 12.8641 7.47693 13.7508 6.41363 13.8207H6.14346C5.08104 13.7508 4.23787 12.8641 4.23787 11.7834ZM8.53789 28.4018H6.80896V24.0918C6.80896 23.8656 6.62563 23.6823 6.39951 23.6823C6.1734 23.6823 5.99006 23.8657 5.99006 24.0918V28.4018H4.25937V21.7694V21.7048H8.53783L8.53789 28.4018ZM9.22836 16.7505C9.10947 16.6384 8.93533 16.6074 8.78521 16.6723C8.63516 16.737 8.53789 16.8848 8.53789 17.0482V20.8858H4.25937V17.0482C4.25937 16.8221 4.07604 16.6388 3.84992 16.6388C3.62381 16.6388 3.44047 16.8221 3.44047 17.0482V21.2953V21.7694C3.44047 22.2456 3.05229 22.633 2.57516 22.633C2.09891 22.633 1.71154 22.2456 1.71154 21.7694V16.3619C1.71154 15.4122 2.48346 14.6396 3.43221 14.6396H6.11533C6.16941 14.6427 6.22367 14.6446 6.27852 14.6446C6.33336 14.6446 6.38773 14.6427 6.44176 14.6396H8.07213C9.04121 14.6396 9.85478 14.9631 10.5593 15.6285L11.2191 16.2518C11.3507 16.3761 11.5484 16.3992 11.7051 16.3087L14.1863 14.8749C14.5998 14.6366 15.1299 14.7781 15.3674 15.1901C15.6054 15.6041 15.4636 16.1352 15.0522 16.3735C14.1337 16.9024 13.2168 17.4313 12.2999 17.9619C11.6248 18.3504 10.8233 18.2564 10.2579 17.7218L9.22836 16.7505ZM17.1845 22.9944C16.1351 22.9944 15.2814 22.1407 15.2814 21.0913C15.2814 20.0429 16.1351 19.19 17.1845 19.19C18.2338 19.19 19.0875 20.0429 19.0875 21.0913C19.0875 22.1407 18.2338 22.9944 17.1845 22.9944ZM18.0465 23.8134C19.1498 23.8134 20.0473 24.7109 20.0473 25.8142V28.4018H14.3217V25.8142C14.3217 24.7108 15.2192 23.8134 16.3224 23.8134H18.0465ZM26.5903 28.4018H20.8663V25.8142C20.8663 24.7108 21.763 23.8134 22.8654 23.8134H24.5894C25.6927 23.8134 26.5902 24.7109 26.5902 25.8142V28.4018H26.5903ZM23.7274 22.9944C22.679 22.9944 21.826 22.1407 21.826 21.0913C21.826 20.0429 22.679 19.19 23.7274 19.19C24.7767 19.19 25.6304 20.0429 25.6304 21.0913C25.6304 22.1407 24.7767 22.9944 23.7274 22.9944ZM28.9027 24.5825H27.1254C26.7995 23.9141 26.2169 23.3935 25.5069 23.1485C26.0835 22.649 26.4494 21.9123 26.4494 21.0914C26.4494 19.5914 25.2283 18.3711 23.7274 18.3711C22.2274 18.3711 21.0071 19.5914 21.0071 21.0914C21.0071 21.9123 21.3727 22.6489 21.9488 23.1484C21.3229 23.3645 20.7958 23.7947 20.4566 24.352C20.1174 23.7948 19.5901 23.3647 18.9639 23.1485C19.5406 22.649 19.9064 21.9123 19.9064 21.0914C19.9064 19.5914 18.6853 18.3711 17.1844 18.3711C15.6835 18.3711 14.4624 19.5914 14.4624 21.0914C14.4624 21.9123 14.8283 22.649 15.4049 23.1485C14.6949 23.3936 14.1123 23.9141 13.7864 24.5825H12.009V18.9479C12.2495 18.8917 12.4852 18.8001 12.709 18.6712C12.7092 18.6711 12.7095 18.6709 12.7098 18.6708C13.6262 18.1404 14.5426 17.6119 15.4617 17.0826C16.2634 16.6182 16.5395 15.5862 16.077 14.7816C15.6136 13.9779 14.5818 13.7016 13.7768 14.1657L12.009 15.1872V4.99844H28.9027V24.5825ZM30.015 4.17947H10.8968V3.17834H30.015V4.17947ZM20.2883 17.8087C20.3683 17.8886 20.473 17.9286 20.5778 17.9286C20.6826 17.9286 20.7874 17.8886 20.8674 17.8086L25.1477 13.5282C26.4867 12.1872 26.4867 10.0067 25.1475 8.66746C23.9003 7.42047 21.9254 7.33439 20.5778 8.40871C19.2304 7.3348 17.2548 7.42094 16.0067 8.66728C16.0066 8.66734 16.0065 8.6674 16.0064 8.66746C14.6663 10.0077 14.6663 12.1883 16.0065 13.5285L20.2883 17.8087ZM16.5855 9.24654C17.6073 8.22654 19.2682 8.22648 20.2882 9.24654C20.4481 9.40645 20.7074 9.40645 20.8673 9.24654C21.8875 8.22619 23.548 8.22607 24.5684 9.24654C25.5885 10.2667 25.5884 11.9279 24.5684 12.9493L20.5777 16.9401L16.5855 12.9493C15.5646 11.9285 15.5646 10.2674 16.5855 9.24654ZM17.0933 12.3022C17.0933 12.076 17.2766 11.8928 17.5027 11.8928H18.7878L19.5675 10.1031C19.6338 9.95084 19.7882 9.85363 19.9516 9.85726C20.1177 9.86078 20.2651 9.96432 20.3248 10.1193L21.3606 12.8048L21.6254 12.149C21.6879 11.9942 21.8381 11.8928 22.0051 11.8928H23.5451C23.7713 11.8928 23.9546 12.0762 23.9546 12.3023C23.9546 12.5284 23.7712 12.7117 23.5451 12.7117H22.2814L21.7317 14.0735C21.6692 14.2284 21.5189 14.3296 21.352 14.3297C21.3509 14.3297 21.3499 14.3297 21.3488 14.3296C21.1807 14.3283 21.0304 14.2244 20.97 14.0675L19.9198 11.3447L19.4315 12.4658C19.3664 12.6152 19.2189 12.7117 19.0561 12.7117H17.5029C17.2766 12.7117 17.0933 12.5284 17.0933 12.3022Z" fill="#084B92"/>
</g>
<defs>
<clipPath id="clip0_37_698">
<rect width="30" height="30" fill="white" transform="translate(0.863281 0.790039)"/>
</clipPath>
</defs>
</svg>
