<?xml version="1.0" encoding="utf-8"?>
<!-- Generator: Adobe Illustrator 26.0.1, SVG Export Plug-In . SVG Version: 6.00 Build 0)  -->
<svg version="1.1" id="Layer_1" xmlns="http://www.w3.org/2000/svg" xmlns:xlink="http://www.w3.org/1999/xlink" x="0px" y="0px"
	 viewBox="0 0 1004.77 266.9" style="enable-background:new 0 0 1004.77 266.9;" xml:space="preserve">
<style type="text/css">
	.st0{fill:#231F20;}
	.st1{fill:#474747;}
	.st2{fill:#939598;}
	.st3{fill:#DDDDDD;}
	.st4{fill:url(#SVGID_1_);}
	.st5{fill:url(#SVGID_00000057865277439959892140000017192979287023023247_);}
	.st6{fill:url(#SVGID_00000084495536553815155190000000053613625338441633_);}
	.st7{fill:url(#SVGID_00000141421005214062696830000001113337033299015344_);}
	.st8{opacity:0.75;clip-path:url(#SVGID_00000183220132277112800510000009593848927358784693_);}
	.st9{opacity:0.49;fill:url(#SVGID_00000026132301832468342960000009904901653987023526_);}
	.st10{opacity:0.49;fill:url(#SVGID_00000161599131395008569010000011312953671623973818_);}
	.st11{fill:#414042;}
	.st12{fill:#FFFFFF;}
	.st13{fill:url(#SVGID_00000016763410519787129120000017697457408876255133_);}
	.st14{fill:url(#SVGID_00000108273885795358795380000012567751944608661649_);}
	.st15{fill:url(#SVGID_00000126307007159947349950000002626428866733865630_);}
	.st16{fill:url(#SVGID_00000176751716186414756180000011541065859808281781_);}
	.st17{opacity:0.75;clip-path:url(#SVGID_00000039825891726021091740000010728680341521021869_);}
	.st18{opacity:0.49;fill:url(#SVGID_00000106850600932013394680000008265558925290785412_);}
	.st19{opacity:0.49;fill:url(#SVGID_00000141431406078755821930000000545910960669178035_);}
</style>
<g>
	<g>
		<path class="st11" d="M662.9,70.75c0-5.08,0.94-10.07,2.82-14.95c1.88-4.89,4.61-9.32,8.21-13.31c3.6-3.99,7.98-7.17,13.14-9.56
			c5.16-2.38,11.02-3.58,17.59-3.58c7.82,0,14.6,1.68,20.35,5.04c5.75,3.36,10.03,7.74,12.84,13.14l-14.78,10.32
			c-1.25-2.97-2.91-5.28-4.99-6.92c-2.07-1.64-4.34-2.79-6.8-3.46c-2.46-0.66-4.83-1-7.1-1c-3.68,0-6.88,0.72-9.62,2.17
			c-2.74,1.45-5,3.38-6.8,5.81c-1.8,2.42-3.13,5.12-3.99,8.09c-0.86,2.97-1.29,5.94-1.29,8.91c0,3.28,0.51,6.45,1.53,9.5
			c1.01,3.05,2.48,5.75,4.4,8.09c1.92,2.35,4.24,4.2,6.98,5.57c2.74,1.37,5.75,2.05,9.03,2.05c2.35,0,4.73-0.39,7.15-1.17
			c2.42-0.78,4.67-2.01,6.74-3.69c2.07-1.68,3.65-3.89,4.75-6.63l15.72,9.27c-1.64,4.07-4.34,7.55-8.09,10.44
			c-3.75,2.89-8,5.1-12.72,6.63c-4.73,1.52-9.4,2.29-14.02,2.29c-6.02,0-11.55-1.23-16.6-3.69c-5.04-2.46-9.38-5.75-13.02-9.85
			c-3.64-4.11-6.45-8.72-8.45-13.84C663.89,81.29,662.9,76.07,662.9,70.75z"/>
		<path class="st11" d="M738.31,95.08c0-4.01,1.13-7.51,3.4-10.52c2.27-3.01,5.39-5.37,9.38-7.11c3.99-1.73,8.56-2.6,13.72-2.6
			c2.5,0,4.96,0.22,7.39,0.65c2.42,0.43,4.53,1.04,6.33,1.82v-2.69c0-3.25-1.02-5.75-3.05-7.48c-2.03-1.74-5.12-2.61-9.26-2.61
			c-3.44,0-6.67,0.59-9.68,1.76c-3.01,1.17-6.2,2.86-9.56,5.04l-5.63-11.96c4.06-2.66,8.31-4.65,12.73-5.98
			c4.42-1.33,9.09-1.99,14.02-1.99c9.23,0,16.4,2.17,21.52,6.49c5.12,4.33,7.68,10.6,7.68,18.8v15.75c0,1.84,0.29,3.12,0.88,3.85
			c0.59,0.73,1.62,1.17,3.11,1.32v15.6c-1.56,0.31-3.03,0.55-4.4,0.7c-1.37,0.16-2.56,0.23-3.58,0.23c-3.52,0-6.2-0.7-8.03-2.11
			c-1.84-1.41-2.99-3.32-3.46-5.75l-0.35-2.7c-2.74,3.52-6,6.2-9.79,8.03c-3.79,1.84-7.76,2.76-11.9,2.76
			c-4.07,0-7.72-0.85-10.97-2.54c-3.25-1.7-5.81-4.01-7.68-6.93C739.25,101.98,738.31,98.7,738.31,95.08z M775.6,97.28
			c0.86-0.68,1.56-1.43,2.11-2.26c0.55-0.83,0.82-1.62,0.82-2.37v-5.31c-1.56-0.6-3.31-1.07-5.22-1.41
			c-1.92-0.34-3.69-0.51-5.34-0.51c-3.44,0-6.29,0.73-8.56,2.2c-2.27,1.47-3.4,3.41-3.4,5.82c0,1.36,0.39,2.6,1.17,3.73
			c0.78,1.13,1.86,2.03,3.23,2.71c1.37,0.68,2.99,1.02,4.87,1.02s3.75-0.34,5.63-1.02C772.79,99.2,774.35,98.33,775.6,97.28z"/>
		<path class="st11" d="M845.27,67.7c-4.54,0-8.64,0.72-12.32,2.17c-3.68,1.45-6.33,3.58-7.98,6.39v36.94h-18.77V52.34h17.24v11.73
			c2.11-4.14,4.85-7.39,8.21-9.73c3.36-2.35,6.88-3.56,10.56-3.64c0.86,0,1.5,0,1.94,0c0.43,0,0.8,0.04,1.11,0.12V67.7z"/>
		<path class="st11" d="M877.41,114.38c-5.24,0-9.89-0.83-13.96-2.49c-4.07-1.66-7.53-3.92-10.38-6.78
			c-2.86-2.86-5.03-6.17-6.51-9.92c-1.49-3.75-2.23-7.67-2.23-11.77c0-5.84,1.31-11.15,3.93-15.95c2.62-4.8,6.39-8.68,11.32-11.63
			c4.93-2.96,10.87-4.43,17.83-4.43c6.96,0,12.88,1.46,17.77,4.39c4.89,2.92,8.62,6.75,11.2,11.49c2.58,4.74,3.87,9.87,3.87,15.42
			c0,1.08-0.06,2.14-0.18,3.18c-0.12,1.04-0.22,1.94-0.29,2.71h-45.51c0.24,2.66,1,4.9,2.29,6.73c1.29,1.82,2.95,3.21,4.98,4.16
			c2.03,0.95,4.18,1.43,6.45,1.43c2.82,0,5.45-0.66,7.92-1.99c2.46-1.33,4.16-3.13,5.1-5.39l15.95,4.46
			c-1.56,3.21-3.77,6.04-6.63,8.5c-2.86,2.46-6.22,4.4-10.09,5.81C886.38,113.68,882.1,114.38,877.41,114.38z M863.8,77.08h26.74
			c-0.31-2.46-1.06-4.61-2.23-6.43c-1.17-1.83-2.74-3.24-4.69-4.25c-1.95-1.01-4.1-1.51-6.45-1.51c-2.43,0-4.59,0.5-6.51,1.51
			c-1.92,1.01-3.46,2.42-4.63,4.25C864.86,72.48,864.12,74.62,863.8,77.08z"/>
		<g>
			<path class="st11" d="M662.9,206.54v-83.27h31.08c9.15,0,16.79,1.86,22.93,5.57c6.14,3.72,10.77,8.72,13.9,15.01
				c3.13,6.3,4.69,13.27,4.69,20.94c0,8.45-1.72,15.8-5.16,22.05c-3.44,6.26-8.27,11.1-14.48,14.54
				c-6.22,3.44-13.51,5.16-21.87,5.16H662.9z M715.91,164.78c0-4.85-0.86-9.13-2.58-12.84c-1.72-3.71-4.22-6.61-7.51-8.68
				c-3.28-2.07-7.23-3.11-11.85-3.11h-11.85v49.49h11.85c4.69,0,8.66-1.07,11.9-3.22c3.24-2.15,5.73-5.12,7.45-8.91
				C715.05,173.72,715.91,169.47,715.91,164.78z"/>
			<path class="st11" d="M740.19,137.92v-17.01h18.77v17.01H740.19z M740.19,206.54v-61.57h18.77v61.57H740.19z"/>
			<path class="st11" d="M806.22,161.03c-4.54,0-8.64,0.72-12.32,2.17c-3.68,1.45-6.33,3.58-7.98,6.39v36.94h-18.77v-60.87h17.24
				v11.73c2.11-4.14,4.85-7.39,8.21-9.73c3.36-2.35,6.88-3.56,10.56-3.64c0.86,0,1.5,0,1.94,0c0.43,0,0.8,0.04,1.11,0.12V161.03z"/>
			<path class="st11" d="M838.35,207.71c-5.24,0-9.89-0.83-13.96-2.49c-4.07-1.66-7.53-3.92-10.38-6.78
				c-2.86-2.86-5.03-6.17-6.51-9.92c-1.49-3.75-2.23-7.67-2.23-11.77c0-5.84,1.31-11.15,3.93-15.95c2.62-4.8,6.39-8.68,11.32-11.63
				c4.93-2.96,10.87-4.43,17.83-4.43c6.96,0,12.88,1.46,17.77,4.39c4.89,2.92,8.62,6.75,11.2,11.49c2.58,4.74,3.87,9.87,3.87,15.42
				c0,1.08-0.06,2.14-0.18,3.18c-0.12,1.04-0.22,1.94-0.29,2.71h-45.51c0.24,2.66,1,4.9,2.29,6.73c1.29,1.82,2.95,3.21,4.98,4.16
				c2.03,0.95,4.18,1.43,6.45,1.43c2.82,0,5.45-0.66,7.92-1.99c2.46-1.33,4.16-3.13,5.1-5.39l15.95,4.46
				c-1.56,3.21-3.77,6.04-6.63,8.5c-2.86,2.46-6.22,4.4-10.09,5.81C847.32,207.01,843.04,207.71,838.35,207.71z M824.75,170.41
				h26.74c-0.31-2.46-1.06-4.61-2.23-6.43c-1.17-1.83-2.74-3.24-4.69-4.25c-1.95-1.01-4.1-1.51-6.45-1.51
				c-2.43,0-4.59,0.5-6.51,1.51c-1.92,1.01-3.46,2.42-4.63,4.25C825.8,165.81,825.06,167.95,824.75,170.41z"/>
			<path class="st11" d="M904.5,207.71c-5.24,0-9.89-0.85-13.96-2.54c-4.07-1.7-7.53-4.01-10.38-6.93
				c-2.86-2.93-5.03-6.28-6.51-10.05c-1.49-3.78-2.23-7.78-2.23-12.02c0-5.55,1.31-10.71,3.93-15.48
				c2.62-4.78,6.39-8.63,11.32-11.56c4.93-2.93,10.87-4.39,17.83-4.39c7.04,0,13,1.51,17.89,4.52c4.89,3.01,8.54,6.94,10.97,11.79
				l-18.3,5.51c-1.17-1.88-2.68-3.32-4.51-4.34c-1.84-1.01-3.89-1.52-6.16-1.52c-2.58,0-4.91,0.65-6.98,1.94
				c-2.07,1.29-3.71,3.08-4.93,5.35c-1.21,2.28-1.82,5.01-1.82,8.2c0,3.11,0.63,5.84,1.88,8.2c1.25,2.35,2.89,4.19,4.93,5.52
				c2.03,1.33,4.34,1.99,6.92,1.99c1.56,0,3.03-0.25,4.4-0.76c1.37-0.51,2.62-1.23,3.75-2.17c1.13-0.94,2.01-1.99,2.64-3.17
				l18.3,5.63c-1.49,3.13-3.62,5.92-6.39,8.39c-2.78,2.46-6.04,4.4-9.79,5.81C913.53,207.01,909.27,207.71,904.5,207.71z"/>
			<path class="st11" d="M977.1,203.25c-1.72,0.7-3.62,1.41-5.69,2.11c-2.07,0.7-4.24,1.27-6.51,1.7c-2.27,0.43-4.5,0.65-6.69,0.65
				c-3.13,0-6-0.52-8.62-1.56c-2.62-1.04-4.69-2.75-6.22-5.14c-1.52-2.39-2.29-5.55-2.29-9.48v-31.67h-7.86v-14.19h7.86v-19.59
				h18.77v19.59h12.55v14.19h-12.55v25.11c0,1.99,0.51,3.42,1.53,4.3c1.01,0.88,2.31,1.32,3.87,1.32c1.33,0,2.76-0.23,4.28-0.7
				c1.52-0.47,2.83-0.98,3.93-1.52L977.1,203.25z"/>
		</g>
	</g>
	<g>
		<rect x="606.63" y="29.35" class="st11" width="4.04" height="208"/>
	</g>
	<g>
		<g>
			<path class="st2" d="M678.85,219.41v2.04h-5.79v15.89h-2.43v-15.89h-5.82v-2.04H678.85z"/>
			<path class="st2" d="M682.06,237.35v-12.68h1.28c0.24,0,0.41,0.05,0.5,0.14s0.15,0.25,0.19,0.48l0.15,1.98
				c0.43-0.88,0.97-1.58,1.61-2.07c0.64-0.5,1.39-0.74,2.25-0.74c0.35,0,0.67,0.04,0.95,0.12c0.28,0.08,0.55,0.19,0.79,0.33
				l-0.29,1.66c-0.06,0.21-0.19,0.31-0.39,0.31c-0.12,0-0.3-0.04-0.54-0.12c-0.24-0.08-0.58-0.12-1.01-0.12
				c-0.78,0-1.42,0.22-1.95,0.68c-0.52,0.45-0.96,1.11-1.31,1.96v8.07H682.06z"/>
			<path class="st2" d="M697.08,224.67v8.08c0,0.96,0.22,1.7,0.66,2.23c0.44,0.53,1.11,0.79,2,0.79c0.65,0,1.26-0.15,1.84-0.46
				c0.58-0.31,1.11-0.74,1.59-1.29v-9.35h2.23v12.68h-1.33c-0.32,0-0.52-0.15-0.6-0.46l-0.18-1.36c-0.55,0.61-1.17,1.1-1.85,1.47
				c-0.68,0.37-1.47,0.56-2.35,0.56c-0.69,0-1.3-0.11-1.83-0.34c-0.53-0.23-0.97-0.55-1.33-0.97c-0.36-0.42-0.63-0.92-0.81-1.51
				c-0.18-0.59-0.27-1.25-0.27-1.96v-8.08H697.08z"/>
			<path class="st2" d="M719.33,226.76c-0.1,0.18-0.25,0.28-0.46,0.28c-0.13,0-0.27-0.05-0.43-0.14c-0.16-0.09-0.35-0.19-0.58-0.31
				c-0.23-0.11-0.5-0.22-0.82-0.31c-0.32-0.1-0.69-0.14-1.13-0.14c-0.38,0-0.71,0.05-1.01,0.14c-0.3,0.1-0.56,0.23-0.77,0.39
				c-0.21,0.17-0.38,0.36-0.49,0.58c-0.11,0.22-0.17,0.46-0.17,0.72c0,0.33,0.09,0.6,0.28,0.81c0.19,0.22,0.44,0.4,0.74,0.56
				c0.31,0.16,0.66,0.3,1.05,0.42c0.39,0.12,0.79,0.25,1.21,0.39c0.41,0.14,0.82,0.29,1.21,0.46c0.39,0.17,0.74,0.38,1.05,0.63
				c0.31,0.25,0.56,0.56,0.74,0.92c0.19,0.36,0.28,0.8,0.28,1.31c0,0.58-0.1,1.12-0.31,1.62c-0.21,0.5-0.52,0.93-0.93,1.29
				c-0.41,0.36-0.91,0.65-1.5,0.86c-0.59,0.21-1.28,0.31-2.05,0.31c-0.88,0-1.69-0.14-2.4-0.43c-0.72-0.29-1.33-0.66-1.83-1.11
				l0.53-0.85c0.07-0.11,0.15-0.19,0.24-0.25c0.09-0.06,0.21-0.09,0.36-0.09c0.15,0,0.31,0.06,0.48,0.18
				c0.17,0.12,0.37,0.25,0.61,0.39c0.24,0.14,0.53,0.27,0.86,0.39c0.34,0.12,0.76,0.18,1.27,0.18c0.43,0,0.81-0.06,1.14-0.17
				c0.33-0.11,0.6-0.26,0.81-0.46c0.22-0.19,0.38-0.41,0.48-0.66c0.1-0.25,0.16-0.52,0.16-0.8c0-0.35-0.09-0.64-0.28-0.87
				c-0.19-0.23-0.44-0.43-0.74-0.59s-0.66-0.3-1.06-0.43c-0.4-0.12-0.8-0.25-1.21-0.38c-0.41-0.13-0.82-0.29-1.21-0.46
				c-0.4-0.17-0.75-0.39-1.06-0.64c-0.31-0.26-0.56-0.58-0.74-0.96c-0.19-0.38-0.28-0.84-0.28-1.38c0-0.48,0.1-0.95,0.3-1.4
				c0.2-0.45,0.49-0.84,0.88-1.18c0.38-0.34,0.85-0.61,1.41-0.81c0.56-0.2,1.2-0.3,1.91-0.3c0.83,0,1.58,0.13,2.25,0.39
				c0.66,0.26,1.24,0.62,1.72,1.08L719.33,226.76z"/>
			<path class="st2" d="M729.78,237.55c-1,0-1.77-0.28-2.31-0.84c-0.54-0.56-0.81-1.36-0.81-2.42v-7.76h-1.53
				c-0.13,0-0.25-0.04-0.34-0.12c-0.09-0.08-0.14-0.2-0.14-0.37v-0.89l2.08-0.26l0.51-3.92c0.02-0.13,0.07-0.23,0.16-0.31
				c0.09-0.08,0.21-0.12,0.35-0.12h1.13v4.37h3.63v1.61h-3.63v7.61c0,0.53,0.13,0.93,0.39,1.19c0.26,0.26,0.59,0.39,1,0.39
				c0.23,0,0.44-0.03,0.61-0.09c0.17-0.06,0.32-0.13,0.44-0.21c0.13-0.07,0.23-0.14,0.32-0.21c0.09-0.06,0.16-0.09,0.23-0.09
				c0.12,0,0.22,0.07,0.31,0.21l0.65,1.06c-0.38,0.36-0.85,0.64-1.39,0.84C730.91,237.45,730.35,237.55,729.78,237.55z"/>
			<path class="st2" d="M743.29,224.47c0.76,0,1.46,0.13,2.1,0.38c0.64,0.25,1.2,0.62,1.66,1.1c0.47,0.48,0.83,1.07,1.09,1.78
				c0.26,0.71,0.39,1.51,0.39,2.41c0,0.35-0.04,0.58-0.11,0.7c-0.07,0.12-0.22,0.18-0.43,0.18h-8.43c0.02,0.8,0.13,1.5,0.33,2.09
				c0.2,0.59,0.48,1.09,0.83,1.48c0.35,0.4,0.77,0.69,1.25,0.89c0.48,0.2,1.03,0.29,1.63,0.29c0.56,0,1.04-0.06,1.45-0.19
				c0.4-0.13,0.75-0.27,1.05-0.42c0.29-0.15,0.54-0.29,0.73-0.42c0.2-0.13,0.36-0.19,0.51-0.19c0.18,0,0.33,0.07,0.43,0.21
				l0.63,0.81c-0.28,0.33-0.6,0.62-0.99,0.87c-0.38,0.25-0.79,0.45-1.23,0.61c-0.44,0.16-0.89,0.28-1.36,0.36
				c-0.47,0.08-0.93,0.12-1.39,0.12c-0.88,0-1.68-0.15-2.42-0.44c-0.74-0.3-1.38-0.73-1.91-1.3s-0.96-1.28-1.26-2.12
				c-0.3-0.84-0.45-1.81-0.45-2.9c0-0.88,0.14-1.71,0.41-2.48c0.27-0.77,0.66-1.43,1.17-2c0.51-0.56,1.13-1.01,1.86-1.33
				C741.55,224.63,742.38,224.47,743.29,224.47z M743.34,226.11c-1.08,0-1.92,0.31-2.54,0.93c-0.62,0.62-1,1.48-1.15,2.59h6.9
				c0-0.52-0.07-0.99-0.21-1.42s-0.35-0.8-0.63-1.11c-0.28-0.31-0.61-0.55-1.01-0.73C744.31,226.2,743.85,226.11,743.34,226.11z"/>
			<path class="st2" d="M763.32,237.35c-0.32,0-0.52-0.15-0.6-0.46l-0.2-1.54c-0.54,0.66-1.16,1.19-1.86,1.58
				c-0.7,0.4-1.5,0.59-2.4,0.59c-0.73,0-1.39-0.14-1.98-0.42c-0.59-0.28-1.1-0.69-1.51-1.23c-0.42-0.54-0.74-1.22-0.96-2.03
				c-0.23-0.81-0.34-1.74-0.34-2.79c0-0.93,0.13-1.8,0.38-2.61c0.25-0.81,0.61-1.5,1.08-2.1c0.47-0.59,1.05-1.06,1.72-1.4
				c0.68-0.34,1.44-0.51,2.3-0.51c0.78,0,1.44,0.13,1.99,0.39s1.04,0.63,1.48,1.11v-7.03h2.23v18.43H763.32z M759,235.72
				c0.73,0,1.36-0.17,1.91-0.5c0.55-0.33,1.05-0.81,1.51-1.41v-6.13c-0.41-0.55-0.86-0.94-1.35-1.16c-0.49-0.22-1.03-0.33-1.62-0.33
				c-1.18,0-2.09,0.42-2.73,1.26c-0.63,0.84-0.95,2.04-0.95,3.6c0,0.83,0.07,1.53,0.21,2.12c0.14,0.59,0.35,1.07,0.63,1.45
				c0.28,0.38,0.61,0.66,1.01,0.83C758.02,235.63,758.48,235.72,759,235.72z"/>
			<path class="st2" d="M794.12,237.35h-2.44v-8.16h-9.66v8.16h-2.44v-17.93h2.44v8h9.66v-8h2.44V237.35z"/>
			<path class="st2" d="M806.17,224.47c0.76,0,1.46,0.13,2.1,0.38c0.64,0.25,1.2,0.62,1.66,1.1c0.47,0.48,0.83,1.07,1.09,1.78
				c0.26,0.71,0.39,1.51,0.39,2.41c0,0.35-0.04,0.58-0.11,0.7c-0.07,0.12-0.22,0.18-0.43,0.18h-8.43c0.02,0.8,0.13,1.5,0.33,2.09
				c0.2,0.59,0.48,1.09,0.83,1.48c0.35,0.4,0.77,0.69,1.25,0.89c0.48,0.2,1.03,0.29,1.63,0.29c0.56,0,1.04-0.06,1.45-0.19
				c0.4-0.13,0.75-0.27,1.05-0.42c0.29-0.15,0.54-0.29,0.73-0.42c0.2-0.13,0.36-0.19,0.51-0.19c0.18,0,0.33,0.07,0.43,0.21
				l0.63,0.81c-0.28,0.33-0.6,0.62-0.99,0.87c-0.38,0.25-0.79,0.45-1.23,0.61c-0.44,0.16-0.89,0.28-1.36,0.36
				c-0.47,0.08-0.93,0.12-1.39,0.12c-0.88,0-1.68-0.15-2.42-0.44c-0.74-0.3-1.38-0.73-1.91-1.3s-0.96-1.28-1.26-2.12
				c-0.3-0.84-0.45-1.81-0.45-2.9c0-0.88,0.14-1.71,0.41-2.48c0.27-0.77,0.66-1.43,1.17-2c0.51-0.56,1.13-1.01,1.86-1.33
				C804.43,224.63,805.25,224.47,806.17,224.47z M806.22,226.11c-1.08,0-1.92,0.31-2.54,0.93c-0.62,0.62-1,1.48-1.15,2.59h6.9
				c0-0.52-0.07-0.99-0.21-1.42c-0.14-0.43-0.35-0.8-0.63-1.11c-0.28-0.31-0.61-0.55-1.01-0.73
				C807.18,226.2,806.73,226.11,806.22,226.11z"/>
			<path class="st2" d="M826.58,237.35h-0.99c-0.22,0-0.39-0.03-0.53-0.1c-0.13-0.07-0.22-0.21-0.26-0.43l-0.25-1.18
				c-0.33,0.3-0.66,0.57-0.98,0.81c-0.32,0.24-0.65,0.44-1,0.6c-0.35,0.16-0.72,0.29-1.12,0.37c-0.4,0.08-0.84,0.13-1.32,0.13
				c-0.49,0-0.95-0.07-1.38-0.21c-0.43-0.14-0.8-0.35-1.12-0.62s-0.57-0.63-0.76-1.05c-0.19-0.42-0.28-0.92-0.28-1.5
				c0-0.5,0.14-0.99,0.41-1.45c0.28-0.47,0.72-0.88,1.33-1.24c0.61-0.36,1.42-0.66,2.41-0.89s2.21-0.35,3.64-0.35v-1
				c0-0.99-0.21-1.74-0.63-2.25c-0.42-0.51-1.05-0.76-1.87-0.76c-0.54,0-1,0.07-1.37,0.21c-0.37,0.14-0.69,0.29-0.96,0.46
				c-0.27,0.17-0.51,0.33-0.7,0.46c-0.2,0.14-0.39,0.21-0.58,0.21c-0.15,0-0.28-0.04-0.39-0.12c-0.11-0.08-0.2-0.18-0.27-0.29
				l-0.4-0.71c0.7-0.68,1.46-1.18,2.27-1.51s1.71-0.5,2.69-0.5c0.71,0,1.34,0.12,1.89,0.35c0.55,0.23,1.01,0.56,1.39,0.98
				c0.38,0.42,0.66,0.92,0.85,1.51c0.19,0.59,0.29,1.24,0.29,1.95V237.35z M820.8,235.98c0.39,0,0.75-0.04,1.08-0.12
				c0.33-0.08,0.63-0.19,0.92-0.34c0.29-0.15,0.56-0.32,0.83-0.53s0.52-0.45,0.77-0.71v-2.62c-1.03,0-1.9,0.06-2.62,0.2
				c-0.72,0.13-1.3,0.3-1.75,0.51c-0.45,0.21-0.78,0.46-0.98,0.74c-0.2,0.29-0.31,0.6-0.31,0.96c0,0.34,0.05,0.63,0.16,0.87
				c0.11,0.24,0.25,0.44,0.44,0.6c0.18,0.16,0.4,0.27,0.65,0.34C820.24,235.95,820.51,235.98,820.8,235.98z"/>
			<path class="st2" d="M835.44,218.91v18.43h-2.23v-18.43H835.44z"/>
			<path class="st2" d="M846.22,237.55c-1,0-1.77-0.28-2.31-0.84c-0.54-0.56-0.81-1.36-0.81-2.42v-7.76h-1.53
				c-0.13,0-0.25-0.04-0.34-0.12c-0.09-0.08-0.14-0.2-0.14-0.37v-0.89l2.08-0.26l0.51-3.92c0.02-0.13,0.07-0.23,0.16-0.31
				c0.09-0.08,0.21-0.12,0.35-0.12h1.13v4.37h3.63v1.61h-3.63v7.61c0,0.53,0.13,0.93,0.39,1.19c0.26,0.26,0.59,0.39,1,0.39
				c0.23,0,0.44-0.03,0.61-0.09c0.17-0.06,0.32-0.13,0.44-0.21c0.13-0.07,0.23-0.14,0.32-0.21c0.09-0.06,0.16-0.09,0.23-0.09
				c0.12,0,0.22,0.07,0.31,0.21l0.65,1.06c-0.38,0.36-0.85,0.64-1.39,0.84C847.35,237.45,846.79,237.55,846.22,237.55z"/>
			<path class="st2" d="M854.72,237.35v-18.43h2.23v7.46c0.54-0.58,1.14-1.04,1.8-1.38c0.66-0.35,1.42-0.52,2.28-0.52
				c0.69,0,1.3,0.12,1.83,0.34c0.53,0.23,0.97,0.56,1.33,0.98c0.35,0.42,0.62,0.93,0.81,1.52c0.18,0.59,0.28,1.25,0.28,1.96v8.07
				h-2.23v-8.07c0-0.96-0.22-1.7-0.66-2.23c-0.44-0.53-1.11-0.79-2.01-0.79c-0.66,0-1.27,0.16-1.85,0.48
				c-0.57,0.32-1.1,0.75-1.58,1.29v9.34H854.72z"/>
			<path class="st2" d="M882.49,230.64v6.71h-2.42v-17.93h5.29c1.13,0,2.12,0.13,2.96,0.39c0.84,0.26,1.53,0.64,2.08,1.12
				c0.55,0.48,0.96,1.07,1.23,1.75c0.27,0.68,0.41,1.45,0.41,2.29c0,0.83-0.15,1.6-0.44,2.29c-0.29,0.69-0.72,1.29-1.28,1.79
				c-0.56,0.5-1.26,0.89-2.1,1.17c-0.83,0.28-1.79,0.42-2.87,0.42H882.49z M882.49,228.71h2.88c0.69,0,1.3-0.09,1.83-0.28
				c0.53-0.18,0.97-0.44,1.33-0.77c0.36-0.33,0.63-0.72,0.81-1.18c0.18-0.46,0.28-0.96,0.28-1.51c0-1.14-0.35-2.04-1.06-2.68
				c-0.71-0.64-1.77-0.96-3.2-0.96h-2.88V228.71z"/>
			<path class="st2" d="M906.45,237.35h-0.99c-0.22,0-0.39-0.03-0.53-0.1c-0.13-0.07-0.22-0.21-0.26-0.43l-0.25-1.18
				c-0.33,0.3-0.66,0.57-0.98,0.81c-0.32,0.24-0.65,0.44-1,0.6c-0.35,0.16-0.72,0.29-1.12,0.37c-0.4,0.08-0.84,0.13-1.32,0.13
				c-0.49,0-0.95-0.07-1.38-0.21c-0.43-0.14-0.8-0.35-1.12-0.62s-0.57-0.63-0.76-1.05c-0.19-0.42-0.28-0.92-0.28-1.5
				c0-0.5,0.14-0.99,0.41-1.45c0.28-0.47,0.72-0.88,1.33-1.24c0.61-0.36,1.42-0.66,2.41-0.89s2.21-0.35,3.64-0.35v-1
				c0-0.99-0.21-1.74-0.63-2.25c-0.42-0.51-1.05-0.76-1.87-0.76c-0.54,0-1,0.07-1.37,0.21c-0.37,0.14-0.69,0.29-0.96,0.46
				c-0.27,0.17-0.51,0.33-0.7,0.46c-0.2,0.14-0.39,0.21-0.58,0.21c-0.15,0-0.28-0.04-0.39-0.12c-0.11-0.08-0.2-0.18-0.27-0.29
				l-0.4-0.71c0.7-0.68,1.46-1.18,2.27-1.51s1.71-0.5,2.69-0.5c0.71,0,1.34,0.12,1.89,0.35c0.55,0.23,1.01,0.56,1.39,0.98
				c0.38,0.42,0.66,0.92,0.85,1.51c0.19,0.59,0.29,1.24,0.29,1.95V237.35z M900.67,235.98c0.39,0,0.75-0.04,1.08-0.12
				c0.33-0.08,0.63-0.19,0.92-0.34c0.29-0.15,0.56-0.32,0.83-0.53s0.52-0.45,0.77-0.71v-2.62c-1.03,0-1.9,0.06-2.62,0.2
				c-0.72,0.13-1.3,0.3-1.75,0.51c-0.45,0.21-0.78,0.46-0.98,0.74c-0.2,0.29-0.31,0.6-0.31,0.96c0,0.34,0.05,0.63,0.16,0.87
				c0.11,0.24,0.25,0.44,0.44,0.6c0.18,0.16,0.4,0.27,0.65,0.34C900.11,235.95,900.38,235.98,900.67,235.98z"/>
			<path class="st2" d="M912.84,237.35v-12.68h1.28c0.24,0,0.41,0.05,0.5,0.14s0.15,0.25,0.19,0.48l0.15,1.98
				c0.43-0.88,0.97-1.58,1.61-2.07c0.64-0.5,1.39-0.74,2.25-0.74c0.35,0,0.67,0.04,0.95,0.12c0.28,0.08,0.55,0.19,0.79,0.33
				l-0.29,1.66c-0.06,0.21-0.19,0.31-0.39,0.31c-0.12,0-0.3-0.04-0.54-0.12c-0.24-0.08-0.58-0.12-1.01-0.12
				c-0.78,0-1.42,0.22-1.95,0.68c-0.52,0.45-0.96,1.11-1.31,1.96v8.07H912.84z"/>
			<path class="st2" d="M929.77,237.55c-1,0-1.77-0.28-2.31-0.84c-0.54-0.56-0.81-1.36-0.81-2.42v-7.76h-1.53
				c-0.13,0-0.25-0.04-0.34-0.12c-0.09-0.08-0.14-0.2-0.14-0.37v-0.89l2.08-0.26l0.51-3.92c0.02-0.13,0.07-0.23,0.16-0.31
				c0.09-0.08,0.21-0.12,0.35-0.12h1.13v4.37h3.63v1.61h-3.63v7.61c0,0.53,0.13,0.93,0.39,1.19c0.26,0.26,0.59,0.39,1,0.39
				c0.23,0,0.44-0.03,0.61-0.09c0.17-0.06,0.32-0.13,0.44-0.21c0.13-0.07,0.23-0.14,0.32-0.21c0.09-0.06,0.16-0.09,0.23-0.09
				c0.12,0,0.22,0.07,0.31,0.21l0.65,1.06c-0.38,0.36-0.85,0.64-1.39,0.84C930.9,237.45,930.34,237.55,929.77,237.55z"/>
			<path class="st2" d="M938.27,237.35v-12.68h1.33c0.32,0,0.52,0.15,0.6,0.46l0.18,1.38c0.55-0.61,1.17-1.1,1.85-1.48
				s1.47-0.56,2.36-0.56c0.69,0,1.3,0.12,1.83,0.34c0.53,0.23,0.97,0.56,1.33,0.98c0.35,0.42,0.62,0.93,0.81,1.52
				c0.18,0.59,0.28,1.25,0.28,1.96v8.07h-2.23v-8.07c0-0.96-0.22-1.7-0.66-2.23c-0.44-0.53-1.11-0.79-2.01-0.79
				c-0.66,0-1.27,0.16-1.85,0.48c-0.57,0.32-1.1,0.75-1.58,1.29v9.34H938.27z"/>
			<path class="st2" d="M960.2,224.47c0.76,0,1.46,0.13,2.1,0.38c0.64,0.25,1.2,0.62,1.66,1.1c0.47,0.48,0.83,1.07,1.09,1.78
				c0.26,0.71,0.39,1.51,0.39,2.41c0,0.35-0.04,0.58-0.11,0.7c-0.07,0.12-0.22,0.18-0.43,0.18h-8.43c0.02,0.8,0.13,1.5,0.33,2.09
				c0.2,0.59,0.48,1.09,0.83,1.48c0.35,0.4,0.77,0.69,1.25,0.89c0.48,0.2,1.03,0.29,1.63,0.29c0.56,0,1.04-0.06,1.45-0.19
				c0.4-0.13,0.75-0.27,1.05-0.42c0.29-0.15,0.54-0.29,0.73-0.42c0.2-0.13,0.36-0.19,0.51-0.19c0.18,0,0.33,0.07,0.43,0.21
				l0.63,0.81c-0.28,0.33-0.6,0.62-0.99,0.87c-0.38,0.25-0.79,0.45-1.23,0.61c-0.44,0.16-0.89,0.28-1.36,0.36
				c-0.47,0.08-0.93,0.12-1.39,0.12c-0.88,0-1.68-0.15-2.42-0.44c-0.74-0.3-1.38-0.73-1.91-1.3s-0.96-1.28-1.26-2.12
				c-0.3-0.84-0.45-1.81-0.45-2.9c0-0.88,0.14-1.71,0.41-2.48c0.27-0.77,0.66-1.43,1.17-2c0.51-0.56,1.13-1.01,1.86-1.33
				C958.46,224.63,959.29,224.47,960.2,224.47z M960.26,226.11c-1.08,0-1.92,0.31-2.54,0.93c-0.62,0.62-1,1.48-1.15,2.59h6.9
				c0-0.52-0.07-0.99-0.21-1.42c-0.14-0.43-0.35-0.8-0.63-1.11c-0.28-0.31-0.61-0.55-1.01-0.73
				C961.22,226.2,960.76,226.11,960.26,226.11z"/>
			<path class="st2" d="M971.31,237.35v-12.68h1.28c0.24,0,0.41,0.05,0.5,0.14s0.15,0.25,0.19,0.48l0.15,1.98
				c0.43-0.88,0.97-1.58,1.61-2.07c0.64-0.5,1.39-0.74,2.25-0.74c0.35,0,0.67,0.04,0.95,0.12c0.28,0.08,0.55,0.19,0.79,0.33
				l-0.29,1.66c-0.06,0.21-0.19,0.31-0.39,0.31c-0.12,0-0.3-0.04-0.54-0.12c-0.24-0.08-0.58-0.12-1.01-0.12
				c-0.78,0-1.42,0.22-1.95,0.68c-0.52,0.45-0.96,1.11-1.31,1.96v8.07H971.31z"/>
		</g>
	</g>
	<g>
		<g>
			<path class="st3" d="M307.34,149.39l-10.52-1.79l5.82,11.89l-7.95,3.51l-4.45,10.46l7.01,13.35l13.88-1.35l11.83,1.9l-17.08,3.33
				l-13.75-2.14l-42.51-23.86l35.73,25.62l-15.36,4.03L231.9,174.6l-25.64-18.8l-38.8-12.55l33.22,13.86l-98.98,10.76l-1.65,0.17
				c-1.74-1.89-3.31-3.92-4.68-6.1c-1.52-2.38-2.86-5.03-4.01-7.84c-2.42-6.06-3.66-13.01-3.66-20.65c0-0.02,0-0.05,0-0.07
				c0-3.98,3.28-7.18,7.26-7.24l96.62-1.55l64.81-2.37l53.05,14.1l31.65,11.13l12.05,1.2h1.44l0.5,3.01l-5.45,2.7l-27.14,1.92
				l-5.03-1.02L307.34,149.39z"/>
			<g>
				<linearGradient id="SVGID_1_" gradientUnits="userSpaceOnUse" x1="-36.7266" y1="51.7068" x2="389.7402" y2="254.74">
					<stop  offset="5.327789e-09" style="stop-color:#06C4FF"/>
					<stop  offset="1" style="stop-color:#0081E2"/>
				</linearGradient>
				<path class="st4" d="M176.29,185.09c-3.62,2.75-7.41,5.04-11.36,6.88c-8.43,3.93-17.64,5.9-27.6,5.9
					c-9.4,0-18.03-1.54-25.89-4.6c-7.86-3.06-14.66-7.48-20.42-13.23c-3.07-3.07-5.78-6.44-8.1-10.12c-2.05-3.2-3.8-6.63-5.27-10.29
					c-3.16-7.85-4.74-16.58-4.74-26.16c0-9.59,1.58-18.31,4.74-26.17c1.64-4.08,3.63-7.88,5.97-11.38c2.17-3.26,4.64-6.27,7.41-9.03
					c5.75-5.75,12.55-10.16,20.42-13.23c7.85-3.06,16.49-4.6,25.89-4.6c9.96,0,19.17,1.97,27.6,5.9c3.97,1.85,7.77,4.14,11.4,6.86
					c4.69,3.51,11.37,0.13,11.37-5.72V46.59c0-3.53-2.08-6.76-5.33-8.16c-0.02-0.01-0.04-0.02-0.05-0.03
					c-14.09-6.04-29.86-9.06-47.3-9.06c-15.73,0-30.19,2.54-43.43,7.62c-13.22,5.08-24.78,12.32-34.65,21.71
					c-9.87,9.39-17.54,20.42-23.01,33.07c-5.46,12.65-8.19,26.56-8.19,41.7c0,15.15,2.73,29.04,8.19,41.69
					c5.47,12.65,13.09,23.68,22.86,33.07c9.78,9.4,21.33,16.64,34.65,21.71c13.32,5.08,27.75,7.62,43.28,7.62
					c17.64,0,33.5-3.06,47.59-9.2c0.03-0.01,0.06-0.03,0.09-0.04c3.23-1.4,5.29-4.63,5.29-8.15v-29.39
					C187.71,184.89,180.97,181.53,176.29,185.09z"/>
				
					<linearGradient id="SVGID_00000127746978770227744050000000564801635230737848_" gradientUnits="userSpaceOnUse" x1="31.7612" y1="-92.1503" x2="458.228" y2="110.8828">
					<stop  offset="5.327789e-09" style="stop-color:#06C4FF"/>
					<stop  offset="1" style="stop-color:#0081E2"/>
				</linearGradient>
				<path style="fill:url(#SVGID_00000127746978770227744050000000564801635230737848_);" d="M513.18,169.56
					c0.12-0.05,0.27-0.11,0.39-0.16c8.27-3.65,15.35-8.33,21.23-14.03c3.39-3.27,6.38-6.89,8.97-10.85
					c7.09-10.83,10.63-23.73,10.63-38.68c0-15.15-3.55-28.18-10.63-39.11c-7.09-10.93-17.16-19.32-30.2-25.16
					c-13.04-5.85-28.57-8.77-46.59-8.77h-78.46c-5.63,0-8.1,7.06-3.73,10.6c9.59,7.76,17.71,16.9,24.29,27.35c0,0,0,0.01,0.01,0.01
					h55.31c14.38,0,25.11,3.07,32.2,9.2c7.09,6.14,10.64,14.77,10.64,25.89c0,10.93-3.55,19.51-10.64,25.73
					c-6.3,5.54-15.47,8.61-27.51,9.23c-1.52,0.08-3.08,0.12-4.69,0.12h-9.54c-4.06,0-7.36,3.29-7.36,7.36v22.38
					c0,4.06,3.29,7.36,7.36,7.36h12.12c0.01,0,0.01,0,0.02,0c1.36,0,2.64,0.66,3.4,1.78l3.15,4.57l0.01,0.02l19.89,28.86l6.16,8.94
					c5.14,7.46,13.62,11.91,22.68,11.91h24.08c1.96,0,3.6-0.87,4.68-2.17c1.69-1.99,2.08-5.02,0.36-7.49L513.18,169.56z"/>
				
					<linearGradient id="SVGID_00000183959532446452547800000005606629226344080806_" gradientUnits="userSpaceOnUse" x1="-3.7954" y1="-17.4645" x2="422.6714" y2="185.5687">
					<stop  offset="5.327789e-09" style="stop-color:#06C4FF"/>
					<stop  offset="1" style="stop-color:#0081E2"/>
				</linearGradient>
				<polygon style="fill:url(#SVGID_00000183959532446452547800000005606629226344080806_);" points="350.67,153.1 353.14,148.65 
					350.78,143.32 341.94,141.67 340.88,141.49 341.1,147.45 338.48,153.51 				"/>
				
					<linearGradient id="SVGID_00000035516356086402578230000017140195862960591244_" gradientUnits="userSpaceOnUse" x1="-11.3222" y1="-1.6546" x2="415.1446" y2="201.3786">
					<stop  offset="5.327789e-09" style="stop-color:#06C4FF"/>
					<stop  offset="1" style="stop-color:#0081E2"/>
				</linearGradient>
				<path style="fill:url(#SVGID_00000035516356086402578230000017140195862960591244_);" d="M394.79,185.12
					C394.79,185.12,394.79,185.12,394.79,185.12l-19.62,4.23l-24.71-6.12l-22.27,2.46L313,183.67l5.45-4.67l-0.74-8.8l-14.64,1.16
					l-4.65,3.43l-2.06,5.07l-3.04-6.51l3.77-8.47l17.12-7.82l35.21,0.33l8.2-3.75l-0.82-11.8l-16.18-10.51l-11.03-1.59l-14.52-5.83
					l-16.79-11.81l-12.6-4.08l12.22-6.17l21.65,1.75l12.22-1.97l-14.35-0.04l-22.62-2.03l-13.89,6.91l-13.6-4.4l19.22-8.44
					l22.04,0.58l8.31,1.44l10.8-1.93l-12.73-0.2l-16.57-3.17l-16.96,1.16l-20.27,8.57l-11.24-3.64l-24.74,3.33l-0.95-4.24
					c0,0,1.1-1.87,1.98-3.28l3.91,4.74l12-3.57c0,0-0.41-2.71-0.72-4.2c0.65-0.09,1.05-0.16,1.09-0.18c0.28-0.19,7.93-3.3,7.93-3.3
					l36.46-3.64l23.31,6.03l-20.03-7.29l-28.18,1.93l-2.66-3.22l0.1-8.73l-0.9-3.74l1.17-0.79c0.06,0.04,0.47,0.14,1.21,0.29
					c0.23,1.62,0.83,5.53,0.83,5.53l11.01,2.92l2.48-5.96c12.21,2.07,27.18,4.64,27.45,5.16c0.45,0.88,27.52,14.14,27.52,14.14
					l22.37,4.03l23.92,15.23l18.99,9.14v0.01l29.74,14.32l15.03,3.33l-14.64-7.34l-19.06-12.57c-2.06-12.69-6.23-24.12-12.59-34.25
					c-9.4-14.96-22.44-26.6-39.11-34.95c-16.68-8.34-35.95-12.51-57.8-12.51h-77.58c-7.67,0-13.88,6.22-13.88,13.88v49.94
					l-16.03,4.01h-42.89l-47.97-2.84l45.72,5.65l45.91,3l22.72-2.81l0,0l36.25-4.48l47.12,15.26l17.24,11.51l15.06,6.27l8.89,1.31
					l16.07,9.54l1.42,8.64l-5.44,2.7l-27.14,1.91l-5.03-1.01l-10.13-5.87l-10.52-1.8l5.82,11.89l-7.93,3.5l-4.47,10.46l7.01,13.35
					l13.88-1.35l11.84,1.91l-17.08,3.31l-13.76-2.14l-42.52-23.86l35.74,25.63l-15.37,4.03l-38.07-19.72l-15.51-11.37l0,0
					l-10.14-7.43l-38.81-12.55l33.22,13.85l-98.98,10.76l98.65-5.26l5.23,4.11v53.51c0,7.67,6.21,13.88,13.88,13.88h77.58
					c21.86,0,41.12-4.16,57.8-12.51c13.62-6.81,24.77-15.9,33.53-27.18l15.79-1.59l57.14,10.01l-60.03-19.1L394.79,185.12z"/>
			</g>
			<polygon class="st3" points="331.77,101.62 317.42,101.58 294.81,99.55 280.91,106.46 267.31,102.06 273.77,99.23 282.86,100.45 
				290.26,96.52 317.12,98.9 			"/>
			<polygon class="st3" points="327.69,93.71 314.96,93.51 298.39,90.34 281.43,91.5 261.16,100.07 249.92,96.43 225.18,99.77 
				224.52,96.82 228.95,95.56 230.13,96.99 242.13,93.41 241.86,91.73 251.75,89.82 289.44,86.6 315.74,89.82 			"/>
			<polygon class="st3" points="291.79,77.32 310.2,88.13 290.16,80.84 261.98,82.77 259.32,79.56 259.36,75.97 278.4,78.03 			"/>
			<path class="st3" d="M469.12,205.35l-8.58-2.76l-59.28-18.86l-26.09,5.63l-24.71-6.12l-23.27,2.32L313,183.67l5.45-4.67
				l-0.74-8.8l-14.64,1.16l-4.66,3.43l-2.06,5.07l-1.43-3.06l4.04-7.93l15.34-2.66h28.96l14.36-12.57l-0.49-6.97l-0.34-4.83
				l-16.18-10.51l-11.03-1.59l-14.85-6.07l-16.46-11.58l-12.6-4.08l5.68-2.87l29.05,5.19l40.07,14.87
				c0.94,1.56,37.72,18.06,37.72,18.06l39.92,24.2v8.61c0,0,1.41,9.08,10.49,9.23l13.46,1.88L469.12,205.35z"/>
			<g>
				<defs>
					<path id="SVGID_00000023251497055841860640000000677681533945669048_" d="M187.71,190.77v29.39c0,3.52-2.06,6.75-5.29,8.15
						c-0.03,0.01-0.06,0.03-0.09,0.04c-14.09,6.14-29.95,9.2-47.59,9.2c-15.53,0-29.96-2.54-43.28-7.62
						c-13.32-5.08-24.88-12.31-34.65-21.71c-9.77-9.39-17.4-20.42-22.86-33.07c-5.46-12.65-8.19-26.55-8.19-41.69
						c0-15.14,2.73-29.05,8.19-41.7c5.47-12.65,13.13-23.68,23.01-33.07c9.87-9.39,21.43-16.64,34.65-21.71
						c13.23-5.08,27.7-7.62,43.43-7.62c17.44,0,33.21,3.02,47.3,9.06c0.02,0.01,0.04,0.02,0.05,0.03c3.24,1.39,5.33,4.63,5.33,8.16
						v29.48c0,5.85-6.68,9.23-11.37,5.72c-3.63-2.73-7.43-5.01-11.4-6.86c-8.43-3.93-17.64-5.9-27.6-5.9
						c-9.4,0-18.03,1.54-25.89,4.6c-7.86,3.07-14.66,7.48-20.42,13.23c-2.77,2.76-5.24,5.77-7.41,9.03
						c-2.34,3.5-4.32,7.3-5.97,11.38c-3.16,7.86-4.74,16.58-4.74,26.17c0,9.59,1.58,18.31,4.74,26.16
						c1.47,3.66,3.23,7.09,5.27,10.29c2.32,3.68,5.03,7.05,8.1,10.12c5.75,5.75,12.55,10.17,20.42,13.23
						c7.85,3.06,16.49,4.6,25.89,4.6c9.96,0,19.17-1.97,27.6-5.9c3.95-1.84,7.74-4.13,11.36-6.88
						C180.97,181.53,187.71,184.89,187.71,190.77z M513.18,169.56c0.12-0.05,0.27-0.11,0.39-0.16c8.27-3.65,15.35-8.33,21.23-14.03
						c3.39-3.27,6.38-6.89,8.97-10.85c7.09-10.83,10.63-23.73,10.63-38.68c0-15.15-3.55-28.18-10.63-39.11
						c-7.09-10.93-17.16-19.32-30.2-25.16c-13.04-5.85-28.57-8.77-46.59-8.77h-78.46c-5.63,0-8.1,7.06-3.73,10.6
						c9.59,7.76,17.71,16.9,24.29,27.35c0,0,0,0.01,0.01,0.01h55.31c14.38,0,25.11,3.07,32.2,9.2c7.09,6.14,10.64,14.77,10.64,25.89
						c0,10.93-3.55,19.51-10.64,25.73c-6.3,5.54-15.47,8.61-27.51,9.23c-1.52,0.08-3.08,0.12-4.69,0.12h-9.54
						c-4.06,0-7.36,3.29-7.36,7.36v22.38c0,4.06,3.29,7.36,7.36,7.36h12.12c0.01,0,0.01,0,0.02,0c1.36,0,2.64,0.66,3.4,1.78
						l3.15,4.57l0.01,0.02l19.89,28.86l6.16,8.94c5.14,7.46,13.62,11.91,22.68,11.91h24.08c1.96,0,3.6-0.87,4.68-2.17
						c1.69-1.99,2.08-5.02,0.36-7.49L513.18,169.56z M350.67,153.1l2.47-4.45l-2.36-5.33l-8.84-1.64l-1.06-0.18l0.22,5.95
						l-2.62,6.07L350.67,153.1z M394.79,185.12C394.79,185.12,394.79,185.12,394.79,185.12l-19.62,4.23l-24.71-6.12l-22.27,2.46
						L313,183.67l5.45-4.67l-0.74-8.8l-14.64,1.16l-4.65,3.43l-2.06,5.07l-3.04-6.51l3.77-8.47l17.12-7.82l35.21,0.33l8.2-3.75
						l-0.82-11.8l-16.18-10.51l-11.03-1.59l-14.52-5.83l-16.79-11.81l-12.6-4.08l12.22-6.17l21.65,1.75l12.22-1.97l-14.35-0.04
						l-22.62-2.03l-13.89,6.91l-13.6-4.4l19.22-8.44l22.04,0.58l8.31,1.44l10.8-1.93l-12.73-0.2l-16.57-3.17l-16.96,1.16
						l-20.27,8.57l-11.24-3.64l-24.74,3.33l-0.95-4.24c0,0,1.1-1.87,1.98-3.28l3.91,4.74l12-3.57c0,0-0.41-2.71-0.72-4.2
						c0.65-0.09,1.05-0.16,1.09-0.18c0.28-0.19,7.93-3.3,7.93-3.3l36.46-3.64l23.31,6.03l-20.03-7.29l-28.18,1.93l-2.66-3.22
						l0.1-8.73l-0.9-3.74l1.17-0.79c0.06,0.04,0.47,0.14,1.21,0.29c0.23,1.62,0.83,5.53,0.83,5.53l11.01,2.92l2.48-5.96
						c12.21,2.07,27.18,4.64,27.45,5.16c0.45,0.88,27.52,14.14,27.52,14.14l22.37,4.03l23.92,15.23l18.99,9.14v0.01l29.74,14.32
						l15.03,3.33l-14.64-7.34l-19.06-12.57c-2.06-12.69-6.23-24.12-12.59-34.25c-9.4-14.96-22.44-26.6-39.11-34.95
						c-16.68-8.34-35.95-12.51-57.8-12.51h-77.58c-7.67,0-13.88,6.22-13.88,13.88v49.94l-16.03,4.01h-42.89l-47.97-2.84l45.72,5.65
						l45.91,3l22.72-2.81l0,0l36.25-4.48l47.12,15.26l17.24,11.51l15.06,6.27l8.89,1.31l16.07,9.54l1.42,8.64l-5.44,2.7l-27.14,1.91
						l-5.03-1.01l-10.13-5.87l-10.52-1.8l5.82,11.89l-7.93,3.5l-4.47,10.46l7.01,13.35l13.88-1.35l11.84,1.91l-17.08,3.31
						l-13.76-2.14l-42.52-23.86l35.74,25.63l-15.37,4.03l-38.07-19.72l-15.51-11.37l0,0l-10.14-7.43l-38.81-12.55l33.22,13.85
						l-98.98,10.76l98.65-5.26l5.23,4.11v53.51c0,7.67,6.21,13.88,13.88,13.88h77.58c21.86,0,41.12-4.16,57.8-12.51
						c13.62-6.81,24.77-15.9,33.53-27.18l15.79-1.59l57.14,10.01l-60.03-19.1L394.79,185.12z"/>
				</defs>
				<clipPath id="SVGID_00000177444775448499290000000002578859895492185745_">
					<use xlink:href="#SVGID_00000023251497055841860640000000677681533945669048_"  style="overflow:visible;"/>
				</clipPath>
				<g style="opacity:0.75;clip-path:url(#SVGID_00000177444775448499290000000002578859895492185745_);">
					
						<linearGradient id="SVGID_00000140727118537619288740000004590118013263293066_" gradientUnits="userSpaceOnUse" x1="288.3882" y1="395.3223" x2="288.3882" y2="103.6055">
						<stop  offset="5.327789e-09" style="stop-color:#31E2FF"/>
						<stop  offset="1" style="stop-color:#3EADFF"/>
					</linearGradient>
					
						<ellipse style="opacity:0.49;fill:url(#SVGID_00000140727118537619288740000004590118013263293066_);" cx="288.39" cy="245.39" rx="261.12" ry="148.3"/>
					
						<linearGradient id="SVGID_00000057143694852154072270000017334912598305818025_" gradientUnits="userSpaceOnUse" x1="311.7964" y1="220.1807" x2="311.7964" y2="-97.6874">
						<stop  offset="5.327789e-09" style="stop-color:#31E2FF"/>
						<stop  offset="1" style="stop-color:#3EADFF"/>
					</linearGradient>
					
						<ellipse style="opacity:0.49;fill:url(#SVGID_00000057143694852154072270000017334912598305818025_);" cx="311.8" cy="56.81" rx="284.53" ry="161.59"/>
				</g>
			</g>
		</g>
		<g>
			<polygon class="st11" points="350.67,153.1 353.14,148.65 350.78,143.32 341.94,141.67 340.88,141.49 341.1,147.45 
				338.48,153.51 			"/>
			<path class="st11" d="M461.29,202.83l-59.05-12.39l-14.29,1.85l-10.55,2.03l-25.57-7.17l-18.57,1.68l-27.16,6.72l-12.24-0.1
				l-23.4,3.75l-41.77-22.12l-23.7-14.48h-4.64l-98.64,5.25l98.97-10.76l-33.21-13.86l38.8,12.55l10.13,7.43v0.01l15.5,11.36
				l38.07,19.72l15.38-4.02l-35.75-25.62l42.52,23.86l13.77,2.14l17.07-3.31l-11.84-1.92l-13.88,1.35l-7.01-13.35l4.46-10.46
				l7.94-3.51l-5.82-11.89l10.52,1.8l10.14,5.87l5.03,1.01l27.14-1.92l5.45-2.69l-1.42-8.65l-16.06-9.54l-8.9-1.32l-15.05-6.27
				l-17.25-11.51l-47.11-15.26l-36.26,4.49v0.01l-22.72,2.81l-45.91-2.99l-45.71-5.66l47.97,2.84h42.88l30.4-4.1l0.94-2.58l4.1-4.14
				l15.02-3.2l8.33-3.66l9.07-0.89l-1.33-2.22l-0.11-9.04l-0.85-4.74l4.83-3.91l43.6,8.54l28.23,13.97l23,4.54l26.29,15.25
				l24.76,12.59l19.77,10.03l14.64,7.34l-15.04-3.34l-29.74-14.32v-0.01l-18.98-9.13L352.55,92.4l-22.37-4.04
				c0,0-27.08-13.25-27.52-14.14c-0.27-0.52-15.25-3.08-27.45-5.15l-2.49,5.96l-11-2.93c0,0-0.6-3.91-0.83-5.52
				c-0.73-0.15-1.14-0.25-1.21-0.28l-1.17,0.79l0.9,3.73l-0.09,8.74l2.66,3.21l28.18-1.93l20.03,7.29l-23.31-6.03l-36.47,3.63
				c0,0-7.64,3.11-7.93,3.3c-0.03,0.01-0.43,0.09-1.08,0.17c0.3,1.5,0.72,4.21,0.72,4.21l-12.01,3.57l-3.91-4.75
				c-0.88,1.41-1.98,3.28-1.98,3.28l0.95,4.24l24.75-3.33l11.24,3.63l20.27-8.57l16.97-1.16l16.56,3.18l12.74,0.19l-10.81,1.93
				l-8.31-1.43l-22.04-0.59l-19.22,8.44l13.6,4.4l13.9-6.91l22.61,2.03l14.35,0.05l-12.23,1.96l-21.65-1.75L285.68,108l12.59,4.08
				l16.8,11.81l14.52,5.84l11.03,1.59l16.19,10.51l0.82,11.8l-8.21,3.75l-35.21-0.34l-17.12,7.82l-3.77,8.47l3.03,6.52l2.06-5.07
				l4.66-3.43l14.63-1.16l0.74,8.79l-5.45,4.68l15.19,2.02l22.27-2.46l24.71,6.12l19.63-4.24c0,0,0,0.01-0.01,0.01l6.48-1.4
				L461.29,202.83z"/>
		</g>
		<g>
			<polygon class="st12" points="298.38,181.01 300.43,176.22 303.69,173 316.05,171.83 316.44,177.49 311.56,182.9 299.03,184.23 
							"/>
			<polygon class="st12" points="341.93,142.54 342.54,147.32 340.54,152.08 349.45,152.08 352.03,148.59 350.08,144.05 			"/>
			<polygon class="st12" points="262.15,64.61 273.62,66.86 271.91,72.81 262.88,70.76 			"/>
			<polygon class="st12" points="227.44,91.07 230.62,95.26 240.23,92.58 239.6,88.13 			"/>
		</g>
	</g>
</g>
</svg>
