<svg width="41" height="40" viewBox="0 0 41 40" fill="none" xmlns="http://www.w3.org/2000/svg">
<g clip-path="url(#clip0_37_2789)">
<path d="M38.2642 4.80469H6.63418C5.4634 4.80469 4.5109 5.75813 4.5109 6.93V8.90336H2.51512C1.34309 8.90336 0.389648 9.85578 0.389648 11.0266V26.9231C0.389648 28.095 1.34309 29.0484 2.51512 29.0484H3.90855V34.4141C3.90855 34.7105 4.07629 34.9814 4.34168 35.1134C4.45191 35.1683 4.57113 35.1953 4.68973 35.1953C4.85668 35.1953 5.02254 35.1418 5.16074 35.0374L13.0879 29.0484H33.1157L35.6186 30.9388C35.7569 31.0433 35.9227 31.0967 36.0896 31.0967C36.2082 31.0967 36.3275 31.0697 36.4377 31.0148C36.703 30.8827 36.8707 30.6119 36.8707 30.3155V24.9498H38.2642C39.4361 24.9498 40.3896 23.9963 40.3896 22.8244V6.93C40.3896 5.75813 39.4361 4.80469 38.2642 4.80469ZM38.8271 22.8243C38.8271 23.1294 38.5693 23.3872 38.2642 23.3872H36.0895C35.6581 23.3872 35.3082 23.737 35.3082 24.1684V28.7463L28.422 23.5451C28.2864 23.4426 28.121 23.3872 27.9511 23.3872H19.0443C18.6129 23.3872 18.2631 23.737 18.2631 24.1684C18.2631 24.5998 18.6129 24.9497 19.0443 24.9497H27.6892L31.047 27.4859H12.8259C12.6559 27.4859 12.4906 27.5413 12.355 27.6437L5.47105 32.8446V28.267C5.47105 27.8356 5.12121 27.4858 4.6898 27.4858H2.51512C2.20465 27.4858 1.95215 27.2334 1.95215 26.923V11.0266C1.95215 10.7226 2.20996 10.4659 2.51512 10.4659H4.5109V22.8243C4.5109 23.9963 5.46332 24.9497 6.63418 24.9497H12.0288C12.4602 24.9497 12.81 24.5998 12.81 24.1684C12.81 23.737 12.4602 23.3872 12.0288 23.3872H6.63418C6.3302 23.3872 6.0734 23.1294 6.0734 22.8243V6.93C6.0734 6.62492 6.3302 6.36719 6.63418 6.36719H38.2642C38.5746 6.36719 38.8271 6.61961 38.8271 6.93V22.8243Z" fill="#A8D5BA"/>
<path d="M23.6443 15.7698C23.637 15.7503 23.629 15.7312 23.6201 15.7123L21.2064 9.98772C21.201 9.97491 21.1956 9.96373 21.1902 9.95389C21.1107 9.7878 20.9732 9.64866 20.7901 9.57139C20.3929 9.40373 19.9344 9.58991 19.7666 9.98756L17.3417 15.7353C17.3404 15.7385 17.339 15.7416 17.3376 15.7448L15.9952 18.9267C15.8276 19.3242 16.0138 19.7824 16.4114 19.9502C16.5105 19.992 16.6134 20.0119 16.7147 20.0119C17.0193 20.0119 17.309 19.8324 17.4349 19.534L18.5777 16.8253H22.3936L23.5356 19.5339C23.6615 19.8324 23.9511 20.0119 24.2558 20.0119C24.3571 20.0119 24.4599 19.992 24.559 19.9503C24.9567 19.7826 25.1431 19.3244 24.9754 18.9269L23.6443 15.7698ZM19.237 15.2628L20.4863 12.3016L21.7348 15.2628H19.237Z" fill="#A8D5BA"/>
<path d="M34.4149 17.4207C35.0268 16.5274 35.3917 15.4108 35.3917 14.2C35.3917 11.2793 33.2714 8.90332 30.6652 8.90332C28.0578 8.90332 25.9365 11.2793 25.9365 14.2C25.9365 17.1219 28.0578 19.4991 30.6652 19.4991C31.66 19.4991 32.5835 19.1519 33.3458 18.5611L34.8133 20.0175C34.9657 20.1687 35.1646 20.2442 35.3636 20.2442C35.5645 20.2442 35.7654 20.1671 35.9182 20.0132C36.2221 19.707 36.2202 19.2124 35.9139 18.9084L34.4149 17.4207ZM33.2825 16.2969L31.9239 14.9486C31.6177 14.6446 31.1231 14.6464 30.8191 14.9528C30.5151 15.259 30.5171 15.7536 30.8233 16.0576L32.2251 17.4489C31.7643 17.7587 31.2321 17.9367 30.6651 17.9367C28.9193 17.9367 27.4989 16.2604 27.4989 14.2C27.4989 12.1411 28.9193 10.4659 30.6651 10.4659C32.4097 10.4659 33.8291 12.141 33.8291 14.2C33.8292 14.9766 33.6274 15.6986 33.2825 16.2969Z" fill="#A8D5BA"/>
<path d="M15.6112 14.3857C15.6112 13.9543 15.2613 13.6045 14.8299 13.6045H10.5996V11.0728H14.8298C15.2613 11.0728 15.6111 10.7229 15.6111 10.2915C15.6111 9.8601 15.2613 9.51025 14.8298 9.51025H9.81836C9.38695 9.51025 9.03711 9.8601 9.03711 10.2915V19.4631C9.03711 19.8946 9.38695 20.2444 9.81836 20.2444C10.2498 20.2444 10.5996 19.8946 10.5996 19.4631V15.167H14.8298C15.2613 15.167 15.6112 14.8171 15.6112 14.3857Z" fill="#A8D5BA"/>
<path d="M15.5361 23.3872C15.1047 23.3872 14.7549 23.7371 14.7549 24.1685C14.7549 24.5999 15.1047 24.9497 15.5361 24.9497H15.5383C15.9697 24.9497 16.3184 24.5999 16.3184 24.1685C16.3184 23.7371 15.9675 23.3872 15.5361 23.3872Z" fill="#A8D5BA"/>
</g>
<defs>
<clipPath id="clip0_37_2789">
<rect width="40" height="40" fill="white" transform="translate(0.389648)"/>
</clipPath>
</defs>
</svg>
