<svg width="41" height="41" viewBox="0 0 41 41" fill="none" xmlns="http://www.w3.org/2000/svg">
<g clip-path="url(#clip0_37_573)">
<path d="M32.1701 26.5322C32.1607 26.5349 32.1514 26.538 32.1421 26.5412L22.4226 29.9602C22.2318 29.027 21.6832 28.0788 20.7152 27.6477L14.1487 24.7127C12.5483 23.9985 11.1692 24.2779 10.0307 24.6455L5.96042 25.9631L5.7712 25.3161C5.67979 25.0039 5.46812 24.7408 5.18275 24.5847C4.89737 24.4286 4.56167 24.3922 4.24948 24.4836L1.04808 25.4203C0.736084 25.512 0.473096 25.7235 0.316666 26.0085C0.160235 26.2936 0.1231 26.629 0.213389 26.9414L3.64144 38.6602C3.73255 38.9725 3.94398 39.236 4.22924 39.3925C4.51451 39.549 4.85026 39.5859 5.16269 39.4949L8.36925 38.5574C8.68037 38.4652 8.9423 38.2535 9.09776 37.9687C9.25322 37.6839 9.28954 37.3491 9.19878 37.0375L8.94558 36.1723L10.18 35.8485L15.8265 37.9138C16.6739 38.2232 17.5559 38.5044 18.4572 38.5044C19.0715 38.5085 19.6776 38.3643 20.2242 38.0842L32.7926 31.6615C32.7967 31.6594 32.801 31.6572 32.8051 31.6549C32.9175 31.5938 33.0353 31.5337 33.16 31.4699C34.1161 30.9817 35.561 30.2438 34.9816 28.2646C34.6018 26.9672 33.3407 26.1906 32.1701 26.5322ZM8.13995 37.4451C8.12327 37.4764 8.09491 37.4998 8.06105 37.5103L4.85792 38.4469C4.8235 38.4562 4.78679 38.4519 4.7555 38.4348C4.72422 38.4176 4.70078 38.389 4.69011 38.355L1.26214 26.6363C1.2525 26.6016 1.25691 26.5646 1.2744 26.5332C1.29093 26.5023 1.31901 26.4791 1.35253 26.4688L1.3537 26.4685L4.55792 25.531C4.56962 25.5275 4.58175 25.5258 4.59394 25.5258C4.61659 25.526 4.63884 25.5318 4.6587 25.5427C4.67405 25.5509 4.68761 25.5621 4.6986 25.5756C4.70958 25.5891 4.71777 25.6047 4.72269 25.6214L8.15159 37.3456C8.15643 37.3621 8.15789 37.3795 8.15589 37.3965C8.15389 37.4136 8.14847 37.4301 8.13995 37.4451ZM32.6643 30.4975C32.5409 30.5606 32.4134 30.6257 32.2903 30.6928L19.7285 37.1117C18.7056 37.6327 17.6996 37.4352 16.2019 36.8882L10.395 34.7641C10.2904 34.7258 10.1767 34.7204 10.0689 34.7485L8.63925 35.1234L6.26659 27.011L10.3663 25.6838C11.7178 25.2474 12.6849 25.2549 13.7031 25.7092L20.2701 28.6439C20.9382 28.9417 21.4062 29.7891 21.4082 30.7045C21.4082 30.7069 21.4086 30.7092 21.4086 30.7116C21.4086 30.7139 21.4082 30.7168 21.4082 30.7194C21.408 30.9814 21.3608 31.2412 21.2686 31.4864C20.8372 32.6252 19.7217 32.6661 18.897 32.3558L14.4768 30.6976C14.4097 30.6724 14.3383 30.6607 14.2666 30.6631C14.195 30.6655 14.1245 30.682 14.0593 30.7117C13.994 30.7413 13.9352 30.7835 13.8862 30.8359C13.8373 30.8883 13.7991 30.9498 13.7739 31.0169C13.7487 31.084 13.737 31.1554 13.7394 31.2271C13.7419 31.2987 13.7584 31.3692 13.788 31.4345C13.8177 31.4997 13.8599 31.5585 13.9122 31.6075C13.9646 31.6564 14.0261 31.6946 14.0932 31.7198L18.5131 33.3784C18.9136 33.5333 19.3387 33.6147 19.7682 33.6185C20.9077 33.6185 21.8673 32.9896 22.2896 31.8749C22.3843 31.625 22.4472 31.3642 22.4771 31.0986L32.4888 27.5766C33.0692 27.4162 33.7285 27.8688 33.9341 28.5714C34.2451 29.6333 33.7125 29.9621 32.6643 30.4975ZM20.694 11.396C19.28 11.6105 18.01 12.2866 16.9791 13.3838C15.8328 14.6036 15.0461 16.3037 14.7639 18.1707L14.465 20.146C14.3923 20.5856 14.4186 21.036 14.5419 21.4642C14.6652 21.8924 14.8824 22.2878 15.1778 22.6215C16.5972 24.2717 21.7726 24.4006 23.3327 24.4006H23.3371C24.4832 24.4006 30.2735 24.3138 31.7292 22.622C32.0247 22.2883 32.242 21.893 32.3654 21.4647C32.4888 21.0364 32.5152 20.586 32.4425 20.1463L32.1436 18.1709C31.8614 16.3037 31.0746 14.6036 29.9284 13.3838C28.8975 12.287 27.6276 11.6104 26.2135 11.396C26.4594 11.1918 26.6854 10.9648 26.8884 10.718C27.8659 9.53126 28.3825 7.85861 28.3825 5.88126C28.3825 4.57408 27.8633 3.32043 26.9389 2.39611C26.0146 1.47179 24.761 0.952515 23.4538 0.952515C22.1466 0.952515 20.8929 1.47179 19.9686 2.39611C19.0443 3.32043 18.525 4.57408 18.525 5.88126C18.525 7.85876 19.0417 9.53126 20.0192 10.718C20.2221 10.9649 20.4479 11.192 20.6937 11.3963L20.694 11.396ZM31.0637 18.3344L31.3628 20.3102C31.4115 20.5942 31.3953 20.8856 31.3156 21.1624C31.2358 21.4393 31.0945 21.6946 30.9022 21.9092L30.9016 21.9099C30.3043 22.6046 27.514 23.3083 23.3366 23.3089H23.3313C19.7264 23.3089 16.7141 22.7337 16.0047 21.9091C15.8123 21.6945 15.6709 21.4392 15.5911 21.1623C15.5113 20.8854 15.4951 20.594 15.5438 20.3099L15.8432 18.3344C16.2885 15.3874 18.2694 12.4138 21.6906 12.4138H25.2164C28.6374 12.4138 30.6182 15.3874 31.0637 18.3344ZM23.4534 2.04462C24.4706 2.04576 25.4459 2.45033 26.1652 3.16958C26.8845 3.88883 27.2892 4.86404 27.2904 5.88126C27.2904 9.61915 25.3014 11.3216 23.4535 11.3216C21.6055 11.3216 19.6165 9.61947 19.6165 5.88126C19.6178 4.86406 20.0224 3.88888 20.7417 3.16964C21.461 2.45039 22.4362 2.0458 23.4534 2.04462ZM3.89144 27.2582C3.90972 27.3281 3.91396 27.4008 3.90393 27.4723C3.89389 27.5438 3.86977 27.6126 3.83296 27.6748C3.79616 27.7369 3.7474 27.7911 3.6895 27.8342C3.63161 27.8774 3.56573 27.9086 3.49568 27.9261C3.42563 27.9436 3.35281 27.947 3.28143 27.9362C3.21004 27.9254 3.14151 27.9005 3.07981 27.863C3.0181 27.8255 2.96445 27.7762 2.92195 27.7178C2.87945 27.6594 2.84895 27.5932 2.83222 27.523L2.83003 27.5141C2.81265 27.4445 2.80914 27.3722 2.8197 27.3013C2.83026 27.2304 2.85468 27.1623 2.89157 27.1008C2.92846 27.0394 2.97709 26.9858 3.0347 26.9431C3.0923 26.9004 3.15775 26.8695 3.22729 26.8521C3.29684 26.8347 3.36914 26.8312 3.44004 26.8418C3.51095 26.8523 3.57908 26.8768 3.64055 26.9137C3.70202 26.9506 3.75562 26.9992 3.79829 27.0568C3.84096 27.1144 3.87187 27.1798 3.88925 27.2494L3.89144 27.2582ZM31.0266 7.04533V11.7681C31.0283 11.9117 31.0866 12.0489 31.1888 12.1499C31.291 12.2508 31.4288 12.3075 31.5725 12.3075C31.7162 12.3075 31.854 12.2508 31.9562 12.1499C32.0584 12.0489 32.1167 11.9117 32.1184 11.7681V7.04533C32.4647 6.93086 32.7662 6.7101 32.9798 6.41446C33.1935 6.11882 33.3085 5.76333 33.3085 5.39857C33.3085 5.0338 33.1935 4.67832 32.9798 4.38268C32.7662 4.08704 32.4647 3.86628 32.1184 3.75181V2.80751C32.1167 2.66386 32.0584 2.52668 31.9562 2.42571C31.854 2.32473 31.7162 2.26811 31.5725 2.26811C31.4288 2.26811 31.291 2.32473 31.1888 2.42571C31.0866 2.52668 31.0283 2.66386 31.0266 2.80751V3.75197C30.6803 3.86644 30.3788 4.08719 30.1652 4.38284C29.9515 4.67848 29.8365 5.03396 29.8365 5.39873C29.8365 5.76349 29.9515 6.11897 30.1652 6.41461C30.3788 6.71026 30.6803 6.93101 31.0266 7.04548V7.04533ZM31.5725 4.75517C31.6997 4.75516 31.8241 4.79288 31.9299 4.86357C32.0358 4.93426 32.1183 5.03475 32.167 5.15232C32.2157 5.26989 32.2284 5.39927 32.2036 5.52409C32.1788 5.64891 32.1175 5.76357 32.0275 5.85356C31.9376 5.94355 31.8229 6.00484 31.6981 6.02968C31.5733 6.05451 31.4439 6.04177 31.3263 5.99307C31.2087 5.94438 31.1082 5.86191 31.0375 5.75609C30.9668 5.65028 30.9291 5.52587 30.9291 5.39861C30.9293 5.22806 30.9972 5.06457 31.1178 4.94399C31.2384 4.8234 31.4019 4.75555 31.5725 4.75533V4.75517ZM8.03042 15.4301C8.44643 15.4306 8.84526 15.596 9.13942 15.8902C9.43357 16.1844 9.59903 16.5832 9.59948 16.9992C9.59948 17.144 9.657 17.2829 9.75938 17.3853C9.86177 17.4877 10.0006 17.5452 10.1454 17.5452C10.2902 17.5452 10.4291 17.4877 10.5315 17.3853C10.6338 17.2829 10.6914 17.144 10.6914 16.9992C10.6918 16.5832 10.8573 16.1844 11.1514 15.8902C11.4456 15.596 11.8444 15.4306 12.2604 15.4301C12.3327 15.431 12.4043 15.4175 12.4713 15.3904C12.5383 15.3634 12.5993 15.3233 12.6507 15.2725C12.7021 15.2218 12.7429 15.1613 12.7707 15.0946C12.7985 15.028 12.8129 14.9564 12.8129 14.8842C12.8129 14.8119 12.7985 14.7404 12.7707 14.6738C12.7429 14.6071 12.7021 14.5466 12.6507 14.4959C12.5993 14.4451 12.5383 14.405 12.4713 14.378C12.4043 14.3509 12.3327 14.3374 12.2604 14.3383C11.8444 14.3378 11.4456 14.1724 11.1514 13.8782C10.8573 13.5841 10.6918 13.1852 10.6914 12.7692C10.6914 12.6244 10.6338 12.4856 10.5315 12.3832C10.4291 12.2808 10.2902 12.2233 10.1454 12.2233C10.0006 12.2233 9.86177 12.2808 9.75938 12.3832C9.657 12.4856 9.59948 12.6244 9.59948 12.7692C9.59901 13.1852 9.43354 13.584 9.13939 13.8782C8.84524 14.1724 8.44641 14.3378 8.03042 14.3383C7.95818 14.3374 7.88649 14.3509 7.8195 14.378C7.75251 14.405 7.69156 14.4451 7.64017 14.4959C7.58878 14.5466 7.54798 14.6071 7.52014 14.6738C7.49229 14.7404 7.47795 14.8119 7.47795 14.8842C7.47795 14.9564 7.49229 15.028 7.52014 15.0946C7.54798 15.1613 7.58878 15.2218 7.64017 15.2725C7.69156 15.3233 7.75251 15.3634 7.8195 15.3904C7.88649 15.4175 7.95818 15.431 8.03042 15.4301ZM10.1454 14.3823C10.2898 14.5711 10.4586 14.7399 10.6474 14.8842C10.4585 15.0286 10.2898 15.1974 10.1454 15.3863C10.0011 15.1974 9.83224 15.0286 9.64339 14.8842C9.83222 14.7399 10.001 14.5711 10.1454 14.3823ZM38.9751 4.39205V2.80751C38.9751 2.66272 38.9176 2.52386 38.8152 2.42148C38.7128 2.3191 38.574 2.26158 38.4292 2.26158C38.2844 2.26158 38.1455 2.3191 38.0431 2.42148C37.9408 2.52386 37.8832 2.66272 37.8832 2.80751V4.39205C37.5369 4.50652 37.2355 4.72727 37.0218 5.02291C36.8081 5.31856 36.6931 5.67404 36.6931 6.0388C36.6931 6.40357 36.8081 6.75905 37.0218 7.05469C37.2355 7.35034 37.5369 7.57109 37.8832 7.68556V11.7682C37.8832 11.913 37.9408 12.0519 38.0431 12.1543C38.1455 12.2566 38.2844 12.3142 38.4292 12.3142C38.574 12.3142 38.7128 12.2566 38.8152 12.1543C38.9176 12.0519 38.9751 11.913 38.9751 11.7682V7.68548C39.3214 7.57099 39.6228 7.35024 39.8365 7.0546C40.0501 6.75897 40.1651 6.40351 40.1651 6.03876C40.1651 5.67402 40.0501 5.31856 39.8365 5.02292C39.6228 4.72729 39.3214 4.50654 38.9751 4.39205ZM38.4292 6.6822C38.3019 6.68222 38.1775 6.64449 38.0717 6.5738C37.9658 6.5031 37.8834 6.40261 37.8346 6.28503C37.7859 6.16746 37.7732 6.03808 37.798 5.91326C37.8228 5.78843 37.8841 5.67378 37.9741 5.58379C38.0641 5.49379 38.1788 5.43251 38.3036 5.40769C38.4284 5.38286 38.5578 5.39561 38.6754 5.44432C38.7929 5.49303 38.8934 5.57551 38.9641 5.68134C39.0348 5.78716 39.0725 5.91158 39.0725 6.03884C39.0723 6.2094 39.0044 6.37291 38.8838 6.49352C38.7632 6.61412 38.5997 6.68197 38.4292 6.6822ZM11.7555 9.88009C12.3042 9.88073 12.8303 10.099 13.2183 10.487C13.6062 10.875 13.8245 11.4011 13.8251 11.9498C13.8242 12.022 13.8377 12.0937 13.8648 12.1607C13.8918 12.2277 13.9319 12.2886 13.9827 12.34C14.0334 12.3914 14.0939 12.4322 14.1606 12.4601C14.2272 12.4879 14.2988 12.5022 14.371 12.5022C14.4432 12.5022 14.5148 12.4879 14.5814 12.4601C14.6481 12.4322 14.7086 12.3914 14.7593 12.34C14.8101 12.2886 14.8502 12.2277 14.8772 12.1607C14.9043 12.0937 14.9178 12.022 14.9169 11.9498C14.9178 11.4008 15.1365 10.8745 15.5249 10.4865C15.9133 10.0985 16.4398 9.88044 16.9888 9.88009C17.1324 9.87837 17.2696 9.8201 17.3706 9.71791C17.4716 9.61572 17.5282 9.47785 17.5282 9.33419C17.5282 9.19053 17.4716 9.05266 17.3706 8.95047C17.2696 8.84828 17.1324 8.79001 16.9888 8.78829C16.4395 8.7877 15.9129 8.56923 15.5244 8.18082C15.136 7.79242 14.9175 7.2658 14.9169 6.7165C14.9178 6.64426 14.9043 6.57257 14.8772 6.50558C14.8502 6.43859 14.8101 6.37764 14.7593 6.32625C14.7086 6.27486 14.6481 6.23406 14.5814 6.20621C14.5148 6.17837 14.4432 6.16403 14.371 6.16403C14.2988 6.16403 14.2272 6.17837 14.1606 6.20621C14.0939 6.23406 14.0334 6.27486 13.9827 6.32625C13.9319 6.37764 13.8918 6.43859 13.8648 6.50558C13.8377 6.57257 13.8242 6.64426 13.8251 6.7165C13.8248 7.26549 13.6067 7.79194 13.2187 8.18034C12.8307 8.56874 12.3045 8.78738 11.7555 8.78829C11.6833 8.78743 11.6116 8.80091 11.5446 8.82796C11.4776 8.85501 11.4166 8.89508 11.3652 8.94586C11.3139 8.99663 11.2731 9.0571 11.2452 9.12376C11.2174 9.19043 11.203 9.26195 11.203 9.33419C11.203 9.40644 11.2174 9.47796 11.2452 9.54462C11.2731 9.61128 11.3139 9.67175 11.3652 9.72253C11.4166 9.77331 11.4776 9.81338 11.5446 9.84043C11.6116 9.86747 11.6833 9.88096 11.7555 9.88009ZM14.3712 8.49158C14.5966 8.82296 14.8824 9.10889 15.2137 9.33439C14.8825 9.55957 14.5966 9.84518 14.3712 10.1763C14.146 9.8452 13.8604 9.55959 13.5293 9.33439C13.8604 9.10887 14.1461 8.82294 14.3712 8.49158ZM35.5471 7.60126V2.80751C35.5471 2.66272 35.4896 2.52386 35.3872 2.42148C35.2849 2.3191 35.146 2.26158 35.0012 2.26158C34.8564 2.26158 34.7175 2.3191 34.6152 2.42148C34.5128 2.52386 34.4553 2.66272 34.4553 2.80751V7.60126C34.1091 7.71617 33.8079 7.9372 33.5944 8.23299C33.3809 8.52877 33.266 8.88427 33.266 9.24904C33.266 9.61381 33.3809 9.96931 33.5944 10.2651C33.8079 10.5609 34.1091 10.7819 34.4553 10.8968V11.7682C34.4553 11.913 34.5128 12.0519 34.6152 12.1543C34.7175 12.2566 34.8564 12.3142 35.0012 12.3142C35.146 12.3142 35.2849 12.2566 35.3872 12.1543C35.4896 12.0519 35.5471 11.913 35.5471 11.7682V10.8969C35.8933 10.782 36.1945 10.5609 36.408 10.2652C36.6215 9.96939 36.7364 9.61388 36.7364 9.24912C36.7364 8.88435 36.6215 8.52884 36.408 8.23306C36.1945 7.93728 35.8933 7.71617 35.5471 7.60126ZM35.0012 9.89345C34.8736 9.89368 34.7489 9.85605 34.6427 9.78532C34.5365 9.71459 34.4537 9.61395 34.4048 9.49613C34.3559 9.37832 34.343 9.24863 34.3678 9.1235C34.3926 8.99836 34.454 8.88341 34.5443 8.7932C34.6345 8.70298 34.7494 8.64157 34.8745 8.61673C34.9997 8.59189 35.1293 8.60474 35.2472 8.65365C35.365 8.70257 35.4656 8.78535 35.5364 8.89151C35.6071 8.99767 35.6448 9.12244 35.6446 9.25001C35.6444 9.42067 35.5765 9.58428 35.4558 9.70492C35.3351 9.82556 35.1715 9.89337 35.0008 9.89345H35.0012Z" fill="#A8D5BA"/>
</g>
<defs>
<clipPath id="clip0_37_573">
<rect width="40" height="40" fill="white" transform="translate(0.164062 0.248413)"/>
</clipPath>
</defs>
</svg>
