<svg width="41" height="41" viewBox="0 0 41 41" fill="none" xmlns="http://www.w3.org/2000/svg">
<path d="M6.80469 6.89502C7.49504 6.89502 8.05469 6.33538 8.05469 5.64502C8.05469 4.95466 7.49504 4.39502 6.80469 4.39502C6.11433 4.39502 5.55469 4.95466 5.55469 5.64502C5.55469 6.33538 6.11433 6.89502 6.80469 6.89502Z" fill="#A8D5BA"/>
<path d="M11.8047 6.89502C12.495 6.89502 13.0547 6.33538 13.0547 5.64502C13.0547 4.95466 12.495 4.39502 11.8047 4.39502C11.1143 4.39502 10.5547 4.95466 10.5547 5.64502C10.5547 6.33538 11.1143 6.89502 11.8047 6.89502Z" fill="#A8D5BA"/>
<path d="M16.8047 6.89502C17.495 6.89502 18.0547 6.33538 18.0547 5.64502C18.0547 4.95466 17.495 4.39502 16.8047 4.39502C16.1143 4.39502 15.5547 4.95466 15.5547 5.64502C15.5547 6.33538 16.1143 6.89502 16.8047 6.89502Z" fill="#A8D5BA"/>
<path d="M9.30469 20.2358C10.0813 20.2358 10.7109 19.6062 10.7109 18.8296C10.7109 18.0529 10.0813 17.4233 9.30469 17.4233C8.52804 17.4233 7.89844 18.0529 7.89844 18.8296C7.89844 19.6062 8.52804 20.2358 9.30469 20.2358Z" fill="#A8D5BA"/>
<path d="M36.6484 0.478027H4.46094C2.30703 0.478027 0.554688 2.23037 0.554688 4.38428V36.5718C0.554688 38.7257 2.30703 40.478 4.46094 40.478H36.6484C38.8023 40.478 40.5547 38.7257 40.5547 36.5718V4.38428C40.5547 2.23037 38.8023 0.478027 36.6484 0.478027ZM4.46094 2.04053H36.6484C37.9408 2.04053 38.9922 3.09193 38.9922 4.38428V9.22803H2.11719V4.38428C2.11719 3.09193 3.16859 2.04053 4.46094 2.04053ZM36.6484 38.9155H4.46094C3.16859 38.9155 2.11719 37.8641 2.11719 36.5718V10.7905H38.9922V36.5718C38.9922 37.8641 37.9408 38.9155 36.6484 38.9155Z" fill="#A8D5BA"/>
<path d="M9.30469 14.2983C6.80617 14.2983 4.77344 16.3311 4.77344 18.8296C4.77344 21.3281 6.80617 23.3608 9.30469 23.3608C11.8032 23.3608 13.8359 21.3281 13.8359 18.8296C13.8359 16.3311 11.8032 14.2983 9.30469 14.2983ZM9.30469 21.7983C7.66773 21.7983 6.33594 20.4665 6.33594 18.8296C6.33594 17.1926 7.66773 15.8608 9.30469 15.8608C10.9416 15.8608 12.2734 17.1926 12.2734 18.8296C12.2734 20.4665 10.9416 21.7983 9.30469 21.7983Z" fill="#A8D5BA"/>
<path d="M35.5547 15.939H16.8047C16.3733 15.939 16.0234 16.2887 16.0234 16.7202C16.0234 17.1517 16.3733 17.5015 16.8047 17.5015H22.9779C22.9795 17.5069 22.9807 17.5124 22.9823 17.5178L23.8007 20.1577H16.8047C16.3733 20.1577 16.0234 20.5075 16.0234 20.939C16.0234 21.3704 16.3733 21.7202 16.8047 21.7202H24.2851L25.1084 24.3763C25.2369 24.7904 25.5648 25.0998 25.9857 25.2039C26.4064 25.3079 26.8408 25.1871 27.1475 24.8804L27.6952 24.3328L29.6942 26.3319C29.9334 26.5709 30.2474 26.6904 30.5616 26.6904C30.8757 26.6904 31.1898 26.5709 31.429 26.3319L33.3314 24.4295C33.5631 24.1978 33.6907 23.8897 33.6907 23.5621C33.6907 23.2344 33.563 22.9263 33.3314 22.6947L31.3323 20.6957L31.8801 20.148C32.1866 19.8415 32.3076 19.4072 32.2035 18.9862C32.0995 18.5653 31.7901 18.2374 31.376 18.109C31.3759 18.109 31.3759 18.109 31.3759 18.109L29.4161 17.5015H35.5547C35.9861 17.5015 36.3359 17.1517 36.3359 16.7202C36.3359 16.2887 35.9861 15.939 35.5547 15.939ZM29.6748 21.2482L31.9887 23.5621L30.5613 24.9895L28.2474 22.6755C28.0948 22.5229 27.8949 22.4467 27.695 22.4467C27.4951 22.4467 27.2952 22.5229 27.1426 22.6755L26.436 23.3821L24.6635 17.6642L30.3814 19.4367L29.6748 20.1433C29.3698 20.4484 29.3698 20.9431 29.6748 21.2482Z" fill="#A8D5BA"/>
<path d="M9.30469 27.1863C6.80617 27.1863 4.77344 29.219 4.77344 31.7175C4.77344 34.216 6.80617 36.2488 9.30469 36.2488C11.8032 36.2488 13.8359 34.216 13.8359 31.7175C13.8359 29.219 11.8032 27.1863 9.30469 27.1863ZM9.30469 34.6863C7.66773 34.6863 6.33594 33.3545 6.33594 31.7175C6.33594 30.0806 7.66773 28.7488 9.30469 28.7488C10.9416 28.7488 12.2734 30.0806 12.2734 31.7175C12.2734 33.3545 10.9416 34.6863 9.30469 34.6863Z" fill="#A8D5BA"/>
<path d="M35.5547 28.8269H16.8047C16.3733 28.8269 16.0234 29.1767 16.0234 29.6082C16.0234 30.0396 16.3733 30.3894 16.8047 30.3894H35.5547C35.9861 30.3894 36.3359 30.0396 36.3359 29.6082C36.3359 29.1767 35.9861 28.8269 35.5547 28.8269Z" fill="#A8D5BA"/>
<path d="M27.5902 33.0457H16.8047C16.3733 33.0457 16.0234 33.3954 16.0234 33.8269C16.0234 34.2584 16.3733 34.6082 16.8047 34.6082H27.5902C28.0216 34.6082 28.3714 34.2584 28.3714 33.8269C28.3714 33.3954 28.0216 33.0457 27.5902 33.0457Z" fill="#A8D5BA"/>
</svg>
