<svg width="81" height="81" viewBox="0 0 81 81" fill="none" xmlns="http://www.w3.org/2000/svg">
<rect x="0.363281" y="0.809082" width="80" height="80" rx="15" fill="#03A9F4" fill-opacity="0.1"/>
<g clip-path="url(#clip0_37_1097)">
<path d="M55.3706 48.6638C55.3589 48.6672 55.3472 48.671 55.3355 48.675L43.1862 52.9489C42.9477 51.7824 42.2619 50.5971 41.0519 50.0583L32.8438 46.3895C30.8433 45.4967 29.1194 45.8459 27.6964 46.3054L22.6085 47.9525L22.372 47.1437C22.2577 46.7535 21.9931 46.4246 21.6364 46.2295C21.2797 46.0343 20.86 45.9888 20.4698 46.1031L16.4681 47.274C16.0781 47.3885 15.7493 47.6529 15.5538 48.0092C15.3583 48.3656 15.3118 48.7849 15.4247 49.1753L19.7098 63.8238C19.8236 64.2142 20.0879 64.5435 20.4445 64.7392C20.8011 64.9348 21.2208 64.9809 21.6113 64.8672L25.6195 63.6954C26.0084 63.5801 26.3358 63.3155 26.5302 62.9594C26.7245 62.6034 26.7699 62.1849 26.6564 61.7955L26.3399 60.7139L27.8829 60.3092L34.9411 62.8908C36.0004 63.2776 37.1028 63.629 38.2295 63.629C38.9973 63.6342 39.755 63.454 40.4383 63.1038L56.1487 55.0754C56.1539 55.0728 56.1592 55.0701 56.1643 55.0672C56.3049 54.9908 56.452 54.9157 56.608 54.836C57.8031 54.2257 59.6093 53.3034 58.8849 50.8293C58.4102 49.2076 56.8338 48.2369 55.3706 48.6638ZM25.3329 62.3049C25.312 62.344 25.2766 62.3733 25.2343 62.3865L21.2304 63.5572C21.1873 63.5689 21.1414 63.5634 21.1023 63.542C21.0632 63.5206 21.0339 63.4849 21.0206 63.4423L16.7356 48.7939C16.7236 48.7506 16.7291 48.7043 16.751 48.6651C16.7716 48.6264 16.8067 48.5975 16.8486 48.5846L16.8501 48.5841L20.8554 47.4123C20.87 47.408 20.8851 47.4058 20.9004 47.4058C20.9287 47.4061 20.9565 47.4133 20.9813 47.4269C21.0005 47.4372 21.0175 47.4512 21.0312 47.4681C21.0449 47.485 21.0552 47.5045 21.0613 47.5253L25.3474 62.1806C25.3535 62.2012 25.3553 62.2229 25.3528 62.2443C25.3503 62.2656 25.3435 62.2862 25.3329 62.3049ZM55.9884 53.6205C55.8341 53.6993 55.6747 53.7807 55.5208 53.8646L39.8186 61.8881C38.5399 62.5395 37.2825 62.2925 35.4103 61.6088L28.1516 58.9537C28.021 58.9058 27.8788 58.899 27.7441 58.9341L25.957 59.4029L22.9912 49.2623L28.1158 47.6034C29.8053 47.0578 31.0141 47.0671 32.2868 47.6351L40.4956 51.3035C41.3307 51.6757 41.9157 52.7349 41.9182 53.8792C41.9182 53.8822 41.9187 53.8851 41.9187 53.888C41.9187 53.891 41.9182 53.8946 41.9182 53.8978C41.918 54.2253 41.8589 54.55 41.7437 54.8566C41.2045 56.2801 39.8101 56.3312 38.7792 55.9433L33.254 53.8706C33.1701 53.8391 33.0808 53.8244 32.9913 53.8274C32.9017 53.8305 32.8136 53.8511 32.732 53.8881C32.6504 53.9252 32.577 53.978 32.5158 54.0434C32.4546 54.1089 32.4069 54.1858 32.3754 54.2697C32.3439 54.3536 32.3292 54.4429 32.3323 54.5324C32.3353 54.622 32.3559 54.7101 32.393 54.7916C32.43 54.8732 32.4828 54.9467 32.5483 55.0079C32.6137 55.0691 32.6906 55.1168 32.7745 55.1483L38.2993 57.2215C38.7999 57.4152 39.3314 57.5169 39.8682 57.5216C41.2926 57.5216 42.4921 56.7356 43.02 55.3422C43.1383 55.0298 43.217 54.7038 43.2544 54.3718L55.7689 49.9693C56.4944 49.7688 57.3185 50.3345 57.5756 51.2128C57.9643 52.5402 57.2986 52.9512 55.9884 53.6205ZM41.0255 29.7435C39.2579 30.0117 37.6705 30.8568 36.3818 32.2284C34.949 33.7531 33.9656 35.8782 33.6129 38.212L33.2391 40.681C33.1484 41.2306 33.1812 41.7935 33.3354 42.3288C33.4895 42.8641 33.761 43.3583 34.1302 43.7754C35.9045 45.8381 42.3737 45.9993 44.3238 45.9993H44.3293C45.7619 45.9993 52.9999 45.8909 54.8195 43.7761C55.1888 43.359 55.4605 42.8648 55.6147 42.3294C55.769 41.7941 55.8019 41.2311 55.7111 40.6814L55.3375 38.2122C54.9848 35.8782 54.0013 33.7531 52.5684 32.2284C51.2799 30.8573 49.6925 30.0116 47.9249 29.7435C48.2322 29.4883 48.5146 29.2045 48.7684 28.896C49.9903 27.4126 50.6361 25.3218 50.6361 22.8501C50.6361 21.2162 49.987 19.6491 48.8316 18.4937C47.6762 17.3383 46.1092 16.6892 44.4752 16.6892C42.8412 16.6892 41.2741 17.3383 40.1187 18.4937C38.9633 19.6491 38.3142 21.2162 38.3142 22.8501C38.3142 25.322 38.96 27.4126 40.1819 28.896C40.4355 29.2047 40.7179 29.4886 41.0251 29.7439L41.0255 29.7435ZM53.9876 38.4166L54.3614 40.8864C54.4223 41.2414 54.4021 41.6055 54.3024 41.9516C54.2028 42.2977 54.0261 42.6168 53.7857 42.885L53.785 42.8859C53.0384 43.7543 49.5505 44.6339 44.3287 44.6347H44.3221C39.816 44.6347 36.0506 43.9157 35.1639 42.8849C34.9234 42.6167 34.7466 42.2976 34.6468 41.9514C34.5471 41.6053 34.5268 41.2411 34.5877 40.886L34.962 38.4166C35.5186 34.7329 37.9947 31.0159 42.2712 31.0159H46.6784C50.9548 31.0158 53.4307 34.7328 53.9876 38.4166ZM44.4747 18.0543C45.7462 18.0558 46.9653 18.5615 47.8644 19.4605C48.7636 20.3596 49.2694 21.5786 49.271 22.8501C49.271 27.5225 46.7848 29.6505 44.4748 29.6505C42.1648 29.6505 39.6786 27.5229 39.6786 22.8501C39.6802 21.5786 40.186 20.3597 41.0851 19.4606C41.9842 18.5616 43.2032 18.0558 44.4747 18.0543ZM20.0223 49.5713C20.0451 49.6586 20.0504 49.7496 20.0379 49.839C20.0253 49.9284 19.9952 50.0144 19.9492 50.092C19.9032 50.1697 19.8422 50.2374 19.7698 50.2913C19.6975 50.3453 19.6151 50.3843 19.5276 50.4062C19.44 50.4281 19.349 50.4324 19.2597 50.4188C19.1705 50.4053 19.0848 50.3742 19.0077 50.3273C18.9306 50.2805 18.8635 50.2188 18.8104 50.1458C18.7573 50.0729 18.7191 49.9901 18.6982 49.9023L18.6955 49.8912C18.6738 49.8042 18.6694 49.7139 18.6826 49.6252C18.6958 49.5366 18.7263 49.4514 18.7724 49.3746C18.8185 49.2978 18.8793 49.2308 18.9513 49.1774C19.0233 49.1241 19.1051 49.0854 19.1921 49.0637C19.279 49.042 19.3694 49.0376 19.458 49.0508C19.5466 49.064 19.6318 49.0945 19.7086 49.1406C19.7855 49.1868 19.8525 49.2475 19.9058 49.3196C19.9592 49.3916 19.9978 49.4734 20.0195 49.5603L20.0223 49.5713ZM53.9412 24.3052V30.2086C53.9433 30.3882 54.0162 30.5597 54.1439 30.6859C54.2717 30.8121 54.444 30.8829 54.6236 30.8829C54.8031 30.8829 54.9755 30.8121 55.1032 30.6859C55.231 30.5597 55.3038 30.3882 55.3059 30.2086V24.3052C55.7389 24.1621 56.1157 23.8862 56.3827 23.5166C56.6498 23.1471 56.7936 22.7027 56.7936 22.2468C56.7936 21.7908 56.6498 21.3465 56.3827 20.9769C56.1157 20.6074 55.7389 20.3314 55.3059 20.1883V19.008C55.3038 18.8284 55.231 18.6569 55.1032 18.5307C54.9755 18.4045 54.8031 18.3337 54.6236 18.3337C54.444 18.3337 54.2717 18.4045 54.1439 18.5307C54.0162 18.6569 53.9433 18.8284 53.9412 19.008V20.1885C53.5083 20.3316 53.1315 20.6076 52.8644 20.9771C52.5973 21.3467 52.4536 21.791 52.4536 22.247C52.4536 22.7029 52.5973 23.1473 52.8644 23.5168C53.1315 23.8864 53.5083 24.1623 53.9412 24.3054V24.3052ZM54.6235 21.4425C54.7826 21.4425 54.9381 21.4897 55.0704 21.578C55.2027 21.6664 55.3058 21.792 55.3667 21.939C55.4276 22.0859 55.4435 22.2477 55.4125 22.4037C55.3815 22.5597 55.3049 22.703 55.1924 22.8155C55.0799 22.928 54.9366 23.0046 54.7806 23.0357C54.6245 23.0667 54.4628 23.0508 54.3159 22.9899C54.1689 22.929 54.0433 22.8259 53.9549 22.6937C53.8665 22.5614 53.8193 22.4059 53.8193 22.2468C53.8196 22.0336 53.9045 21.8293 54.0552 21.6785C54.206 21.5278 54.4103 21.443 54.6235 21.4427V21.4425ZM25.196 34.7862C25.716 34.7868 26.2145 34.9936 26.5822 35.3613C26.9499 35.729 27.1567 36.2276 27.1573 36.7476C27.1573 36.9286 27.2292 37.1022 27.3572 37.2302C27.4852 37.3581 27.6587 37.43 27.8397 37.43C28.0207 37.43 28.1943 37.3581 28.3223 37.2302C28.4503 37.1022 28.5222 36.9286 28.5222 36.7476C28.5227 36.2276 28.7295 35.729 29.0972 35.3613C29.4649 34.9936 29.9635 34.7868 30.4835 34.7862C30.5738 34.7873 30.6634 34.7704 30.7471 34.7366C30.8309 34.7028 30.9071 34.6527 30.9713 34.5892C31.0355 34.5258 31.0865 34.4502 31.1213 34.3668C31.1561 34.2835 31.1741 34.1941 31.1741 34.1038C31.1741 34.0135 31.1561 33.9241 31.1213 33.8408C31.0865 33.7574 31.0355 33.6819 30.9713 33.6184C30.9071 33.5549 30.8309 33.5048 30.7471 33.471C30.6634 33.4372 30.5738 33.4204 30.4835 33.4214C29.9635 33.4209 29.4649 33.214 29.0972 32.8463C28.7295 32.4786 28.5227 31.9801 28.5222 31.4601C28.5222 31.2791 28.4503 31.1055 28.3223 30.9776C28.1943 30.8496 28.0207 30.7777 27.8397 30.7777C27.6587 30.7777 27.4852 30.8496 27.3572 30.9776C27.2292 31.1055 27.1573 31.2791 27.1573 31.4601C27.1567 31.9801 26.9499 32.4786 26.5822 32.8463C26.2145 33.214 25.716 33.4208 25.196 33.4214C25.1057 33.4204 25.0161 33.4372 24.9323 33.471C24.8486 33.5048 24.7724 33.5549 24.7082 33.6184C24.6439 33.6819 24.5929 33.7574 24.5581 33.8408C24.5233 33.9241 24.5054 34.0135 24.5054 34.1038C24.5054 34.1941 24.5233 34.2835 24.5581 34.3668C24.5929 34.4502 24.6439 34.5258 24.7082 34.5892C24.7724 34.6527 24.8486 34.7028 24.9323 34.7366C25.0161 34.7704 25.1057 34.7873 25.196 34.7862ZM27.8397 33.4764C28.0202 33.7124 28.2312 33.9234 28.4672 34.1039C28.2311 34.2843 28.0201 34.4953 27.8397 34.7314C27.6593 34.4953 27.4483 34.2843 27.2122 34.1039C27.4482 33.9234 27.6593 33.7124 27.8397 33.4764ZM63.8768 20.9886V19.008C63.8768 18.827 63.8049 18.6534 63.677 18.5254C63.549 18.3974 63.3754 18.3255 63.1944 18.3255C63.0134 18.3255 62.8399 18.3974 62.7119 18.5254C62.5839 18.6534 62.512 18.827 62.512 19.008V20.9886C62.0791 21.1317 61.7023 21.4077 61.4352 21.7772C61.1681 22.1468 61.0244 22.5911 61.0244 23.0471C61.0244 23.503 61.1681 23.9474 61.4352 24.3169C61.7023 24.6865 62.0791 24.9624 62.512 25.1055V30.2088C62.512 30.3898 62.5839 30.5634 62.7119 30.6914C62.8399 30.8194 63.0134 30.8913 63.1944 30.8913C63.3754 30.8913 63.549 30.8194 63.677 30.6914C63.8049 30.5634 63.8768 30.3898 63.8768 30.2088V25.1054C64.3097 24.9623 64.6865 24.6864 64.9535 24.3168C65.2206 23.9473 65.3643 23.503 65.3643 23.047C65.3643 22.5911 65.2206 22.1468 64.9535 21.7772C64.6865 21.4077 64.3097 21.1317 63.8768 20.9886ZM63.1944 23.8513C63.0353 23.8513 62.8798 23.8042 62.7475 23.7158C62.6153 23.6274 62.5122 23.5018 62.4513 23.3549C62.3904 23.2079 62.3744 23.0462 62.4055 22.8901C62.4365 22.7341 62.5131 22.5908 62.6256 22.4783C62.7381 22.3658 62.8814 22.2892 63.0374 22.2582C63.1935 22.2271 63.3552 22.2431 63.5022 22.304C63.6491 22.3649 63.7747 22.468 63.8631 22.6002C63.9515 22.7325 63.9986 22.888 63.9986 23.0471C63.9983 23.2603 63.9135 23.4647 63.7628 23.6155C63.612 23.7662 63.4076 23.851 63.1944 23.8513ZM29.8523 27.8487C30.5382 27.8495 31.1958 28.1223 31.6808 28.6073C32.1658 29.0923 32.4386 29.7499 32.4393 30.4358C32.4383 30.5261 32.4551 30.6157 32.4889 30.6994C32.5227 30.7832 32.5728 30.8594 32.6363 30.9236C32.6998 30.9878 32.7754 31.0388 32.8587 31.0736C32.942 31.1085 33.0314 31.1264 33.1217 31.1264C33.212 31.1264 33.3014 31.1085 33.3848 31.0736C33.4681 31.0388 33.5437 30.9878 33.6071 30.9236C33.6706 30.8594 33.7207 30.7832 33.7545 30.6994C33.7883 30.6157 33.8052 30.5261 33.8041 30.4358C33.8053 29.7495 34.0786 29.0918 34.5641 28.6067C35.0496 28.1217 35.7077 27.8491 36.3939 27.8487C36.5735 27.8465 36.745 27.7737 36.8712 27.646C36.9974 27.5182 37.0682 27.3459 37.0682 27.1663C37.0682 26.9867 36.9974 26.8144 36.8712 26.6867C36.745 26.5589 36.5735 26.4861 36.3939 26.4839C35.7073 26.4832 35.049 26.2101 34.5635 25.7246C34.078 25.2391 33.8049 24.5808 33.8041 23.8942C33.8052 23.8039 33.7883 23.7143 33.7545 23.6305C33.7207 23.5468 33.6706 23.4706 33.6071 23.4064C33.5437 23.3421 33.4681 23.2911 33.3848 23.2563C33.3014 23.2215 33.212 23.2036 33.1217 23.2036C33.0314 23.2036 32.942 23.2215 32.8587 23.2563C32.7754 23.2911 32.6998 23.3421 32.6363 23.4064C32.5728 23.4706 32.5227 23.5468 32.4889 23.6305C32.4551 23.7143 32.4383 23.8039 32.4393 23.8942C32.4389 24.5804 32.1663 25.2385 31.6813 25.724C31.1963 26.2095 30.5386 26.4828 29.8523 26.4839C29.762 26.4829 29.6724 26.4997 29.5887 26.5335C29.5049 26.5673 29.4288 26.6174 29.3645 26.6809C29.3003 26.7444 29.2493 26.8199 29.2145 26.9033C29.1797 26.9866 29.1617 27.076 29.1617 27.1663C29.1617 27.2566 29.1797 27.346 29.2145 27.4293C29.2493 27.5127 29.3003 27.5883 29.3645 27.6517C29.4288 27.7152 29.5049 27.7653 29.5887 27.7991C29.6724 27.8329 29.762 27.8498 29.8523 27.8487ZM33.122 26.113C33.4037 26.5273 33.761 26.8847 34.1751 27.1666C33.761 27.448 33.4037 27.805 33.122 28.2189C32.8405 27.8051 32.4834 27.4481 32.0696 27.1666C32.4835 26.8847 32.8405 26.5272 33.122 26.113ZM59.5919 25.0001V19.008C59.5919 18.827 59.52 18.6534 59.392 18.5254C59.264 18.3974 59.0905 18.3255 58.9095 18.3255C58.7285 18.3255 58.5549 18.3974 58.4269 18.5254C58.2989 18.6534 58.227 18.827 58.227 19.008V25.0001C57.7943 25.1438 57.4178 25.4201 57.1509 25.7898C56.8841 26.1595 56.7405 26.6039 56.7405 27.0599C56.7405 27.5158 56.8841 27.9602 57.1509 28.3299C57.4178 28.6997 57.7943 28.9759 58.227 29.1196V30.2088C58.227 30.3898 58.2989 30.5634 58.4269 30.6914C58.5549 30.8194 58.7285 30.8913 58.9095 30.8913C59.0905 30.8913 59.264 30.8194 59.392 30.6914C59.52 30.5634 59.5919 30.3898 59.5919 30.2088V29.1197C60.0246 28.976 60.4011 28.6997 60.668 28.33C60.9348 27.9603 61.0784 27.5159 61.0784 27.06C61.0784 26.604 60.9348 26.1596 60.668 25.7899C60.4011 25.4202 60.0246 25.1438 59.5919 25.0001ZM58.9095 27.8654C58.75 27.8657 58.594 27.8186 58.4613 27.7302C58.3286 27.6418 58.2251 27.516 58.164 27.3687C58.1028 27.2215 58.0867 27.0594 58.1177 26.9029C58.1488 26.7465 58.2255 26.6028 58.3383 26.4901C58.451 26.3773 58.5947 26.3005 58.7511 26.2695C58.9075 26.2384 59.0696 26.2545 59.2169 26.3156C59.3642 26.3768 59.49 26.4803 59.5784 26.613C59.6669 26.7457 59.7139 26.9016 59.7137 27.0611C59.7135 27.2744 59.6286 27.4789 59.4777 27.6297C59.3268 27.7805 59.1223 27.8653 58.909 27.8654H58.9095Z" fill="#03A9F4"/>
</g>
<defs>
<clipPath id="clip0_37_1097">
<rect width="50" height="50" fill="white" transform="translate(15.3633 15.8091)"/>
</clipPath>
</defs>
</svg>
