<svg width="41" height="41" viewBox="0 0 41 41" fill="none" xmlns="http://www.w3.org/2000/svg">
<path d="M3.75723 18.9311H5.41973C5.79779 19.4613 6.29706 19.8935 6.87596 20.1917C7.45487 20.49 8.09665 20.6455 8.74785 20.6455C9.39906 20.6455 10.0408 20.49 10.6197 20.1917C11.1986 19.8935 11.6979 19.4613 12.076 18.9311H13.7572C13.923 18.9311 14.082 18.8652 14.1992 18.748C14.3164 18.6308 14.3822 18.4718 14.3822 18.3061V15.3248C14.3839 13.9006 13.8405 12.5298 12.8635 11.4936V9.73731C12.8859 9.16691 12.7191 8.60508 12.389 8.13934C12.059 7.6736 11.5841 7.33009 11.0385 7.16231L10.1697 6.93731C9.23746 6.69375 8.25825 6.69375 7.32598 6.93731L6.45098 7.16231C5.90474 7.3299 5.42912 7.67315 5.09799 8.13878C4.76685 8.6044 4.59873 9.16634 4.61973 9.73731V11.5186C3.66198 12.555 3.12881 13.9136 3.12598 15.3248V18.3061C3.12597 18.3887 3.14234 18.4705 3.17414 18.5467C3.20594 18.6229 3.25254 18.6921 3.31124 18.7502C3.36994 18.8083 3.43958 18.8543 3.51613 18.8853C3.59268 18.9163 3.67463 18.9319 3.75723 18.9311ZM8.75723 19.3936C8.29711 19.3952 7.84347 19.2851 7.43525 19.0729C7.02702 18.8606 6.6764 18.5524 6.41348 18.1748C6.40276 18.1104 6.37939 18.0488 6.34473 17.9936C6.27331 17.8581 6.21068 17.7183 6.15723 17.5748C6.29056 17.5748 6.42181 17.5748 6.55098 17.5748H6.61348C7.54013 17.5375 8.43335 17.2184 9.17379 16.66C9.91424 16.1016 10.4667 15.3305 10.7572 14.4498C11.169 14.8472 11.4528 15.3584 11.5723 15.9179C11.6919 16.4775 11.6417 17.0601 11.4283 17.591C11.2148 18.1219 10.8478 18.577 10.3742 18.8982C9.9006 19.2193 9.34194 19.3918 8.76973 19.3936H8.75723ZM5.87598 9.73731C5.85765 9.44327 5.93557 9.15126 6.09795 8.90544C6.26033 8.65962 6.49833 8.47335 6.77598 8.37481L7.64473 8.14356C8.00834 8.05135 8.3821 8.00515 8.75723 8.00606C9.13033 8.00454 9.5021 8.05075 9.86348 8.14356L10.726 8.37481C11.0013 8.4755 11.2366 8.66268 11.3966 8.90831C11.5566 9.15394 11.6327 9.4448 11.6135 9.73731V10.4811L11.4635 10.4061C11.3885 10.3623 11.3135 10.3186 11.2322 10.2811L10.8635 10.1186L10.6385 10.0248L10.2197 9.89981L10.0197 9.84356C9.81365 9.79444 9.60499 9.75688 9.39473 9.73106C9.18658 9.71871 8.97788 9.71871 8.76973 9.73106C8.48926 9.727 8.20898 9.74791 7.93223 9.79356H7.86348C7.60129 9.83331 7.3423 9.89179 7.08848 9.96856H7.01973C6.77618 10.0487 6.53817 10.1447 6.30723 10.2561C6.1658 10.3236 6.0281 10.3987 5.89473 10.4811L5.87598 9.73731ZM4.38223 15.3248C4.38067 14.6179 4.55043 13.9212 4.87697 13.2942C5.20351 12.6673 5.67711 12.1288 6.25723 11.7248C7.11822 11.1124 8.17743 10.8448 9.22598 10.9748C9.76354 11.0323 10.2853 11.1914 10.7635 11.4436C10.9212 11.5255 11.0736 11.6173 11.2197 11.7186C11.4446 11.8659 11.654 12.0355 11.8447 12.2248C12.251 12.6311 12.5732 13.1134 12.7931 13.6443C13.0129 14.1751 13.126 14.744 13.126 15.3186V17.6748H12.751C12.8654 17.2978 12.9243 16.9062 12.926 16.5123C12.9284 15.7371 12.7113 14.9771 12.2999 14.3201C11.8884 13.6632 11.2994 13.1361 10.601 12.7998C10.5066 12.7577 10.4043 12.7363 10.301 12.7373C10.2637 12.7311 10.2257 12.7311 10.1885 12.7373H10.1385C10.0851 12.7489 10.0343 12.7701 9.98848 12.7998C9.89859 12.8483 9.82197 12.9181 9.76531 13.0031C9.70866 13.0881 9.67369 13.1857 9.66348 13.2873C9.64577 13.4983 9.61022 13.7074 9.55723 13.9123C9.39282 14.4814 9.08071 14.9969 8.65259 15.4064C8.22447 15.8158 7.69561 16.1047 7.11973 16.2436C6.91466 16.2916 6.70527 16.3189 6.49473 16.3248H6.16973C5.94485 16.3085 5.72257 16.2666 5.50723 16.1998C5.44508 16.1904 5.38187 16.1904 5.31973 16.1998C5.27201 16.1937 5.2237 16.1937 5.17598 16.1998H5.08848C5.00065 16.2256 4.91958 16.2704 4.85098 16.3311C4.77962 16.395 4.72391 16.4744 4.68815 16.5633C4.65239 16.6522 4.63753 16.748 4.64473 16.8436C4.65591 16.9906 4.67679 17.1368 4.70723 17.2811C4.73848 17.3436 4.73848 17.4186 4.73848 17.4186C4.73848 17.4186 4.77598 17.5811 4.80098 17.6561H4.38223V15.3248Z" fill="#A8D5BA"/>
<path d="M20.3634 25.1247C21.4476 25.1308 22.5092 24.8146 23.4133 24.2161C24.3175 23.6175 25.0232 22.7637 25.441 21.7632C25.8588 20.7626 25.9697 19.6605 25.7597 18.5967C25.5497 17.533 25.0282 16.5557 24.2615 15.789C23.4948 15.0223 22.5175 14.5008 21.4538 14.2908C20.3901 14.0808 19.2879 14.1917 18.2873 14.6095C17.2868 15.0273 16.433 15.7331 15.8345 16.6372C15.236 17.5413 14.9197 18.6029 14.9259 19.6872C14.9357 21.1262 15.5117 22.5036 16.5293 23.5212C17.5469 24.5388 18.9243 25.1148 20.3634 25.1247ZM20.3634 23.8747C19.3698 23.8716 18.4095 23.5163 17.6532 22.8721C16.8968 22.2278 16.3933 21.3363 16.2321 20.3559H16.2946C17.342 20.345 18.3774 20.1329 19.3446 19.7309C20.1859 19.3945 20.9448 18.8808 21.5696 18.2247C22.3221 19.1833 23.3701 19.8666 24.5509 20.1684C24.4232 21.1898 23.9275 22.1297 23.1566 22.8119C22.3858 23.4941 21.3927 23.872 20.3634 23.8747ZM20.3634 15.4372C21.3449 15.439 22.2957 15.7796 23.0552 16.4013C23.8147 17.0231 24.3364 17.8879 24.5321 18.8497C24.0304 18.7073 23.5647 18.4598 23.1659 18.1236C22.7672 17.7874 22.4446 17.3702 22.2196 16.8997C22.1784 16.7825 22.1032 16.6802 22.0036 16.606C21.904 16.5317 21.7845 16.4888 21.6604 16.4828C21.5363 16.4768 21.4132 16.5079 21.3069 16.5721C21.2006 16.6363 21.1158 16.7308 21.0634 16.8434C20.5529 17.6597 19.7789 18.2771 18.8696 18.5934C18.0284 18.9363 17.128 19.1104 16.2196 19.1059C16.3509 18.0971 16.8428 17.1699 17.6045 16.4956C18.3661 15.8212 19.3461 15.4453 20.3634 15.4372Z" fill="#A8D5BA"/>
<path d="M25.8447 27.2122C24.6852 26.2823 23.2435 25.7752 21.7572 25.7747H18.9697C17.4812 25.7748 16.038 26.2867 14.8822 27.2247C14.5211 27.518 14.1903 27.8467 13.8947 28.2059C12.9733 29.362 12.471 30.7963 12.4697 32.2747V38.0434C12.4697 38.2092 12.5356 38.3681 12.6528 38.4854C12.77 38.6026 12.929 38.6684 13.0947 38.6684H27.6322C27.798 38.6684 27.957 38.6026 28.0742 38.4854C28.1914 38.3681 28.2572 38.2092 28.2572 38.0434V32.2747C28.2576 31.3044 28.0412 30.3463 27.6238 29.4704C27.2064 28.5945 26.5986 27.823 25.8447 27.2122ZM23.8197 32.5372C23.8206 32.5719 23.8144 32.6064 23.8015 32.6386C23.7886 32.6709 23.7693 32.7001 23.7448 32.7247C23.7202 32.7492 23.6909 32.7685 23.6587 32.7814C23.6264 32.7943 23.5919 32.8005 23.5572 32.7997C23.4876 32.7997 23.4208 32.772 23.3716 32.7228C23.3224 32.6735 23.2947 32.6068 23.2947 32.5372C23.2947 32.4675 23.3224 32.4008 23.3716 32.3515C23.4208 32.3023 23.4876 32.2747 23.5572 32.2747C23.5919 32.2738 23.6264 32.28 23.6587 32.2929C23.6909 32.3058 23.7202 32.3251 23.7448 32.3496C23.7693 32.3742 23.7886 32.4035 23.8015 32.4357C23.8144 32.4679 23.8206 32.5025 23.8197 32.5372ZM27.0072 37.4184H13.7197V32.2747C13.7184 31.0848 14.1217 29.93 14.8635 28.9997C15.1067 28.7065 15.3766 28.4366 15.6697 28.1934C16.0302 27.8998 16.4299 27.6579 16.8572 27.4747V29.5434C16.4265 29.6722 16.0487 29.9363 15.7797 30.2965C15.5107 30.6566 15.3648 31.0939 15.3635 31.5434V33.4184C15.3635 33.5842 15.4293 33.7431 15.5465 33.8603C15.6637 33.9776 15.8227 34.0434 15.9885 34.0434H16.551C16.7167 34.0517 16.879 33.9938 17.0021 33.8824C17.1251 33.7711 17.1989 33.6154 17.2072 33.4497C17.2155 33.2839 17.1576 33.1216 17.0463 32.9986C16.9349 32.8755 16.7792 32.8017 16.6135 32.7934V31.5434C16.6135 31.3163 16.7037 31.0985 16.8643 30.9379C17.0248 30.7774 17.2426 30.6872 17.4697 30.6872C17.6968 30.6872 17.9146 30.7774 18.0752 30.9379C18.2358 31.0985 18.326 31.3163 18.326 31.5434V32.7934C18.1602 32.7934 18.0012 32.8593 17.884 32.9765C17.7668 33.0937 17.701 33.2526 17.701 33.4184C17.701 33.5842 17.7668 33.7431 17.884 33.8603C18.0012 33.9776 18.1602 34.0434 18.326 34.0434H18.951C19.1167 34.0434 19.2757 33.9776 19.3929 33.8603C19.5101 33.7431 19.576 33.5842 19.576 33.4184V31.5434C19.5745 31.0957 19.43 30.6601 19.1636 30.3003C18.8971 29.9405 18.5226 29.6753 18.0947 29.5434V27.3309C18.0945 27.2532 18.0775 27.1764 18.0447 27.1059C18.3457 27.0507 18.6512 27.0235 18.9572 27.0247H21.7447C22.1662 27.0261 22.5859 27.0786 22.9947 27.1809C22.9465 27.2669 22.9207 27.3636 22.9197 27.4622V31.1684C22.605 31.3112 22.3487 31.5575 22.1934 31.8663C22.0382 32.175 21.9933 32.5277 22.0664 32.8655C22.1395 33.2033 22.326 33.5058 22.595 33.7229C22.8639 33.9399 23.1991 34.0582 23.5447 34.0582C23.8903 34.0582 24.2255 33.9399 24.4945 33.7229C24.7635 33.5058 24.95 33.2033 25.023 32.8655C25.0961 32.5277 25.0513 32.175 24.896 31.8663C24.7408 31.5575 24.4844 31.3112 24.1697 31.1684V27.6184C24.48 27.7777 24.7732 27.9683 25.0447 28.1872C25.6542 28.6797 26.1457 29.3025 26.4831 30.0098C26.8206 30.7171 26.9954 31.491 26.9947 32.2747L27.0072 37.4184Z" fill="#A8D5BA"/>
<path d="M31.6135 18.5997C32.6627 18.6046 33.6896 18.2977 34.564 17.7179C35.4383 17.1381 36.1207 16.3116 36.5245 15.3433C36.9282 14.375 37.0352 13.3085 36.8317 12.2793C36.6283 11.2501 36.1236 10.3046 35.3817 9.56271C34.6399 8.82087 33.6943 8.31618 32.6651 8.11271C31.6359 7.90925 30.5695 8.01619 29.6011 8.41996C28.6328 8.82372 27.8063 9.50611 27.2265 10.3805C26.6467 11.2549 26.3398 12.2818 26.3448 13.3309C26.353 14.7257 26.9107 16.0611 27.897 17.0474C28.8833 18.0337 30.2187 18.5914 31.6135 18.5997ZM31.6135 17.3497C30.6653 17.3474 29.7481 17.0109 29.0234 16.3993C28.2987 15.7878 27.8128 14.9403 27.651 14.0059H27.6885C28.6989 14.0002 29.6987 13.7986 30.6323 13.4122C31.4413 13.095 32.1709 12.6043 32.7698 11.9747C33.5029 12.8876 34.5149 13.5353 35.651 13.8184C35.5232 14.7976 35.0426 15.6965 34.2993 16.3467C33.556 16.9968 32.601 17.3534 31.6135 17.3497ZM31.6135 9.2934C32.5468 9.29465 33.4514 9.61622 34.1761 10.2044C34.9007 10.7925 35.4015 11.6116 35.5948 12.5247C35.1203 12.3837 34.6811 12.1437 34.3061 11.8205C33.9312 11.4973 33.6291 11.0982 33.4198 10.6497C33.3791 10.5326 33.3044 10.4302 33.2054 10.3556C33.1063 10.2811 32.9873 10.2377 32.8635 10.2309C32.7353 10.2187 32.6065 10.2463 32.4946 10.3101C32.3828 10.3739 32.2933 10.4706 32.2385 10.5872C31.7498 11.3709 31.006 11.9625 30.1323 12.2622C29.339 12.5886 28.4901 12.7584 27.6323 12.7622C27.7689 11.8023 28.2463 10.9236 28.9773 10.2867C29.7082 9.64983 30.644 9.29724 31.6135 9.2934Z" fill="#A8D5BA"/>
<path d="M31.9887 19.031H31.3199C30.4658 19.0318 29.6202 19.201 28.8315 19.5288C28.0428 19.8566 27.3264 20.3366 26.7234 20.9414C26.1203 21.5463 25.6423 22.264 25.3168 23.0537C24.9912 23.8433 24.8245 24.6894 24.8262 25.5435C24.8262 25.7093 24.892 25.8682 25.0092 25.9854C25.1265 26.1027 25.2854 26.1685 25.4512 26.1685C25.6169 26.1685 25.7759 26.1027 25.8931 25.9854C26.0103 25.8682 26.0762 25.7093 26.0762 25.5435C26.0762 24.1528 26.6286 22.819 27.612 21.8356C28.5954 20.8522 29.9292 20.2998 31.3199 20.2998H31.9887C33.38 20.2998 34.7144 20.852 35.6988 21.8352C36.6832 22.8184 37.237 24.1522 37.2387 25.5435V32.6248H29.7387C29.5729 32.6248 29.414 32.6906 29.2967 32.8078C29.1795 32.925 29.1137 33.084 29.1137 33.2498C29.1137 33.4155 29.1795 33.5745 29.2967 33.6917C29.414 33.8089 29.5729 33.8748 29.7387 33.8748H37.8637C38.0294 33.8748 38.1884 33.8089 38.3056 33.6917C38.4228 33.5745 38.4887 33.4155 38.4887 33.2498V25.5435C38.4895 24.6891 38.322 23.8429 37.9958 23.0532C37.6696 22.2635 37.191 21.5458 36.5875 20.9411C35.9839 20.3363 35.2671 19.8564 34.478 19.5287C33.689 19.2009 32.8431 19.0318 31.9887 19.031Z" fill="#A8D5BA"/>
<path d="M11.282 32.3309H3.48828V27.6122C3.48994 26.2209 4.04379 24.8871 5.02818 23.9039C6.01257 22.9207 7.34698 22.3684 8.73828 22.3684H9.40703C10.4722 22.3711 11.5115 22.697 12.3875 23.3029C13.2635 23.9089 13.935 24.7664 14.3133 25.7622C14.3721 25.918 14.4905 26.044 14.6422 26.1126C14.794 26.1812 14.9668 26.1866 15.1227 26.1278C15.2785 26.0689 15.4045 25.9506 15.4731 25.7988C15.5417 25.647 15.5471 25.4742 15.4883 25.3184C15.0174 24.0861 14.1844 23.0252 13.0989 22.2755C12.0134 21.5258 10.7263 21.1224 9.40703 21.1184H8.73828C7.01596 21.1201 5.36457 21.8046 4.14612 23.0218C2.92767 24.2391 2.24159 25.8898 2.23828 27.6122V32.9559C2.23828 33.1217 2.30413 33.2806 2.42134 33.3979C2.53855 33.5151 2.69752 33.5809 2.86328 33.5809H11.282C11.4478 33.5809 11.6068 33.5151 11.724 33.3979C11.8412 33.2806 11.907 33.1217 11.907 32.9559C11.907 32.7901 11.8412 32.6312 11.724 32.514C11.6068 32.3968 11.4478 32.3309 11.282 32.3309Z" fill="#A8D5BA"/>
<path d="M12.701 27.1185C12.8667 27.1185 13.0257 27.0527 13.1429 26.9354C13.2601 26.8182 13.326 26.6593 13.326 26.4935C13.326 26.3277 13.2601 26.1688 13.1429 26.0516C13.0257 25.9344 12.8667 25.8685 12.701 25.8685H12.2697V25.4373C12.2697 25.2715 12.2039 25.1125 12.0867 24.9953C11.9695 24.8781 11.8105 24.8123 11.6447 24.8123C11.479 24.8123 11.32 24.8781 11.2028 24.9953C11.0856 25.1125 11.0197 25.2715 11.0197 25.4373V25.8685H10.5947C10.429 25.8685 10.27 25.9344 10.1528 26.0516C10.0356 26.1688 9.96973 26.3277 9.96973 26.4935C9.96973 26.6593 10.0356 26.8182 10.1528 26.9354C10.27 27.0527 10.429 27.1185 10.5947 27.1185H11.0197V27.5498C11.0197 27.7155 11.0856 27.8745 11.2028 27.9917C11.32 28.1089 11.479 28.1748 11.6447 28.1748C11.8105 28.1748 11.9695 28.1089 12.0867 27.9917C12.2039 27.8745 12.2697 27.7155 12.2697 27.5498V27.1185H12.701Z" fill="#A8D5BA"/>
<path d="M34.4631 23.0435C34.2973 23.0435 34.1384 23.1093 34.0211 23.2265C33.9039 23.3437 33.8381 23.5027 33.8381 23.6685V24.0997H33.4131C33.2473 24.0997 33.0884 24.1656 32.9711 24.2828C32.8539 24.4 32.7881 24.5589 32.7881 24.7247C32.7881 24.8905 32.8539 25.0494 32.9711 25.1666C33.0884 25.2839 33.2473 25.3497 33.4131 25.3497H33.8381V25.781C33.8381 25.9467 33.9039 26.1057 34.0211 26.2229C34.1384 26.3401 34.2973 26.406 34.4631 26.406C34.6288 26.406 34.7878 26.3401 34.905 26.2229C35.0222 26.1057 35.0881 25.9467 35.0881 25.781V25.3497H35.5193C35.6851 25.3497 35.8441 25.2839 35.9613 25.1666C36.0785 25.0494 36.1443 24.8905 36.1443 24.7247C36.1443 24.5589 36.0785 24.4 35.9613 24.2828C35.8441 24.1656 35.6851 24.0997 35.5193 24.0997H35.0881V23.6685C35.0881 23.5027 35.0222 23.3437 34.905 23.2265C34.7878 23.1093 34.6288 23.0435 34.4631 23.0435Z" fill="#A8D5BA"/>
</svg>
