<svg width="41" height="41" viewBox="0 0 41 41" fill="none" xmlns="http://www.w3.org/2000/svg">
<g clip-path="url(#clip0_37_2584)">
<path d="M32.5607 26.9879C32.5514 26.9906 32.542 26.9937 32.5327 26.9969L22.8132 30.4159C22.6225 29.4827 22.0738 28.5345 21.1058 28.1034L14.5393 25.1684C12.9389 24.4542 11.5598 24.7336 10.4214 25.1012L6.35105 26.4188L6.16183 25.7718C6.07042 25.4596 5.85875 25.1965 5.57337 25.0404C5.288 24.8843 4.9523 24.8479 4.64011 24.9393L1.4387 25.876C1.12671 25.9677 0.863721 26.1791 0.707291 26.4642C0.55086 26.7493 0.513725 27.0847 0.604014 27.3971L4.03206 39.1159C4.12317 39.4282 4.3346 39.6916 4.61987 39.8482C4.90513 40.0047 5.24088 40.0416 5.55331 39.9506L8.75987 39.0131C9.07099 38.9209 9.33293 38.7092 9.48839 38.4244C9.64384 38.1396 9.68016 37.8047 9.5894 37.4932L9.3362 36.628L10.5706 36.3042L16.2171 38.3694C17.0646 38.6789 17.9465 38.9601 18.8478 38.9601C19.4621 38.9642 20.0682 38.82 20.6149 38.5398L33.1832 32.1172C33.1874 32.1151 33.1916 32.1129 33.1957 32.1106C33.3082 32.0494 33.4259 31.9894 33.5507 31.9256C34.5067 31.4374 35.9517 30.6995 35.3722 28.7203C34.9925 27.4229 33.7313 26.6463 32.5607 26.9879ZM8.53058 37.9008C8.51389 37.9321 8.48554 37.9555 8.45167 37.966L5.24854 38.9026C5.21412 38.9119 5.17742 38.9076 5.14613 38.8904C5.11484 38.8733 5.0914 38.8447 5.08073 38.8107L1.65276 27.092C1.64312 27.0573 1.64753 27.0203 1.66503 26.9889C1.68155 26.958 1.70964 26.9348 1.74315 26.9245L1.74433 26.9241L4.94854 25.9866C4.96025 25.9832 4.97237 25.9815 4.98456 25.9815C5.00721 25.9817 5.02946 25.9875 5.04933 25.9984C5.06468 26.0066 5.07824 26.0178 5.08922 26.0313C5.1002 26.0448 5.10839 26.0604 5.11331 26.0771L8.54222 37.8013C8.54705 37.8178 8.54851 37.8352 8.54651 37.8522C8.54451 37.8693 8.53909 37.8858 8.53058 37.9008ZM33.055 30.9532C32.9315 31.0162 32.804 31.0814 32.6809 31.1485L20.1192 37.5673C19.0962 38.0884 18.0903 37.8909 16.5925 37.3439L10.7856 35.2198C10.681 35.1815 10.5673 35.176 10.4596 35.2041L9.02987 35.5791L6.65722 27.4666L10.7569 26.1395C12.1085 25.703 13.0755 25.7105 14.0937 26.1649L20.6607 29.0996C21.3289 29.3974 21.7968 30.2448 21.7988 31.1602C21.7988 31.1626 21.7992 31.1649 21.7992 31.1673C21.7992 31.1696 21.7988 31.1725 21.7988 31.1751C21.7987 31.4371 21.7514 31.6969 21.6592 31.9421C21.2278 33.0809 20.1124 33.1218 19.2876 32.8115L14.8675 31.1533C14.8003 31.1281 14.7289 31.1164 14.6573 31.1188C14.5856 31.1212 14.5151 31.1377 14.4499 31.1674C14.3846 31.197 14.3258 31.2392 14.2769 31.2916C14.2279 31.344 14.1897 31.4055 14.1646 31.4726C14.1394 31.5397 14.1277 31.6111 14.1301 31.6828C14.1325 31.7544 14.149 31.8249 14.1786 31.8901C14.2083 31.9554 14.2505 32.0142 14.3029 32.0632C14.3552 32.1121 14.4167 32.1503 14.4839 32.1755L18.9037 33.8341C19.3042 33.989 19.7294 34.0704 20.1588 34.0741C21.2983 34.0741 22.2579 33.4453 22.6803 32.3306C22.7749 32.0807 22.8379 31.8199 22.8678 31.5543L32.8794 28.0323C33.4598 27.8719 34.1191 28.3245 34.3247 29.0271C34.6357 30.089 34.1032 30.4178 33.055 30.9532ZM21.0846 11.8516C19.6706 12.0662 18.4007 12.7423 17.3697 13.8395C16.2235 15.0593 15.4367 16.7594 15.1546 18.6264L14.8556 20.6016C14.783 21.0413 14.8093 21.4916 14.9326 21.9199C15.0559 22.3481 15.2731 22.7435 15.5684 23.0772C16.9878 24.7273 22.1632 24.8562 23.7233 24.8562H23.7277C24.8738 24.8562 30.6642 24.7695 32.1199 23.0777C32.4153 22.744 32.6327 22.3487 32.756 21.9204C32.8794 21.4921 32.9058 21.0417 32.8332 20.602L32.5342 18.6266C32.2521 16.7594 31.4653 15.0593 30.319 13.8395C29.2882 12.7427 28.0182 12.0661 26.6042 11.8516C26.85 11.6475 27.076 11.4205 27.279 11.1737C28.2565 9.98695 28.7732 8.3143 28.7732 6.33695C28.7732 5.02977 28.2539 3.77612 27.3296 2.8518C26.4052 1.92748 25.1516 1.4082 23.8444 1.4082C22.5372 1.4082 21.2836 1.92748 20.3593 2.8518C19.4349 3.77612 18.9157 5.02977 18.9157 6.33695C18.9157 8.31445 19.4323 9.98695 20.4098 11.1737C20.6127 11.4206 20.8386 11.6477 21.0843 11.852L21.0846 11.8516ZM31.4543 18.7901L31.7534 20.7659C31.8021 21.0499 31.786 21.3413 31.7062 21.6181C31.6265 21.895 31.4851 22.1503 31.2928 22.3648L31.2922 22.3655C30.695 23.0603 27.9046 23.764 23.7272 23.7646H23.7219C20.1171 23.7646 17.1047 23.1894 16.3953 22.3648C16.2029 22.1502 16.0615 21.8949 15.9817 21.618C15.9019 21.3411 15.8857 21.0497 15.9344 20.7656L16.2339 18.7901C16.6792 15.8431 18.66 12.8695 22.0812 12.8695H25.607C29.0281 12.8695 31.0089 15.843 31.4543 18.7901ZM23.844 2.50031C24.8612 2.50145 25.8365 2.90602 26.5558 3.62527C27.2751 4.34452 27.6798 5.31973 27.681 6.33695C27.681 10.0748 25.6921 11.7773 23.8441 11.7773C21.9961 11.7773 20.0071 10.0752 20.0071 6.33695C20.0084 5.31975 20.413 4.34457 21.1323 3.62533C21.8516 2.90608 22.8268 2.50149 23.844 2.50031ZM4.28206 27.7139C4.30034 27.7838 4.30459 27.8565 4.29455 27.928C4.28452 27.9995 4.2604 28.0683 4.22359 28.1305C4.18678 28.1926 4.13802 28.2468 4.08013 28.2899C4.02223 28.333 3.95635 28.3643 3.88631 28.3818C3.81626 28.3993 3.74344 28.4027 3.67205 28.3919C3.60067 28.3811 3.53214 28.3562 3.47043 28.3187C3.40873 28.2812 3.35507 28.2319 3.31257 28.1735C3.27007 28.1151 3.23957 28.0489 3.22284 27.9787L3.22065 27.9698C3.20327 27.9002 3.19976 27.8279 3.21032 27.757C3.22088 27.6861 3.2453 27.618 3.28219 27.5565C3.31908 27.495 3.36772 27.4414 3.42532 27.3988C3.48293 27.3561 3.54837 27.3252 3.61792 27.3078C3.68747 27.2904 3.75976 27.2869 3.83067 27.2975C3.90157 27.308 3.9697 27.3325 4.03117 27.3693C4.09264 27.4062 4.14624 27.4549 4.18891 27.5125C4.23159 27.5701 4.26249 27.6355 4.27987 27.7051L4.28206 27.7139ZM31.4172 7.50102V12.2237C31.4189 12.3674 31.4772 12.5046 31.5794 12.6056C31.6816 12.7065 31.8195 12.7632 31.9631 12.7632C32.1068 12.7632 32.2446 12.7065 32.3468 12.6056C32.449 12.5046 32.5073 12.3674 32.509 12.2237V7.50102C32.8554 7.38654 33.1568 7.16579 33.3704 6.87015C33.5841 6.5745 33.6991 6.21902 33.6991 5.85426C33.6991 5.48949 33.5841 5.13401 33.3704 4.83837C33.1568 4.54272 32.8554 4.32197 32.509 4.2075V3.2632C32.5073 3.11955 32.449 2.98237 32.3468 2.8814C32.2446 2.78042 32.1068 2.7238 31.9631 2.7238C31.8195 2.7238 31.6816 2.78042 31.5794 2.8814C31.4772 2.98237 31.4189 3.11955 31.4172 3.2632V4.20766C31.0709 4.32213 30.7694 4.54288 30.5558 4.83852C30.3421 5.13417 30.2271 5.48965 30.2271 5.85441C30.2271 6.21918 30.3421 6.57466 30.5558 6.8703C30.7694 7.16595 31.0709 7.3867 31.4172 7.50117V7.50102ZM31.9631 5.21086C32.0903 5.21084 32.2147 5.24857 32.3206 5.31926C32.4264 5.38995 32.5089 5.49044 32.5576 5.60801C32.6063 5.72558 32.6191 5.85496 32.5942 5.97978C32.5694 6.1046 32.5081 6.21925 32.4182 6.30925C32.3282 6.39924 32.2135 6.46053 32.0887 6.48536C31.9639 6.5102 31.8345 6.49746 31.7169 6.44876C31.5994 6.40006 31.4989 6.31759 31.4282 6.21178C31.3575 6.10596 31.3197 5.98156 31.3197 5.8543C31.32 5.68375 31.3878 5.52026 31.5084 5.39967C31.629 5.27909 31.7925 5.21124 31.9631 5.21102V5.21086ZM8.42104 15.8858C8.83705 15.8863 9.23589 16.0517 9.53004 16.3459C9.8242 16.6401 9.98965 17.0389 9.99011 17.4549C9.99011 17.5997 10.0476 17.7386 10.15 17.841C10.2524 17.9433 10.3913 18.0009 10.536 18.0009C10.6808 18.0009 10.8197 17.9433 10.9221 17.841C11.0245 17.7386 11.082 17.5997 11.082 17.4549C11.0824 17.0389 11.2479 16.6401 11.542 16.3459C11.8362 16.0517 12.235 15.8863 12.651 15.8858C12.7233 15.8866 12.795 15.8732 12.862 15.8461C12.929 15.8191 12.9899 15.779 13.0413 15.7282C13.0927 15.6774 13.1335 15.617 13.1613 15.5503C13.1892 15.4836 13.2035 15.4121 13.2035 15.3399C13.2035 15.2676 13.1892 15.1961 13.1613 15.1295C13.1335 15.0628 13.0927 15.0023 13.0413 14.9515C12.9899 14.9008 12.929 14.8607 12.862 14.8336C12.795 14.8066 12.7233 14.7931 12.651 14.794C12.235 14.7935 11.8362 14.6281 11.5421 14.3339C11.2479 14.0398 11.0824 13.6409 11.082 13.2249C11.082 13.0801 11.0245 12.9413 10.9221 12.8389C10.8197 12.7365 10.6808 12.679 10.536 12.679C10.3913 12.679 10.2524 12.7365 10.15 12.8389C10.0476 12.9413 9.99011 13.0801 9.99011 13.2249C9.98963 13.6409 9.82417 14.0397 9.53001 14.3339C9.23586 14.628 8.83704 14.7935 8.42104 14.794C8.34881 14.7931 8.27712 14.8066 8.21013 14.8336C8.14314 14.8607 8.08218 14.9008 8.03079 14.9515C7.97941 15.0023 7.93861 15.0628 7.91076 15.1295C7.88292 15.1961 7.86858 15.2676 7.86858 15.3399C7.86858 15.4121 7.88292 15.4836 7.91076 15.5503C7.93861 15.617 7.97941 15.6774 8.03079 15.7282C8.08218 15.779 8.14314 15.8191 8.21013 15.8461C8.27712 15.8732 8.34881 15.8866 8.42104 15.8858ZM10.536 14.838C10.6804 15.0268 10.8492 15.1956 11.038 15.3399C10.8492 15.4843 10.6804 15.6531 10.536 15.842C10.3917 15.6531 10.2229 15.4843 10.034 15.3399C10.2228 15.1956 10.3917 15.0268 10.536 14.838ZM39.3657 4.84773V3.2632C39.3657 3.11841 39.3082 2.97955 39.2058 2.87717C39.1034 2.77478 38.9646 2.71727 38.8198 2.71727C38.675 2.71727 38.5361 2.77478 38.4338 2.87717C38.3314 2.97955 38.2739 3.11841 38.2739 3.2632V4.84773C37.9275 4.96221 37.6261 5.18296 37.4124 5.4786C37.1988 5.77425 37.0838 6.12973 37.0838 6.49449C37.0838 6.85926 37.1988 7.21474 37.4124 7.51038C37.6261 7.80602 37.9275 8.02678 38.2739 8.14125V12.2239C38.2739 12.3687 38.3314 12.5076 38.4338 12.6099C38.5361 12.7123 38.675 12.7698 38.8198 12.7698C38.9646 12.7698 39.1034 12.7123 39.2058 12.6099C39.3082 12.5076 39.3657 12.3687 39.3657 12.2239V8.14117C39.712 8.02668 40.0134 7.80593 40.2271 7.51029C40.4407 7.21466 40.5557 6.8592 40.5557 6.49445C40.5557 6.12971 40.4407 5.77425 40.2271 5.47861C40.0134 5.18298 39.712 4.96222 39.3657 4.84773ZM38.8198 7.13789C38.6925 7.13791 38.5681 7.10018 38.4623 7.02948C38.3565 6.95879 38.274 6.8583 38.2253 6.74072C38.1766 6.62315 38.1638 6.49377 38.1886 6.36894C38.2135 6.24412 38.2747 6.12946 38.3647 6.03947C38.4547 5.94948 38.5694 5.8882 38.6942 5.86337C38.819 5.83855 38.9484 5.8513 39.066 5.90001C39.1836 5.94872 39.284 6.0312 39.3547 6.13703C39.4254 6.24285 39.4632 6.36726 39.4632 6.49453C39.4629 6.66509 39.3951 6.8286 39.2745 6.9492C39.1539 7.06981 38.9904 7.13766 38.8198 7.13789ZM12.1461 10.3358C12.6948 10.3364 13.2209 10.5547 13.6089 10.9427C13.9969 11.3307 14.2151 11.8568 14.2157 12.4055C14.2149 12.4777 14.2283 12.5494 14.2554 12.6164C14.2824 12.6834 14.3225 12.7443 14.3733 12.7957C14.4241 12.8471 14.4845 12.8879 14.5512 12.9158C14.6179 12.9436 14.6894 12.9579 14.7616 12.9579C14.8339 12.9579 14.9054 12.9436 14.9721 12.9158C15.0387 12.8879 15.0992 12.8471 15.15 12.7957C15.2007 12.7443 15.2408 12.6834 15.2679 12.6164C15.2949 12.5494 15.3084 12.4777 15.3075 12.4055C15.3085 11.8565 15.5271 11.3302 15.9155 10.9422C16.3039 10.5542 16.8304 10.3361 17.3794 10.3358C17.5231 10.3341 17.6602 10.2758 17.7612 10.1736C17.8622 10.0714 17.9188 9.93354 17.9188 9.78988C17.9188 9.64622 17.8622 9.50835 17.7612 9.40616C17.6602 9.30397 17.5231 9.2457 17.3794 9.24398C16.8301 9.24338 16.3035 9.02492 15.9151 8.63651C15.5266 8.24811 15.3081 7.72148 15.3075 7.17219C15.3084 7.09995 15.2949 7.02826 15.2679 6.96127C15.2408 6.89428 15.2007 6.83332 15.15 6.78194C15.0992 6.73055 15.0387 6.68975 14.9721 6.6619C14.9054 6.63406 14.8339 6.61972 14.7616 6.61972C14.6894 6.61972 14.6179 6.63406 14.5512 6.6619C14.4845 6.68975 14.4241 6.73055 14.3733 6.78194C14.3225 6.83332 14.2824 6.89428 14.2554 6.96127C14.2283 7.02826 14.2149 7.09995 14.2157 7.17219C14.2154 7.72118 13.9973 8.24763 13.6093 8.63603C13.2213 9.02443 12.6951 9.24307 12.1461 9.24398C12.0739 9.24312 12.0022 9.2566 11.9352 9.28365C11.8682 9.31069 11.8073 9.35077 11.7559 9.40154C11.7045 9.45232 11.6637 9.51279 11.6358 9.57945C11.608 9.64611 11.5937 9.71764 11.5937 9.78988C11.5937 9.86213 11.608 9.93365 11.6358 10.0003C11.6637 10.067 11.7045 10.1274 11.7559 10.1782C11.8073 10.229 11.8682 10.2691 11.9352 10.2961C12.0022 10.3232 12.0739 10.3366 12.1461 10.3358ZM14.7618 8.94726C14.9872 9.27865 15.273 9.56458 15.6043 9.79008C15.2731 10.0153 14.9873 10.3009 14.7618 10.632C14.5366 10.3009 14.251 10.0153 13.92 9.79008C14.2511 9.56456 14.5367 9.27863 14.7618 8.94726ZM35.9378 8.05695V3.2632C35.9378 3.11841 35.8802 2.97955 35.7779 2.87717C35.6755 2.77478 35.5366 2.71727 35.3918 2.71727C35.247 2.71727 35.1082 2.77478 35.0058 2.87717C34.9034 2.97955 34.8459 3.11841 34.8459 3.2632V8.05695C34.4997 8.17186 34.1985 8.39289 33.985 8.68867C33.7715 8.98445 33.6567 9.33996 33.6567 9.70473C33.6567 10.0695 33.7715 10.425 33.985 10.7208C34.1985 11.0166 34.4997 11.2376 34.8459 11.3525V12.2239C34.8459 12.3687 34.9034 12.5076 35.0058 12.6099C35.1082 12.7123 35.247 12.7698 35.3918 12.7698C35.5366 12.7698 35.6755 12.7123 35.7779 12.6099C35.8802 12.5076 35.9378 12.3687 35.9378 12.2239V11.3526C36.284 11.2377 36.5852 11.0166 36.7986 10.7209C37.0121 10.4251 37.127 10.0696 37.127 9.7048C37.127 9.34004 37.0121 8.98453 36.7986 8.68875C36.5852 8.39297 36.284 8.17186 35.9378 8.05695ZM35.3918 10.3491C35.2643 10.3494 35.1395 10.3117 35.0333 10.241C34.9271 10.1703 34.8443 10.0696 34.7954 9.95182C34.7465 9.834 34.7336 9.70432 34.7584 9.57918C34.7833 9.45405 34.8447 9.3391 34.9349 9.24888C35.0251 9.15867 35.14 9.09726 35.2652 9.07242C35.3903 9.04757 35.52 9.06043 35.6378 9.10934C35.7556 9.15826 35.8563 9.24104 35.927 9.3472C35.9978 9.45336 36.0354 9.57813 36.0352 9.7057C36.035 9.87636 35.9671 10.04 35.8464 10.1606C35.7257 10.2812 35.5621 10.3491 35.3914 10.3491H35.3918Z" fill="white"/>
</g>
<defs>
<clipPath id="clip0_37_2584">
<rect width="40" height="40" fill="white" transform="translate(0.554688 0.704102)"/>
</clipPath>
</defs>
</svg>
