<svg width="24" height="24" viewBox="0 0 24 24" fill="none" xmlns="http://www.w3.org/2000/svg">
<path d="M12 18.2178C16.4183 18.2178 20 14.6361 20 10.2178C20 5.7995 16.4183 2.21777 12 2.21777C7.58172 2.21777 4 5.7995 4 10.2178C4 14.6361 7.58172 18.2178 12 18.2178Z" stroke="#084B92" stroke-width="2" stroke-miterlimit="10"/>
<path d="M14.3984 10.9965L16.5161 8.75125L13.4832 8.17952L12.0022 5.47168L10.5212 8.17952L7.48828 8.75125L9.60596 10.9965L9.21244 14.0577L12.0022 12.7375L14.792 14.0577L14.3984 10.9965Z" stroke="#084B92" stroke-width="2" stroke-miterlimit="10"/>
<path d="M6.24023 15.7686V20.2223C7.18095 20.2223 8.0534 19.933 8.7737 19.4385" stroke="#084B92" stroke-width="2" stroke-miterlimit="10"/>
<path d="M17.7581 15.7686V20.2223C16.8174 20.2223 15.9449 19.933 15.2246 19.4385" stroke="#084B92" stroke-width="2" stroke-miterlimit="10"/>
<path d="M8.80078 17.552V22.7834C10.0551 22.7834 11.1879 22.269 12.0008 21.4398C12.8136 22.269 13.9465 22.7834 15.2008 22.7834V17.5518" stroke="#084B92" stroke-width="2" stroke-miterlimit="10"/>
</svg>
