<svg width="221" height="220" viewBox="0 0 221 220" fill="none" xmlns="http://www.w3.org/2000/svg">
<g filter="url(#filter0_d_2018_2118)">
<ellipse cx="110.053" cy="106.803" rx="52.0533" ry="51.8031" fill="#084B92"/>
<path d="M110.054 59C136.611 59.0002 158.106 80.4203 158.106 106.803C158.106 133.185 136.611 154.606 110.054 154.606C83.4964 154.606 62 133.186 62 106.803C62.0002 80.4201 83.4965 59 110.054 59Z" stroke="white" stroke-width="8"/>
</g>
<path fill-rule="evenodd" clip-rule="evenodd" d="M126.645 121.752L116.344 104.348V91.2505C116.344 90.5778 115.776 90.0273 115.077 90.0273C114.378 90.0273 113.81 90.569 113.81 91.2505V104.671C113.81 104.828 113.862 104.985 113.924 105.134C113.26 104.164 112.124 103.526 110.831 103.526C108.777 103.526 107.117 105.125 107.117 107.109C107.117 108.576 108.035 109.861 109.337 110.385H103.046L106.104 105.274C106.209 105.09 106.287 104.881 106.287 104.671V102.015C106.637 102.294 107.161 102.46 107.694 102.46C109.031 102.46 110.097 101.421 110.097 100.136C110.097 98.8519 109.031 97.8122 107.694 97.8122C107.161 97.8122 106.637 97.9782 106.287 98.2578V91.2505C106.287 90.5778 105.719 90.0273 105.02 90.0273C104.321 90.0273 103.753 90.569 103.753 91.2505V104.348L93.4611 121.752C93.2426 122.128 93.2339 122.591 93.4611 122.967C93.6882 123.342 94.0901 123.578 94.5445 123.578H110.053H125.561C126.007 123.578 126.418 123.351 126.645 122.967C126.872 122.6 126.863 122.128 126.645 121.752V121.752ZM112.342 110.385C113.644 109.861 114.561 108.568 114.561 107.109C114.561 106.611 114.456 106.13 114.264 105.702L116.973 110.385H112.342V110.385Z" fill="white"/>
<path fill-rule="evenodd" clip-rule="evenodd" d="M110.848 95.6717C111.897 95.6717 112.744 94.8504 112.744 93.8456C112.744 92.8321 111.897 92.0195 110.848 92.0195C109.8 92.0195 108.952 92.8408 108.952 93.8456C108.943 94.8504 109.8 95.6717 110.848 95.6717V95.6717Z" fill="white"/>
<defs>
<filter id="filter0_d_2018_2118" x="0" y="0" width="220.106" height="219.606" filterUnits="userSpaceOnUse" color-interpolation-filters="sRGB">
<feFlood flood-opacity="0" result="BackgroundImageFix"/>
<feColorMatrix in="SourceAlpha" type="matrix" values="0 0 0 0 0 0 0 0 0 0 0 0 0 0 0 0 0 0 127 0" result="hardAlpha"/>
<feMorphology radius="9" operator="dilate" in="SourceAlpha" result="effect1_dropShadow_2018_2118"/>
<feOffset dy="3"/>
<feGaussianBlur stdDeviation="24.5"/>
<feColorMatrix type="matrix" values="0 0 0 0 0 0 0 0 0 0 0 0 0 0 0 0 0 0 0.06 0"/>
<feBlend mode="normal" in2="BackgroundImageFix" result="effect1_dropShadow_2018_2118"/>
<feBlend mode="normal" in="SourceGraphic" in2="effect1_dropShadow_2018_2118" result="shape"/>
</filter>
</defs>
</svg>
