<svg width="34" height="34" viewBox="0 0 34 34" fill="none" xmlns="http://www.w3.org/2000/svg">
<rect x="0.0410156" y="0.107422" width="33" height="33" rx="16.5" fill="#FAFAFA"/>
<path fill-rule="evenodd" clip-rule="evenodd" d="M10.7074 17.4401H20.5949L17.5674 21.0734C17.2724 21.4268 17.3207 21.9526 17.674 22.2468C18.0282 22.5418 18.5532 22.4934 18.8482 22.1401L23.0149 17.1401C23.0474 17.1009 23.0632 17.0551 23.0874 17.0118C23.1074 16.9768 23.1315 16.9468 23.1465 16.9084C23.184 16.8126 23.2065 16.7118 23.2065 16.6101C23.2065 16.6093 23.2074 16.6076 23.2074 16.6068C23.2074 16.6059 23.2065 16.6043 23.2065 16.6034C23.2065 16.5018 23.184 16.4009 23.1465 16.3051C23.1315 16.2668 23.1074 16.2368 23.0874 16.2018C23.0632 16.1584 23.0474 16.1126 23.0149 16.0734L18.8482 11.0734C18.6824 10.8759 18.4457 10.7734 18.2074 10.7734C18.019 10.7734 17.8299 10.8368 17.674 10.9668C17.3207 11.2609 17.2724 11.7868 17.5674 12.1401L20.5949 15.7734H10.7074C10.2474 15.7734 9.87402 16.1468 9.87402 16.6068C9.87402 17.0668 10.2474 17.4401 10.7074 17.4401Z" fill="#084B92"/>
<mask id="mask0_535_1933" style="mask-type:luminance" maskUnits="userSpaceOnUse" x="9" y="10" width="15" height="13">
<path fill-rule="evenodd" clip-rule="evenodd" d="M10.7074 17.4401H20.5949L17.5674 21.0734C17.2724 21.4268 17.3207 21.9526 17.674 22.2468C18.0282 22.5418 18.5532 22.4934 18.8482 22.1401L23.0149 17.1401C23.0474 17.1009 23.0632 17.0551 23.0874 17.0118C23.1074 16.9768 23.1315 16.9468 23.1465 16.9084C23.184 16.8126 23.2065 16.7118 23.2065 16.6101C23.2065 16.6093 23.2074 16.6076 23.2074 16.6068C23.2074 16.6059 23.2065 16.6043 23.2065 16.6034C23.2065 16.5018 23.184 16.4009 23.1465 16.3051C23.1315 16.2668 23.1074 16.2368 23.0874 16.2018C23.0632 16.1584 23.0474 16.1126 23.0149 16.0734L18.8482 11.0734C18.6824 10.8759 18.4457 10.7734 18.2074 10.7734C18.019 10.7734 17.8299 10.8368 17.674 10.9668C17.3207 11.2609 17.2724 11.7868 17.5674 12.1401L20.5949 15.7734H10.7074C10.2474 15.7734 9.87402 16.1468 9.87402 16.6068C9.87402 17.0668 10.2474 17.4401 10.7074 17.4401Z" fill="white"/>
</mask>
<g mask="url(#mask0_535_1933)">
<rect x="6.54102" y="6.60742" width="20" height="20" fill="#084B92"/>
</g>
</svg>
