<svg width="47" height="46" viewBox="0 0 47 46" fill="none" xmlns="http://www.w3.org/2000/svg">
<rect x="0.5" width="46" height="46" rx="23" fill="#FAFAFA"/>
<g clip-path="url(#clip0_535_1750)">
<path d="M30.3139 10.9736H10.1893C9.25779 10.9736 8.5 11.7314 8.5 12.6629V24.7365C8.5 25.668 9.25779 26.4258 10.1893 26.4258H11.4943V30.9206C11.4943 31.2067 11.6666 31.4648 11.9311 31.5744C12.0187 31.6107 12.1107 31.6283 12.2018 31.6283C12.3861 31.6283 12.567 31.5564 12.7024 31.421L17.6976 26.4259H18.6998C19.0907 26.4259 19.4075 26.1091 19.4075 25.7182C19.4075 25.3273 19.0905 25.0104 18.6998 25.0104C18.6998 25.0104 17.3703 25.0114 17.3564 25.0128C17.1916 25.024 17.0299 25.0918 16.9039 25.2177L12.9097 29.212C12.9097 29.212 12.9084 25.6734 12.9061 25.6551C12.8742 25.2938 12.5712 25.0104 12.2016 25.0104H10.1893C10.0383 25.0104 9.91545 24.8876 9.91545 24.7366V12.6629C9.91545 12.5118 10.0383 12.389 10.1893 12.389H30.3139C30.465 12.389 30.5878 12.5119 30.5878 12.6629V17.295C30.5878 17.6859 30.9047 18.0027 31.2955 18.0027C31.6862 18.0027 32.0032 17.6859 32.0032 17.295V12.6629C32.0032 11.7314 31.2454 10.9736 30.3139 10.9736Z" fill="#084B92"/>
<path d="M36.8103 19.6309H22.7235C21.792 19.6309 21.0342 20.3887 21.0342 21.3202V29.5567C21.0342 30.4882 21.792 31.246 22.7235 31.246H31.5427L35.1158 34.8191C35.2512 34.9545 35.4322 35.0264 35.6163 35.0264C35.7075 35.0264 35.7995 35.0088 35.887 34.9725C36.1514 34.8629 36.3239 34.6049 36.3239 34.3186V31.246H36.8103C37.7418 31.246 38.4996 30.4882 38.4996 29.5567V21.3201C38.4997 20.3887 37.7419 19.6309 36.8103 19.6309ZM37.0843 29.5567C37.0843 29.7077 36.9614 29.8306 36.8104 29.8306H35.6165C35.2441 29.8306 34.9395 30.1184 34.9116 30.4837C34.9097 30.4992 34.9086 32.6101 34.9086 32.6101L32.339 30.0405C32.3363 30.0378 32.3335 30.0353 32.3308 30.0326C32.3207 30.0227 32.3112 30.0142 32.3021 30.0065C32.1776 29.8973 32.0148 29.8305 31.8363 29.8305H22.7235C22.5724 29.8305 22.4496 29.7077 22.4496 29.5567V21.3201C22.4496 21.1691 22.5725 21.0463 22.7235 21.0463H36.8104C36.9614 21.0463 37.0843 21.1691 37.0843 21.3201V29.5567Z" fill="#084B92"/>
<path d="M29.7673 24.7305C29.3766 24.7305 29.0596 25.0475 29.0596 25.4382C29.0596 25.8288 29.3766 26.1459 29.7673 26.1459C30.158 26.1459 30.475 25.8288 30.475 25.4382C30.475 25.0475 30.1579 24.7305 29.7673 24.7305Z" fill="#084B92"/>
<path d="M26.6914 15.6533H13.8112C13.4204 15.6533 13.1035 15.9701 13.1035 16.361C13.1035 16.7519 13.4204 17.0687 13.8112 17.0687H26.6914C27.0823 17.0687 27.3991 16.7519 27.3991 16.361C27.3991 15.9701 27.0823 15.6533 26.6914 15.6533Z" fill="#084B92"/>
<path d="M18.6994 20.332H13.8112C13.4204 20.332 13.1035 20.6488 13.1035 21.0397C13.1035 21.4306 13.4204 21.7474 13.8112 21.7474H18.6994C19.0903 21.7474 19.4071 21.4306 19.4071 21.0397C19.4071 20.6488 19.0902 20.332 18.6994 20.332Z" fill="#084B92"/>
<path d="M26.4792 24.7305C26.0886 24.7305 25.7715 25.0475 25.7715 25.4382C25.7715 25.8288 26.0886 26.1459 26.4792 26.1459C26.8699 26.1459 27.1869 25.8288 27.1869 25.4382C27.1869 25.0475 26.8699 24.7305 26.4792 24.7305Z" fill="#084B92"/>
<path d="M33.0554 24.7305C32.6647 24.7305 32.3477 25.0475 32.3477 25.4382C32.3477 25.8288 32.6647 26.1459 33.0554 26.1459C33.4461 26.1459 33.763 25.8288 33.763 25.4382C33.763 25.0475 33.446 24.7305 33.0554 24.7305Z" fill="#084B92"/>
</g>
<defs>
<clipPath id="clip0_535_1750">
<rect width="30" height="30" fill="white" transform="translate(8.5 8)"/>
</clipPath>
</defs>
</svg>
