<svg id="Smooth" enable-background="new 0 0 128 128" height="512" viewBox="0 0 128 128" width="512" xmlns="http://www.w3.org/2000/svg" xmlns:xlink="http://www.w3.org/1999/xlink"><linearGradient id="SVGID_1_" gradientUnits="userSpaceOnUse" x1="91.462" x2="111.032" y1="24.722" y2="33.554"><stop offset=".0399" stop-color="#fc9f4b"/><stop offset="1" stop-color="#ff975b"/></linearGradient><linearGradient id="SVGID_2_" gradientUnits="userSpaceOnUse" x1="43.604" x2="29.957" y1="31.455" y2="6.519"><stop offset="0" stop-color="#50a8d2"/><stop offset="1" stop-color="#198dc4"/></linearGradient><linearGradient id="SVGID_3_" gradientUnits="userSpaceOnUse" x1="64" x2="64" y1="40" y2="132.394"><stop offset="0" stop-color="#aab454"/><stop offset="1" stop-color="#929f23"/></linearGradient><linearGradient id="SVGID_4_" gradientUnits="userSpaceOnUse" x1="103.115" x2="121.782" y1="-1.347" y2="-15.347"><stop offset="0" stop-color="#f18774"/><stop offset=".2844" stop-color="#ee8372"/><stop offset=".579" stop-color="#e7766c"/><stop offset=".8773" stop-color="#da6263"/><stop offset="1" stop-color="#d3575e"/></linearGradient><linearGradient id="SVGID_5_" gradientUnits="userSpaceOnUse" x1="95.509" x2="117.176" y1="10.291" y2="1.957"><stop offset="0" stop-color="#e15c63"/><stop offset=".4062" stop-color="#de585f"/><stop offset=".8264" stop-color="#d44b53"/><stop offset="1" stop-color="#ce444c"/></linearGradient><linearGradient id="SVGID_6_" gradientUnits="userSpaceOnUse" x1="63.195" x2="62.697" y1="88" y2="109.674"><stop offset="0" stop-color="#ffdbb0"/><stop offset=".4152" stop-color="#ffd8ac"/><stop offset=".8447" stop-color="#ffd09f"/><stop offset="1" stop-color="#fc9"/></linearGradient><linearGradient id="SVGID_7_" gradientUnits="userSpaceOnUse" x1="67.748" x2="70.414" y1="82.746" y2="103.912"><stop offset=".0133" stop-color="#dfb082"/><stop offset=".5053" stop-color="#cb936d"/><stop offset=".992" stop-color="#dfb082"/></linearGradient><g><path d="m75.001 36-4.001-1.938 13-31.062 3 1z" fill="url(#SVGID_1_)"/><path d="m63 71.044-14-63c-.59-3.699-4.279-6.425-8-6l-26 3c-1.016.109-2 .934-2 1.956v2c0 1.192.815 2.132 2 2l25-3c1.053-.109 2.604.169 3 2l13 61z" fill="url(#SVGID_2_)"/><path d="m111 53h-94c-4.417 7.683-8 19.549-8 29 0 29.271 25.177 44 55 44s55-14.729 55-44c0-9.451-3.583-21.317-8-29z" fill="url(#SVGID_3_)"/><path d="m85.969 2-30.969 4.979c16 25.021 49.368 18.211 50 18.021z" fill="url(#SVGID_4_)"/><path d="m85.969 2-18.257 17.371c6.276 3.768 13.087 5.505 19.157 6.203z" fill="url(#SVGID_5_)"/><path d="m111 53s-10-17-27-22c-3.055-.899-2.815-1-6-1h-14-14c-3.185 0-2.945.101-6 1-17 5-27 22-27 22 4.87 2.487 9.883 6.334 15 8 5.181 1.687 10.666 1.154 16 2 5.365.851 10.584 3 16 3s10.635-2.149 16-3c5.334-.846 10.819-.313 16-2 5.117-1.666 10.13-5.513 15-8z" fill="url(#SVGID_6_)"/><path d="m96 56c-5.181 1.687-10.667 1.154-16 2-5.365.851-10.584 3-16 3s-10.635-2.149-16-3c-5.334-.846-10.819-.313-16-2-4.251-1.384-8.428-4.265-12.513-6.629-1.629 2.175-2.487 3.629-2.487 3.629 4.87 2.487 9.883 6.334 15 8 5.181 1.687 10.666 1.154 16 2 5.365.851 10.584 3 16 3s10.635-2.149 16-3c5.333-.846 10.819-.313 16-2 5.117-1.666 10.13-5.513 15-8 0 0-.858-1.454-2.487-3.629-4.085 2.364-8.262 5.245-12.513 6.629z" fill="url(#SVGID_7_)"/></g></svg>