<svg width="208" height="208" viewBox="0 0 208 208" fill="none" xmlns="http://www.w3.org/2000/svg">
<g filter="url(#filter0_d_2018_2119)">
<circle cx="103.797" cy="100.797" r="45.7969" fill="#F8B195"/>
<circle cx="103.797" cy="100.797" r="41.7969" stroke="white" stroke-width="8"/>
</g>
<g clip-path="url(#clip0_2018_2119)">
<path d="M124.483 93.6746L104.139 81.2059C104.036 81.1428 103.918 81.1094 103.797 81.1094C103.676 81.1094 103.557 81.1428 103.454 81.2059L83.1105 93.6746C82.9628 93.765 82.8569 93.9101 82.8157 94.0782C82.7745 94.2464 82.8015 94.424 82.8906 94.5724L84.8594 97.8536C84.904 97.9277 84.9627 97.9923 85.0323 98.0437C85.1019 98.095 85.181 98.1321 85.265 98.1527C85.3489 98.1734 85.4362 98.1773 85.5217 98.1641C85.6071 98.151 85.6892 98.1211 85.7631 98.0761L87.3906 97.0884V115.891C87.3921 117.109 87.8766 118.276 88.7378 119.137C89.5989 119.998 90.7664 120.483 91.9843 120.484H101.172C101.346 120.484 101.513 120.415 101.636 120.292C101.759 120.169 101.828 120.002 101.828 119.828C101.828 119.654 101.759 119.487 101.636 119.364C101.513 119.241 101.346 119.172 101.172 119.172H91.9843C91.1144 119.171 90.2804 118.825 89.6653 118.21C89.0501 117.595 88.7041 116.761 88.7031 115.891V96.2911L103.797 87.1272L118.891 96.2911V115.891C118.89 116.761 118.543 117.595 117.928 118.21C117.313 118.825 116.479 119.171 115.609 119.172H106.422C106.248 119.172 106.081 119.241 105.958 119.364C105.835 119.487 105.766 119.654 105.766 119.828C105.766 120.002 105.835 120.169 105.958 120.292C106.081 120.415 106.248 120.484 106.422 120.484H115.609C116.827 120.483 117.995 119.998 118.856 119.137C119.717 118.276 120.201 117.109 120.203 115.891V97.0884L121.831 98.0728C121.933 98.1366 122.051 98.1709 122.172 98.1719C122.225 98.1718 122.278 98.1654 122.329 98.1529C122.413 98.1321 122.492 98.095 122.562 98.0436C122.631 97.9923 122.69 97.9277 122.734 97.8536L124.703 94.5724C124.792 94.424 124.819 94.2464 124.778 94.0782C124.737 93.9101 124.631 93.765 124.483 93.6746ZM121.949 96.612L104.137 85.799C104.035 85.7366 103.917 85.7037 103.797 85.7037C103.677 85.7037 103.559 85.7366 103.456 85.799L87.7062 95.3605L85.6449 96.612L84.3501 94.4542L103.797 82.5354L123.243 94.4542L121.949 96.612Z" fill="white"/>
<path d="M115.106 106.729C115.871 105.008 116.266 103.146 116.266 101.263C116.274 99.4322 115.587 97.6666 114.345 96.3219C113.76 95.6698 113.044 95.1473 112.245 94.7878C111.446 94.4283 110.58 94.2398 109.704 94.2344C108.839 94.2522 107.988 94.4458 107.201 94.8033C106.414 95.1609 105.708 95.6749 105.126 96.314L103.797 97.3417L102.468 96.3134C101.882 95.6862 101.182 95.1755 100.406 94.8079C99.6205 94.4337 98.7615 94.2379 97.891 94.2344C97.0146 94.2398 96.149 94.4283 95.3497 94.7878C94.5504 95.1473 93.835 95.6698 93.2494 96.3219C92.0071 97.6666 91.3207 99.4322 91.3286 101.263C91.3134 103.128 91.7012 104.975 92.4654 106.677C93.2295 108.379 94.3521 109.896 95.7563 111.124L103.369 117.7C103.488 117.803 103.64 117.859 103.797 117.859C103.955 117.859 104.107 117.803 104.226 117.7L111.838 111.125C113.232 109.913 114.347 108.413 115.106 106.729ZM103.797 116.336L96.6133 110.131C95.3521 109.025 94.3443 107.661 93.6588 106.131C92.9732 104.6 92.6261 102.94 92.6411 101.263C92.6337 99.763 93.1951 98.3161 94.2121 97.2138C94.6755 96.695 95.242 96.2788 95.8756 95.9918C96.5091 95.7048 97.1956 95.5532 97.891 95.5469C98.5697 95.5505 99.2392 95.7045 99.8513 95.9977C100.491 96.3005 101.066 96.7239 101.545 97.2446C101.569 97.2708 103.396 98.6883 103.396 98.6883C103.511 98.7773 103.652 98.8256 103.797 98.8256C103.943 98.8256 104.084 98.7773 104.199 98.6883C104.199 98.6883 106.026 97.2708 106.051 97.2446C106.511 96.7268 107.073 96.3089 107.701 96.0169C108.329 95.7249 109.011 95.5649 109.704 95.5469C110.399 95.5532 111.086 95.7048 111.719 95.9918C112.353 96.2788 112.919 96.695 113.382 97.2138C114.399 98.3161 114.961 99.763 114.954 101.263C114.954 102.96 114.598 104.638 113.909 106.189C113.229 107.699 112.23 109.044 110.981 110.131L103.797 116.336Z" fill="white"/>
<path d="M109.047 103.422H106.422V100.79C106.422 100.616 106.353 100.449 106.23 100.326C106.107 100.203 105.94 100.134 105.766 100.134H101.828C101.654 100.134 101.487 100.203 101.364 100.326C101.241 100.449 101.172 100.616 101.172 100.79V103.422H98.5469C98.3728 103.422 98.2059 103.491 98.0828 103.614C97.9598 103.737 97.8906 103.904 97.8906 104.078V108.015C97.8906 108.189 97.9598 108.356 98.0828 108.479C98.2059 108.602 98.3728 108.672 98.5469 108.672H101.172V111.297C101.172 111.471 101.241 111.638 101.364 111.761C101.487 111.884 101.654 111.953 101.828 111.953H105.766C105.94 111.953 106.107 111.884 106.23 111.761C106.353 111.638 106.422 111.471 106.422 111.297V108.672H109.047C109.221 108.672 109.388 108.602 109.511 108.479C109.634 108.356 109.703 108.189 109.703 108.015V104.078C109.703 103.904 109.634 103.737 109.511 103.614C109.388 103.491 109.221 103.422 109.047 103.422ZM108.391 107.359H105.766C105.592 107.359 105.425 107.428 105.302 107.551C105.179 107.674 105.109 107.841 105.109 108.015V110.64H102.484V108.015C102.484 107.841 102.415 107.674 102.292 107.551C102.169 107.428 102.002 107.359 101.828 107.359H99.2031V104.734H101.828C102.002 104.734 102.169 104.665 102.292 104.542C102.415 104.419 102.484 104.252 102.484 104.078V101.446H105.109V104.078C105.109 104.252 105.179 104.419 105.302 104.542C105.425 104.665 105.592 104.734 105.766 104.734H108.391V107.359Z" fill="white"/>
</g>
<defs>
<filter id="filter0_d_2018_2119" x="0" y="0" width="207.594" height="207.594" filterUnits="userSpaceOnUse" color-interpolation-filters="sRGB">
<feFlood flood-opacity="0" result="BackgroundImageFix"/>
<feColorMatrix in="SourceAlpha" type="matrix" values="0 0 0 0 0 0 0 0 0 0 0 0 0 0 0 0 0 0 127 0" result="hardAlpha"/>
<feMorphology radius="9" operator="dilate" in="SourceAlpha" result="effect1_dropShadow_2018_2119"/>
<feOffset dy="3"/>
<feGaussianBlur stdDeviation="24.5"/>
<feColorMatrix type="matrix" values="0 0 0 0 0 0 0 0 0 0 0 0 0 0 0 0 0 0 0.06 0"/>
<feBlend mode="normal" in2="BackgroundImageFix" result="effect1_dropShadow_2018_2119"/>
<feBlend mode="normal" in="SourceGraphic" in2="effect1_dropShadow_2018_2119" result="shape"/>
</filter>
<clipPath id="clip0_2018_2119">
<rect width="42" height="42" fill="white" transform="translate(82.7969 79.7969)"/>
</clipPath>
</defs>
</svg>
