<svg width="46" height="46" viewBox="0 0 46 46" fill="none" xmlns="http://www.w3.org/2000/svg">
<rect width="46" height="46" rx="23" fill="#FAFAFA"/>
<path d="M10.5457 21.7905H11.7926C12.0761 22.1882 12.4506 22.5123 12.8848 22.736C13.3189 22.9597 13.8003 23.0764 14.2887 23.0764C14.7771 23.0764 15.2584 22.9597 15.6926 22.736C16.1268 22.5123 16.5012 22.1882 16.7848 21.7905H18.0457C18.17 21.7905 18.2892 21.7411 18.3772 21.6532C18.4651 21.5653 18.5144 21.4461 18.5144 21.3218V19.0858C18.5157 18.0177 18.1082 16.9896 17.3754 16.2124V14.8952C17.3922 14.4674 17.2671 14.046 17.0196 13.6967C16.772 13.3474 16.4159 13.0898 16.0066 12.964L15.3551 12.7952C14.6559 12.6125 13.9215 12.6125 13.2223 12.7952L12.566 12.964C12.1563 13.0896 11.7996 13.3471 11.5513 13.6963C11.3029 14.0455 11.1768 14.467 11.1926 14.8952V16.2311C10.4743 17.0085 10.0744 18.0274 10.0723 19.0858V21.3218C10.0723 21.3837 10.0845 21.4451 10.1084 21.5022C10.1322 21.5594 10.1672 21.6113 10.2112 21.6549C10.2552 21.6985 10.3075 21.7329 10.3649 21.7562C10.4223 21.7795 10.4838 21.7912 10.5457 21.7905ZM14.2957 22.1374C13.9506 22.1386 13.6104 22.056 13.3042 21.8968C12.998 21.7377 12.7351 21.5066 12.5379 21.2233C12.5299 21.1751 12.5123 21.1288 12.4863 21.0874C12.4328 20.9859 12.3858 20.881 12.3457 20.7733C12.4457 20.7733 12.5441 20.7733 12.641 20.7733H12.6879C13.3829 20.7454 14.0528 20.5061 14.6081 20.0872C15.1635 19.6684 15.5778 19.0902 15.7957 18.4296C16.1045 18.7276 16.3174 19.111 16.407 19.5307C16.4967 19.9504 16.4591 20.3873 16.299 20.7854C16.1389 21.1837 15.8636 21.525 15.5084 21.7659C15.1532 22.0067 14.7342 22.1361 14.3051 22.1374H14.2957ZM12.1348 14.8952C12.121 14.6747 12.1795 14.4557 12.3012 14.2713C12.423 14.0869 12.6015 13.9472 12.8098 13.8733L13.4613 13.6999C13.734 13.6307 14.0144 13.5961 14.2957 13.5968C14.5755 13.5956 14.8544 13.6303 15.1254 13.6999L15.7723 13.8733C15.9787 13.9488 16.1552 14.0892 16.2752 14.2735C16.3952 14.4577 16.4523 14.6758 16.4379 14.8952V15.453L16.3254 15.3968C16.2691 15.364 16.2129 15.3311 16.152 15.303L15.8754 15.1811L15.7066 15.1108L15.3926 15.0171L15.2426 14.9749C15.088 14.9381 14.9315 14.9099 14.7738 14.8905C14.6177 14.8813 14.4612 14.8813 14.3051 14.8905C14.0947 14.8875 13.8845 14.9032 13.677 14.9374H13.6254C13.4288 14.9672 13.2345 15.0111 13.0441 15.0686H12.9926C12.8099 15.1287 12.6314 15.2008 12.4582 15.2843C12.3521 15.3349 12.2489 15.3913 12.1488 15.453L12.1348 14.8952ZM11.0145 19.0858C11.0133 18.5557 11.1406 18.0331 11.3855 17.5629C11.6304 17.0927 11.9856 16.6888 12.4207 16.3858C13.0664 15.9265 13.8609 15.7258 14.6473 15.8233C15.0504 15.8664 15.4417 15.9857 15.8004 16.1749C15.9187 16.2363 16.033 16.3052 16.1426 16.3811C16.3112 16.4916 16.4682 16.6188 16.6113 16.7608C16.916 17.0655 17.1577 17.4273 17.3226 17.8254C17.4875 18.2235 17.5723 18.6503 17.5722 19.0812V20.8483H17.291C17.3768 20.5656 17.421 20.2719 17.4222 19.9765C17.4241 19.3951 17.2613 18.825 16.9527 18.3324C16.6441 17.8396 16.2023 17.4443 15.6785 17.1921C15.6078 17.1605 15.531 17.1445 15.4535 17.1452C15.4256 17.1406 15.3971 17.1406 15.3691 17.1452H15.3316C15.2916 17.1539 15.2535 17.1698 15.2191 17.1921C15.1517 17.2285 15.0943 17.2808 15.0518 17.3446C15.0093 17.4083 14.9831 17.4815 14.9754 17.5577C14.9621 17.716 14.9354 17.8727 14.8957 18.0265C14.7724 18.4533 14.5383 18.8399 14.2172 19.147C13.8961 19.4541 13.4995 19.6707 13.0676 19.7749C12.9138 19.811 12.7567 19.8313 12.5988 19.8358H12.3551C12.1864 19.8237 12.0197 19.7922 11.8582 19.7421C11.8116 19.735 11.7642 19.735 11.7176 19.7421C11.6818 19.7375 11.6456 19.7375 11.6098 19.7421H11.5441C11.4783 19.7615 11.4175 19.7951 11.366 19.8405C11.3125 19.8884 11.2707 19.9481 11.2439 20.0147C11.2171 20.0814 11.2059 20.1533 11.2113 20.2249C11.2197 20.3352 11.2354 20.4448 11.2582 20.553C11.2816 20.5999 11.2816 20.6562 11.2816 20.6562C11.2816 20.6562 11.3098 20.778 11.3285 20.8343H11.0145V19.0858Z" fill="#084B92"/>
<path d="M23.0001 26.4355C23.8133 26.4401 24.6095 26.2029 25.2875 25.754C25.9656 25.3052 26.4949 24.6648 26.8083 23.9144C27.1216 23.164 27.2048 22.3373 27.0473 21.5395C26.8898 20.7417 26.4986 20.0088 25.9237 19.4337C25.3486 18.8587 24.6157 18.4676 23.8179 18.3101C23.02 18.1526 22.1934 18.2358 21.443 18.5492C20.6926 18.8625 20.0523 19.3918 19.6034 20.0699C19.1544 20.748 18.9173 21.5442 18.9219 22.3574C18.9293 23.4366 19.3613 24.4697 20.1245 25.2329C20.8877 25.9961 21.9207 26.4281 23.0001 26.4355ZM23.0001 25.498C22.2548 25.4957 21.5347 25.2292 20.9674 24.746C20.4001 24.2628 20.0225 23.5942 19.9016 22.8589H19.9485C20.7339 22.8508 21.5106 22.6916 22.236 22.3902C22.8669 22.1378 23.4361 21.7525 23.9048 21.2605C24.469 21.9795 25.2551 22.4919 26.1407 22.7183C26.0449 23.4843 25.6731 24.1893 25.095 24.7009C24.5168 25.2125 23.7721 25.4959 23.0001 25.498ZM23.0001 19.1699C23.7362 19.1713 24.4493 19.4267 25.0189 19.893C25.5885 20.3593 25.9798 21.0078 26.1266 21.7293C25.7503 21.6225 25.401 21.4368 25.1019 21.1847C24.8029 20.9326 24.561 20.6196 24.3923 20.2668C24.3613 20.1788 24.3049 20.1021 24.2302 20.0464C24.1554 19.9908 24.0659 19.9586 23.9728 19.9541C23.8797 19.9496 23.7875 19.9728 23.7077 20.021C23.6279 20.0692 23.5643 20.1401 23.5251 20.2246C23.1422 20.8368 22.5617 21.2998 21.8798 21.5371C21.2488 21.7941 20.5735 21.9247 19.8923 21.9214C19.9907 21.1648 20.3596 20.4694 20.9308 19.9637C21.5021 19.4579 22.2371 19.1759 23.0001 19.1699Z" fill="#084B92"/>
<path d="M27.1113 28.001C26.2418 27.3036 25.1604 26.9232 24.0457 26.9229H21.955C20.8387 26.9229 19.7563 27.3069 18.8894 28.0104C18.6187 28.2303 18.3705 28.4769 18.1488 28.7463C17.4577 29.6134 17.081 30.6891 17.0801 31.7979V36.1244C17.0801 36.2487 17.1295 36.368 17.2174 36.4558C17.3053 36.5438 17.4245 36.5932 17.5488 36.5932H28.4519C28.5763 36.5932 28.6955 36.5438 28.7834 36.4558C28.8713 36.368 28.9207 36.2487 28.9207 36.1244V31.7979C28.921 31.0702 28.7587 30.3516 28.4456 29.6947C28.1326 29.0378 27.6767 28.459 27.1113 28.001ZM25.5925 31.9947C25.5932 32.0207 25.5886 32.0467 25.5789 32.0708C25.5692 32.0949 25.5548 32.117 25.5364 32.1354C25.5179 32.1537 25.496 32.1683 25.4718 32.1779C25.4476 32.1876 25.4217 32.1923 25.3957 32.1916C25.3435 32.1916 25.2934 32.1708 25.2565 32.1339C25.2196 32.097 25.1988 32.0469 25.1988 31.9947C25.1988 31.9425 25.2196 31.8924 25.2565 31.8555C25.2934 31.8186 25.3435 31.7979 25.3957 31.7979C25.4217 31.7972 25.4476 31.8018 25.4718 31.8115C25.496 31.8212 25.5179 31.8356 25.5364 31.8541C25.5548 31.8725 25.5692 31.8944 25.5789 31.9186C25.5886 31.9428 25.5932 31.9687 25.5925 31.9947ZM27.9832 35.6557H18.0175V31.7979C18.0166 30.9054 18.319 30.0393 18.8753 29.3416C19.0578 29.1217 19.2602 28.9193 19.48 28.7369C19.7504 28.5167 20.0502 28.3352 20.3707 28.1979V29.7494C20.0477 29.846 19.7643 30.0441 19.5625 30.3142C19.3608 30.5844 19.2514 30.9122 19.2503 31.2494V32.6557C19.2503 32.78 19.2998 32.8992 19.3877 32.9871C19.4756 33.075 19.5948 33.1244 19.7191 33.1244H20.141C20.2654 33.1306 20.3871 33.0872 20.4793 33.0037C20.5717 32.9201 20.627 32.8034 20.6332 32.6791C20.6394 32.5548 20.596 32.4331 20.5125 32.3408C20.429 32.2484 20.3123 32.1931 20.1878 32.1869V31.2494C20.1878 31.0791 20.2555 30.9158 20.376 30.7953C20.4964 30.6748 20.6598 30.6072 20.83 30.6072C21.0004 30.6072 21.1638 30.6748 21.2842 30.7953C21.4046 30.9158 21.4722 31.0791 21.4722 31.2494V32.1869C21.3479 32.1869 21.2288 32.2363 21.1408 32.3242C21.0529 32.4121 21.0035 32.5314 21.0035 32.6557C21.0035 32.78 21.0529 32.8992 21.1408 32.9871C21.2288 33.075 21.3479 33.1244 21.4722 33.1244H21.941C22.0654 33.1244 22.1845 33.075 22.2725 32.9871C22.3604 32.8992 22.4097 32.78 22.4097 32.6557V31.2494C22.4087 30.9136 22.3003 30.587 22.1004 30.3171C21.9006 30.0473 21.6197 29.8483 21.2988 29.7494V28.09C21.2987 28.0317 21.2858 27.9742 21.2613 27.9213C21.4871 27.8799 21.7162 27.8595 21.9457 27.8604H24.0363C24.3524 27.8615 24.6672 27.9008 24.9738 27.9775C24.9377 28.042 24.9184 28.1145 24.9175 28.1885V30.9682C24.6816 31.0752 24.4893 31.2599 24.3728 31.4916C24.2564 31.7231 24.2228 31.9876 24.2776 32.2409C24.3323 32.4942 24.4723 32.7212 24.674 32.8839C24.8757 33.0467 25.1272 33.1355 25.3863 33.1355C25.6455 33.1355 25.8969 33.0467 26.0987 32.8839C26.3003 32.7212 26.4403 32.4942 26.4951 32.2409C26.5498 31.9876 26.5163 31.7231 26.3998 31.4916C26.2834 31.2599 26.0911 31.0752 25.855 30.9682V28.3057C26.0878 28.4251 26.3077 28.5681 26.5113 28.7322C26.9684 29.1016 27.337 29.5688 27.5902 30.0992C27.8432 30.6296 27.9743 31.21 27.9738 31.7979L27.9832 35.6557Z" fill="#084B92"/>
<path d="M31.4379 21.5422C32.2248 21.5458 32.9949 21.3157 33.6507 20.8809C34.3065 20.446 34.8183 19.8261 35.1212 19.0999C35.424 18.3736 35.5042 17.5738 35.3516 16.8019C35.199 16.03 34.8204 15.3208 34.2641 14.7644C33.7077 14.2081 32.9985 13.8295 32.2267 13.6769C31.4547 13.5243 30.6548 13.6045 29.9287 13.9074C29.2024 14.2102 28.5825 14.722 28.1477 15.3778C27.7129 16.0335 27.4826 16.8037 27.4864 17.5906C27.4926 18.6367 27.9108 19.6382 28.6506 20.378C29.3902 21.1177 30.3918 21.536 31.4379 21.5422ZM31.4379 20.6047C30.7267 20.6029 30.0389 20.3505 29.4953 19.8919C28.9518 19.4332 28.5874 18.7976 28.4661 18.0969H28.4942C29.252 18.0926 30.0018 17.9413 30.702 17.6515C31.3087 17.4136 31.856 17.0456 32.3051 16.5734C32.855 17.2581 33.614 17.7438 34.4661 17.9562C34.3702 18.6906 34.0098 19.3648 33.4522 19.8524C32.8948 20.34 32.1786 20.6075 31.4379 20.6047ZM31.4379 14.5624C32.1379 14.5634 32.8163 14.8046 33.3598 15.2457C33.9034 15.6868 34.2789 16.3011 34.4239 16.9859C34.068 16.8802 33.7386 16.7002 33.4574 16.4578C33.1762 16.2154 32.9497 15.9161 32.7926 15.5796C32.7621 15.4918 32.7061 15.4151 32.6318 15.3591C32.5575 15.3032 32.4682 15.2706 32.3754 15.2656C32.2793 15.2564 32.1827 15.2771 32.0988 15.325C32.0149 15.3728 31.9477 15.4454 31.9067 15.5328C31.5401 16.1206 30.9823 16.5642 30.327 16.789C29.7321 17.0339 29.0953 17.1612 28.452 17.164C28.5545 16.4441 28.9125 15.7851 29.4607 15.3074C30.009 14.8298 30.7108 14.5653 31.4379 14.5624Z" fill="#084B92"/>
<path d="M31.7195 21.8652H31.218C30.5774 21.8659 29.9433 21.9927 29.3517 22.2386C28.7601 22.4845 28.2229 22.8445 27.7706 23.2981C27.3183 23.7517 26.9598 24.29 26.7156 24.8823C26.4715 25.4745 26.3464 26.109 26.3477 26.7496C26.3477 26.8739 26.3971 26.9932 26.485 27.0811C26.5729 27.169 26.6921 27.2184 26.8164 27.2184C26.9407 27.2184 27.06 27.169 27.1479 27.0811C27.2358 26.9932 27.2852 26.8739 27.2852 26.7496C27.2852 25.7066 27.6995 24.7062 28.4371 23.9687C29.1746 23.2312 30.1749 22.8168 31.218 22.8168H31.7195C32.7631 22.8168 33.7639 23.231 34.5021 23.9684C35.2404 24.7059 35.6558 25.7062 35.657 26.7496V32.0605H30.032C29.9077 32.0605 29.7885 32.11 29.7006 32.1979C29.6127 32.2858 29.5633 32.405 29.5633 32.5293C29.5633 32.6536 29.6127 32.7729 29.7006 32.8608C29.7885 32.9487 29.9077 32.998 30.032 32.998H36.1258C36.2501 32.998 36.3694 32.9487 36.4573 32.8608C36.5451 32.7729 36.5945 32.6536 36.5945 32.5293V26.7496C36.5952 26.1088 36.4696 25.4741 36.2249 24.8819C35.9803 24.2896 35.6213 23.7514 35.1686 23.2978C34.716 22.8443 34.1784 22.4843 33.5866 22.2385C32.9948 21.9927 32.3604 21.8659 31.7195 21.8652Z" fill="#084B92"/>
<path d="M16.1891 31.841H10.3438V28.302C10.345 27.2584 10.7604 26.2581 11.4987 25.5207C12.237 24.7833 13.2378 24.3691 14.2812 24.3691H14.7828C15.5817 24.3711 16.3611 24.6155 17.0182 25.07C17.6752 25.5244 18.1788 26.1676 18.4625 26.9145C18.5067 27.0313 18.5953 27.1259 18.7092 27.1772C18.8231 27.2287 18.9526 27.2327 19.0695 27.1887C19.1864 27.1445 19.2809 27.0557 19.3324 26.9419C19.3838 26.8281 19.3879 26.6985 19.3438 26.5816C18.9906 25.6574 18.3658 24.8617 17.5517 24.2994C16.7376 23.7372 15.7722 23.4346 14.7828 23.4316H14.2812C12.9895 23.4329 11.751 23.9462 10.8371 24.8592C9.92329 25.7721 9.40873 27.0102 9.40625 28.302V32.3098C9.40625 32.4341 9.45564 32.5532 9.54355 32.6412C9.63145 32.7291 9.75068 32.7785 9.875 32.7785H16.1891C16.3134 32.7785 16.4326 32.7291 16.5205 32.6412C16.6084 32.5532 16.6578 32.4341 16.6578 32.3098C16.6578 32.1855 16.6084 32.0662 16.5205 31.9783C16.4326 31.8903 16.3134 31.841 16.1891 31.841Z" fill="#084B92"/>
<path d="M17.2535 27.9309C17.3779 27.9309 17.497 27.8815 17.585 27.7936C17.6729 27.7057 17.7222 27.5864 17.7222 27.4621C17.7222 27.3378 17.6729 27.2186 17.585 27.1307C17.497 27.0428 17.3779 26.9934 17.2535 26.9934H16.9301V26.6699C16.9301 26.5456 16.8807 26.4265 16.7928 26.3385C16.7049 26.2506 16.5856 26.2012 16.4613 26.2012C16.337 26.2012 16.2178 26.2506 16.1299 26.3385C16.042 26.4265 15.9926 26.5456 15.9926 26.6699V26.9934H15.6738C15.5495 26.9934 15.4303 27.0428 15.3424 27.1307C15.2545 27.2186 15.2051 27.3378 15.2051 27.4621C15.2051 27.5864 15.2545 27.7057 15.3424 27.7936C15.4303 27.8815 15.5495 27.9309 15.6738 27.9309H15.9926V28.2543C15.9926 28.3786 16.042 28.4979 16.1299 28.5858C16.2178 28.6737 16.337 28.723 16.4613 28.723C16.5856 28.723 16.7049 28.6737 16.7928 28.5858C16.8807 28.4979 16.9301 28.3786 16.9301 28.2543V27.9309H17.2535Z" fill="#084B92"/>
<path d="M33.5746 24.875C33.4502 24.875 33.331 24.9244 33.2431 25.0123C33.1552 25.1002 33.1059 25.2194 33.1059 25.3437V25.6672H32.7871C32.6627 25.6672 32.5435 25.7166 32.4556 25.8044C32.3677 25.8924 32.3184 26.0116 32.3184 26.1359C32.3184 26.2602 32.3677 26.3795 32.4556 26.4674C32.5435 26.5553 32.6627 26.6047 32.7871 26.6047H33.1059V26.9281C33.1059 27.0524 33.1552 27.1717 33.2431 27.2596C33.331 27.3475 33.4502 27.3969 33.5746 27.3969C33.6989 27.3969 33.8181 27.3475 33.906 27.2596C33.994 27.1717 34.0434 27.0524 34.0434 26.9281V26.6047H34.3668C34.4911 26.6047 34.6103 26.5553 34.6982 26.4674C34.7861 26.3795 34.8355 26.2602 34.8355 26.1359C34.8355 26.0116 34.7861 25.8924 34.6982 25.8044C34.6103 25.7166 34.4911 25.6672 34.3668 25.6672H34.0434V25.3437C34.0434 25.2194 33.994 25.1002 33.906 25.0123C33.8181 24.9244 33.6989 24.875 33.5746 24.875Z" fill="#084B92"/>
</svg>
