<svg width="29" height="29" viewBox="0 0 29 29" fill="none" xmlns="http://www.w3.org/2000/svg">
<g clip-path="url(#clip0_2002_1029)">
<path d="M24.5521 12.1387C24.5521 20.25 14.069 27.2025 14.069 27.2025C14.069 27.2025 3.58594 20.25 3.58594 12.1387C3.58594 9.37283 4.6904 6.72024 6.65636 4.76447C8.62231 2.8087 11.2887 1.70996 14.069 1.70996C16.8493 1.70996 19.5157 2.8087 21.4817 4.76447C23.4476 6.72024 24.5521 9.37283 24.5521 12.1387Z" stroke="#03A9F4" stroke-width="2" stroke-linecap="round" stroke-linejoin="round"/>
<path d="M14.0686 15.6146C15.9985 15.6146 17.5629 14.0582 17.5629 12.1384C17.5629 10.2185 15.9985 8.66211 14.0686 8.66211C12.1387 8.66211 10.5742 10.2185 10.5742 12.1384C10.5742 14.0582 12.1387 15.6146 14.0686 15.6146Z" stroke="#03A9F4" stroke-width="2" stroke-linecap="round" stroke-linejoin="round"/>
</g>
<defs>
<clipPath id="clip0_2002_1029">
<rect width="27.9548" height="27.81" fill="white" transform="translate(0.0898438 0.550781)"/>
</clipPath>
</defs>
</svg>
