<svg width="40" height="40" viewBox="0 0 40 40" fill="none" xmlns="http://www.w3.org/2000/svg">
<rect width="40" height="40" rx="4" fill="#084B92" fill-opacity="0.05"/>
<rect width="40" height="40" rx="4" fill="#084B92" fill-opacity="0.05"/>
<g clip-path="url(#clip0_2014_2134)">
<path d="M27.6737 27.9103L23.3762 26.0699C23.0191 25.9169 22.7884 25.5672 22.7884 25.1786V23.4533C24.3512 22.5537 25.4421 20.9222 25.5894 19.0303H25.8716C26.3268 19.0303 26.7629 18.8367 27.0684 18.4992C27.3737 18.1617 27.5226 17.7071 27.477 17.2517C27.44 16.883 27.2681 16.5508 27.0117 16.2975C27.0141 16.2794 27.0156 16.2612 27.0156 16.2424V14.8333C27.0156 12.5377 25.9072 10.496 24.1974 9.21547C24.197 6.9016 22.3143 5 20.0004 5C17.6876 5 15.806 6.89961 15.8035 9.21184C15.5974 9.36612 15.3984 9.53205 15.2082 9.71006C13.9107 10.9242 13.1275 12.5658 13.0028 14.3327C12.9857 14.5748 13.1681 14.7849 13.4102 14.802C13.6513 14.8187 13.8625 14.6367 13.8796 14.3946C13.9886 12.8497 14.6738 11.414 15.8088 10.3519C16.9491 9.28472 18.4377 8.69709 20.0004 8.69709C23.384 8.69709 26.1367 11.4498 26.1367 14.8333V15.8357C26.0289 15.8144 25.9179 15.803 25.8045 15.803H25.1671C24.8914 15.803 24.6671 15.5788 24.6671 15.3031V14.9931C24.6671 14.0432 24.1299 13.2165 23.3427 12.8007C23.7473 12.5608 23.9799 12.3968 24.0133 12.3728C24.2108 12.2318 24.2564 11.9577 24.1155 11.7602C23.9748 11.5627 23.7004 11.5168 23.5028 11.6574C23.4729 11.6788 20.4591 13.7955 16.183 14.3443C15.6988 14.4065 15.3337 14.8178 15.3337 15.303C15.3337 15.5787 15.1094 15.803 14.8338 15.803H14.1293C13.6741 15.803 13.238 15.9966 12.9325 16.3342C12.6272 16.6716 12.4782 17.1262 12.5238 17.5814C12.6052 18.394 13.3397 19.0303 14.1963 19.0303H14.4113C14.5138 20.3622 15.0818 21.6004 16.0363 22.555C16.3922 22.9108 16.7876 23.2127 17.2124 23.457V25.1786C17.2124 25.5672 16.9817 25.9169 16.6245 26.0699L12.3271 27.9103C11.3003 28.3502 10.6367 29.3562 10.6367 30.4732V34.5605C10.6367 34.8033 10.8334 35 11.0762 35C11.3189 35 11.5156 34.8033 11.5156 34.5605V30.4732C11.5156 29.7082 11.97 29.0194 12.6731 28.7184L15.3337 27.5789V30.3635H13.8944C13.1341 30.3635 12.5156 30.9822 12.5156 31.7424V33.6211C12.5156 34.3814 13.1341 34.9999 13.8944 34.9999C14.1371 34.9999 14.3338 34.8032 14.3338 34.5605C14.3338 34.3177 14.1371 34.121 13.8944 34.121C13.6187 34.121 13.3945 33.8967 13.3945 33.6211V31.7424C13.3945 31.4667 13.6187 31.2424 13.8944 31.2424H17.6519C17.9276 31.2424 18.1519 31.4667 18.1519 31.7424V33.6211C18.1519 33.8967 17.9276 34.121 17.6519 34.121C17.4092 34.121 17.2125 34.3177 17.2125 34.5605C17.2125 34.8032 17.4092 34.9999 17.6519 34.9999C18.4122 34.9999 19.0308 34.3813 19.0308 33.6211V31.7424C19.0308 30.9821 18.4121 30.3635 17.6519 30.3635H16.2127V27.8666L19.2356 29.8819C19.4679 30.0368 19.7342 30.1141 20.0004 30.1141C20.2667 30.1141 20.533 30.0367 20.7654 29.8818L23.7883 27.8665V31.3561C22.9806 31.5538 22.3792 32.2835 22.3792 33.1514C22.3792 34.1707 23.2084 35 24.2277 35C25.2471 35 26.0763 34.1708 26.0763 33.1514C26.0763 32.2836 25.475 31.5539 24.6672 31.3561V27.5788L27.3278 28.7183C28.0309 29.0194 28.4852 29.7082 28.4852 30.4731V34.5605C28.4852 34.8033 28.6819 35 28.9247 35C29.1674 35 29.3641 34.8033 29.3641 34.5605V30.4732C29.3641 29.3562 28.7004 28.3502 27.6737 27.9103ZM16.7328 8.62426C17.0051 7.06678 18.3662 5.87891 20.0004 5.87891C21.6358 5.87891 22.9977 7.06848 23.2686 8.6276C22.292 8.11121 21.1798 7.81818 20.0004 7.81818C18.8479 7.81818 17.7308 8.0982 16.7328 8.62426ZM15.2733 18.5908C15.2733 18.4743 15.2271 18.3626 15.1446 18.2801C15.0623 18.1977 14.9504 18.1514 14.8338 18.1514H14.1963C13.7858 18.1514 13.4353 17.8627 13.3984 17.494C13.3772 17.2822 13.4432 17.0798 13.5841 16.9239C13.7234 16.7701 13.922 16.6818 14.1293 16.6818H14.8338C15.5941 16.6818 16.2126 16.0632 16.2126 15.3012C16.2126 15.2579 16.2472 15.2221 16.2949 15.216C18.8112 14.8931 20.8843 14.0725 22.2468 13.395C23.102 13.4254 23.7882 14.1306 23.7882 14.993V15.303C23.7882 16.0633 24.4068 16.6818 25.167 16.6818H25.8044C26.2149 16.6818 26.5655 16.9707 26.6024 17.3393C26.6236 17.5511 26.5576 17.7536 26.4166 17.9094C26.2775 18.0632 26.0788 18.1514 25.8714 18.1514H25.1669C24.9243 18.1514 24.7276 18.3482 24.7276 18.5909C24.7276 21.1975 22.607 23.3181 20.0004 23.3181C18.7377 23.3181 17.5507 22.8264 16.6578 21.9335C15.765 21.0407 15.2733 19.8536 15.2733 18.5908ZM20.2778 29.1506C20.1094 29.2629 19.8915 29.2629 19.723 29.1506L16.5708 27.0491L16.9706 26.8779C17.6514 26.5862 18.0914 25.9193 18.0914 25.1786V23.8649C18.6954 24.0831 19.3391 24.197 20.0004 24.197C20.6705 24.197 21.3133 24.0785 21.9095 23.8619V25.1786C21.9095 25.9193 22.3494 26.5862 23.0302 26.8779L23.43 27.0491L20.2778 29.1506ZM25.1972 33.1514C25.1972 33.6861 24.7623 34.1211 24.2276 34.1211C23.693 34.1211 23.258 33.6861 23.258 33.1514C23.258 32.6168 23.693 32.1818 24.2276 32.1818C24.7623 32.1818 25.1972 32.6168 25.1972 33.1514Z" fill="#084B92"/>
<path d="M17.6503 16.7422C17.4076 16.7422 17.2109 16.9389 17.2109 17.1816V17.6513C17.2109 17.8941 17.4076 18.0908 17.6503 18.0908C17.8932 18.0908 18.0898 17.8941 18.0898 17.6513V17.1816C18.0898 16.939 17.8932 16.7422 17.6503 16.7422Z" fill="#084B92"/>
<path d="M22.3497 18.0908C22.5924 18.0908 22.7891 17.8941 22.7891 17.6513V17.1816C22.7891 16.9389 22.5924 16.7422 22.3497 16.7422C22.1068 16.7422 21.9102 16.9389 21.9102 17.1816V17.6513C21.9102 17.8941 22.1068 18.0908 22.3497 18.0908Z" fill="#084B92"/>
<path d="M21.7472 19.7205C21.5928 19.5333 21.3158 19.5067 21.1285 19.661C20.8438 19.8957 20.432 20.0304 19.999 20.0304C19.5659 20.0304 19.1541 19.8957 18.8694 19.661C18.6821 19.5065 18.4051 19.5332 18.2508 19.7205C18.0964 19.9078 18.1231 20.1848 18.3104 20.3392C18.7564 20.7068 19.3561 20.9093 19.999 20.9093C20.6419 20.9093 21.2417 20.7068 21.6875 20.3392C21.875 20.1848 21.9016 19.9078 21.7472 19.7205Z" fill="#084B92"/>
<path d="M34.0575 26.4143L32.203 25.7962C32.1905 25.792 32.1822 25.7804 32.1822 25.7674V24.559C33.0327 23.9705 33.5912 22.9889 33.5912 21.8787V20.4696C33.5912 19.1913 32.5513 18.1514 31.2731 18.1514H29.3943C28.1161 18.1514 27.0762 19.1913 27.0762 20.4696V21.8787C27.0762 22.9889 27.6347 23.9706 28.4852 24.559V25.7674C28.4852 25.7805 28.4769 25.792 28.4646 25.7961L27.8463 26.0022C27.6161 26.079 27.4917 26.3279 27.5684 26.558C27.6298 26.7422 27.8012 26.8587 27.9853 26.8587C28.0313 26.8587 28.0782 26.8514 28.1242 26.836L28.52 26.704L29.7883 27.6552C29.9489 27.7756 30.1413 27.8358 30.3338 27.8358C30.5263 27.8358 30.7186 27.7756 30.8792 27.6552L31.7731 26.9849V29.0266C31.2277 29.2105 30.8338 29.7265 30.8338 30.3332C30.8338 31.0936 31.4523 31.712 32.2125 31.712C32.9729 31.712 33.5914 31.0935 33.5914 30.3332C33.5914 29.7266 33.1974 29.2106 32.652 29.0266V26.8723L33.7798 27.2481C33.9842 27.3163 34.1216 27.5068 34.1216 27.7224V31.2726C34.1216 31.5153 34.3183 31.712 34.5611 31.712C34.8038 31.712 35.0005 31.5153 35.0005 31.2726V27.7224C35.0003 27.1279 34.6214 26.6023 34.0575 26.4143ZM27.9549 21.8787V20.4696C27.9549 19.6758 28.6006 19.0303 29.3942 19.0303H31.273C32.0666 19.0303 32.7122 19.6759 32.7122 20.4696V21.8787C32.7122 23.1902 31.6452 24.2574 30.3335 24.2574C29.022 24.2574 27.9549 23.1902 27.9549 21.8787ZM30.3517 26.9521C30.341 26.96 30.3261 26.9601 30.3155 26.9521L29.2706 26.1684C29.3306 26.0463 29.364 25.9099 29.364 25.7673V24.9888C29.6703 25.0846 29.996 25.1362 30.3336 25.1362C30.6711 25.1362 30.9968 25.0846 31.3033 24.9888V25.7673C31.3033 25.9099 31.3367 26.0463 31.3966 26.1684L30.3517 26.9521ZM32.2124 30.8331C31.9367 30.8331 31.7125 30.6089 31.7125 30.3332C31.7125 30.0575 31.9367 29.8333 32.2124 29.8333C32.4881 29.8333 32.7123 30.0575 32.7123 30.3332C32.7123 30.6089 32.4881 30.8331 32.2124 30.8331Z" fill="#084B92"/>
<path d="M9.12117 27.6552C9.28177 27.7757 9.47419 27.8358 9.66673 27.8358C9.85916 27.8358 10.0516 27.7757 10.2122 27.6553L11.4805 26.7041L11.8763 26.836C11.9224 26.8514 11.9692 26.8587 12.0153 26.8587C12.1993 26.8587 12.3707 26.7422 12.4321 26.558C12.5089 26.3278 12.3844 26.0789 12.1541 26.0022L11.536 25.7962C11.5236 25.792 11.5153 25.7804 11.5153 25.7674V24.559C12.3658 23.9706 12.9244 22.9889 12.9244 21.8787V19.9999C12.9244 18.9807 12.0952 18.1514 11.0758 18.1514H8.25762C7.23833 18.1514 6.40911 18.9806 6.40911 19.9999V21.8787C6.40911 22.9889 6.96768 23.9705 7.81817 24.559V25.7674C7.81817 25.7805 7.80979 25.792 7.79743 25.7961L5.94288 26.4143C5.37892 26.6023 5 27.1279 5 27.7224V31.2726C5 31.5154 5.1967 31.7121 5.43945 31.7121C5.6822 31.7121 5.8789 31.5154 5.8789 31.2726V27.7224C5.8789 27.5069 6.01631 27.3164 6.22079 27.2482L7.81817 26.7157V28.9544H7.31825C6.81692 28.9544 6.40911 29.3623 6.40911 29.8636V30.8029C6.40911 31.3043 6.81692 31.7121 7.31825 31.7121C7.561 31.7121 7.7577 31.5154 7.7577 31.2726C7.7577 31.0299 7.561 30.8332 7.31825 30.8332C7.30161 30.8332 7.28802 30.8196 7.28802 30.8029V29.8636C7.28802 29.8469 7.30155 29.8333 7.31825 29.8333H9.19699C9.21369 29.8333 9.22728 29.8468 9.22728 29.8636V30.8029C9.22728 30.8196 9.21374 30.8332 9.19699 30.8332C8.95423 30.8332 8.75754 31.0299 8.75754 31.2726C8.75754 31.5154 8.95423 31.7121 9.19699 31.7121C9.69832 31.7121 10.1062 31.3043 10.1062 30.8029V29.8636C10.1062 29.3623 9.69832 28.9544 9.19699 28.9544H8.69707V27.3371L9.12117 27.6552ZM8.25762 19.0303H11.0758C11.6105 19.0303 12.0455 19.4653 12.0455 19.9999V20.9512C10.6359 20.8336 9.64739 20.1792 9.26543 19.8821C8.94357 19.6319 8.49047 19.6284 8.16375 19.8734L7.28807 20.5302V19.9999C7.28802 19.4653 7.72295 19.0303 8.25762 19.0303ZM7.28802 21.8787V21.6287L8.69103 20.5764C8.69777 20.5713 8.71137 20.5647 8.72584 20.5759C9.28746 21.0125 10.4316 21.7203 12.0454 21.8327V21.8787C12.0454 23.1902 10.9783 24.2574 9.66668 24.2574C8.35506 24.2574 7.28802 23.1903 7.28802 21.8787ZM9.66673 25.1363C10.0042 25.1363 10.33 25.0847 10.6363 24.989V25.7674C10.6363 25.9101 10.6697 26.0465 10.7297 26.1685L9.68484 26.9521C9.67418 26.9601 9.65918 26.9601 9.64857 26.9521L8.60367 26.1685C8.66367 26.0464 8.69707 25.91 8.69707 25.7674V24.9889C9.00345 25.0847 9.32918 25.1363 9.66673 25.1363Z" fill="#084B92"/>
</g>
<defs>
<clipPath id="clip0_2014_2134">
<rect width="30" height="30" fill="white" transform="translate(5 5)"/>
</clipPath>
</defs>
</svg>
