<svg width="22" height="22" viewBox="0 0 22 22" fill="none" xmlns="http://www.w3.org/2000/svg">
<path d="M13.023 4.6569C13.9184 4.83159 14.7412 5.26947 15.3863 5.91451C16.0313 6.55955 16.4692 7.38239 16.6439 8.27773L13.023 4.6569ZM13.023 0.990234C14.8832 1.19688 16.6178 2.02989 17.9421 3.35249C19.2663 4.67509 20.1015 6.40866 20.3105 8.26857L13.023 0.990234ZM19.3939 15.5836V18.3336C19.3949 18.5889 19.3426 18.8416 19.2403 19.0755C19.1381 19.3094 18.9881 19.5194 18.7999 19.6919C18.6118 19.8645 18.3897 19.9959 18.1479 20.0777C17.906 20.1595 17.6498 20.1899 17.3955 20.1669C14.5748 19.8604 11.8653 18.8965 9.48469 17.3527C7.26987 15.9453 5.39208 14.0676 3.98469 11.8527C2.43551 9.46134 1.47142 6.73865 1.17053 3.90523C1.14762 3.65175 1.17774 3.39626 1.25898 3.15506C1.34022 2.91385 1.4708 2.6922 1.6424 2.50422C1.81399 2.31624 2.02285 2.16605 2.25567 2.06321C2.48849 1.96037 2.74017 1.90714 2.99469 1.9069H5.74469C6.18956 1.90252 6.62084 2.06006 6.95814 2.35014C7.29545 2.64022 7.51576 3.04306 7.57803 3.48357C7.6941 4.36363 7.90936 5.22773 8.21969 6.0594C8.34303 6.3875 8.36972 6.74407 8.29661 7.08687C8.2235 7.42968 8.05365 7.74434 7.80719 7.99357L6.64303 9.15773C7.94795 11.4527 9.84811 13.3528 12.143 14.6577L13.3072 13.4936C13.5564 13.2471 13.8711 13.0773 14.2139 13.0042C14.5567 12.931 14.9133 12.9577 15.2414 13.0811C16.073 13.3914 16.9371 13.6067 17.8172 13.7227C18.2625 13.7856 18.6691 14.0098 18.9598 14.3529C19.2506 14.696 19.405 15.134 19.3939 15.5836Z" stroke="white" stroke-width="2" stroke-linecap="round" stroke-linejoin="round"/>
</svg>
