<svg width="26" height="26" viewBox="0 0 26 26" fill="none" xmlns="http://www.w3.org/2000/svg">
<path d="M15.9892 5.6363C17.0859 5.84918 18.0939 6.3828 18.8841 7.16887C19.6742 7.95494 20.2106 8.95769 20.4246 10.0488L15.9892 5.6363ZM15.9892 1.16797C18.2678 1.4198 20.3927 2.43494 22.0149 4.0467C23.6371 5.65847 24.6602 7.77106 24.9162 10.0376L15.9892 1.16797ZM23.7933 18.9519V22.3032C23.7946 22.6143 23.7305 22.9222 23.6053 23.2073C23.48 23.4923 23.2962 23.7482 23.0658 23.9586C22.8353 24.1689 22.5633 24.329 22.267 24.4287C21.9708 24.5283 21.6569 24.5654 21.3454 24.5374C17.8901 24.1638 14.5709 22.9892 11.6548 21.1079C8.94165 19.3928 6.64139 17.1045 4.91736 14.4054C3.01963 11.4912 1.83864 8.17319 1.47005 4.72029C1.44199 4.41138 1.47889 4.10004 1.57841 3.8061C1.67793 3.51216 1.83788 3.24205 2.04808 3.01297C2.25829 2.78389 2.51413 2.60086 2.79933 2.47554C3.08453 2.35022 3.39284 2.28534 3.70463 2.28505H7.07333C7.61828 2.27972 8.14659 2.47169 8.55979 2.8252C8.97298 3.1787 9.24286 3.66962 9.31913 4.20644C9.46132 5.27891 9.72501 6.33194 10.1052 7.34544C10.2562 7.74527 10.2889 8.17981 10.1994 8.59756C10.1098 9.01531 9.90177 9.39876 9.59986 9.70249L8.17378 11.1212C9.77229 13.9179 12.0999 16.2335 14.9112 17.8237L16.3373 16.405C16.6426 16.1046 17.028 15.8977 17.448 15.8086C17.8679 15.7195 18.3047 15.752 18.7066 15.9023C19.7254 16.2805 20.7839 16.5428 21.8619 16.6843C22.4074 16.7608 22.9056 17.0341 23.2617 17.4522C23.6178 17.8704 23.807 18.4041 23.7933 18.9519Z" stroke="#03A9F4" stroke-width="2" stroke-linecap="round" stroke-linejoin="round"/>
</svg>
