<svg width="20" height="19" viewBox="0 0 20 19" fill="none" xmlns="http://www.w3.org/2000/svg">
    <path
        d="M11.9292 4.15365C12.7432 4.31245 13.4912 4.71053 14.0776 5.29693C14.664 5.88332 15.0621 6.63137 15.2209 7.44531L11.9292 4.15365ZM11.9292 0.820312C13.6203 1.00818 15.1972 1.76546 16.4011 2.96782C17.605 4.17018 18.3642 5.74615 18.5542 7.43698L11.9292 0.820312ZM17.7209 14.087V16.587C17.7218 16.8191 17.6743 17.0488 17.5813 17.2614C17.4883 17.4741 17.352 17.665 17.181 17.8219C17.0099 17.9788 16.808 18.0982 16.5882 18.1726C16.3683 18.2469 16.1354 18.2745 15.9042 18.2536C13.3399 17.975 10.8767 17.0988 8.71256 15.6953C6.69908 14.4159 4.99201 12.7088 3.71256 10.6953C2.30421 8.52132 1.42776 6.04614 1.15422 3.47031C1.1334 3.23987 1.16079 3.00761 1.23464 2.78833C1.3085 2.56905 1.4272 2.36755 1.5832 2.19666C1.73919 2.02577 1.92906 1.88924 2.14072 1.79575C2.35237 1.70226 2.58118 1.65386 2.81256 1.65365H5.31256C5.71698 1.64967 6.10905 1.79288 6.41569 2.05659C6.72233 2.3203 6.92262 2.68652 6.97922 3.08698C7.08474 3.88703 7.28043 4.67258 7.56256 5.42865C7.67468 5.72692 7.69894 6.05107 7.63248 6.36271C7.56602 6.67435 7.41161 6.9604 7.18756 7.18698L6.12923 8.24531C7.31552 10.3316 9.04294 12.059 11.1292 13.2453L12.1876 12.187C12.4141 11.9629 12.7002 11.8085 13.0118 11.7421C13.3235 11.6756 13.6476 11.6999 13.9459 11.812C14.702 12.0941 15.4875 12.2898 16.2876 12.3953C16.6924 12.4524 17.0621 12.6563 17.3263 12.9682C17.5906 13.2801 17.731 13.6783 17.7209 14.087Z"
        stroke="#084B92" stroke-linecap="round" stroke-linejoin="round" />
</svg>