<svg width="21" height="20" viewBox="0 0 21 20" fill="none" xmlns="http://www.w3.org/2000/svg">
<g clip-path="url(#clip0_535_1544)">
<path d="M17.6878 8.34468C17.6878 14.1347 10.2047 19.0976 10.2047 19.0976C10.2047 19.0976 2.72168 14.1347 2.72168 8.34468C2.72168 6.37033 3.51007 4.47685 4.91342 3.08077C6.31677 1.6847 8.22011 0.900391 10.2047 0.900391C12.1894 0.900391 14.0927 1.6847 15.4961 3.08077C16.8994 4.47685 17.6878 6.37033 17.6878 8.34468Z" stroke="white" stroke-width="2" stroke-linecap="round" stroke-linejoin="round"/>
<path d="M10.2053 10.8261C11.5829 10.8261 12.6996 9.71517 12.6996 8.34471C12.6996 6.97426 11.5829 5.86328 10.2053 5.86328C8.8277 5.86328 7.71094 6.97426 7.71094 8.34471C7.71094 9.71517 8.8277 10.8261 10.2053 10.8261Z" stroke="white" stroke-width="2" stroke-linecap="round" stroke-linejoin="round"/>
</g>
<defs>
<clipPath id="clip0_535_1544">
<rect width="19.9548" height="19.8515" fill="white" transform="translate(0.227539 0.0742188)"/>
</clipPath>
</defs>
</svg>
