<svg width="42" height="28" viewBox="0 0 42 28" fill="none" xmlns="http://www.w3.org/2000/svg">
<path d="M13.2266 15.5977C13.318 15.4108 13.5844 15.4108 13.6758 15.5977L14.8613 18.0234C15.0418 18.3924 15.3926 18.6489 15.7988 18.71L18.4551 19.1094C18.6581 19.14 18.7393 19.3893 18.5938 19.5342L16.6611 21.459C16.3746 21.7443 16.2433 22.1509 16.3096 22.5498L16.7588 25.249C16.7925 25.4532 16.5774 25.6077 16.3945 25.5107L14.0371 24.2598C13.6707 24.0653 13.2317 24.0654 12.8652 24.2598L10.5068 25.5107C10.324 25.6076 10.1097 25.4532 10.1436 25.249L10.5918 22.5498C10.6581 22.1509 10.5268 21.7443 10.2402 21.459L8.30762 19.5342C8.16214 19.3893 8.24338 19.1401 8.44629 19.1094L11.1035 18.71C11.5095 18.6487 11.8596 18.3923 12.04 18.0234L13.2266 15.5977Z" stroke="#A8D5BA"/>
<path d="M27.0039 15.5977C27.0953 15.4108 27.3617 15.4108 27.4531 15.5977L28.6387 18.0234C28.8192 18.3924 29.17 18.6489 29.5762 18.71L32.2324 19.1094C32.4354 19.14 32.5166 19.3893 32.3711 19.5342L30.4385 21.459C30.1519 21.7443 30.0207 22.1509 30.0869 22.5498L30.5361 25.249C30.5699 25.4532 30.3547 25.6077 30.1719 25.5107L27.8145 24.2598C27.4481 24.0653 27.009 24.0654 26.6426 24.2598L24.2842 25.5107C24.1013 25.6076 23.887 25.4532 23.9209 25.249L24.3691 22.5498C24.4354 22.1509 24.3041 21.7443 24.0176 21.459L22.085 19.5342C21.9395 19.3893 22.0207 19.1401 22.2236 19.1094L24.8809 18.71C25.2868 18.6487 25.637 18.3923 25.8174 18.0234L27.0039 15.5977Z" stroke="#A8D5BA"/>
<path d="M6.66504 1.59766C6.75646 1.41081 7.02287 1.41077 7.11426 1.59766L8.2998 4.02344C8.48028 4.39245 8.83109 4.64886 9.2373 4.70996L11.8936 5.10938C12.0966 5.14002 12.1777 5.38928 12.0322 5.53418L10.0996 7.45898C9.81307 7.74432 9.68179 8.15089 9.74805 8.5498L10.1973 11.249C10.231 11.4532 10.0158 11.6077 9.83301 11.5107L7.47559 10.2598C7.10919 10.0653 6.67014 10.0654 6.30371 10.2598L3.94531 11.5107C3.76248 11.6076 3.54818 11.4532 3.58203 11.249L4.03027 8.5498C4.09653 8.15089 3.96525 7.74432 3.67871 7.45898L1.74609 5.53418C1.60061 5.38931 1.68185 5.14012 1.88477 5.10938L4.54199 4.70996C4.94798 4.64873 5.2981 4.39227 5.47852 4.02344L6.66504 1.59766Z" stroke="#A8D5BA"/>
<path d="M20.7715 1.59766C20.8629 1.41081 21.1293 1.41077 21.2207 1.59766L22.4062 4.02344C22.5867 4.39245 22.9375 4.64886 23.3438 4.70996L26 5.10938C26.203 5.14002 26.2842 5.38928 26.1387 5.53418L24.2061 7.45898C23.9195 7.74432 23.7882 8.15089 23.8545 8.5498L24.3037 11.249C24.3375 11.4532 24.1223 11.6077 23.9395 11.5107L21.582 10.2598C21.2156 10.0653 20.7766 10.0654 20.4102 10.2598L18.0518 11.5107C17.8689 11.6076 17.6546 11.4532 17.6885 11.249L18.1367 8.5498C18.203 8.15089 18.0717 7.74432 17.7852 7.45898L15.8525 5.53418C15.7071 5.38931 15.7883 5.14012 15.9912 5.10938L18.6484 4.70996C19.0544 4.64873 19.4045 4.39227 19.585 4.02344L20.7715 1.59766Z" stroke="#A8D5BA"/>
<path d="M34.2217 1.59766C34.3131 1.41081 34.5795 1.41077 34.6709 1.59766L35.8564 4.02344C36.0369 4.39245 36.3877 4.64886 36.7939 4.70996L39.4502 5.10938C39.6532 5.14002 39.7344 5.38928 39.5889 5.53418L37.6562 7.45898C37.3697 7.74431 37.2384 8.15089 37.3047 8.5498L37.7539 11.249C37.7877 11.4532 37.5725 11.6077 37.3896 11.5107L35.0322 10.2598C34.6658 10.0653 34.2268 10.0654 33.8604 10.2598L31.502 11.5107C31.3191 11.6076 31.1048 11.4532 31.1387 11.249L31.5869 8.5498C31.6532 8.15089 31.5219 7.74432 31.2354 7.45898L29.3027 5.53418C29.1573 5.38931 29.2385 5.14012 29.4414 5.10938L32.0986 4.70996C32.5046 4.64873 32.8547 4.39226 33.0352 4.02344L34.2217 1.59766Z" stroke="#A8D5BA"/>
</svg>
