<svg width="179" height="178" viewBox="0 0 179 178" fill="none" xmlns="http://www.w3.org/2000/svg">
<g filter="url(#filter0_d_2018_2123)">
<ellipse cx="89.0318" cy="85.7815" rx="31.0318" ry="30.7815" fill="#03A9F4"/>
<path d="M89.0322 59C103.992 59.0002 116.063 71.021 116.063 85.7812C116.063 100.542 103.992 112.563 89.0322 112.563C74.0724 112.563 62 100.542 62 85.7812C62.0002 71.0208 74.0725 59 89.0322 59Z" stroke="white" stroke-width="8"/>
</g>
<ellipse cx="89.0321" cy="85.7433" rx="4.86213" ry="4.88975" fill="white"/>
<path fill-rule="evenodd" clip-rule="evenodd" d="M80.5238 85.7431C80.5238 82.9238 81.9333 80.4554 84.0423 79.0935L82.2843 77.2207C81.8087 77.5728 81.359 77.972 80.9408 78.4174C79.1042 80.3742 78.0928 82.9759 78.0928 85.7431C78.0928 88.5103 79.1042 91.1119 80.9409 93.0688C81.3591 93.5141 81.8088 93.9134 82.2844 94.2654L84.0424 92.3927C81.9333 91.0307 80.5238 88.5623 80.5238 85.7431V85.7431Z" fill="white"/>
<path fill-rule="evenodd" clip-rule="evenodd" d="M97.541 85.743C97.541 88.5622 96.1316 91.0306 94.0225 92.3926L95.7806 94.2653C96.2562 93.9133 96.7059 93.514 97.124 93.0687C98.9606 91.1119 99.9721 88.5102 99.9721 85.743C99.9721 82.9758 98.9606 80.3741 97.124 78.4174C96.7058 77.972 96.2561 77.5728 95.7805 77.2207L94.0225 79.0935C96.1316 80.4553 97.541 82.9238 97.541 85.743V85.743Z" fill="white"/>
<path fill-rule="evenodd" clip-rule="evenodd" d="M74.4457 85.7429C74.4457 81.4966 76.364 77.7278 79.3278 75.3662L77.5934 73.5186C77.1377 73.9006 76.7016 74.3128 76.2869 74.7546C74.9482 76.1809 73.8967 77.8425 73.162 79.6933C72.4007 81.6109 72.0146 83.6461 72.0146 85.7429C72.0146 87.8396 72.4007 89.8751 73.162 91.7925C73.8967 93.6435 74.9482 95.305 76.2869 96.7313C76.7016 97.173 77.1377 97.5853 77.5934 97.9674L79.3277 96.1197C76.364 93.7581 74.4457 89.9892 74.4457 85.7429V85.7429Z" fill="white"/>
<path fill-rule="evenodd" clip-rule="evenodd" d="M103.618 85.7429C103.618 89.9892 101.7 93.7581 98.7364 96.1197L100.471 97.9417C100.926 97.5596 101.363 97.1729 101.777 96.7313C103.116 95.3049 104.167 93.6434 104.902 91.7925C105.663 89.8751 106.049 87.8396 106.049 85.7429C106.049 83.6461 105.663 81.6109 104.902 79.6933C104.167 77.8425 103.116 76.1809 101.777 74.7546C101.363 74.3128 100.926 73.9006 100.471 73.5186L98.7363 75.3662C101.7 77.7278 103.618 81.4966 103.618 85.7429V85.7429Z" fill="white"/>
<defs>
<filter id="filter0_d_2018_2123" x="0" y="0" width="178.063" height="177.563" filterUnits="userSpaceOnUse" color-interpolation-filters="sRGB">
<feFlood flood-opacity="0" result="BackgroundImageFix"/>
<feColorMatrix in="SourceAlpha" type="matrix" values="0 0 0 0 0 0 0 0 0 0 0 0 0 0 0 0 0 0 127 0" result="hardAlpha"/>
<feMorphology radius="9" operator="dilate" in="SourceAlpha" result="effect1_dropShadow_2018_2123"/>
<feOffset dy="3"/>
<feGaussianBlur stdDeviation="24.5"/>
<feColorMatrix type="matrix" values="0 0 0 0 0 0 0 0 0 0 0 0 0 0 0 0 0 0 0.06 0"/>
<feBlend mode="normal" in2="BackgroundImageFix" result="effect1_dropShadow_2018_2123"/>
<feBlend mode="normal" in="SourceGraphic" in2="effect1_dropShadow_2018_2123" result="shape"/>
</filter>
</defs>
</svg>
