<svg width="163" height="162" viewBox="0 0 163 162" fill="none" xmlns="http://www.w3.org/2000/svg">
<g filter="url(#filter0_d_2018_2121)">
<ellipse cx="81.0236" cy="77.7733" rx="23.0236" ry="22.7733" fill="#084B92"/>
<path d="M81.0234 57C92.6551 57 102.047 66.3212 102.047 77.7734C102.047 89.2256 92.6551 98.5469 81.0234 98.5469C69.3919 98.5468 60.0001 89.2256 60 77.7734C60 66.3212 69.3918 57.0001 81.0234 57Z" stroke="white" stroke-width="4"/>
</g>
<g clip-path="url(#clip0_2018_2121)">
<path d="M87.8984 79.1797C86.445 79.1797 85.2201 80.1771 84.8723 81.5234H82.7422C81.4498 81.5234 80.3984 82.5748 80.3984 83.8672V85.4297C80.3984 85.8605 80.048 86.2109 79.6172 86.2109C79.1864 86.2109 78.8359 85.8605 78.8359 85.4297V80.2298C82.3466 79.8399 85.0859 76.8552 85.0859 73.2422V71.6797C85.0859 69.5258 83.3336 67.7734 81.1797 67.7734C80.7482 67.7734 80.3984 68.1232 80.3984 68.5547C80.3984 68.9862 80.7482 69.3359 81.1797 69.3359C82.472 69.3359 83.5234 70.3873 83.5234 71.6797V73.2422C83.5234 76.2577 81.0702 78.7109 78.0547 78.7109C75.0392 78.7109 72.5859 76.2577 72.5859 73.2422V71.6797C72.5859 70.3873 73.6373 69.3359 74.9297 69.3359C75.3612 69.3359 75.7109 68.9862 75.7109 68.5547C75.7109 68.1232 75.3612 67.7734 74.9297 67.7734C72.7758 67.7734 71.0234 69.5258 71.0234 71.6797V73.2422C71.0234 76.8552 73.7627 79.8399 77.2734 80.2298V85.4297C77.2734 86.722 78.3248 87.7734 79.6172 87.7734C80.9095 87.7734 81.9609 86.722 81.9609 85.4297V83.8672C81.9609 83.4364 82.3114 83.0859 82.7422 83.0859H84.8723C85.2201 84.4323 86.445 85.4297 87.8984 85.4297C89.6216 85.4297 91.0234 84.0278 91.0234 82.3047C91.0234 80.5816 89.6216 79.1797 87.8984 79.1797ZM87.8984 83.8672C87.0369 83.8672 86.3359 83.1663 86.3359 82.3047C86.3359 81.4431 87.0369 80.7422 87.8984 80.7422C88.76 80.7422 89.4609 81.4431 89.4609 82.3047C89.4609 83.1663 88.76 83.8672 87.8984 83.8672Z" fill="white"/>
<path d="M76.3973 76.4623C76.84 76.9051 77.4285 77.1489 78.0544 77.1489C78.6803 77.1489 79.2688 76.9051 79.7116 76.4623L81.2741 74.8998C82.1878 73.9861 82.1878 72.4992 81.2741 71.5855C80.3912 70.7026 78.9735 70.6727 78.0544 71.4959C77.1373 70.6734 75.7231 70.6972 74.8348 71.5855C73.921 72.4992 73.921 73.9861 74.8348 74.8998L76.3973 76.4623ZM75.9396 72.6904C76.2451 72.3849 76.7387 72.3849 77.0442 72.6904L77.502 73.1481C77.8071 73.4532 78.3017 73.4532 78.6068 73.1481L79.0646 72.6904C79.3692 72.3858 79.8646 72.3858 80.1692 72.6904C80.4747 72.9958 80.4747 73.4895 80.1692 73.795L78.6067 75.3575C78.4591 75.5051 78.2629 75.5864 78.0544 75.5864C77.8459 75.5864 77.6497 75.5051 77.5021 75.3575L75.9396 73.795C75.6341 73.4895 75.6341 72.9958 75.9396 72.6904Z" fill="white"/>
</g>
<defs>
<filter id="filter0_d_2018_2121" x="0" y="0" width="162.047" height="161.547" filterUnits="userSpaceOnUse" color-interpolation-filters="sRGB">
<feFlood flood-opacity="0" result="BackgroundImageFix"/>
<feColorMatrix in="SourceAlpha" type="matrix" values="0 0 0 0 0 0 0 0 0 0 0 0 0 0 0 0 0 0 127 0" result="hardAlpha"/>
<feMorphology radius="9" operator="dilate" in="SourceAlpha" result="effect1_dropShadow_2018_2121"/>
<feOffset dy="3"/>
<feGaussianBlur stdDeviation="24.5"/>
<feColorMatrix type="matrix" values="0 0 0 0 0 0 0 0 0 0 0 0 0 0 0 0 0 0 0.06 0"/>
<feBlend mode="normal" in2="BackgroundImageFix" result="effect1_dropShadow_2018_2121"/>
<feBlend mode="normal" in="SourceGraphic" in2="effect1_dropShadow_2018_2121" result="shape"/>
</filter>
<clipPath id="clip0_2018_2121">
<rect width="20" height="20" fill="white" transform="translate(71.0234 67.7734)"/>
</clipPath>
</defs>
</svg>
