<svg width="51" height="30" viewBox="0 0 51 30" fill="none" xmlns="http://www.w3.org/2000/svg">
<path d="M43.9258 16.3982C44.9498 15.7023 45.7237 14.6964 46.1339 13.5283C46.5441 12.3602 46.5691 11.0913 46.205 9.90794C45.841 8.72459 45.1072 7.68913 44.1113 6.95356C43.1154 6.218 41.9099 5.82108 40.6719 5.82108C39.4338 5.82108 38.2283 6.218 37.2325 6.95356C36.2366 7.68913 35.5028 8.72459 35.1387 9.90794C34.7747 11.0913 34.7996 12.3602 35.2098 13.5283C35.6201 14.6964 36.394 15.7023 37.418 16.3982C36.3639 16.7671 35.3809 17.3141 34.5117 18.0154C33.0195 16.7135 31.2631 15.75 29.3633 15.1911C30.9038 14.3356 32.1165 12.9927 32.8111 11.3733C33.5057 9.75392 33.6428 7.94968 33.201 6.24389C32.7591 4.5381 31.7632 3.02736 30.3697 1.94885C28.9762 0.870347 27.264 0.285156 25.502 0.285156C23.7399 0.285156 22.0277 0.870347 20.6342 1.94885C19.2407 3.02736 18.2448 4.5381 17.803 6.24389C17.3611 7.94968 17.4982 9.75392 18.1928 11.3733C18.8874 12.9927 20.1001 14.3356 21.6406 15.1911C19.7408 15.75 17.9844 16.7135 16.4922 18.0154C15.623 17.3141 14.64 16.7671 13.5859 16.3982C14.6111 15.7022 15.3861 14.6957 15.7971 13.5267C16.2081 12.3578 16.2334 11.0878 15.8693 9.90333C15.5052 8.71889 14.7709 7.6824 13.7743 6.94609C12.7777 6.20978 11.5712 5.81245 10.332 5.81245C9.0929 5.81245 7.88641 6.20978 6.88977 6.94609C5.89312 7.6824 5.15884 8.71889 4.79476 9.90333C4.43068 11.0878 4.45598 12.3578 4.86696 13.5267C5.27794 14.6957 6.05294 15.7022 7.07812 16.3982C5.15937 17.0735 3.49683 18.3265 2.31895 19.9849C1.14107 21.6433 0.505649 23.6258 0.5 25.6599C0.5 25.8671 0.58231 26.0658 0.728823 26.2123C0.875336 26.3588 1.07405 26.4411 1.28125 26.4411C1.48845 26.4411 1.68716 26.3588 1.83368 26.2123C1.98019 26.0658 2.0625 25.8671 2.0625 25.6599C2.06549 24.1181 2.49944 22.6078 3.31538 21.2996C4.13131 19.9914 5.29672 18.9374 6.68004 18.2565C8.06335 17.5756 9.60946 17.295 11.1438 17.4463C12.6782 17.5977 14.1397 18.175 15.3633 19.113C13.0436 21.6392 11.7581 24.945 11.7617 28.3747C11.7617 28.5819 11.844 28.7807 11.9905 28.9272C12.1371 29.0737 12.3358 29.156 12.543 29.156C12.7502 29.156 12.9489 29.0737 13.0954 28.9272C13.2419 28.7807 13.3242 28.5819 13.3242 28.3747C13.3814 25.1838 14.6891 22.1429 16.9659 19.9065C19.2427 17.6701 22.3066 16.417 25.498 16.417C28.6895 16.417 31.7534 17.6701 34.0302 19.9065C36.307 22.1429 37.6147 25.1838 37.6719 28.3747C37.6719 28.5819 37.7542 28.7807 37.9007 28.9272C38.0472 29.0737 38.2459 29.156 38.4531 29.156C38.6603 29.156 38.859 29.0737 39.0056 28.9272C39.1521 28.7807 39.2344 28.5819 39.2344 28.3747C39.238 24.945 37.9525 21.6392 35.6328 19.113C36.8564 18.1738 38.3183 17.5956 39.8532 17.4436C41.3882 17.2917 42.9351 17.572 44.3191 18.253C45.7031 18.9341 46.869 19.9886 47.6852 21.2975C48.5013 22.6064 48.9351 24.1174 48.9375 25.6599C48.9375 25.8671 49.0198 26.0658 49.1663 26.2123C49.3128 26.3588 49.5116 26.4411 49.7188 26.4411C49.9259 26.4411 50.1247 26.3588 50.2712 26.2123C50.4177 26.0658 50.5 25.8671 50.5 25.6599C50.4946 23.6262 49.8598 21.6441 48.6826 19.9858C47.5055 18.3274 45.8438 17.0742 43.9258 16.3982ZM6.10156 11.5974C6.10388 10.7612 6.35396 9.94443 6.82022 9.25028C7.28647 8.55612 7.94799 8.01572 8.7212 7.69732C9.49442 7.37892 10.3447 7.29681 11.1645 7.46137C11.9844 7.62592 12.7371 8.02976 13.3275 8.62186C13.918 9.21397 14.3198 9.96778 14.482 10.7881C14.6443 11.6084 14.5599 12.4584 14.2393 13.2307C13.9188 14.0031 13.3766 14.6631 12.6811 15.1274C11.9857 15.5918 11.1682 15.8396 10.332 15.8396C9.77564 15.8391 9.2248 15.7289 8.711 15.5154C8.1972 15.3019 7.73052 14.9892 7.33764 14.5952C6.94475 14.2012 6.63336 13.7337 6.42127 13.2193C6.20917 12.7049 6.10054 12.1538 6.10156 11.5974ZM19.1094 8.23021C19.1125 6.96693 19.4899 5.73291 20.194 4.68404C20.8981 3.63516 21.8972 2.81849 23.0652 2.33719C24.2332 1.8559 25.5177 1.73157 26.7563 1.97992C27.9949 2.22826 29.1322 2.83814 30.0243 3.7325C30.9165 4.62687 31.5236 5.76559 31.769 7.00482C32.0143 8.24405 31.8868 9.52819 31.4027 10.695C30.9185 11.8618 30.0994 12.859 29.0488 13.5605C27.9982 14.262 26.7633 14.6365 25.5 14.6365C23.8057 14.6344 22.1815 13.9604 20.9834 12.7624C19.7854 11.5644 19.1114 9.9401 19.1094 8.24583V8.23021ZM36.4375 11.5974C36.4375 10.7607 36.6856 9.94277 37.1505 9.24707C37.6153 8.55138 38.276 8.00915 39.049 7.68895C39.8221 7.36876 40.6727 7.28498 41.4933 7.44822C42.3139 7.61145 43.0677 8.01436 43.6594 8.606C44.251 9.19765 44.6539 9.95144 44.8172 10.7721C44.9804 11.5927 44.8966 12.4433 44.5764 13.2163C44.2562 13.9893 43.714 14.6501 43.0183 15.1149C42.3226 15.5798 41.5047 15.8279 40.668 15.8279C39.5463 15.8268 38.4709 15.3808 37.6777 14.5876C36.8846 13.7945 36.4385 12.7191 36.4375 11.5974Z" fill="#A8D5BA"/>
</svg>
